<?xml version="1.0" encoding="iso-8859-1"?>
<!-- Generator: Adobe Illustrator 18.0.0, SVG Export Plug-In . SVG Version: 6.00 Build 0)  -->
<!DOCTYPE svg PUBLIC "-//W3C//DTD SVG 1.1//EN" "http://www.w3.org/Graphics/SVG/1.1/DTD/svg11.dtd">
<svg version="1.1" id="Capa_1" xmlns="http://www.w3.org/2000/svg" xmlns:xlink="http://www.w3.org/1999/xlink" x="0px" y="0px"
	 viewBox="0 0 58 58" style="enable-background:new 0 0 58 58;" xml:space="preserve">
<g>
	<g>
		<path style="fill:#545E73;" d="M51.033,58H2.697c-1.012,0-1.832-0.82-1.832-1.832V1.832C0.865,0.82,1.686,0,2.697,0h48.335
			c1.012,0,1.832,0.82,1.832,1.832v54.335C52.865,57.18,52.045,58,51.033,58z"/>
		<path style="fill:#ECF0F1;" d="M32.36,17H21.37c-1.933,0-3.505-1.572-3.505-3.505V12c0-0.553,0.447-1,1-1s1,0.447,1,1v1.495
			c0,0.83,0.675,1.505,1.505,1.505h10.99c0.83,0,1.505-0.675,1.505-1.505V12c0-0.553,0.447-1,1-1s1,0.447,1,1v1.495
			C35.865,15.428,34.293,17,32.36,17z"/>
		<path style="fill:#ECF0F1;" d="M32.36,46H21.37c-1.933,0-3.505-1.572-3.505-3.505V41c0-0.553,0.447-1,1-1s1,0.447,1,1v1.495
			c0,0.83,0.675,1.505,1.505,1.505h10.99c0.83,0,1.505-0.675,1.505-1.505V41c0-0.553,0.447-1,1-1s1,0.447,1,1v1.495
			C35.865,44.428,34.293,46,32.36,46z"/>
		<rect x="0.865" y="28" style="fill:#394050;" width="52" height="2"/>
	</g>
	<g>
		<polygon style="fill:#EDDCC7;" points="35.701,48.489 35.694,48.496 33.705,55.786 38.352,51.139 		"/>
		<path style="fill:#D75A4A;" d="M54.951,34.54l-1.247-1.247c-0.775-0.775-2.032-0.775-2.807,0l-3.582,3.582l2.651,2.651
			L54.951,34.54z"/>
		
			<rect x="40.959" y="35.795" transform="matrix(0.7071 0.7071 -0.7071 0.7071 43.6635 -17.3984)" style="fill:#F29C21;" width="3.749" height="16.424"/>
		<polygon style="fill:#D6C4B1;" points="41.35,54.153 41.358,54.145 38.352,51.139 33.705,55.786 33.572,56.274 		"/>
		<path style="fill:#A34740;" d="M52.972,42.532l3.582-3.582c0.775-0.775,0.775-2.032,0-2.807l-1.602-1.602l-4.985,4.985
			L52.972,42.532z"/>
		
			<rect x="43.536" y="38.623" transform="matrix(-0.7071 -0.7071 0.7071 -0.7071 44.8313 112.2409)" style="fill:#E18C25;" width="4.251" height="16.424"/>
		<path style="fill:#5E5E5E;" d="M32.865,57.981c-0.256,0-0.512-0.098-0.707-0.293c-0.391-0.391-0.391-1.023,0-1.414l2.207-2.207
			c0.391-0.391,1.023-0.391,1.414,0s0.391,1.023,0,1.414l-2.207,2.207C33.377,57.884,33.121,57.981,32.865,57.981z"/>
	</g>
</g>
<g>
</g>
<g>
</g>
<g>
</g>
<g>
</g>
<g>
</g>
<g>
</g>
<g>
</g>
<g>
</g>
<g>
</g>
<g>
</g>
<g>
</g>
<g>
</g>
<g>
</g>
<g>
</g>
<g>
</g>
</svg>
