<?xml version="1.0" encoding="iso-8859-1"?>
<!-- Generator: Adobe Illustrator 18.0.0, SVG Export Plug-In . SVG Version: 6.00 Build 0)  -->
<!DOCTYPE svg PUBLIC "-//W3C//DTD SVG 1.1//EN" "http://www.w3.org/Graphics/SVG/1.1/DTD/svg11.dtd">
<svg version="1.1" id="Capa_1" xmlns="http://www.w3.org/2000/svg" xmlns:xlink="http://www.w3.org/1999/xlink" x="0px" y="0px"
	 viewBox="0 0 58 58" style="enable-background:new 0 0 58 58;" xml:space="preserve">
<g>
	<g>
		<path style="fill:#545E73;" d="M51.168,58H2.832C1.82,58,1,57.18,1,56.168V1.832C1,0.82,1.82,0,2.832,0h48.335
			C52.18,0,53,0.82,53,1.832v54.335C53,57.18,52.18,58,51.168,58z"/>
		<path style="fill:#ECF0F1;" d="M32.495,17h-10.99C19.572,17,18,15.428,18,13.495V12c0-0.553,0.447-1,1-1s1,0.447,1,1v1.495
			C20,14.325,20.675,15,21.505,15h10.99C33.325,15,34,14.325,34,13.495V12c0-0.553,0.447-1,1-1s1,0.447,1,1v1.495
			C36,15.428,34.428,17,32.495,17z"/>
		<path style="fill:#ECF0F1;" d="M32.495,46h-10.99C19.572,46,18,44.428,18,42.495V41c0-0.553,0.447-1,1-1s1,0.447,1,1v1.495
			C20,43.325,20.675,44,21.505,44h10.99C33.325,44,34,43.325,34,42.495V41c0-0.553,0.447-1,1-1s1,0.447,1,1v1.495
			C36,44.428,34.428,46,32.495,46z"/>
		<rect x="1" y="28" style="fill:#394050;" width="52" height="2"/>
	</g>
	<g>
		<circle style="fill:#B1D3EF;" cx="44.5" cy="45.5" r="12.5"/>
		<g>
			<path style="fill:#556080;" d="M54.193,46.019c-0.55-0.113-1.068,0.246-1.175,0.788C52.198,50.975,48.616,54,44.5,54
				c-3.351,0-6.347-2.006-7.789-5H42v-2h-6h-1h-1v8h2v-3.341C37.976,54.315,41.085,56,44.5,56c5.068,0,9.477-3.704,10.481-8.807
				C55.087,46.651,54.735,46.125,54.193,46.019z"/>
			<path style="fill:#556080;" d="M53,35.998v3.341c-1.976-2.657-5.086-4.341-8.5-4.341c-5.068,0-9.477,3.704-10.481,8.807
				c-0.106,0.542,0.246,1.068,0.788,1.174c0.55,0.113,1.068-0.246,1.175-0.788c0.82-4.168,4.402-7.193,8.519-7.193
				c3.351,0,6.347,2.006,7.789,5H47v2h6h1h1v-8H53z"/>
		</g>
	</g>
</g>
<g>
</g>
<g>
</g>
<g>
</g>
<g>
</g>
<g>
</g>
<g>
</g>
<g>
</g>
<g>
</g>
<g>
</g>
<g>
</g>
<g>
</g>
<g>
</g>
<g>
</g>
<g>
</g>
<g>
</g>
</svg>
