<?xml version="1.0" encoding="iso-8859-1"?>
<!-- Generator: Adobe Illustrator 18.0.0, SVG Export Plug-In . SVG Version: 6.00 Build 0)  -->
<!DOCTYPE svg PUBLIC "-//W3C//DTD SVG 1.1//EN" "http://www.w3.org/Graphics/SVG/1.1/DTD/svg11.dtd">
<svg version="1.1" id="Capa_1" xmlns="http://www.w3.org/2000/svg" xmlns:xlink="http://www.w3.org/1999/xlink" x="0px" y="0px"
	 viewBox="0 0 58 58" style="enable-background:new 0 0 58 58;" xml:space="preserve">
<g>
	<g>
		<path style="fill:#545E73;" d="M50.668,58H2.332C1.32,58,0.5,57.18,0.5,56.168V1.832C0.5,0.82,1.32,0,2.332,0h48.335
			C51.68,0,52.5,0.82,52.5,1.832v54.335C52.5,57.18,51.68,58,50.668,58z"/>
		<path style="fill:#ECF0F1;" d="M31.995,17h-10.99c-1.933,0-3.505-1.572-3.505-3.505V12c0-0.553,0.447-1,1-1s1,0.447,1,1v1.495
			c0,0.83,0.675,1.505,1.505,1.505h10.99c0.83,0,1.505-0.675,1.505-1.505V12c0-0.553,0.447-1,1-1s1,0.447,1,1v1.495
			C35.5,15.428,33.928,17,31.995,17z"/>
		<path style="fill:#ECF0F1;" d="M31.995,46h-10.99c-1.933,0-3.505-1.572-3.505-3.505V41c0-0.553,0.447-1,1-1s1,0.447,1,1v1.495
			c0,0.83,0.675,1.505,1.505,1.505h10.99c0.83,0,1.505-0.675,1.505-1.505V41c0-0.553,0.447-1,1-1s1,0.447,1,1v1.495
			C35.5,44.428,33.928,46,31.995,46z"/>
		<rect x="0.5" y="28" style="fill:#394050;" width="52" height="2"/>
	</g>
	<g>
		<circle style="fill:#26B999;" cx="45.5" cy="46" r="12"/>
		<path style="fill:#FFFFFF;" d="M52.071,40.179c-0.455-0.316-1.077-0.204-1.392,0.25l-5.596,8.04l-3.949-3.242
			c-0.426-0.351-1.057-0.288-1.407,0.139c-0.351,0.427-0.289,1.057,0.139,1.407l4.786,3.929c0.18,0.147,0.404,0.227,0.634,0.227
			c0.045,0,0.091-0.003,0.137-0.009c0.276-0.039,0.524-0.19,0.684-0.419l6.214-8.929C52.636,41.118,52.524,40.495,52.071,40.179z"/>
	</g>
</g>
<g>
</g>
<g>
</g>
<g>
</g>
<g>
</g>
<g>
</g>
<g>
</g>
<g>
</g>
<g>
</g>
<g>
</g>
<g>
</g>
<g>
</g>
<g>
</g>
<g>
</g>
<g>
</g>
<g>
</g>
</svg>
