<?xml version="1.0" encoding="iso-8859-1"?>
<!-- Generator: Adobe Illustrator 18.0.0, SVG Export Plug-In . SVG Version: 6.00 Build 0)  -->
<!DOCTYPE svg PUBLIC "-//W3C//DTD SVG 1.1//EN" "http://www.w3.org/Graphics/SVG/1.1/DTD/svg11.dtd">
<svg version="1.1" id="Capa_1" xmlns="http://www.w3.org/2000/svg" xmlns:xlink="http://www.w3.org/1999/xlink" x="0px" y="0px"
	 viewBox="0 0 58 58" style="enable-background:new 0 0 58 58;" xml:space="preserve">
<g>
	<g>
		<path style="fill:#545E73;" d="M51.168,58H2.832C1.82,58,1,57.18,1,56.168V1.832C1,0.82,1.82,0,2.832,0h48.335
			C52.18,0,53,0.82,53,1.832v54.335C53,57.18,52.18,58,51.168,58z"/>
		<path style="fill:#ECF0F1;" d="M32.495,17h-10.99C19.572,17,18,15.428,18,13.495V12c0-0.553,0.447-1,1-1s1,0.447,1,1v1.495
			C20,14.325,20.675,15,21.505,15h10.99C33.325,15,34,14.325,34,13.495V12c0-0.553,0.447-1,1-1s1,0.447,1,1v1.495
			C36,15.428,34.428,17,32.495,17z"/>
		<path style="fill:#ECF0F1;" d="M32.495,46h-10.99C19.572,46,18,44.428,18,42.495V41c0-0.553,0.447-1,1-1s1,0.447,1,1v1.495
			C20,43.325,20.675,44,21.505,44h10.99C33.325,44,34,43.325,34,42.495V41c0-0.553,0.447-1,1-1s1,0.447,1,1v1.495
			C36,44.428,34.428,46,32.495,46z"/>
		<rect x="1" y="28" style="fill:#394050;" width="52" height="2"/>
	</g>
	<g>
		<path style="fill:#ED7161;" d="M45,41.2c0.969-2.183,3.109-4.2,5.684-4.2c3.467,0,5.964,2.821,6.278,6.183
			c0,0,0.17,0.835-0.203,2.337c-0.508,2.046-1.701,3.864-3.311,5.251L45,58l-8.447-7.229c-1.61-1.387-2.803-3.205-3.311-5.251
			c-0.373-1.502-0.203-2.337-0.203-2.337C33.352,39.821,35.849,37,39.316,37C41.891,37,44.031,39.017,45,41.2z"/>
	</g>
</g>
<g>
</g>
<g>
</g>
<g>
</g>
<g>
</g>
<g>
</g>
<g>
</g>
<g>
</g>
<g>
</g>
<g>
</g>
<g>
</g>
<g>
</g>
<g>
</g>
<g>
</g>
<g>
</g>
<g>
</g>
</svg>
