<?xml version="1.0" encoding="iso-8859-1"?>
<!-- Generator: Adobe Illustrator 18.0.0, SVG Export Plug-In . SVG Version: 6.00 Build 0)  -->
<!DOCTYPE svg PUBLIC "-//W3C//DTD SVG 1.1//EN" "http://www.w3.org/Graphics/SVG/1.1/DTD/svg11.dtd">
<svg version="1.1" id="Capa_1" xmlns="http://www.w3.org/2000/svg" xmlns:xlink="http://www.w3.org/1999/xlink" x="0px" y="0px"
	 viewBox="0 0 59 59" style="enable-background:new 0 0 59 59;" xml:space="preserve">
<g>
	<g>
		<path style="fill:#545E73;" d="M50.668,58H2.332C1.32,58,0.5,57.18,0.5,56.168V1.832C0.5,0.82,1.32,0,2.332,0h48.335
			C51.68,0,52.5,0.82,52.5,1.832v54.335C52.5,57.18,51.68,58,50.668,58z"/>
		<path style="fill:#ECF0F1;" d="M31.995,17h-10.99c-1.933,0-3.505-1.572-3.505-3.505V12c0-0.553,0.447-1,1-1s1,0.447,1,1v1.495
			c0,0.83,0.675,1.505,1.505,1.505h10.99c0.83,0,1.505-0.675,1.505-1.505V12c0-0.553,0.447-1,1-1s1,0.447,1,1v1.495
			C35.5,15.428,33.928,17,31.995,17z"/>
		<path style="fill:#ECF0F1;" d="M31.995,46h-10.99c-1.933,0-3.505-1.572-3.505-3.505V41c0-0.553,0.447-1,1-1s1,0.447,1,1v1.495
			c0,0.83,0.675,1.505,1.505,1.505h10.99c0.83,0,1.505-0.675,1.505-1.505V41c0-0.553,0.447-1,1-1s1,0.447,1,1v1.495
			C35.5,44.428,33.928,46,31.995,46z"/>
		<rect x="0.5" y="28" style="fill:#394050;" width="52" height="2"/>
	</g>
	<g>
		<path style="fill:#FFFFFF;" d="M57.305,49.679l-0.107,0.163c-7.121,10.876-18.773,10.876-25.893,0l0,0l0.107-0.163
			C38.533,38.803,50.185,38.803,57.305,49.679L57.305,49.679z"/>
		<circle style="fill:#556080;" cx="44.069" cy="47.397" r="5.909"/>
		<path style="fill:#B1D3EF;" d="M44.252,59c-5.254,0-10.148-3.058-13.783-8.609l-0.358-0.547l0.465-0.711
			c3.635-5.552,8.53-8.609,13.784-8.609c5.253,0,10.148,3.057,13.783,8.609l0.358,0.547l-0.465,0.711
			C54.4,55.942,49.505,59,44.252,59z M32.508,49.839C35.714,54.463,39.865,57,44.252,57c4.436,0,8.63-2.594,11.85-7.317
			c-3.206-4.624-7.356-7.161-11.743-7.161C39.922,42.522,35.729,45.116,32.508,49.839z"/>
	</g>
</g>
<g>
</g>
<g>
</g>
<g>
</g>
<g>
</g>
<g>
</g>
<g>
</g>
<g>
</g>
<g>
</g>
<g>
</g>
<g>
</g>
<g>
</g>
<g>
</g>
<g>
</g>
<g>
</g>
<g>
</g>
</svg>
