<?xml version="1.0" encoding="iso-8859-1"?>
<!-- Generator: Adobe Illustrator 18.0.0, SVG Export Plug-In . SVG Version: 6.00 Build 0)  -->
<!DOCTYPE svg PUBLIC "-//W3C//DTD SVG 1.1//EN" "http://www.w3.org/Graphics/SVG/1.1/DTD/svg11.dtd">
<svg version="1.1" id="Capa_1" xmlns="http://www.w3.org/2000/svg" xmlns:xlink="http://www.w3.org/1999/xlink" x="0px" y="0px"
	 viewBox="0 0 54.981 54.981" style="enable-background:new 0 0 54.981 54.981;" xml:space="preserve">
<g>
	<path style="fill:#D75A4A;" d="M21.491,0h-16v53.444c0,0.495,0.598,0.742,0.948,0.393l15.052-15.052l15.052,15.052
		c0.35,0.35,0.948,0.102,0.948-0.393V0H21.491z"/>
	<rect x="5.491" style="fill:#C03B2B;" width="32" height="11"/>
	<g>
		<path style="fill:#D0E8F9;" d="M39.491,41.981h-2l0,0c-3.633-1.453-6-4.861-6-8.64v-3.36h14v3.36
			C45.491,37.12,43.124,40.528,39.491,41.981L39.491,41.981z"/>
		<path style="fill:#D0E8F9;" d="M37.491,41.981h2l0,0c3.633,1.453,6,4.861,6,8.64v3.36h-14v-3.36
			C31.491,46.843,33.857,43.435,37.491,41.981L37.491,41.981z"/>
		<g>
			<path style="fill:#556080;" d="M28.491,30.981h1h2h17c0.553,0,1-0.448,1-1s-0.447-1-1-1h-17h-2h-1c-0.553,0-1,0.448-1,1
				S27.938,30.981,28.491,30.981z"/>
			<path style="fill:#556080;" d="M48.49,52.979h-18c-0.003,0-0.006,0.002-0.01,0.002h-1.989c-0.553,0-1,0.448-1,1s0.447,1,1,1h3
				c0.003,0,0.006-0.002,0.01-0.002H48.49c0.553,0,1-0.448,1-1S49.042,52.979,48.49,52.979z"/>
		</g>
	</g>
</g>
<g>
</g>
<g>
</g>
<g>
</g>
<g>
</g>
<g>
</g>
<g>
</g>
<g>
</g>
<g>
</g>
<g>
</g>
<g>
</g>
<g>
</g>
<g>
</g>
<g>
</g>
<g>
</g>
<g>
</g>
</svg>
