<?xml version="1.0" encoding="iso-8859-1"?>
<!-- Generator: Adobe Illustrator 18.0.0, SVG Export Plug-In . SVG Version: 6.00 Build 0)  -->
<!DOCTYPE svg PUBLIC "-//W3C//DTD SVG 1.1//EN" "http://www.w3.org/Graphics/SVG/1.1/DTD/svg11.dtd">
<svg version="1.1" id="Capa_1" xmlns="http://www.w3.org/2000/svg" xmlns:xlink="http://www.w3.org/1999/xlink" x="0px" y="0px"
	 viewBox="0 0 55 55" style="enable-background:new 0 0 55 55;" xml:space="preserve">
<g>
	<path style="fill:#D75A4A;" d="M21.5,0h-16v53.444c0,0.495,0.598,0.742,0.948,0.393L21.5,38.784l15.052,15.052
		c0.35,0.35,0.948,0.102,0.948-0.393V0H21.5z"/>
	<rect x="5.5" style="fill:#C03B2B;" width="32" height="11"/>
	<g>
		<circle style="fill:#B1D3EF;" cx="37" cy="42.5" r="12.5"/>
		<g>
			<path style="fill:#556080;" d="M46.693,43.019c-0.55-0.113-1.068,0.246-1.175,0.788C44.698,47.975,41.116,51,37,51
				c-3.351,0-6.347-2.006-7.789-5H34.5v-2h-6h-1h-1v8h2v-3.341C30.476,51.315,33.585,53,37,53c5.068,0,9.477-3.704,10.481-8.807
				C47.587,43.651,47.235,43.125,46.693,43.019z"/>
			<path style="fill:#556080;" d="M45.5,32.998v3.341c-1.976-2.657-5.086-4.341-8.5-4.341c-5.068,0-9.477,3.704-10.481,8.807
				c-0.106,0.542,0.246,1.068,0.788,1.174c0.55,0.113,1.068-0.246,1.175-0.788c0.82-4.168,4.402-7.193,8.519-7.193
				c3.351,0,6.347,2.006,7.789,5H39.5v2h6h1h1v-8H45.5z"/>
		</g>
	</g>
</g>
<g>
</g>
<g>
</g>
<g>
</g>
<g>
</g>
<g>
</g>
<g>
</g>
<g>
</g>
<g>
</g>
<g>
</g>
<g>
</g>
<g>
</g>
<g>
</g>
<g>
</g>
<g>
</g>
<g>
</g>
</svg>
