<?xml version="1.0" encoding="iso-8859-1"?>
<!-- Generator: Adobe Illustrator 18.0.0, SVG Export Plug-In . SVG Version: 6.00 Build 0)  -->
<!DOCTYPE svg PUBLIC "-//W3C//DTD SVG 1.1//EN" "http://www.w3.org/Graphics/SVG/1.1/DTD/svg11.dtd">
<svg version="1.1" id="Capa_1" xmlns="http://www.w3.org/2000/svg" xmlns:xlink="http://www.w3.org/1999/xlink" x="0px" y="0px"
	 viewBox="0 0 55 55" style="enable-background:new 0 0 55 55;" xml:space="preserve">
<g>
	<path style="fill:#D75A4A;" d="M21,0H5v53.444c0,0.495,0.598,0.742,0.948,0.393L21,38.784l15.052,15.052
		c0.35,0.35,0.948,0.102,0.948-0.393V0H21z"/>
	<rect x="5" style="fill:#C03B2B;" width="32" height="11"/>
	<g>
		<circle style="fill:#B1D3EF;" cx="37.5" cy="42.5" r="12.5"/>
		<path style="fill:#556080;" d="M37.5,32c-4.718,0-8.88,3.182-10.121,7.737c-0.146,0.533,0.169,1.083,0.702,1.228
			c0.528,0.143,1.082-0.168,1.228-0.702C30.313,36.575,33.682,34,37.5,34c4.687,0,8.5,3.813,8.5,8.5S42.187,51,37.5,51
			c-3.365,0-6.378-2.001-7.734-5H35v-2h-6h-1h-1v8h2v-3.341l0,0v-0.023C30.933,51.31,34.066,53,37.5,53C43.29,53,48,48.29,48,42.5
			S43.29,32,37.5,32z"/>
	</g>
</g>
<g>
</g>
<g>
</g>
<g>
</g>
<g>
</g>
<g>
</g>
<g>
</g>
<g>
</g>
<g>
</g>
<g>
</g>
<g>
</g>
<g>
</g>
<g>
</g>
<g>
</g>
<g>
</g>
<g>
</g>
</svg>
