<?xml version="1.0" encoding="iso-8859-1"?>
<!-- Generator: Adobe Illustrator 18.0.0, SVG Export Plug-In . SVG Version: 6.00 Build 0)  -->
<!DOCTYPE svg PUBLIC "-//W3C//DTD SVG 1.1//EN" "http://www.w3.org/Graphics/SVG/1.1/DTD/svg11.dtd">
<svg version="1.1" id="Capa_1" xmlns="http://www.w3.org/2000/svg" xmlns:xlink="http://www.w3.org/1999/xlink" x="0px" y="0px"
	 viewBox="0 0 54.981 54.981" style="enable-background:new 0 0 54.981 54.981;" xml:space="preserve">
<g>
	<path style="fill:#D75A4A;" d="M21.356,0h-16v53.444c0,0.495,0.598,0.742,0.948,0.393l15.052-15.052l15.052,15.052
		c0.35,0.35,0.948,0.102,0.948-0.393V0H21.356z"/>
	<rect x="5.356" style="fill:#C03B2B;" width="32" height="11"/>
	<g>
		<polygon style="fill:#EDDCC7;" points="28.192,45.489 28.184,45.496 26.196,52.786 30.843,48.139 		"/>
		<path style="fill:#D75A4A;" d="M47.442,31.54l-1.247-1.247c-0.775-0.775-2.032-0.775-2.807,0l-3.582,3.582l2.651,2.651
			L47.442,31.54z"/>
		
			<rect x="33.45" y="32.795" transform="matrix(0.7071 0.7071 -0.7071 0.7071 39.3426 -12.9673)" style="fill:#F29C21;" width="3.749" height="16.424"/>
		<polygon style="fill:#D6C4B1;" points="33.841,51.153 33.849,51.145 30.843,48.139 26.196,52.786 26.063,53.274 		"/>
		<path style="fill:#A34740;" d="M45.462,39.532l3.582-3.582c0.775-0.775,0.775-2.032,0-2.807l-1.602-1.602l-4.985,4.985
			L45.462,39.532z"/>
		
			<rect x="36.027" y="35.623" transform="matrix(-0.7071 -0.7071 0.7071 -0.7071 34.1336 101.8097)" style="fill:#E18C25;" width="4.251" height="16.424"/>
		<path style="fill:#5E5E5E;" d="M25.356,54.981c-0.256,0-0.512-0.098-0.707-0.293c-0.391-0.391-0.391-1.023,0-1.414l2.207-2.207
			c0.391-0.391,1.023-0.391,1.414,0s0.391,1.023,0,1.414l-2.207,2.207C25.868,54.884,25.612,54.981,25.356,54.981z"/>
	</g>
</g>
<g>
</g>
<g>
</g>
<g>
</g>
<g>
</g>
<g>
</g>
<g>
</g>
<g>
</g>
<g>
</g>
<g>
</g>
<g>
</g>
<g>
</g>
<g>
</g>
<g>
</g>
<g>
</g>
<g>
</g>
</svg>
