<?xml version="1.0" encoding="iso-8859-1"?>
<!-- Generator: Adobe Illustrator 18.0.0, SVG Export Plug-In . SVG Version: 6.00 Build 0)  -->
<!DOCTYPE svg PUBLIC "-//W3C//DTD SVG 1.1//EN" "http://www.w3.org/Graphics/SVG/1.1/DTD/svg11.dtd">
<svg version="1.1" id="Capa_1" xmlns="http://www.w3.org/2000/svg" xmlns:xlink="http://www.w3.org/1999/xlink" x="0px" y="0px"
	 viewBox="0 0 54.981 54.981" style="enable-background:new 0 0 54.981 54.981;" xml:space="preserve">
<g>
	<path style="fill:#D75A4A;" d="M20.991,0h-16v53.444c0,0.495,0.598,0.742,0.948,0.393l15.052-15.052l15.052,15.052
		c0.35,0.35,0.948,0.102,0.948-0.393V0H20.991z"/>
	<rect x="4.991" style="fill:#C03B2B;" width="32" height="11"/>
	<g>
		<circle style="fill:#D0E8F9;" cx="35.768" cy="39.796" r="9.796"/>
		<path style="fill:#EAF6FD;" d="M39.321,30.674L26.647,43.348c0.706,1.81,1.93,3.357,3.495,4.459L43.78,34.17
			C42.678,32.604,41.131,31.38,39.321,30.674z"/>
		<path style="fill:#B1D3EF;" d="M49.713,53.291l-5.97-6.244c1.746-1.919,2.82-4.458,2.82-7.251C46.564,33.843,41.721,29,35.768,29
			s-10.796,4.843-10.796,10.796s4.843,10.796,10.796,10.796c2.442,0,4.689-0.824,6.499-2.196l6.001,6.276
			c0.196,0.206,0.459,0.309,0.723,0.309c0.249,0,0.497-0.092,0.691-0.277C50.081,54.323,50.095,53.689,49.713,53.291z
			 M26.972,39.796c0-4.85,3.946-8.796,8.796-8.796s8.796,3.946,8.796,8.796s-3.946,8.796-8.796,8.796S26.972,44.646,26.972,39.796z"
			/>
	</g>
</g>
<g>
</g>
<g>
</g>
<g>
</g>
<g>
</g>
<g>
</g>
<g>
</g>
<g>
</g>
<g>
</g>
<g>
</g>
<g>
</g>
<g>
</g>
<g>
</g>
<g>
</g>
<g>
</g>
<g>
</g>
</svg>
