<?xml version="1.0" encoding="iso-8859-1"?>
<!-- Generator: Adobe Illustrator 18.0.0, SVG Export Plug-In . SVG Version: 6.00 Build 0)  -->
<!DOCTYPE svg PUBLIC "-//W3C//DTD SVG 1.1//EN" "http://www.w3.org/Graphics/SVG/1.1/DTD/svg11.dtd">
<svg version="1.1" id="Capa_1" xmlns="http://www.w3.org/2000/svg" xmlns:xlink="http://www.w3.org/1999/xlink" x="0px" y="0px"
	 viewBox="0 0 54.478 54.478" style="enable-background:new 0 0 54.478 54.478;" xml:space="preserve">
<g>
	<path style="fill:#D75A4A;" d="M21.044,0h-16v53.444c0,0.495,0.598,0.742,0.948,0.393l15.052-15.052l15.052,15.052
		c0.35,0.35,0.948,0.102,0.948-0.393V0H21.044z"/>
	<rect x="5.044" style="fill:#C03B2B;" width="32" height="11"/>
	<g>
		<path style="fill:#FFFFFF;" d="M48.239,45.157l-0.107,0.163c-7.121,10.876-18.773,10.876-25.893,0l0,0l0.107-0.163
			C29.466,34.281,41.118,34.281,48.239,45.157L48.239,45.157z"/>
		<circle style="fill:#556080;" cx="35.002" cy="42.875" r="5.909"/>
		<path style="fill:#B1D3EF;" d="M35.186,54.478c-5.254,0-10.148-3.058-13.783-8.609l-0.358-0.547l0.465-0.711
			C25.144,39.057,30.039,36,35.292,36c5.253,0,10.148,3.057,13.783,8.609l0.358,0.547l-0.465,0.711
			C45.333,51.42,40.439,54.478,35.186,54.478z M23.442,45.316c3.206,4.624,7.356,7.161,11.744,7.161c4.436,0,8.63-2.594,11.85-7.317
			C43.83,40.537,39.679,38,35.292,38C30.856,38,26.662,40.594,23.442,45.316z"/>
	</g>
</g>
<g>
</g>
<g>
</g>
<g>
</g>
<g>
</g>
<g>
</g>
<g>
</g>
<g>
</g>
<g>
</g>
<g>
</g>
<g>
</g>
<g>
</g>
<g>
</g>
<g>
</g>
<g>
</g>
<g>
</g>
</svg>
