<?xml version="1.0" encoding="iso-8859-1"?>
<!-- Generator: Adobe Illustrator 18.0.0, SVG Export Plug-In . SVG Version: 6.00 Build 0)  -->
<!DOCTYPE svg PUBLIC "-//W3C//DTD SVG 1.1//EN" "http://www.w3.org/Graphics/SVG/1.1/DTD/svg11.dtd">
<svg version="1.1" id="Capa_1" xmlns="http://www.w3.org/2000/svg" xmlns:xlink="http://www.w3.org/1999/xlink" x="0px" y="0px"
	 viewBox="0 0 55 55" style="enable-background:new 0 0 55 55;" xml:space="preserve">
<g>
	<path style="fill:#D75A4A;" d="M21,0H5v53.444c0,0.495,0.598,0.742,0.948,0.393L21,38.784l15.052,15.052
		c0.35,0.35,0.948,0.102,0.948-0.393V0H21z"/>
	<rect x="5" style="fill:#C03B2B;" width="32" height="11"/>
	<g>
		<rect x="30" y="39" style="fill:#B1D3EF;" width="20" height="16"/>
		<path style="fill:#556080;" d="M43,46c0-1.657-1.343-3-3-3s-3,1.343-3,3c0,1.317,0.854,2.424,2.035,2.827
			C39.024,48.885,39,48.939,39,49v2c0,0.552,0.448,1,1,1s1-0.448,1-1v-2c0-0.061-0.024-0.115-0.035-0.173
			C42.146,48.424,43,47.317,43,46z"/>
		<path style="fill:#BDC3C7;" d="M35,37c0-2.757,2.243-5,5-5s5,2.243,5,5v2h2v-2c0-3.86-3.14-7-7-7s-7,3.14-7,7v2h2V37z"/>
	</g>
</g>
<g>
</g>
<g>
</g>
<g>
</g>
<g>
</g>
<g>
</g>
<g>
</g>
<g>
</g>
<g>
</g>
<g>
</g>
<g>
</g>
<g>
</g>
<g>
</g>
<g>
</g>
<g>
</g>
<g>
</g>
</svg>
