<?xml version="1.0" encoding="iso-8859-1"?>
<!-- Generator: Adobe Illustrator 18.0.0, SVG Export Plug-In . SVG Version: 6.00 Build 0)  -->
<!DOCTYPE svg PUBLIC "-//W3C//DTD SVG 1.1//EN" "http://www.w3.org/Graphics/SVG/1.1/DTD/svg11.dtd">
<svg version="1.1" id="Capa_1" xmlns="http://www.w3.org/2000/svg" xmlns:xlink="http://www.w3.org/1999/xlink" x="0px" y="0px"
	 viewBox="0 0 58 58" style="enable-background:new 0 0 58 58;" xml:space="preserve">
<g>
	<g>
		<rect y="16" style="fill:#ECF0F1;" width="50" height="35"/>
		<rect y="2" style="fill:#546A79;" width="50" height="14"/>
		<circle style="fill:#ED7161;" cx="7" cy="9" r="3"/>
		<circle style="fill:#EFC41A;" cx="16" cy="9" r="3"/>
		<circle style="fill:#4FBA6E;" cx="25" cy="9" r="3"/>
	</g>
	<g>
		<circle style="fill:#B1D3EF;" cx="45.5" cy="43.5" r="12.5"/>
		<g>
			<path style="fill:#556080;" d="M55.193,44.019c-0.55-0.113-1.068,0.246-1.175,0.788C53.198,48.975,49.616,52,45.5,52
				c-3.351,0-6.347-2.006-7.789-5H43v-2h-6h-1h-1v8h2v-3.341C38.976,52.315,42.085,54,45.5,54c5.068,0,9.477-3.704,10.481-8.807
				C56.087,44.651,55.735,44.125,55.193,44.019z"/>
			<path style="fill:#556080;" d="M54,33.998v3.341c-1.976-2.657-5.086-4.341-8.5-4.341c-5.068,0-9.477,3.704-10.481,8.807
				c-0.106,0.542,0.246,1.068,0.788,1.174c0.55,0.113,1.068-0.246,1.175-0.788c0.82-4.168,4.402-7.193,8.519-7.193
				c3.351,0,6.347,2.006,7.789,5H48v2h6h1h1v-8H54z"/>
		</g>
	</g>
</g>
<g>
</g>
<g>
</g>
<g>
</g>
<g>
</g>
<g>
</g>
<g>
</g>
<g>
</g>
<g>
</g>
<g>
</g>
<g>
</g>
<g>
</g>
<g>
</g>
<g>
</g>
<g>
</g>
<g>
</g>
</svg>
