<?xml version="1.0" encoding="iso-8859-1"?>
<!-- Generator: Adobe Illustrator 18.0.0, SVG Export Plug-In . SVG Version: 6.00 Build 0)  -->
<!DOCTYPE svg PUBLIC "-//W3C//DTD SVG 1.1//EN" "http://www.w3.org/Graphics/SVG/1.1/DTD/svg11.dtd">
<svg version="1.1" id="Capa_1" xmlns="http://www.w3.org/2000/svg" xmlns:xlink="http://www.w3.org/1999/xlink" x="0px" y="0px"
	 viewBox="0 0 58 58" style="enable-background:new 0 0 58 58;" xml:space="preserve">
<g>
	<g>
		<rect y="16" style="fill:#ECF0F1;" width="50" height="35"/>
		<rect y="2" style="fill:#546A79;" width="50" height="14"/>
		<circle style="fill:#ED7161;" cx="7" cy="9" r="3"/>
		<circle style="fill:#EFC41A;" cx="16" cy="9" r="3"/>
		<circle style="fill:#4FBA6E;" cx="25" cy="9" r="3"/>
	</g>
	<g>
		<circle style="fill:#B1D3EF;" cx="45.5" cy="43.5" r="12.5"/>
		<path style="fill:#556080;" d="M45.5,33c-4.718,0-8.88,3.182-10.121,7.737c-0.146,0.533,0.169,1.083,0.702,1.228
			c0.528,0.143,1.082-0.168,1.228-0.702C38.313,37.575,41.682,35,45.5,35c4.687,0,8.5,3.813,8.5,8.5S50.187,52,45.5,52
			c-3.365,0-6.378-2.001-7.734-5H43v-2h-6h-1h-1v8h2v-3.341l0,0v-0.023C38.933,52.31,42.066,54,45.5,54C51.29,54,56,49.29,56,43.5
			S51.29,33,45.5,33z"/>
	</g>
</g>
<g>
</g>
<g>
</g>
<g>
</g>
<g>
</g>
<g>
</g>
<g>
</g>
<g>
</g>
<g>
</g>
<g>
</g>
<g>
</g>
<g>
</g>
<g>
</g>
<g>
</g>
<g>
</g>
<g>
</g>
</svg>
