<?xml version="1.0" encoding="iso-8859-1"?>
<!-- Generator: Adobe Illustrator 18.0.0, SVG Export Plug-In . SVG Version: 6.00 Build 0)  -->
<!DOCTYPE svg PUBLIC "-//W3C//DTD SVG 1.1//EN" "http://www.w3.org/Graphics/SVG/1.1/DTD/svg11.dtd">
<svg version="1.1" id="Capa_1" xmlns="http://www.w3.org/2000/svg" xmlns:xlink="http://www.w3.org/1999/xlink" x="0px" y="0px"
	 viewBox="0 0 58 58" style="enable-background:new 0 0 58 58;" xml:space="preserve">
<g>
	<g>
		<rect y="16" style="fill:#ECF0F1;" width="50" height="35"/>
		<rect y="2" style="fill:#546A79;" width="50" height="14"/>
		<circle style="fill:#ED7161;" cx="7" cy="9" r="3"/>
		<circle style="fill:#EFC41A;" cx="16" cy="9" r="3"/>
		<circle style="fill:#4FBA6E;" cx="25" cy="9" r="3"/>
	</g>
	<g>
		<path style="fill:#EFC41A;" d="M56.761,56H33.07c-0.955,0-1.55-1.036-1.069-1.861l11.845-20.306c0.478-0.819,1.66-0.819,2.138,0
			L57.83,54.139C58.311,54.964,57.716,56,56.761,56z"/>
		<path style="fill:#FFFFFF;" d="M45,49c-0.552,0-1-0.448-1-1v-8c0-0.552,0.448-1,1-1s1,0.448,1,1v8C46,48.552,45.552,49,45,49z"/>
		<path style="fill:#FFFFFF;" d="M45,53c-0.26,0-0.52-0.11-0.71-0.29C44.11,52.52,44,52.26,44,52c0-0.26,0.11-0.52,0.29-0.71
			c0.38-0.37,1.04-0.37,1.42,0C45.89,51.48,46,51.74,46,52c0,0.26-0.11,0.52-0.29,0.71C45.52,52.89,45.27,53,45,53z"/>
	</g>
</g>
<g>
</g>
<g>
</g>
<g>
</g>
<g>
</g>
<g>
</g>
<g>
</g>
<g>
</g>
<g>
</g>
<g>
</g>
<g>
</g>
<g>
</g>
<g>
</g>
<g>
</g>
<g>
</g>
<g>
</g>
</svg>
