<?xml version="1.0" encoding="iso-8859-1"?>
<!-- Generator: Adobe Illustrator 18.0.0, SVG Export Plug-In . SVG Version: 6.00 Build 0)  -->
<!DOCTYPE svg PUBLIC "-//W3C//DTD SVG 1.1//EN" "http://www.w3.org/Graphics/SVG/1.1/DTD/svg11.dtd">
<svg version="1.1" id="Capa_1" xmlns="http://www.w3.org/2000/svg" xmlns:xlink="http://www.w3.org/1999/xlink" x="0px" y="0px"
	 viewBox="0 0 58 58" style="enable-background:new 0 0 58 58;" xml:space="preserve">
<g>
	<g>
		<rect y="16" style="fill:#ECF0F1;" width="50" height="35"/>
		<rect y="2" style="fill:#546A79;" width="50" height="14"/>
		<circle style="fill:#ED7161;" cx="7" cy="9" r="3"/>
		<circle style="fill:#EFC41A;" cx="16" cy="9" r="3"/>
		<circle style="fill:#4FBA6E;" cx="25" cy="9" r="3"/>
	</g>
	<g>
		<path style="fill:#D0E8F9;" d="M48,43h-2l0,0c-3.633-1.453-6-4.861-6-8.64V31h14v3.36C54,38.139,51.633,41.547,48,43L48,43z"/>
		<path style="fill:#D0E8F9;" d="M46,43h2l0,0c3.633,1.453,6,4.861,6,8.64V55H40v-3.36C40,47.861,42.367,44.453,46,43L46,43z"/>
		<g>
			<path style="fill:#556080;" d="M37,32h1h2h17c0.553,0,1-0.448,1-1s-0.447-1-1-1H40h-2h-1c-0.553,0-1,0.448-1,1S36.447,32,37,32z"
				/>
			<path style="fill:#556080;" d="M56.999,53.998h-18c-0.003,0-0.006,0.002-0.01,0.002H37c-0.553,0-1,0.448-1,1s0.447,1,1,1h3
				c0.003,0,0.006-0.002,0.01-0.002h16.989c0.553,0,1-0.448,1-1S57.552,53.998,56.999,53.998z"/>
		</g>
	</g>
</g>
<g>
</g>
<g>
</g>
<g>
</g>
<g>
</g>
<g>
</g>
<g>
</g>
<g>
</g>
<g>
</g>
<g>
</g>
<g>
</g>
<g>
</g>
<g>
</g>
<g>
</g>
<g>
</g>
<g>
</g>
</svg>
