<?xml version="1.0" encoding="iso-8859-1"?>
<!-- Generator: Adobe Illustrator 18.0.0, SVG Export Plug-In . SVG Version: 6.00 Build 0)  -->
<!DOCTYPE svg PUBLIC "-//W3C//DTD SVG 1.1//EN" "http://www.w3.org/Graphics/SVG/1.1/DTD/svg11.dtd">
<svg version="1.1" id="Capa_1" xmlns="http://www.w3.org/2000/svg" xmlns:xlink="http://www.w3.org/1999/xlink" x="0px" y="0px"
	 viewBox="0 0 57.27 57.27" style="enable-background:new 0 0 57.27 57.27;" xml:space="preserve">
<g>
	<g>
		<rect y="15.644" style="fill:#ECF0F1;" width="50" height="35"/>
		<rect y="1.644" style="fill:#546A79;" width="50" height="14"/>
		<circle style="fill:#ED7161;" cx="7" cy="8.644" r="3"/>
		<circle style="fill:#EFC41A;" cx="16" cy="8.644" r="3"/>
		<circle style="fill:#4FBA6E;" cx="25" cy="8.644" r="3"/>
	</g>
	<g>
		<polygon style="fill:#EDDCC7;" points="35.836,46.133 35.828,46.14 33.84,53.43 38.487,48.783 		"/>
		<path style="fill:#D75A4A;" d="M55.086,32.184l-1.247-1.247c-0.775-0.775-2.032-0.775-2.807,0l-3.582,3.582L50.1,37.17
			L55.086,32.184z"/>
		
			<rect x="41.094" y="33.439" transform="matrix(0.7071 0.7071 -0.7071 0.7071 42.0369 -18.1838)" style="fill:#F29C21;" width="3.749" height="16.424"/>
		<polygon style="fill:#D6C4B1;" points="41.485,51.797 41.493,51.79 38.487,48.783 33.84,53.43 33.707,53.918 		"/>
		<path style="fill:#A34740;" d="M53.107,40.176l3.582-3.582c0.775-0.775,0.775-2.032,0-2.807l-1.602-1.602L50.1,37.17
			L53.107,40.176z"/>
		
			<rect x="43.671" y="36.267" transform="matrix(-0.7071 -0.7071 0.7071 -0.7071 46.7273 108.3144)" style="fill:#E18C25;" width="4.251" height="16.424"/>
		<path style="fill:#5E5E5E;" d="M33,55.626c-0.256,0-0.512-0.098-0.707-0.293c-0.391-0.391-0.391-1.023,0-1.414l2.207-2.207
			c0.391-0.391,1.023-0.391,1.414,0s0.391,1.023,0,1.414l-2.207,2.207C33.512,55.528,33.256,55.626,33,55.626z"/>
	</g>
</g>
<g>
</g>
<g>
</g>
<g>
</g>
<g>
</g>
<g>
</g>
<g>
</g>
<g>
</g>
<g>
</g>
<g>
</g>
<g>
</g>
<g>
</g>
<g>
</g>
<g>
</g>
<g>
</g>
<g>
</g>
</svg>
