<?xml version="1.0" encoding="iso-8859-1"?>
<!-- Generator: Adobe Illustrator 18.0.0, SVG Export Plug-In . SVG Version: 6.00 Build 0)  -->
<!DOCTYPE svg PUBLIC "-//W3C//DTD SVG 1.1//EN" "http://www.w3.org/Graphics/SVG/1.1/DTD/svg11.dtd">
<svg version="1.1" id="Capa_1" xmlns="http://www.w3.org/2000/svg" xmlns:xlink="http://www.w3.org/1999/xlink" x="0px" y="0px"
	 viewBox="0 0 57.39 57.39" style="enable-background:new 0 0 57.39 57.39;" xml:space="preserve">
<g>
	<g>
		<rect y="15.956" style="fill:#ECF0F1;" width="50" height="35"/>
		<rect y="1.956" style="fill:#546A79;" width="50" height="14"/>
		<circle style="fill:#ED7161;" cx="7" cy="8.956" r="3"/>
		<circle style="fill:#EFC41A;" cx="16" cy="8.956" r="3"/>
		<circle style="fill:#4FBA6E;" cx="25" cy="8.956" r="3"/>
	</g>
	<g>
		<path style="fill:#FFFFFF;" d="M56.195,46.113l-0.107,0.163c-7.121,10.876-18.773,10.876-25.893,0l0,0l0.107-0.163
			C37.422,35.237,49.074,35.237,56.195,46.113L56.195,46.113z"/>
		<circle style="fill:#556080;" cx="42.958" cy="43.831" r="5.909"/>
		<path style="fill:#B1D3EF;" d="M43.142,55.434c-5.254,0-10.148-3.058-13.783-8.609L29,46.277l0.465-0.711
			c3.635-5.552,8.53-8.609,13.784-8.609c5.253,0,10.148,3.057,13.783,8.609l0.358,0.547l-0.465,0.711
			C53.29,52.376,48.395,55.434,43.142,55.434z M31.398,46.272c3.206,4.624,7.356,7.161,11.744,7.161c4.436,0,8.63-2.594,11.85-7.317
			c-3.206-4.624-7.356-7.161-11.743-7.161C38.812,38.956,34.618,41.55,31.398,46.272z"/>
	</g>
</g>
<g>
</g>
<g>
</g>
<g>
</g>
<g>
</g>
<g>
</g>
<g>
</g>
<g>
</g>
<g>
</g>
<g>
</g>
<g>
</g>
<g>
</g>
<g>
</g>
<g>
</g>
<g>
</g>
<g>
</g>
</svg>
