<?xml version="1.0" encoding="iso-8859-1"?>
<!-- Generator: Adobe Illustrator 18.0.0, SVG Export Plug-In . SVG Version: 6.00 Build 0)  -->
<!DOCTYPE svg PUBLIC "-//W3C//DTD SVG 1.1//EN" "http://www.w3.org/Graphics/SVG/1.1/DTD/svg11.dtd">
<svg version="1.1" id="Capa_1" xmlns="http://www.w3.org/2000/svg" xmlns:xlink="http://www.w3.org/1999/xlink" x="0px" y="0px"
	 viewBox="0 0 58 58" style="enable-background:new 0 0 58 58;" xml:space="preserve">
<g>
	<g>
		<rect y="16.009" style="fill:#ECF0F1;" width="50" height="35"/>
		<rect y="2.009" style="fill:#546A79;" width="50" height="14"/>
		<circle style="fill:#ED7161;" cx="7" cy="9.009" r="3"/>
		<circle style="fill:#EFC41A;" cx="16" cy="9.009" r="3"/>
		<circle style="fill:#4FBA6E;" cx="25" cy="9.009" r="3"/>
	</g>
	<g>
		<circle style="fill:#D0E8F9;" cx="43.777" cy="40.805" r="9.796"/>
		<path style="fill:#EAF6FD;" d="M47.33,31.684L34.656,44.358c0.706,1.81,1.93,3.357,3.495,4.459l13.638-13.638
			C50.687,33.613,49.14,32.389,47.33,31.684z"/>
		<path style="fill:#B1D3EF;" d="M57.723,54.3l-5.97-6.244c1.746-1.919,2.82-4.458,2.82-7.251c0-5.953-4.843-10.796-10.796-10.796
			s-10.796,4.843-10.796,10.796s4.843,10.796,10.796,10.796c2.442,0,4.689-0.824,6.499-2.196l6.001,6.276
			c0.196,0.206,0.459,0.309,0.723,0.309c0.249,0,0.497-0.092,0.691-0.277C58.09,55.332,58.105,54.699,57.723,54.3z M34.982,40.805
			c0-4.85,3.946-8.796,8.796-8.796s8.796,3.946,8.796,8.796s-3.946,8.796-8.796,8.796S34.982,45.655,34.982,40.805z"/>
	</g>
</g>
<g>
</g>
<g>
</g>
<g>
</g>
<g>
</g>
<g>
</g>
<g>
</g>
<g>
</g>
<g>
</g>
<g>
</g>
<g>
</g>
<g>
</g>
<g>
</g>
<g>
</g>
<g>
</g>
<g>
</g>
</svg>
