<?xml version="1.0" encoding="iso-8859-1"?>
<!-- Generator: Adobe Illustrator 18.0.0, SVG Export Plug-In . SVG Version: 6.00 Build 0)  -->
<!DOCTYPE svg PUBLIC "-//W3C//DTD SVG 1.1//EN" "http://www.w3.org/Graphics/SVG/1.1/DTD/svg11.dtd">
<svg version="1.1" id="Capa_1" xmlns="http://www.w3.org/2000/svg" xmlns:xlink="http://www.w3.org/1999/xlink" x="0px" y="0px"
	 viewBox="0 0 58 58" style="enable-background:new 0 0 58 58;" xml:space="preserve">
<g>
	<g>
		<polygon style="fill:#F05565;" points="46.305,4 46.305,8 39.305,8 39.305,4 15.305,4 15.305,8 8.305,8 8.305,4 0.305,4 0.305,15 
			54.305,15 54.305,4 		"/>
		<polygon style="fill:#EFEBDE;" points="8.305,15 0.305,15 0.305,58 54.305,58 54.305,15 46.305,15 39.305,15 15.305,15 		"/>
		<path style="fill:#D5D0BB;" d="M37.305,22h-2h-7h-2h-7h-2h-9v9v2v7v2v9h9h2h7h2h7h2h9v-9v-2v-7v-2v-9H37.305z M28.305,24h7v7h-7
			V24z M35.305,40h-7v-7h7V40z M19.305,33h7v7h-7V33z M19.305,24h7v7h-7V24z M10.305,24h7v7h-7V24z M10.305,33h7v7h-7V33z
			 M17.305,49h-7v-7h7V49z M26.305,49h-7v-7h7V49z M35.305,49h-7v-7h7V49z M44.305,49h-7v-7h7V49z M44.305,40h-7v-7h7V40z
			 M37.305,31v-7h7v7H37.305z"/>
		<rect x="8.305" style="fill:#36495E;" width="7" height="8"/>
		<rect x="39.305" style="fill:#36495E;" width="7" height="8"/>
		<rect x="19.305" y="33" style="fill:#7F6E5D;" width="7" height="7"/>
	</g>
	<g>
		<path style="fill:#FFFFFF;" d="M56.5,48.157l-0.107,0.163c-7.121,10.876-18.773,10.876-25.893,0l0,0l0.107-0.163
			C37.727,37.281,49.379,37.281,56.5,48.157L56.5,48.157z"/>
		<circle style="fill:#556080;" cx="43.264" cy="45.875" r="5.909"/>
		<path style="fill:#B1D3EF;" d="M43.447,57.478c-5.254,0-10.148-3.058-13.783-8.609l-0.358-0.547l0.465-0.711
			C33.405,42.057,38.3,39,43.554,39c5.253,0,10.148,3.057,13.783,8.609l0.358,0.547l-0.465,0.711
			C53.595,54.42,48.7,57.478,43.447,57.478z M31.703,48.316c3.206,4.624,7.356,7.161,11.744,7.161c4.436,0,8.63-2.594,11.85-7.317
			C52.091,43.537,47.94,41,43.554,41C39.117,41,34.923,43.594,31.703,48.316z"/>
	</g>
</g>
<g>
</g>
<g>
</g>
<g>
</g>
<g>
</g>
<g>
</g>
<g>
</g>
<g>
</g>
<g>
</g>
<g>
</g>
<g>
</g>
<g>
</g>
<g>
</g>
<g>
</g>
<g>
</g>
<g>
</g>
</svg>
