<?xml version="1.0" encoding="iso-8859-1"?>
<!-- Generator: Adobe Illustrator 18.0.0, SVG Export Plug-In . SVG Version: 6.00 Build 0)  -->
<!DOCTYPE svg PUBLIC "-//W3C//DTD SVG 1.1//EN" "http://www.w3.org/Graphics/SVG/1.1/DTD/svg11.dtd">
<svg version="1.1" id="Capa_1" xmlns="http://www.w3.org/2000/svg" xmlns:xlink="http://www.w3.org/1999/xlink" x="0px" y="0px"
	 viewBox="0 0 60 60" style="enable-background:new 0 0 60 60;" xml:space="preserve">
<g>
	<g>
		<rect x="1" y="13" style="fill:#ECF0F1;" width="56" height="39"/>
		<polygon style="fill:#21AE5E;" points="42,0 16,0 1,0 1,13 57,13 57,0 		"/>
		<path style="fill:#556080;" d="M19,46c-0.552,0-1-0.447-1-1V19c0-0.553,0.448-1,1-1s1,0.447,1,1v26C20,45.553,19.552,46,19,46z"/>
		<path style="fill:#556080;" d="M13,26c-0.256,0-0.512-0.098-0.707-0.293c-0.391-0.391-0.391-1.023,0-1.414l6-6
			c0.391-0.391,1.023-0.391,1.414,0s0.391,1.023,0,1.414l-6,6C13.512,25.902,13.256,26,13,26z"/>
		<path style="fill:#556080;" d="M38,32c-3.86,0-7-3.141-7-7s3.14-7,7-7s7,3.141,7,7S41.86,32,38,32z M38,20c-2.757,0-5,2.243-5,5
			s2.243,5,5,5s5-2.243,5-5S40.757,20,38,20z"/>
		<path style="fill:#556080;" d="M38,46c-3.86,0-7-3.141-7-7c0-0.553,0.448-1,1-1s1,0.447,1,1c0,2.757,2.243,5,5,5s5-2.243,5-5V25
			c0-0.553,0.448-1,1-1s1,0.447,1,1v14C45,42.859,41.86,46,38,46z"/>
	</g>
	<g>
		<path style="fill:#556080;" d="M59,46.846l-1.444-0.278c-2.143-0.412-3.125-2.916-1.835-4.675l0.907-1.236l-1.958-1.958
			l-1.217,0.825c-1.806,1.224-4.272,0.148-4.604-2.008L48.615,36h-2.769l-0.359,1.865c-0.403,2.096-2.818,3.096-4.585,1.899
			l-1.572-1.065l-1.958,1.958l0.907,1.236c1.29,1.76,0.308,4.263-1.835,4.675L35,46.846v2.769l1.515,0.233
			c2.157,0.332,3.232,2.797,2.008,4.604l-0.825,1.217l1.958,1.958l1.236-0.907c1.76-1.29,4.263-0.308,4.675,1.835L45.846,60h2.769
			l0.164-1.066c0.339-2.204,2.896-3.263,4.694-1.944l0.869,0.638l1.958-1.958l-0.825-1.217c-1.224-1.806-0.148-4.272,2.008-4.604
			L59,49.615V46.846z"/>
		<g>
			<circle style="fill:#FFFFFF;" cx="47" cy="48" r="4"/>
			<path style="fill:#ECF0F1;" d="M47,53c-2.757,0-5-2.243-5-5s2.243-5,5-5s5,2.243,5,5S49.757,53,47,53z M47,45
				c-1.654,0-3,1.346-3,3s1.346,3,3,3s3-1.346,3-3S48.654,45,47,45z"/>
		</g>
	</g>
</g>
<g>
</g>
<g>
</g>
<g>
</g>
<g>
</g>
<g>
</g>
<g>
</g>
<g>
</g>
<g>
</g>
<g>
</g>
<g>
</g>
<g>
</g>
<g>
</g>
<g>
</g>
<g>
</g>
<g>
</g>
</svg>
