<?xml version="1.0" encoding="iso-8859-1"?>
<!-- Generator: Adobe Illustrator 18.0.0, SVG Export Plug-In . SVG Version: 6.00 Build 0)  -->
<!DOCTYPE svg PUBLIC "-//W3C//DTD SVG 1.1//EN" "http://www.w3.org/Graphics/SVG/1.1/DTD/svg11.dtd">
<svg version="1.1" id="Capa_1" xmlns="http://www.w3.org/2000/svg" xmlns:xlink="http://www.w3.org/1999/xlink" x="0px" y="0px"
	 viewBox="0 0 60 60" style="enable-background:new 0 0 60 60;" xml:space="preserve">
<g>
	<g>
		<rect x="1" y="13" style="fill:#ECF0F1;" width="56" height="39"/>
		<polygon style="fill:#21AE5E;" points="42,0 16,0 1,0 1,13 57,13 57,0 		"/>
		<path style="fill:#556080;" d="M19,46c-0.552,0-1-0.447-1-1V19c0-0.553,0.448-1,1-1s1,0.447,1,1v26C20,45.553,19.552,46,19,46z"/>
		<path style="fill:#556080;" d="M13,26c-0.256,0-0.512-0.098-0.707-0.293c-0.391-0.391-0.391-1.023,0-1.414l6-6
			c0.391-0.391,1.023-0.391,1.414,0s0.391,1.023,0,1.414l-6,6C13.512,25.902,13.256,26,13,26z"/>
		<path style="fill:#556080;" d="M38,32c-3.86,0-7-3.141-7-7s3.14-7,7-7s7,3.141,7,7S41.86,32,38,32z M38,20c-2.757,0-5,2.243-5,5
			s2.243,5,5,5s5-2.243,5-5S40.757,20,38,20z"/>
		<path style="fill:#556080;" d="M38,46c-3.86,0-7-3.141-7-7c0-0.553,0.448-1,1-1s1,0.447,1,1c0,2.757,2.243,5,5,5s5-2.243,5-5V25
			c0-0.553,0.448-1,1-1s1,0.447,1,1v14C45,42.859,41.86,46,38,46z"/>
	</g>
	<g>
		<circle style="fill:#26B999;" cx="47" cy="48" r="12"/>
		<path style="fill:#FFFFFF;" d="M53.571,42.179c-0.455-0.316-1.077-0.204-1.392,0.25l-5.596,8.04l-3.949-3.242
			c-0.426-0.351-1.057-0.288-1.407,0.139c-0.351,0.427-0.289,1.057,0.139,1.407l4.786,3.929c0.18,0.147,0.404,0.227,0.634,0.227
			c0.045,0,0.091-0.003,0.137-0.009c0.276-0.039,0.524-0.19,0.684-0.419l6.214-8.929C54.136,43.118,54.024,42.495,53.571,42.179z"/>
	</g>
</g>
<g>
</g>
<g>
</g>
<g>
</g>
<g>
</g>
<g>
</g>
<g>
</g>
<g>
</g>
<g>
</g>
<g>
</g>
<g>
</g>
<g>
</g>
<g>
</g>
<g>
</g>
<g>
</g>
<g>
</g>
</svg>
