<?xml version="1.0" encoding="iso-8859-1"?>
<!-- Generator: Adobe Illustrator 18.0.0, SVG Export Plug-In . SVG Version: 6.00 Build 0)  -->
<!DOCTYPE svg PUBLIC "-//W3C//DTD SVG 1.1//EN" "http://www.w3.org/Graphics/SVG/1.1/DTD/svg11.dtd">
<svg version="1.1" id="Capa_1" xmlns="http://www.w3.org/2000/svg" xmlns:xlink="http://www.w3.org/1999/xlink" x="0px" y="0px"
	 viewBox="0 0 60 60" style="enable-background:new 0 0 60 60;" xml:space="preserve">
<g>
	<g>
		<rect x="1" y="13" style="fill:#ECF0F1;" width="56" height="39"/>
		<polygon style="fill:#21AE5E;" points="42,0 16,0 1,0 1,13 57,13 57,0 		"/>
		<path style="fill:#556080;" d="M19,46c-0.552,0-1-0.447-1-1V19c0-0.553,0.448-1,1-1s1,0.447,1,1v26C20,45.553,19.552,46,19,46z"/>
		<path style="fill:#556080;" d="M13,26c-0.256,0-0.512-0.098-0.707-0.293c-0.391-0.391-0.391-1.023,0-1.414l6-6
			c0.391-0.391,1.023-0.391,1.414,0s0.391,1.023,0,1.414l-6,6C13.512,25.902,13.256,26,13,26z"/>
		<path style="fill:#556080;" d="M38,32c-3.86,0-7-3.141-7-7s3.14-7,7-7s7,3.141,7,7S41.86,32,38,32z M38,20c-2.757,0-5,2.243-5,5
			s2.243,5,5,5s5-2.243,5-5S40.757,20,38,20z"/>
		<path style="fill:#556080;" d="M38,46c-3.86,0-7-3.141-7-7c0-0.553,0.448-1,1-1s1,0.447,1,1c0,2.757,2.243,5,5,5s5-2.243,5-5V25
			c0-0.553,0.448-1,1-1s1,0.447,1,1v14C45,42.859,41.86,46,38,46z"/>
	</g>
	<g>
		<g>
			<path style="fill:#48A0DC;" d="M54.045,49.111C53.994,45.175,50.882,42,47.046,42c-2.568,0-4.806,1.426-6.025,3.546
				c-0.421-0.141-0.87-0.22-1.337-0.22c-2.063,0-3.785,1.492-4.208,3.484c-1.754,0.865-2.975,2.706-2.975,4.831
				c0,2.947,2.343,5.359,5.208,5.359h10.775c0.061,0,0.119-0.007,0.18-0.009c0.06,0.002,0.119,0.009,0.18,0.009h4.31
				C55.818,59,58,56.755,58,54.011C58,51.581,56.288,49.546,54.045,49.111z"/>
			<path style="fill:#B1D3EF;" d="M53.151,60h-4.31c-0.063,0-0.126-0.004-0.188-0.008C48.606,59.996,48.545,60,48.482,60H37.708
				c-3.423,0-6.208-2.853-6.208-6.358c0-2.262,1.209-4.372,3.116-5.503c0.686-2.235,2.746-3.813,5.066-3.813
				c0.296,0,0.592,0.025,0.884,0.076C42.062,42.286,44.48,41,47.046,41c4.102,0,7.524,3.225,7.954,7.332
				c2.358,0.806,4,3.079,4,5.679C59,57.313,56.376,60,53.151,60z M48.614,57.991l0.186,0.006L53.151,58
				C55.273,58,57,56.21,57,54.011c0-1.917-1.323-3.564-3.146-3.919l-0.799-0.155l-0.011-0.813C53.001,45.747,50.311,43,47.046,43
				c-2.135,0-4.063,1.139-5.158,3.045l-0.409,0.711l-0.777-0.261c-0.332-0.112-0.675-0.169-1.019-0.169
				c-1.54,0-2.898,1.133-3.229,2.692l-0.102,0.475l-0.435,0.214c-1.469,0.725-2.417,2.269-2.417,3.935
				c0,2.403,1.888,4.358,4.208,4.358L48.614,57.991z"/>
		</g>
	</g>
</g>
<g>
</g>
<g>
</g>
<g>
</g>
<g>
</g>
<g>
</g>
<g>
</g>
<g>
</g>
<g>
</g>
<g>
</g>
<g>
</g>
<g>
</g>
<g>
</g>
<g>
</g>
<g>
</g>
<g>
</g>
</svg>
