<?xml version="1.0" encoding="iso-8859-1"?>
<!-- Generator: Adobe Illustrator 18.0.0, SVG Export Plug-In . SVG Version: 6.00 Build 0)  -->
<!DOCTYPE svg PUBLIC "-//W3C//DTD SVG 1.1//EN" "http://www.w3.org/Graphics/SVG/1.1/DTD/svg11.dtd">
<svg version="1.1" id="Capa_1" xmlns="http://www.w3.org/2000/svg" xmlns:xlink="http://www.w3.org/1999/xlink" x="0px" y="0px"
	 viewBox="0 0 58 58" style="enable-background:new 0 0 58 58;" xml:space="preserve">
<g>
	<g>
		<polygon style="fill:#F05565;" points="47,4 47,8 40,8 40,4 16,4 16,8 9,8 9,4 1,4 1,15 55,15 55,4 		"/>
		<polygon style="fill:#EFEBDE;" points="9,15 1,15 1,58 55,58 55,15 47,15 40,15 16,15 		"/>
		<path style="fill:#D5D0BB;" d="M38,22h-2h-7h-2h-7h-2H9v9v2v7v2v9h9h2h7h2h7h2h9v-9v-2v-7v-2v-9H38z M29,24h7v7h-7V24z M36,40h-7
			v-7h7V40z M20,33h7v7h-7V33z M20,24h7v7h-7V24z M11,24h7v7h-7V24z M11,33h7v7h-7V33z M18,49h-7v-7h7V49z M27,49h-7v-7h7V49z
			 M36,49h-7v-7h7V49z M45,49h-7v-7h7V49z M45,40h-7v-7h7V40z M38,31v-7h7v7H38z"/>
		<rect x="9" style="fill:#36495E;" width="7" height="8"/>
		<rect x="40" style="fill:#36495E;" width="7" height="8"/>
		<rect x="20" y="33" style="fill:#7F6E5D;" width="7" height="7"/>
	</g>
	<g>
		<path style="fill:#3D324C;" d="M56.707,55.293l-6.797-6.797l6.483-3.241l-17.637-6.498l6.499,17.637l3.241-6.484l6.797,6.797
			C55.488,56.902,55.744,57,56,57s0.512-0.098,0.707-0.293C57.098,56.316,57.098,55.684,56.707,55.293z"/>
	</g>
</g>
<g>
</g>
<g>
</g>
<g>
</g>
<g>
</g>
<g>
</g>
<g>
</g>
<g>
</g>
<g>
</g>
<g>
</g>
<g>
</g>
<g>
</g>
<g>
</g>
<g>
</g>
<g>
</g>
<g>
</g>
</svg>
