<?xml version="1.0" encoding="iso-8859-1"?>
<!-- Generator: Adobe Illustrator 18.0.0, SVG Export Plug-In . SVG Version: 6.00 Build 0)  -->
<!DOCTYPE svg PUBLIC "-//W3C//DTD SVG 1.1//EN" "http://www.w3.org/Graphics/SVG/1.1/DTD/svg11.dtd">
<svg version="1.1" id="Capa_1" xmlns="http://www.w3.org/2000/svg" xmlns:xlink="http://www.w3.org/1999/xlink" x="0px" y="0px"
	 viewBox="0 0 58 58" style="enable-background:new 0 0 58 58;" xml:space="preserve">
<g>
	<polygon style="fill:#F05565;" points="46,4 46,8 39,8 39,4 15,4 15,8 8,8 8,4 0,4 0,15 54,15 54,4 	"/>
	<polygon style="fill:#EFEBDE;" points="8,15 0,15 0,58 54,58 54,15 46,15 39,15 15,15 	"/>
	<path style="fill:#D5D0BB;" d="M37,22h-2h-7h-2h-7h-2H8v9v2v7v2v9h9h2h7h2h7h2h9v-9v-2v-7v-2v-9H37z M28,24h7v7h-7V24z M35,40h-7
		v-7h7V40z M19,33h7v7h-7V33z M19,24h7v7h-7V24z M10,24h7v7h-7V24z M10,33h7v7h-7V33z M17,49h-7v-7h7V49z M26,49h-7v-7h7V49z M35,49
		h-7v-7h7V49z M44,49h-7v-7h7V49z M44,40h-7v-7h7V40z M37,31v-7h7v7H37z"/>
	<rect x="8" y="0" style="fill:#36495E;" width="7" height="8"/>
	<rect x="39" y="0" style="fill:#36495E;" width="7" height="8"/>
	<rect x="19" y="33" style="fill:#7F6E5D;" width="7" height="7"/>
	<g>
		<circle style="fill:#71C386;" cx="46" cy="45" r="12"/>
		<path style="fill:#FFFFFF;" d="M52,44h-5v-5c0-0.552-0.448-1-1-1s-1,0.448-1,1v5h-5c-0.552,0-1,0.448-1,1s0.448,1,1,1h5v5
			c0,0.552,0.448,1,1,1s1-0.448,1-1v-5h5c0.552,0,1-0.448,1-1S52.552,44,52,44z"/>
	</g>
</g>
<g>
</g>
<g>
</g>
<g>
</g>
<g>
</g>
<g>
</g>
<g>
</g>
<g>
</g>
<g>
</g>
<g>
</g>
<g>
</g>
<g>
</g>
<g>
</g>
<g>
</g>
<g>
</g>
<g>
</g>
</svg>
