<?xml version="1.0" encoding="iso-8859-1"?>
<!-- Generator: Adobe Illustrator 18.0.0, SVG Export Plug-In . SVG Version: 6.00 Build 0)  -->
<!DOCTYPE svg PUBLIC "-//W3C//DTD SVG 1.1//EN" "http://www.w3.org/Graphics/SVG/1.1/DTD/svg11.dtd">
<svg version="1.1" id="Capa_1" xmlns="http://www.w3.org/2000/svg" xmlns:xlink="http://www.w3.org/1999/xlink" x="0px" y="0px"
	 viewBox="0 0 58 58" style="enable-background:new 0 0 58 58;" xml:space="preserve">
<g>
	<g>
		<polygon style="fill:#F05565;" points="46.5,4 46.5,8 39.5,8 39.5,4 15.5,4 15.5,8 8.5,8 8.5,4 0.5,4 0.5,15 54.5,15 54.5,4 		"/>
		<polygon style="fill:#EFEBDE;" points="8.5,15 0.5,15 0.5,58 54.5,58 54.5,15 46.5,15 39.5,15 15.5,15 		"/>
		<path style="fill:#D5D0BB;" d="M37.5,22h-2h-7h-2h-7h-2h-9v9v2v7v2v9h9h2h7h2h7h2h9v-9v-2v-7v-2v-9H37.5z M28.5,24h7v7h-7V24z
			 M35.5,40h-7v-7h7V40z M19.5,33h7v7h-7V33z M19.5,24h7v7h-7V24z M10.5,24h7v7h-7V24z M10.5,33h7v7h-7V33z M17.5,49h-7v-7h7V49z
			 M26.5,49h-7v-7h7V49z M35.5,49h-7v-7h7V49z M44.5,49h-7v-7h7V49z M44.5,40h-7v-7h7V40z M37.5,31v-7h7v7H37.5z"/>
		<rect x="8.5" style="fill:#36495E;" width="7" height="8"/>
		<rect x="39.5" style="fill:#36495E;" width="7" height="8"/>
		<rect x="19.5" y="33" style="fill:#7F6E5D;" width="7" height="7"/>
	</g>
	<g>
		<circle style="fill:#B1D3EF;" cx="45" cy="45.5" r="12.5"/>
		<g>
			<path style="fill:#556080;" d="M54.693,46.019c-0.55-0.113-1.068,0.246-1.175,0.788C52.698,50.975,49.116,54,45,54
				c-3.351,0-6.347-2.006-7.789-5H42.5v-2h-6h-1h-1v8h2v-3.341C38.476,54.315,41.585,56,45,56c5.068,0,9.477-3.704,10.481-8.807
				C55.587,46.651,55.235,46.125,54.693,46.019z"/>
			<path style="fill:#556080;" d="M53.5,35.998v3.341c-1.976-2.657-5.086-4.341-8.5-4.341c-5.068,0-9.477,3.704-10.481,8.807
				c-0.106,0.542,0.246,1.068,0.788,1.174c0.55,0.113,1.068-0.246,1.175-0.788c0.82-4.168,4.402-7.193,8.519-7.193
				c3.351,0,6.347,2.006,7.789,5H47.5v2h6h1h1v-8H53.5z"/>
		</g>
	</g>
</g>
<g>
</g>
<g>
</g>
<g>
</g>
<g>
</g>
<g>
</g>
<g>
</g>
<g>
</g>
<g>
</g>
<g>
</g>
<g>
</g>
<g>
</g>
<g>
</g>
<g>
</g>
<g>
</g>
<g>
</g>
</svg>
