<?xml version="1.0" encoding="iso-8859-1"?>
<!-- Generator: Adobe Illustrator 18.0.0, SVG Export Plug-In . SVG Version: 6.00 Build 0)  -->
<!DOCTYPE svg PUBLIC "-//W3C//DTD SVG 1.1//EN" "http://www.w3.org/Graphics/SVG/1.1/DTD/svg11.dtd">
<svg version="1.1" id="Capa_1" xmlns="http://www.w3.org/2000/svg" xmlns:xlink="http://www.w3.org/1999/xlink" x="0px" y="0px"
	 viewBox="0 0 59.981 59.981" style="enable-background:new 0 0 59.981 59.981;" xml:space="preserve">
<g>
	<g>
		<rect x="0.991" y="13" style="fill:#ECF0F1;" width="56" height="39"/>
		<polygon style="fill:#21AE5E;" points="41.991,0 15.991,0 0.991,0 0.991,13 56.991,13 56.991,0 		"/>
		<path style="fill:#556080;" d="M18.991,46c-0.552,0-1-0.447-1-1V19c0-0.553,0.448-1,1-1s1,0.447,1,1v26
			C19.991,45.553,19.543,46,18.991,46z"/>
		<path style="fill:#556080;" d="M12.991,26c-0.256,0-0.512-0.098-0.707-0.293c-0.391-0.391-0.391-1.023,0-1.414l6-6
			c0.391-0.391,1.023-0.391,1.414,0s0.391,1.023,0,1.414l-6,6C13.502,25.902,13.247,26,12.991,26z"/>
		<path style="fill:#556080;" d="M37.991,32c-3.86,0-7-3.141-7-7s3.14-7,7-7s7,3.141,7,7S41.851,32,37.991,32z M37.991,20
			c-2.757,0-5,2.243-5,5s2.243,5,5,5s5-2.243,5-5S40.748,20,37.991,20z"/>
		<path style="fill:#556080;" d="M37.991,46c-3.86,0-7-3.141-7-7c0-0.553,0.448-1,1-1s1,0.447,1,1c0,2.757,2.243,5,5,5s5-2.243,5-5
			V25c0-0.553,0.448-1,1-1s1,0.447,1,1v14C44.991,42.859,41.851,46,37.991,46z"/>
	</g>
	<g>
		<circle style="fill:#D0E8F9;" cx="44.768" cy="44.796" r="9.796"/>
		<path style="fill:#EAF6FD;" d="M48.321,35.674L35.647,48.348c0.706,1.81,1.93,3.357,3.495,4.459L52.78,39.17
			C51.678,37.604,50.131,36.38,48.321,35.674z"/>
		<path style="fill:#B1D3EF;" d="M58.713,58.291l-5.97-6.244c1.746-1.919,2.82-4.458,2.82-7.251C55.564,38.843,50.721,34,44.768,34
			s-10.796,4.843-10.796,10.796s4.843,10.796,10.796,10.796c2.442,0,4.689-0.824,6.499-2.196l6.001,6.276
			c0.196,0.206,0.459,0.309,0.723,0.309c0.249,0,0.497-0.092,0.691-0.277C59.081,59.323,59.095,58.689,58.713,58.291z
			 M35.972,44.796c0-4.85,3.946-8.796,8.796-8.796s8.796,3.946,8.796,8.796s-3.946,8.796-8.796,8.796S35.972,49.646,35.972,44.796z"
			/>
	</g>
</g>
<g>
</g>
<g>
</g>
<g>
</g>
<g>
</g>
<g>
</g>
<g>
</g>
<g>
</g>
<g>
</g>
<g>
</g>
<g>
</g>
<g>
</g>
<g>
</g>
<g>
</g>
<g>
</g>
<g>
</g>
</svg>
