<?xml version="1.0" encoding="iso-8859-1"?>
<!-- Generator: Adobe Illustrator 18.0.0, SVG Export Plug-In . SVG Version: 6.00 Build 0)  -->
<!DOCTYPE svg PUBLIC "-//W3C//DTD SVG 1.1//EN" "http://www.w3.org/Graphics/SVG/1.1/DTD/svg11.dtd">
<svg version="1.1" id="Capa_1" xmlns="http://www.w3.org/2000/svg" xmlns:xlink="http://www.w3.org/1999/xlink" x="0px" y="0px"
	 viewBox="0 0 58 58" style="enable-background:new 0 0 58 58;" xml:space="preserve">
<g>
	<g>
		<polygon style="fill:#F05565;" points="46.5,4 46.5,8 39.5,8 39.5,4 15.5,4 15.5,8 8.5,8 8.5,4 0.5,4 0.5,15 54.5,15 54.5,4 		"/>
		<polygon style="fill:#EFEBDE;" points="8.5,15 0.5,15 0.5,58 54.5,58 54.5,15 46.5,15 39.5,15 15.5,15 		"/>
		<path style="fill:#D5D0BB;" d="M37.5,22h-2h-7h-2h-7h-2h-9v9v2v7v2v9h9h2h7h2h7h2h9v-9v-2v-7v-2v-9H37.5z M28.5,24h7v7h-7V24z
			 M35.5,40h-7v-7h7V40z M19.5,33h7v7h-7V33z M19.5,24h7v7h-7V24z M10.5,24h7v7h-7V24z M10.5,33h7v7h-7V33z M17.5,49h-7v-7h7V49z
			 M26.5,49h-7v-7h7V49z M35.5,49h-7v-7h7V49z M44.5,49h-7v-7h7V49z M44.5,40h-7v-7h7V40z M37.5,31v-7h7v7H37.5z"/>
		<rect x="8.5" style="fill:#36495E;" width="7" height="8"/>
		<rect x="39.5" style="fill:#36495E;" width="7" height="8"/>
		<rect x="19.5" y="33" style="fill:#7F6E5D;" width="7" height="7"/>
	</g>
	<g>
		<path style="fill:#D0E8F9;" d="M47.5,45h-2l0,0c-3.633-1.453-6-4.861-6-8.64V33h14v3.36C53.5,40.139,51.133,43.547,47.5,45
			L47.5,45z"/>
		<path style="fill:#D0E8F9;" d="M45.5,45h2l0,0c3.633,1.453,6,4.861,6,8.64V57h-14v-3.36C39.5,49.861,41.867,46.453,45.5,45
			L45.5,45z"/>
		<g>
			<path style="fill:#556080;" d="M36.5,34h1h2h17c0.553,0,1-0.448,1-1s-0.447-1-1-1h-17h-2h-1c-0.553,0-1,0.448-1,1
				S35.947,34,36.5,34z"/>
			<path style="fill:#556080;" d="M56.499,55.998h-18c-0.003,0-0.006,0.002-0.01,0.002H36.5c-0.553,0-1,0.448-1,1s0.447,1,1,1h3
				c0.003,0,0.006-0.002,0.01-0.002h16.989c0.553,0,1-0.448,1-1S57.052,55.998,56.499,55.998z"/>
		</g>
	</g>
</g>
<g>
</g>
<g>
</g>
<g>
</g>
<g>
</g>
<g>
</g>
<g>
</g>
<g>
</g>
<g>
</g>
<g>
</g>
<g>
</g>
<g>
</g>
<g>
</g>
<g>
</g>
<g>
</g>
<g>
</g>
</svg>
