<?xml version="1.0" encoding="iso-8859-1"?>
<!-- Generator: Adobe Illustrator 18.0.0, SVG Export Plug-In . SVG Version: 6.00 Build 0)  -->
<!DOCTYPE svg PUBLIC "-//W3C//DTD SVG 1.1//EN" "http://www.w3.org/Graphics/SVG/1.1/DTD/svg11.dtd">
<svg version="1.1" id="Capa_1" xmlns="http://www.w3.org/2000/svg" xmlns:xlink="http://www.w3.org/1999/xlink" x="0px" y="0px"
	 viewBox="0 0 59.981 59.981" style="enable-background:new 0 0 59.981 59.981;" xml:space="preserve">
<g>
	<g>
		<rect x="1.356" y="13" style="fill:#ECF0F1;" width="56" height="39"/>
		<polygon style="fill:#21AE5E;" points="42.356,0 16.356,0 1.356,0 1.356,13 57.356,13 57.356,0 		"/>
		<path style="fill:#556080;" d="M19.356,46c-0.552,0-1-0.447-1-1V19c0-0.553,0.448-1,1-1s1,0.447,1,1v26
			C20.356,45.553,19.908,46,19.356,46z"/>
		<path style="fill:#556080;" d="M13.356,26c-0.256,0-0.512-0.098-0.707-0.293c-0.391-0.391-0.391-1.023,0-1.414l6-6
			c0.391-0.391,1.023-0.391,1.414,0s0.391,1.023,0,1.414l-6,6C13.868,25.902,13.612,26,13.356,26z"/>
		<path style="fill:#556080;" d="M38.356,32c-3.86,0-7-3.141-7-7s3.14-7,7-7s7,3.141,7,7S42.216,32,38.356,32z M38.356,20
			c-2.757,0-5,2.243-5,5s2.243,5,5,5s5-2.243,5-5S41.113,20,38.356,20z"/>
		<path style="fill:#556080;" d="M38.356,46c-3.86,0-7-3.141-7-7c0-0.553,0.448-1,1-1s1,0.447,1,1c0,2.757,2.243,5,5,5s5-2.243,5-5
			V25c0-0.553,0.448-1,1-1s1,0.447,1,1v14C45.356,42.859,42.216,46,38.356,46z"/>
	</g>
	<g>
		<polygon style="fill:#EDDCC7;" points="37.192,50.489 37.184,50.496 35.196,57.786 39.843,53.139 		"/>
		<path style="fill:#D75A4A;" d="M56.442,36.54l-1.247-1.247c-0.775-0.775-2.032-0.775-2.807,0l-3.582,3.582l2.651,2.651
			L56.442,36.54z"/>
		
			<rect x="42.45" y="37.795" transform="matrix(0.7071 0.7071 -0.7071 0.7071 45.5142 -17.8668)" style="fill:#F29C21;" width="3.749" height="16.424"/>
		<polygon style="fill:#D6C4B1;" points="42.841,56.153 42.849,56.145 39.843,53.139 35.196,57.786 35.063,58.274 		"/>
		<path style="fill:#A34740;" d="M54.462,44.532l3.582-3.582c0.775-0.775,0.775-2.032,0-2.807l-1.602-1.602l-4.985,4.985
			L54.462,44.532z"/>
		
			<rect x="45.027" y="40.623" transform="matrix(-0.7071 -0.7071 0.7071 -0.7071 45.9619 116.7092)" style="fill:#E18C25;" width="4.251" height="16.424"/>
		<path style="fill:#5E5E5E;" d="M34.356,59.981c-0.256,0-0.512-0.098-0.707-0.293c-0.391-0.391-0.391-1.023,0-1.414l2.207-2.207
			c0.391-0.391,1.023-0.391,1.414,0s0.391,1.023,0,1.414l-2.207,2.207C34.868,59.884,34.612,59.981,34.356,59.981z"/>
	</g>
</g>
<g>
</g>
<g>
</g>
<g>
</g>
<g>
</g>
<g>
</g>
<g>
</g>
<g>
</g>
<g>
</g>
<g>
</g>
<g>
</g>
<g>
</g>
<g>
</g>
<g>
</g>
<g>
</g>
<g>
</g>
</svg>
