<?xml version="1.0" encoding="iso-8859-1"?>
<!-- Generator: Adobe Illustrator 18.0.0, SVG Export Plug-In . SVG Version: 6.00 Build 0)  -->
<!DOCTYPE svg PUBLIC "-//W3C//DTD SVG 1.1//EN" "http://www.w3.org/Graphics/SVG/1.1/DTD/svg11.dtd">
<svg version="1.1" id="Capa_1" xmlns="http://www.w3.org/2000/svg" xmlns:xlink="http://www.w3.org/1999/xlink" x="0px" y="0px"
	 viewBox="0 0 59.478 59.478" style="enable-background:new 0 0 59.478 59.478;" xml:space="preserve">
<g>
	<rect x="1.044" y="13" style="fill:#ECF0F1;" width="56" height="39"/>
	<polygon style="fill:#21AE5E;" points="42.044,0 16.044,0 1.044,0 1.044,13 57.044,13 57.044,0 	"/>
	<path style="fill:#556080;" d="M19.044,46c-0.552,0-1-0.447-1-1V19c0-0.553,0.448-1,1-1s1,0.447,1,1v26
		C20.044,45.553,19.596,46,19.044,46z"/>
	<path style="fill:#556080;" d="M13.044,26c-0.256,0-0.512-0.098-0.707-0.293c-0.391-0.391-0.391-1.023,0-1.414l6-6
		c0.391-0.391,1.023-0.391,1.414,0s0.391,1.023,0,1.414l-6,6C13.556,25.902,13.3,26,13.044,26z"/>
	<path style="fill:#556080;" d="M38.044,32c-3.86,0-7-3.141-7-7s3.14-7,7-7s7,3.141,7,7S41.904,32,38.044,32z M38.044,20
		c-2.757,0-5,2.243-5,5s2.243,5,5,5s5-2.243,5-5S40.801,20,38.044,20z"/>
	<path style="fill:#556080;" d="M38.044,46c-3.86,0-7-3.141-7-7c0-0.553,0.448-1,1-1s1,0.447,1,1c0,2.757,2.243,5,5,5s5-2.243,5-5
		V25c0-0.553,0.448-1,1-1s1,0.447,1,1v14C45.044,42.859,41.904,46,38.044,46z"/>
	<g>
		<path style="fill:#FFFFFF;" d="M57.239,50.157l-0.107,0.163c-7.121,10.876-18.773,10.876-25.893,0l0,0l0.107-0.163
			C38.466,39.281,50.118,39.281,57.239,50.157L57.239,50.157z"/>
		<circle style="fill:#556080;" cx="44.002" cy="47.875" r="5.909"/>
		<path style="fill:#B1D3EF;" d="M44.186,59.478c-5.254,0-10.148-3.058-13.783-8.609l-0.358-0.547l0.465-0.711
			C34.144,44.057,39.039,41,44.292,41c5.253,0,10.148,3.057,13.783,8.609l0.358,0.547l-0.465,0.711
			C54.333,56.42,49.439,59.478,44.186,59.478z M32.442,50.316c3.206,4.624,7.356,7.161,11.744,7.161c4.436,0,8.63-2.594,11.85-7.317
			C52.83,45.537,48.679,43,44.292,43C39.856,43,35.662,45.594,32.442,50.316z"/>
	</g>
</g>
<g>
</g>
<g>
</g>
<g>
</g>
<g>
</g>
<g>
</g>
<g>
</g>
<g>
</g>
<g>
</g>
<g>
</g>
<g>
</g>
<g>
</g>
<g>
</g>
<g>
</g>
<g>
</g>
<g>
</g>
</svg>
