<?xml version="1.0" encoding="iso-8859-1"?>
<!-- Generator: Adobe Illustrator 18.0.0, SVG Export Plug-In . SVG Version: 6.00 Build 0)  -->
<!DOCTYPE svg PUBLIC "-//W3C//DTD SVG 1.1//EN" "http://www.w3.org/Graphics/SVG/1.1/DTD/svg11.dtd">
<svg version="1.1" id="Capa_1" xmlns="http://www.w3.org/2000/svg" xmlns:xlink="http://www.w3.org/1999/xlink" x="0px" y="0px"
	 viewBox="0 0 60 60" style="enable-background:new 0 0 60 60;" xml:space="preserve">
<g>
	<g>
		<g>
			<path style="fill:#91BAE1;" d="M50.003,21.509c-0.115-8.699-7.193-16-15.919-16c-5.559,0-10.779,3.005-13.661,7.336
				c-1.267-0.843-2.788-1.336-4.424-1.336c-4.418,0-8,3.582-8,8c0,0.153,0.014,0.302,0.023,0.454C8.013,20.146,8,20.33,8,20.509
				c-3.988,1.912-7,6.457-7,11.155c0,6.515,5.33,11.845,11.845,11.845h24.507c0.138,0,0.272-0.016,0.408-0.021
				c0.137,0.005,0.271,0.021,0.408,0.021h9.803C54.037,43.509,59,38.547,59,32.481C59,27.11,55.106,22.471,50.003,21.509z"/>
			<path style="fill:#8697CB;" d="M47.972,44.509h-9.803c-0.104,0-0.207-0.006-0.311-0.014l-0.134-0.008l-0.062,0.008
				c-0.104,0.008-0.206,0.014-0.311,0.014H12.845C5.762,44.509,0,38.747,0,31.664c0-4.755,2.857-9.505,7.016-11.773v-0.004
				C7.008,19.761,7,19.636,7,19.509c0-4.963,4.037-9,9-9c1.45,0,2.863,0.347,4.139,1.008c3.258-4.345,8.517-7.008,13.946-7.008
				c8.943,0,16.362,7.194,16.891,16.194C56.173,22.069,60,26.993,60,32.481C60,39.114,54.604,44.509,47.972,44.509z M37.725,42.49
				l0.271,0.011c0.058,0.004,0.115,0.009,0.174,0.009h9.803C53.501,42.509,58,38.01,58,32.481c0-4.816-3.518-9.11-8.182-9.989
				l-0.804-0.151l-0.011-0.817c-0.109-8.278-6.802-15.014-14.919-15.014c-5.008,0-10.043,2.704-12.829,6.89l-0.554,0.832
				l-0.832-0.553c-1.149-0.765-2.488-1.169-3.87-1.169c-3.859,0-7,3.141-7,7c0,0.082,0.006,0.163,0.012,0.244l0.012,0.21
				l-0.009,0.16C9.008,20.253,9,20.382,9,20.509v0.63l-0.567,0.271C4.705,23.198,2,27.509,2,31.664
				c0,5.98,4.865,10.846,10.845,10.846h24.508c0.059,0,0.116-0.005,0.174-0.009L37.725,42.49z"/>
		</g>
		<g>
			<path style="fill:#91BAE1;" d="M50.003,21.509c0,0-2.535-0.375-5.003,0"/>
			<path style="fill:#8697CB;" d="M44.999,22.509c-0.486,0-0.912-0.354-0.987-0.85c-0.083-0.546,0.292-1.056,0.838-1.139
				c2.59-0.394,5.19-0.018,5.3-0.001c0.546,0.081,0.923,0.589,0.843,1.135c-0.08,0.547-0.597,0.916-1.135,0.844
				c-0.025-0.003-2.424-0.346-4.707-0.001C45.1,22.505,45.049,22.509,44.999,22.509z"/>
		</g>
		<g>
			<path style="fill:#91BAE1;" d="M8,19.509c0-4.418,3.582-8,8-8s8,3.582,8,8"/>
			<path style="fill:#8697CB;" d="M24,20.509c-0.553,0-1-0.447-1-1c0-3.859-3.141-7-7-7s-7,3.141-7,7c0,0.553-0.447,1-1,1
				s-1-0.447-1-1c0-4.963,4.037-9,9-9s9,4.037,9,9C25,20.062,24.553,20.509,24,20.509z"/>
		</g>
	</g>
	<g>
		<circle style="fill:#D0E8F9;" cx="28.777" cy="40.305" r="9.796"/>
		<path style="fill:#EAF6FD;" d="M32.33,31.184L19.656,43.858c0.706,1.81,1.93,3.357,3.495,4.459l13.638-13.638
			C35.687,33.113,34.14,31.889,32.33,31.184z"/>
		<path style="fill:#B1D3EF;" d="M42.723,53.8l-5.97-6.244c1.746-1.919,2.82-4.458,2.82-7.251c0-5.953-4.843-10.796-10.796-10.796
			s-10.796,4.843-10.796,10.796s4.843,10.796,10.796,10.796c2.442,0,4.689-0.824,6.499-2.196l6.001,6.276
			c0.196,0.206,0.459,0.309,0.723,0.309c0.249,0,0.497-0.092,0.691-0.277C43.09,54.832,43.105,54.199,42.723,53.8z M19.982,40.305
			c0-4.85,3.946-8.796,8.796-8.796s8.796,3.946,8.796,8.796s-3.946,8.796-8.796,8.796S19.982,45.155,19.982,40.305z"/>
	</g>
</g>
<g>
</g>
<g>
</g>
<g>
</g>
<g>
</g>
<g>
</g>
<g>
</g>
<g>
</g>
<g>
</g>
<g>
</g>
<g>
</g>
<g>
</g>
<g>
</g>
<g>
</g>
<g>
</g>
<g>
</g>
</svg>
