<?xml version="1.0" encoding="iso-8859-1"?>
<!-- Generator: Adobe Illustrator 18.0.0, SVG Export Plug-In . SVG Version: 6.00 Build 0)  -->
<!DOCTYPE svg PUBLIC "-//W3C//DTD SVG 1.1//EN" "http://www.w3.org/Graphics/SVG/1.1/DTD/svg11.dtd">
<svg version="1.1" id="Capa_1" xmlns="http://www.w3.org/2000/svg" xmlns:xlink="http://www.w3.org/1999/xlink" x="0px" y="0px"
	 viewBox="0 0 60 60" style="enable-background:new 0 0 60 60;" xml:space="preserve">
<g>
	<g>
		<g>
			<path style="fill:#91BAE1;" d="M50.003,21.5c-0.115-8.699-7.193-16-15.919-16c-5.559,0-10.779,3.005-13.661,7.336
				C19.157,11.993,17.636,11.5,16,11.5c-4.418,0-8,3.582-8,8c0,0.153,0.014,0.302,0.023,0.454C8.013,20.136,8,20.32,8,20.5
				c-3.988,1.912-7,6.457-7,11.155C1,38.17,6.33,43.5,12.845,43.5h24.507c0.138,0,0.272-0.016,0.408-0.021
				c0.137,0.005,0.271,0.021,0.408,0.021h9.803C54.037,43.5,59,38.537,59,32.472C59,27.101,55.106,22.461,50.003,21.5z"/>
			<path style="fill:#8697CB;" d="M47.972,44.5h-9.803c-0.104,0-0.207-0.006-0.311-0.014l-0.134-0.008l-0.062,0.008
				c-0.104,0.008-0.206,0.014-0.311,0.014H12.845C5.762,44.5,0,38.737,0,31.654c0-4.755,2.857-9.505,7.016-11.773v-0.004
				C7.008,19.752,7,19.627,7,19.5c0-4.963,4.037-9,9-9c1.45,0,2.863,0.347,4.139,1.008C23.396,7.163,28.655,4.5,34.085,4.5
				c8.943,0,16.362,7.194,16.891,16.194C56.173,22.06,60,26.983,60,32.472C60,39.104,54.604,44.5,47.972,44.5z M37.725,42.48
				l0.271,0.011c0.058,0.004,0.115,0.009,0.174,0.009h9.803C53.501,42.5,58,38.001,58,32.472c0-4.816-3.518-9.11-8.182-9.989
				l-0.804-0.151l-0.011-0.817C48.895,13.235,42.202,6.5,34.085,6.5c-5.008,0-10.043,2.704-12.829,6.89l-0.554,0.832l-0.832-0.553
				C18.721,12.904,17.382,12.5,16,12.5c-3.859,0-7,3.141-7,7c0,0.082,0.006,0.163,0.012,0.244l0.012,0.21l-0.009,0.16
				C9.008,20.244,9,20.373,9,20.5v0.63l-0.567,0.271C4.705,23.188,2,27.5,2,31.654C2,37.635,6.865,42.5,12.845,42.5h24.508
				c0.059,0,0.116-0.005,0.174-0.009L37.725,42.48z"/>
		</g>
		<g>
			<path style="fill:#91BAE1;" d="M50.003,21.5c0,0-2.535-0.375-5.003,0"/>
			<path style="fill:#8697CB;" d="M44.999,22.5c-0.486,0-0.912-0.354-0.987-0.85c-0.083-0.546,0.292-1.056,0.838-1.139
				c2.592-0.394,5.19-0.018,5.3-0.001c0.546,0.081,0.923,0.589,0.843,1.135c-0.08,0.547-0.594,0.916-1.135,0.844
				c-0.025-0.003-2.424-0.346-4.707-0.001C45.1,22.496,45.049,22.5,44.999,22.5z"/>
		</g>
		<g>
			<path style="fill:#91BAE1;" d="M8,19.5c0-4.418,3.582-8,8-8s8,3.582,8,8"/>
			<path style="fill:#8697CB;" d="M24,20.5c-0.553,0-1-0.447-1-1c0-3.859-3.141-7-7-7s-7,3.141-7,7c0,0.553-0.447,1-1,1
				s-1-0.447-1-1c0-4.963,4.037-9,9-9s9,4.037,9,9C25,20.053,24.553,20.5,24,20.5z"/>
		</g>
	</g>
	<g>
		<path style="fill:#556080;" d="M43,42.346l-1.444-0.278c-2.143-0.412-3.125-2.916-1.835-4.675l0.907-1.236l-1.958-1.958
			l-1.217,0.825c-1.806,1.224-4.272,0.148-4.604-2.008L32.615,31.5h-2.769l-0.359,1.865c-0.403,2.096-2.818,3.096-4.585,1.899
			l-1.572-1.065l-1.958,1.958l0.907,1.236c1.29,1.76,0.308,4.263-1.835,4.675L19,42.346v2.769l1.515,0.233
			c2.157,0.332,3.232,2.797,2.008,4.604l-0.825,1.217l1.958,1.958l1.236-0.907c1.76-1.29,4.263-0.308,4.675,1.835l0.278,1.444h2.769
			l0.164-1.066c0.339-2.204,2.896-3.263,4.694-1.944l0.869,0.638l1.958-1.958l-0.825-1.217c-1.224-1.806-0.148-4.272,2.008-4.604
			L43,45.115V42.346z"/>
		<g>
			<circle style="fill:#FFFFFF;" cx="31" cy="43.5" r="4"/>
			<path style="fill:#ECF0F1;" d="M31,48.5c-2.757,0-5-2.243-5-5s2.243-5,5-5s5,2.243,5,5S33.757,48.5,31,48.5z M31,40.5
				c-1.654,0-3,1.346-3,3s1.346,3,3,3s3-1.346,3-3S32.654,40.5,31,40.5z"/>
		</g>
	</g>
</g>
<g>
</g>
<g>
</g>
<g>
</g>
<g>
</g>
<g>
</g>
<g>
</g>
<g>
</g>
<g>
</g>
<g>
</g>
<g>
</g>
<g>
</g>
<g>
</g>
<g>
</g>
<g>
</g>
<g>
</g>
</svg>
