<?xml version="1.0" encoding="iso-8859-1"?>
<!-- Generator: Adobe Illustrator 18.0.0, SVG Export Plug-In . SVG Version: 6.00 Build 0)  -->
<!DOCTYPE svg PUBLIC "-//W3C//DTD SVG 1.1//EN" "http://www.w3.org/Graphics/SVG/1.1/DTD/svg11.dtd">
<svg version="1.1" id="Capa_1" xmlns="http://www.w3.org/2000/svg" xmlns:xlink="http://www.w3.org/1999/xlink" x="0px" y="0px"
	 viewBox="0 0 60 60" style="enable-background:new 0 0 60 60;" xml:space="preserve">
<g>
	<g>
		<g>
			<path style="fill:#91BAE1;" d="M50.003,21.509c-0.115-8.699-7.193-16-15.919-16c-5.559,0-10.779,3.005-13.661,7.336
				c-1.267-0.843-2.788-1.336-4.424-1.336c-4.418,0-8,3.582-8,8c0,0.153,0.014,0.302,0.023,0.454C8.013,20.146,8,20.33,8,20.509
				c-3.988,1.912-7,6.457-7,11.155c0,6.515,5.33,11.845,11.845,11.845h24.507c0.138,0,0.272-0.016,0.408-0.021
				c0.137,0.005,0.271,0.021,0.408,0.021h9.803C54.037,43.509,59,38.547,59,32.481C59,27.11,55.106,22.471,50.003,21.509z"/>
			<path style="fill:#8697CB;" d="M47.972,44.509h-9.803c-0.104,0-0.208-0.006-0.311-0.014l-0.133-0.008l-0.063,0.008
				c-0.103,0.008-0.206,0.014-0.311,0.014H12.845C5.762,44.509,0,38.747,0,31.664c0-4.755,2.857-9.506,7.016-11.773
				C7.008,19.764,7,19.638,7,19.509c0-4.963,4.038-9,9-9c1.451,0,2.864,0.346,4.138,1.008c3.258-4.345,8.517-7.008,13.946-7.008
				c8.944,0,16.363,7.194,16.891,16.194C56.173,22.069,60,26.993,60,32.481C60,39.114,54.604,44.509,47.972,44.509z M37.725,42.49
				l0.27,0.011c0.058,0.004,0.116,0.009,0.174,0.009h9.803C53.501,42.509,58,38.01,58,32.481c0-4.816-3.518-9.11-8.182-9.989
				l-0.804-0.151l-0.011-0.817c-0.109-8.278-6.802-15.014-14.919-15.014c-5.007,0-10.042,2.704-12.828,6.89l-0.554,0.833
				l-0.833-0.554c-1.149-0.765-2.488-1.169-3.87-1.169c-3.86,0-7,3.141-7,7c0,0.084,0.006,0.167,0.012,0.25l0.012,0.202
				l-0.009,0.173C9.008,20.26,9,20.386,9,20.509v0.63l-0.568,0.271C4.705,23.198,2,27.509,2,31.664
				c0,5.98,4.865,10.846,10.845,10.846h24.507c0.059,0,0.116-0.005,0.174-0.009L37.725,42.49z"/>
		</g>
		<g>
			<path style="fill:#91BAE1;" d="M50.003,21.509c0,0-2.535-0.375-5.003,0"/>
			<path style="fill:#8697CB;" d="M44.999,22.509c-0.486,0-0.912-0.354-0.987-0.85c-0.083-0.546,0.292-1.056,0.838-1.139
				c2.587-0.394,5.19-0.018,5.3-0.001c0.546,0.081,0.923,0.589,0.842,1.135c-0.08,0.547-0.595,0.915-1.134,0.844
				c-0.024-0.003-2.425-0.345-4.708-0.001C45.099,22.505,45.049,22.509,44.999,22.509z"/>
		</g>
		<g>
			<path style="fill:#91BAE1;" d="M8,19.509c0-4.418,3.582-8,8-8s8,3.582,8,8"/>
			<path style="fill:#8697CB;" d="M24,20.509c-0.552,0-1-0.447-1-1c0-3.859-3.14-7-7-7s-7,3.141-7,7c0,0.553-0.448,1-1,1
				s-1-0.447-1-1c0-4.963,4.038-9,9-9s9,4.037,9,9C25,20.062,24.552,20.509,24,20.509z"/>
		</g>
	</g>
	<path style="fill:#0096E6;" d="M19,54.509c-0.256,0-0.512-0.098-0.707-0.293c-0.391-0.391-0.391-1.023,0-1.414L19,52.095
		c0.391-0.391,1.023-0.391,1.414,0s0.391,1.023,0,1.414l-0.707,0.707C19.512,54.412,19.256,54.509,19,54.509z"/>
	<g>
		<polygon style="fill:#EDDCC7;" points="20.836,45.998 20.828,46.005 18.84,53.295 23.487,48.649 		"/>
		<path style="fill:#D75A4A;" d="M40.086,32.05l-1.247-1.247c-0.775-0.775-2.032-0.775-2.807,0l-3.582,3.582l2.651,2.651
			L40.086,32.05z"/>
		
			<rect x="26.094" y="33.304" transform="matrix(0.7071 0.7071 -0.7071 0.7071 37.5482 -7.6167)" style="fill:#F29C21;" width="3.749" height="16.424"/>
		<polygon style="fill:#D6C4B1;" points="26.485,51.662 26.493,51.655 23.487,48.649 18.84,53.295 18.707,53.784 		"/>
		<path style="fill:#A34740;" d="M38.107,40.041l3.582-3.582c0.775-0.775,0.775-2.032,0-2.807l-1.602-1.602L35.1,37.035
			L38.107,40.041z"/>
		
			<rect x="28.671" y="36.133" transform="matrix(-0.7071 -0.7071 0.7071 -0.7071 21.216 97.4778)" style="fill:#E18C25;" width="4.251" height="16.424"/>
		<path style="fill:#5E5E5E;" d="M18,55.491c-0.256,0-0.512-0.098-0.707-0.293c-0.391-0.391-0.391-1.023,0-1.414l2.207-2.207
			c0.391-0.391,1.023-0.391,1.414,0s0.391,1.023,0,1.414l-2.207,2.207C18.512,55.393,18.256,55.491,18,55.491z"/>
	</g>
</g>
<g>
</g>
<g>
</g>
<g>
</g>
<g>
</g>
<g>
</g>
<g>
</g>
<g>
</g>
<g>
</g>
<g>
</g>
<g>
</g>
<g>
</g>
<g>
</g>
<g>
</g>
<g>
</g>
<g>
</g>
</svg>
