<?xml version="1.0" encoding="iso-8859-1"?>
<!-- Generator: Adobe Illustrator 18.0.0, SVG Export Plug-In . SVG Version: 6.00 Build 0)  -->
<!DOCTYPE svg PUBLIC "-//W3C//DTD SVG 1.1//EN" "http://www.w3.org/Graphics/SVG/1.1/DTD/svg11.dtd">
<svg version="1.1" id="Capa_1" xmlns="http://www.w3.org/2000/svg" xmlns:xlink="http://www.w3.org/1999/xlink" x="0px" y="0px"
	 viewBox="0 0 60 60" style="enable-background:new 0 0 60 60;" xml:space="preserve">
<g>
	<g>
		<g>
			<path style="fill:#91BAE1;" d="M50.003,22.5c-0.115-8.699-7.193-16-15.919-16c-5.559,0-10.779,3.005-13.661,7.336
				C19.157,12.993,17.636,12.5,16,12.5c-4.418,0-8,3.582-8,8c0,0.153,0.014,0.302,0.023,0.454C8.013,21.136,8,21.32,8,21.5
				c-3.988,1.912-7,6.457-7,11.155C1,39.17,6.33,44.5,12.845,44.5h24.507c0.138,0,0.272-0.016,0.408-0.021
				c0.137,0.005,0.271,0.021,0.408,0.021h9.803C54.037,44.5,59,39.537,59,33.472C59,28.101,55.106,23.461,50.003,22.5z"/>
			<path style="fill:#8697CB;" d="M47.972,45.5h-9.803c-0.104,0-0.208-0.006-0.311-0.014l-0.133-0.008l-0.063,0.008
				c-0.103,0.008-0.206,0.014-0.311,0.014H12.845C5.762,45.5,0,39.737,0,32.654c0-4.755,2.857-9.506,7.016-11.773
				C7.008,20.755,7,20.629,7,20.5c0-4.963,4.038-9,9-9c1.451,0,2.864,0.346,4.138,1.008C23.396,8.163,28.655,5.5,34.084,5.5
				c8.944,0,16.363,7.194,16.891,16.194C56.173,23.06,60,27.983,60,33.472C60,40.104,54.604,45.5,47.972,45.5z M37.725,43.48
				l0.27,0.011c0.058,0.004,0.116,0.009,0.174,0.009h9.803C53.501,43.5,58,39.001,58,33.472c0-4.816-3.518-9.11-8.182-9.989
				l-0.804-0.151l-0.011-0.817C48.895,14.235,42.202,7.5,34.084,7.5c-5.007,0-10.042,2.704-12.828,6.89l-0.554,0.833l-0.833-0.554
				C18.721,13.904,17.382,13.5,16,13.5c-3.86,0-7,3.141-7,7c0,0.084,0.006,0.167,0.012,0.25l0.012,0.202l-0.009,0.173
				C9.008,21.251,9,21.377,9,21.5v0.63l-0.568,0.271C4.705,24.188,2,28.5,2,32.654C2,38.635,6.865,43.5,12.845,43.5h24.507
				c0.059,0,0.116-0.005,0.174-0.009L37.725,43.48z"/>
		</g>
		<g>
			<path style="fill:#91BAE1;" d="M50.003,22.5c0,0-2.535-0.375-5.003,0"/>
			<path style="fill:#8697CB;" d="M44.999,23.5c-0.486,0-0.912-0.354-0.987-0.85c-0.083-0.546,0.292-1.056,0.838-1.139
				c2.587-0.394,5.19-0.018,5.3-0.001c0.546,0.081,0.923,0.589,0.842,1.135c-0.08,0.547-0.591,0.915-1.134,0.844
				c-0.025-0.003-2.424-0.345-4.708-0.001C45.099,23.496,45.049,23.5,44.999,23.5z"/>
		</g>
		<g>
			<path style="fill:#91BAE1;" d="M8,20.5c0-4.418,3.582-8,8-8s8,3.582,8,8"/>
			<path style="fill:#8697CB;" d="M24,21.5c-0.552,0-1-0.447-1-1c0-3.859-3.14-7-7-7s-7,3.141-7,7c0,0.553-0.448,1-1,1s-1-0.447-1-1
				c0-4.963,4.038-9,9-9s9,4.037,9,9C25,21.053,24.552,21.5,24,21.5z"/>
		</g>
	</g>
	<g>
		<rect x="21" y="38.5" style="fill:#B1D3EF;" width="20" height="16"/>
		<path style="fill:#556080;" d="M34,45.5c0-1.657-1.343-3-3-3s-3,1.343-3,3c0,1.317,0.854,2.424,2.035,2.827
			C30.024,48.385,30,48.439,30,48.5v2c0,0.552,0.448,1,1,1s1-0.448,1-1v-2c0-0.061-0.024-0.115-0.035-0.173
			C33.146,47.924,34,46.817,34,45.5z"/>
		<path style="fill:#FFFFFF;" d="M26,36.5c0-2.757,2.243-5,5-5s5,2.243,5,5v2h2v-2c0-3.86-3.14-7-7-7s-7,3.14-7,7v2h2V36.5z"/>
	</g>
</g>
<g>
</g>
<g>
</g>
<g>
</g>
<g>
</g>
<g>
</g>
<g>
</g>
<g>
</g>
<g>
</g>
<g>
</g>
<g>
</g>
<g>
</g>
<g>
</g>
<g>
</g>
<g>
</g>
<g>
</g>
</svg>
