<?xml version="1.0" encoding="iso-8859-1"?>
<!-- Generator: Adobe Illustrator 18.0.0, SVG Export Plug-In . SVG Version: 6.00 Build 0)  -->
<!DOCTYPE svg PUBLIC "-//W3C//DTD SVG 1.1//EN" "http://www.w3.org/Graphics/SVG/1.1/DTD/svg11.dtd">
<svg version="1.1" id="Capa_1" xmlns="http://www.w3.org/2000/svg" xmlns:xlink="http://www.w3.org/1999/xlink" x="0px" y="0px"
	 viewBox="0 0 60 60" style="enable-background:new 0 0 60 60;" xml:space="preserve">
<g>
	<g>
		<g>
			<path style="fill:#91BAE1;" d="M50.003,23c-0.115-8.699-7.193-16-15.919-16c-5.559,0-10.779,3.005-13.661,7.336
				C19.157,13.493,17.636,13,16,13c-4.418,0-8,3.582-8,8c0,0.153,0.014,0.302,0.023,0.454C8.013,21.636,8,21.82,8,22
				c-3.988,1.912-7,6.457-7,11.155C1,39.67,6.33,45,12.845,45h24.507c0.138,0,0.272-0.016,0.408-0.021
				C37.897,44.984,38.031,45,38.169,45h9.803C54.037,45,59,40.037,59,33.972C59,28.601,55.106,23.961,50.003,23z"/>
			<path style="fill:#8697CB;" d="M47.972,46h-9.803c-0.104,0-0.208-0.006-0.311-0.014l-0.133-0.008l-0.063,0.008
				C37.56,45.994,37.457,46,37.352,46H12.845C5.762,46,0,40.237,0,33.154c0-4.755,2.857-9.506,7.016-11.773
				C7.008,21.255,7,21.129,7,21c0-4.963,4.038-9,9-9c1.451,0,2.864,0.346,4.138,1.008C23.396,8.663,28.655,6,34.084,6
				c8.944,0,16.363,7.194,16.891,16.194C56.173,23.56,60,28.483,60,33.972C60,40.604,54.604,46,47.972,46z M37.725,43.98l0.27,0.011
				C38.052,43.995,38.11,44,38.169,44h9.803C53.501,44,58,39.501,58,33.972c0-4.816-3.518-9.11-8.182-9.989l-0.804-0.151
				l-0.011-0.817C48.895,14.735,42.202,8,34.084,8c-5.007,0-10.042,2.704-12.828,6.89l-0.554,0.833l-0.833-0.554
				C18.721,14.404,17.382,14,16,14c-3.86,0-7,3.141-7,7c0,0.084,0.006,0.167,0.012,0.25l0.012,0.202l-0.009,0.173
				C9.008,21.751,9,21.877,9,22v0.63l-0.568,0.271C4.705,24.688,2,29,2,33.154C2,39.135,6.865,44,12.845,44h24.507
				c0.059,0,0.116-0.005,0.174-0.009L37.725,43.98z"/>
		</g>
		<g>
			<path style="fill:#91BAE1;" d="M50.003,23c0,0-2.535-0.375-5.003,0"/>
			<path style="fill:#8697CB;" d="M44.999,24c-0.486,0-0.912-0.354-0.987-0.85c-0.083-0.546,0.292-1.056,0.838-1.139
				c2.589-0.394,5.189-0.018,5.3-0.001c0.546,0.081,0.923,0.589,0.843,1.135c-0.08,0.547-0.597,0.916-1.135,0.844
				c-0.025-0.003-2.424-0.345-4.707-0.001C45.099,23.996,45.049,24,44.999,24z"/>
		</g>
		<g>
			<path style="fill:#91BAE1;" d="M8,21c0-4.418,3.582-8,8-8s8,3.582,8,8"/>
			<path style="fill:#8697CB;" d="M24,22c-0.552,0-1-0.447-1-1c0-3.859-3.14-7-7-7s-7,3.141-7,7c0,0.553-0.448,1-1,1s-1-0.447-1-1
				c0-4.963,4.038-9,9-9s9,4.037,9,9C25,21.553,24.552,22,24,22z"/>
		</g>
	</g>
	<g>
		<path style="fill:#EFC41A;" d="M41.761,54H18.07c-0.955,0-1.55-1.036-1.069-1.861l11.845-20.306c0.478-0.819,1.66-0.819,2.138,0
			L42.83,52.139C43.311,52.964,42.716,54,41.761,54z"/>
		<path style="fill:#FFFFFF;" d="M30,47c-0.552,0-1-0.448-1-1v-8c0-0.552,0.448-1,1-1s1,0.448,1,1v8C31,46.552,30.552,47,30,47z"/>
		<path style="fill:#FFFFFF;" d="M30,51c-0.26,0-0.52-0.11-0.71-0.29C29.11,50.52,29,50.26,29,50c0-0.26,0.11-0.52,0.29-0.71
			c0.38-0.37,1.04-0.37,1.42,0C30.89,49.48,31,49.74,31,50c0,0.26-0.11,0.52-0.29,0.71C30.52,50.89,30.27,51,30,51z"/>
	</g>
</g>
<g>
</g>
<g>
</g>
<g>
</g>
<g>
</g>
<g>
</g>
<g>
</g>
<g>
</g>
<g>
</g>
<g>
</g>
<g>
</g>
<g>
</g>
<g>
</g>
<g>
</g>
<g>
</g>
<g>
</g>
</svg>
