<?xml version="1.0" encoding="iso-8859-1"?>
<!-- Generator: Adobe Illustrator 18.0.0, SVG Export Plug-In . SVG Version: 6.00 Build 0)  -->
<!DOCTYPE svg PUBLIC "-//W3C//DTD SVG 1.1//EN" "http://www.w3.org/Graphics/SVG/1.1/DTD/svg11.dtd">
<svg version="1.1" id="Capa_1" xmlns="http://www.w3.org/2000/svg" xmlns:xlink="http://www.w3.org/1999/xlink" x="0px" y="0px"
	 viewBox="0 0 60 60" style="enable-background:new 0 0 60 60;" xml:space="preserve">
<g>
	<g>
		<g>
			<path style="fill:#91BAE1;" d="M50.003,22.5c-0.115-8.699-7.193-16-15.919-16c-5.559,0-10.779,3.005-13.661,7.336
				C19.157,12.993,17.636,12.5,16,12.5c-4.418,0-8,3.582-8,8c0,0.153,0.014,0.302,0.023,0.454C8.013,21.136,8,21.32,8,21.5
				c-3.988,1.912-7,6.457-7,11.155C1,39.17,6.33,44.5,12.845,44.5h24.507c0.138,0,0.272-0.016,0.408-0.021
				c0.137,0.005,0.271,0.021,0.408,0.021h9.803C54.037,44.5,59,39.537,59,33.472C59,28.101,55.106,23.461,50.003,22.5z"/>
			<path style="fill:#8697CB;" d="M47.972,45.5h-9.803c-0.104,0-0.207-0.006-0.311-0.014l-0.134-0.008l-0.062,0.008
				c-0.104,0.008-0.206,0.014-0.311,0.014H12.845C5.762,45.5,0,39.737,0,32.654c0-4.755,2.857-9.505,7.016-11.773v-0.004
				C7.008,20.752,7,20.627,7,20.5c0-4.963,4.037-9,9-9c1.45,0,2.863,0.347,4.139,1.008C23.396,8.163,28.655,5.5,34.085,5.5
				c8.943,0,16.362,7.194,16.891,16.194C56.173,23.06,60,27.983,60,33.472C60,40.104,54.604,45.5,47.972,45.5z M37.725,43.48
				l0.271,0.011c0.058,0.004,0.115,0.009,0.174,0.009h9.803C53.501,43.5,58,39.001,58,33.472c0-4.816-3.518-9.11-8.182-9.989
				l-0.804-0.151l-0.011-0.817C48.895,14.235,42.202,7.5,34.085,7.5c-5.008,0-10.043,2.704-12.829,6.89l-0.554,0.832l-0.832-0.553
				C18.721,13.904,17.382,13.5,16,13.5c-3.859,0-7,3.141-7,7c0,0.082,0.006,0.163,0.012,0.244l0.012,0.21l-0.009,0.16
				C9.008,21.244,9,21.373,9,21.5v0.63l-0.567,0.271C4.705,24.188,2,28.5,2,32.654C2,38.635,6.865,43.5,12.845,43.5h24.508
				c0.059,0,0.116-0.005,0.174-0.009L37.725,43.48z"/>
		</g>
		<g>
			<path style="fill:#91BAE1;" d="M50.003,22.5c0,0-2.535-0.375-5.003,0"/>
			<path style="fill:#8697CB;" d="M44.999,23.5c-0.486,0-0.912-0.354-0.987-0.85c-0.083-0.546,0.292-1.056,0.838-1.139
				c2.591-0.394,5.19-0.018,5.3-0.001c0.546,0.081,0.923,0.589,0.843,1.135c-0.08,0.547-0.6,0.916-1.135,0.844
				c-0.025-0.003-2.424-0.346-4.707-0.001C45.1,23.496,45.049,23.5,44.999,23.5z"/>
		</g>
		<g>
			<path style="fill:#91BAE1;" d="M8,20.5c0-4.418,3.582-8,8-8s8,3.582,8,8"/>
			<path style="fill:#8697CB;" d="M24,21.5c-0.553,0-1-0.447-1-1c0-3.859-3.141-7-7-7s-7,3.141-7,7c0,0.553-0.447,1-1,1
				s-1-0.447-1-1c0-4.963,4.037-9,9-9s9,4.037,9,9C25,21.053,24.553,21.5,24,21.5z"/>
		</g>
	</g>
	<g>
		<polygon style="fill:#F3D55A;" points="31,32.5 34.708,39.742 43,40.903 37,46.54 38.416,54.5 31,50.742 23.584,54.5 25,46.54 
			19,40.903 27.292,39.742 		"/>
	</g>
</g>
<g>
</g>
<g>
</g>
<g>
</g>
<g>
</g>
<g>
</g>
<g>
</g>
<g>
</g>
<g>
</g>
<g>
</g>
<g>
</g>
<g>
</g>
<g>
</g>
<g>
</g>
<g>
</g>
<g>
</g>
</svg>
