<?xml version="1.0" encoding="iso-8859-1"?>
<!-- Generator: Adobe Illustrator 18.0.0, SVG Export Plug-In . SVG Version: 6.00 Build 0)  -->
<!DOCTYPE svg PUBLIC "-//W3C//DTD SVG 1.1//EN" "http://www.w3.org/Graphics/SVG/1.1/DTD/svg11.dtd">
<svg version="1.1" id="Capa_1" xmlns="http://www.w3.org/2000/svg" xmlns:xlink="http://www.w3.org/1999/xlink" x="0px" y="0px"
	 viewBox="0 0 55.981 55.981" style="enable-background:new 0 0 55.981 55.981;" xml:space="preserve">
<g>
	<g>
		<path style="fill:#545E73;" d="M49.446,8L49.446,8c-0.731-4.462-11.175-8-23.955-8S2.267,3.538,1.535,8l0,0H1.491v0.5V20v0.5V21
			v11v0.5V33v12h0.045c0.731,4.461,11.175,8,23.955,8s23.224-3.539,23.955-8h0.045V33v-0.5V32V21v-0.5V20V8.5V8H49.446z"/>
		<g>
			<path style="fill:#38454F;" d="M25.491,41c-13.255,0-24-3.806-24-8.5V45h0.045c0.731,4.461,11.175,8,23.955,8
				s23.224-3.539,23.955-8h0.045V32.5C49.491,37.194,38.746,41,25.491,41z"/>
			<path style="fill:#38454F;" d="M1.491,32v0.5c0-0.168,0.018-0.334,0.045-0.5H1.491z"/>
			<path style="fill:#38454F;" d="M49.446,32c0.027,0.166,0.045,0.332,0.045,0.5V32H49.446z"/>
		</g>
		<g>
			<path style="fill:#556080;" d="M25.491,29c-13.255,0-24-3.806-24-8.5V33h0.045c0.731,4.461,11.175,8,23.955,8
				s23.224-3.539,23.955-8h0.045V20.5C49.491,25.194,38.746,29,25.491,29z"/>
			<path style="fill:#556080;" d="M1.491,20v0.5c0-0.168,0.018-0.334,0.045-0.5H1.491z"/>
			<path style="fill:#556080;" d="M49.446,20c0.027,0.166,0.045,0.332,0.045,0.5V20H49.446z"/>
		</g>
		<ellipse style="fill:#91BAE1;" cx="25.491" cy="8.5" rx="24" ry="8.5"/>
		<g>
			<path style="fill:#8697CB;" d="M25.491,17c-13.255,0-24-3.806-24-8.5V21h0.045c0.731,4.461,11.175,8,23.955,8
				s23.224-3.539,23.955-8h0.045V8.5C49.491,13.194,38.746,17,25.491,17z"/>
			<path style="fill:#8697CB;" d="M1.491,8v0.5c0-0.168,0.018-0.334,0.045-0.5H1.491z"/>
			<path style="fill:#8697CB;" d="M49.446,8c0.027,0.166,0.045,0.332,0.045,0.5V8H49.446z"/>
		</g>
	</g>
	<g>
		<circle style="fill:#D0E8F9;" cx="40.268" cy="40.796" r="9.796"/>
		<path style="fill:#EAF6FD;" d="M43.821,31.674L31.147,44.348c0.706,1.81,1.93,3.357,3.495,4.459L48.28,35.17
			C47.178,33.604,45.631,32.38,43.821,31.674z"/>
		<path style="fill:#B1D3EF;" d="M54.213,54.291l-5.97-6.244c1.746-1.919,2.82-4.458,2.82-7.251C51.064,34.843,46.221,30,40.268,30
			s-10.796,4.843-10.796,10.796s4.843,10.796,10.796,10.796c2.442,0,4.689-0.824,6.499-2.196l6.001,6.276
			c0.196,0.206,0.459,0.309,0.723,0.309c0.249,0,0.497-0.092,0.691-0.277C54.581,55.323,54.595,54.689,54.213,54.291z
			 M31.472,40.796c0-4.85,3.946-8.796,8.796-8.796s8.796,3.946,8.796,8.796s-3.946,8.796-8.796,8.796S31.472,45.646,31.472,40.796z"
			/>
	</g>
</g>
<g>
</g>
<g>
</g>
<g>
</g>
<g>
</g>
<g>
</g>
<g>
</g>
<g>
</g>
<g>
</g>
<g>
</g>
<g>
</g>
<g>
</g>
<g>
</g>
<g>
</g>
<g>
</g>
<g>
</g>
</svg>
