<?xml version="1.0" encoding="iso-8859-1"?>
<!-- Generator: Adobe Illustrator 18.0.0, SVG Export Plug-In . SVG Version: 6.00 Build 0)  -->
<!DOCTYPE svg PUBLIC "-//W3C//DTD SVG 1.1//EN" "http://www.w3.org/Graphics/SVG/1.1/DTD/svg11.dtd">
<svg version="1.1" id="Capa_1" xmlns="http://www.w3.org/2000/svg" xmlns:xlink="http://www.w3.org/1999/xlink" x="0px" y="0px"
	 viewBox="0 0 55 55" style="enable-background:new 0 0 55 55;" xml:space="preserve">
<g>
	<g>
		<path style="fill:#545E73;" d="M48.955,8L48.955,8C48.224,3.538,37.781,0,25,0S1.776,3.538,1.045,8l0,0H1v0.5V20v0.5V21v11v0.5V33
			v12h0.045C1.776,49.461,12.219,53,25,53s23.224-3.539,23.955-8H49V33v-0.5V32V21v-0.5V20V8.5V8H48.955z"/>
		<g>
			<path style="fill:#38454F;" d="M25,41c-13.255,0-24-3.806-24-8.5V45h0.045C1.776,49.461,12.219,53,25,53s23.224-3.539,23.955-8
				H49V32.5C49,37.194,38.255,41,25,41z"/>
			<path style="fill:#38454F;" d="M1,32v0.5c0-0.168,0.018-0.334,0.045-0.5H1z"/>
			<path style="fill:#38454F;" d="M48.955,32C48.982,32.166,49,32.332,49,32.5V32H48.955z"/>
		</g>
		<g>
			<path style="fill:#556080;" d="M25,29c-13.255,0-24-3.806-24-8.5V33h0.045C1.776,37.461,12.219,41,25,41s23.224-3.539,23.955-8
				H49V20.5C49,25.194,38.255,29,25,29z"/>
			<path style="fill:#556080;" d="M1,20v0.5c0-0.168,0.018-0.334,0.045-0.5H1z"/>
			<path style="fill:#556080;" d="M48.955,20C48.982,20.166,49,20.332,49,20.5V20H48.955z"/>
		</g>
		<ellipse style="fill:#91BAE1;" cx="25" cy="8.5" rx="24" ry="8.5"/>
		<g>
			<path style="fill:#8697CB;" d="M25,17C11.745,17,1,13.194,1,8.5V21h0.045C1.776,25.461,12.219,29,25,29s23.224-3.539,23.955-8H49
				V8.5C49,13.194,38.255,17,25,17z"/>
			<path style="fill:#8697CB;" d="M1,8v0.5C1,8.332,1.018,8.166,1.045,8H1z"/>
			<path style="fill:#8697CB;" d="M48.955,8C48.982,8.166,49,8.332,49,8.5V8H48.955z"/>
		</g>
	</g>
	<g>
		<circle style="fill:#B1D3EF;" cx="41.5" cy="42.5" r="12.5"/>
		<path style="fill:#556080;" d="M41.5,32c-4.718,0-8.88,3.182-10.121,7.737c-0.146,0.533,0.169,1.083,0.702,1.228
			c0.528,0.143,1.082-0.168,1.228-0.702C34.313,36.575,37.682,34,41.5,34c4.687,0,8.5,3.813,8.5,8.5S46.187,51,41.5,51
			c-3.365,0-6.378-2.001-7.734-5H39v-2h-6h-1h-1v8h2v-3.341l0,0v-0.023C34.933,51.31,38.066,53,41.5,53C47.29,53,52,48.29,52,42.5
			S47.29,32,41.5,32z"/>
	</g>
</g>
<g>
</g>
<g>
</g>
<g>
</g>
<g>
</g>
<g>
</g>
<g>
</g>
<g>
</g>
<g>
</g>
<g>
</g>
<g>
</g>
<g>
</g>
<g>
</g>
<g>
</g>
<g>
</g>
<g>
</g>
</svg>
