<?xml version="1.0" encoding="iso-8859-1"?>
<!-- Generator: Adobe Illustrator 18.0.0, SVG Export Plug-In . SVG Version: 6.00 Build 0)  -->
<!DOCTYPE svg PUBLIC "-//W3C//DTD SVG 1.1//EN" "http://www.w3.org/Graphics/SVG/1.1/DTD/svg11.dtd">
<svg version="1.1" id="Capa_1" xmlns="http://www.w3.org/2000/svg" xmlns:xlink="http://www.w3.org/1999/xlink" x="0px" y="0px"
	 viewBox="0 0 54 54" style="enable-background:new 0 0 54 54;" xml:space="preserve">
<g>
	<g>
		<path style="fill:#545E73;" d="M48.955,8L48.955,8C48.224,3.538,37.781,0,25,0S1.776,3.538,1.045,8l0,0H1v0.5V20v0.5V21v11v0.5V33
			v12h0.045C1.776,49.461,12.219,53,25,53s23.224-3.539,23.955-8H49V33v-0.5V32V21v-0.5V20V8.5V8H48.955z"/>
		<g>
			<path style="fill:#38454F;" d="M25,41c-13.255,0-24-3.806-24-8.5V45h0.045C1.776,49.461,12.219,53,25,53s23.224-3.539,23.955-8
				H49V32.5C49,37.194,38.255,41,25,41z"/>
			<path style="fill:#38454F;" d="M1,32v0.5c0-0.168,0.018-0.334,0.045-0.5H1z"/>
			<path style="fill:#38454F;" d="M48.955,32C48.982,32.166,49,32.332,49,32.5V32H48.955z"/>
		</g>
		<g>
			<path style="fill:#556080;" d="M25,29c-13.255,0-24-3.806-24-8.5V33h0.045C1.776,37.461,12.219,41,25,41s23.224-3.539,23.955-8
				H49V20.5C49,25.194,38.255,29,25,29z"/>
			<path style="fill:#556080;" d="M1,20v0.5c0-0.168,0.018-0.334,0.045-0.5H1z"/>
			<path style="fill:#556080;" d="M48.955,20C48.982,20.166,49,20.332,49,20.5V20H48.955z"/>
		</g>
		<ellipse style="fill:#91BAE1;" cx="25" cy="8.5" rx="24" ry="8.5"/>
		<g>
			<path style="fill:#8697CB;" d="M25,17C11.745,17,1,13.194,1,8.5V21h0.045C1.776,25.461,12.219,29,25,29s23.224-3.539,23.955-8H49
				V8.5C49,13.194,38.255,17,25,17z"/>
			<path style="fill:#8697CB;" d="M1,8v0.5C1,8.332,1.018,8.166,1.045,8H1z"/>
			<path style="fill:#8697CB;" d="M48.955,8C48.982,8.166,49,8.332,49,8.5V8H48.955z"/>
		</g>
	</g>
	<g>
		<path style="fill:#B1D3EF;" d="M52.707,52.293l-6.797-6.797l6.483-3.241l-17.637-6.498l6.499,17.637l3.241-6.484l6.797,6.797
			C51.488,53.902,51.744,54,52,54s0.512-0.098,0.707-0.293C53.098,53.316,53.098,52.684,52.707,52.293z"/>
	</g>
</g>
<g>
</g>
<g>
</g>
<g>
</g>
<g>
</g>
<g>
</g>
<g>
</g>
<g>
</g>
<g>
</g>
<g>
</g>
<g>
</g>
<g>
</g>
<g>
</g>
<g>
</g>
<g>
</g>
<g>
</g>
</svg>
