<?xml version="1.0" encoding="iso-8859-1"?>
<!-- Generator: Adobe Illustrator 18.0.0, SVG Export Plug-In . SVG Version: 6.00 Build 0)  -->
<!DOCTYPE svg PUBLIC "-//W3C//DTD SVG 1.1//EN" "http://www.w3.org/Graphics/SVG/1.1/DTD/svg11.dtd">
<svg version="1.1" id="Capa_1" xmlns="http://www.w3.org/2000/svg" xmlns:xlink="http://www.w3.org/1999/xlink" x="0px" y="0px"
	 viewBox="0 0 55 55" style="enable-background:new 0 0 55 55;" xml:space="preserve">
<g>
	<g>
		<path style="fill:#545E73;" d="M48.872,8L48.872,8c-0.731-4.462-11.175-8-23.955-8S1.693,3.538,0.961,8l0,0H0.917v0.5V20v0.5V21
			v11v0.5V33v12h0.045c0.731,4.461,11.175,8,23.955,8s23.224-3.539,23.955-8h0.045V33v-0.5V32V21v-0.5V20V8.5V8H48.872z"/>
		<g>
			<path style="fill:#38454F;" d="M24.917,41c-13.255,0-24-3.806-24-8.5V45h0.045c0.731,4.461,11.175,8,23.955,8
				s23.224-3.539,23.955-8h0.045V32.5C48.917,37.194,38.172,41,24.917,41z"/>
			<path style="fill:#38454F;" d="M0.917,32v0.5c0-0.168,0.018-0.334,0.045-0.5H0.917z"/>
			<path style="fill:#38454F;" d="M48.872,32c0.027,0.166,0.045,0.332,0.045,0.5V32H48.872z"/>
		</g>
		<g>
			<path style="fill:#556080;" d="M24.917,29c-13.255,0-24-3.806-24-8.5V33h0.045c0.731,4.461,11.175,8,23.955,8
				s23.224-3.539,23.955-8h0.045V20.5C48.917,25.194,38.172,29,24.917,29z"/>
			<path style="fill:#556080;" d="M0.917,20v0.5c0-0.168,0.018-0.334,0.045-0.5H0.917z"/>
			<path style="fill:#556080;" d="M48.872,20c0.027,0.166,0.045,0.332,0.045,0.5V20H48.872z"/>
		</g>
		<ellipse style="fill:#91BAE1;" cx="24.917" cy="8.5" rx="24" ry="8.5"/>
		<g>
			<path style="fill:#8697CB;" d="M24.917,17c-13.255,0-24-3.806-24-8.5V21h0.045c0.731,4.461,11.175,8,23.955,8
				s23.224-3.539,23.955-8h0.045V8.5C48.917,13.194,38.172,17,24.917,17z"/>
			<path style="fill:#8697CB;" d="M0.917,8v0.5c0-0.168,0.018-0.334,0.045-0.5H0.917z"/>
			<path style="fill:#8697CB;" d="M48.872,8c0.027,0.166,0.045,0.332,0.045,0.5V8H48.872z"/>
		</g>
	</g>
	<g>
		<rect x="34.083" y="39" style="fill:#B1D3EF;" width="20" height="16"/>
		<path style="fill:#556080;" d="M47.083,46c0-1.657-1.343-3-3-3s-3,1.343-3,3c0,1.317,0.854,2.424,2.035,2.827
			c-0.011,0.058-0.035,0.112-0.035,0.173v2c0,0.552,0.448,1,1,1s1-0.448,1-1v-2c0-0.061-0.024-0.115-0.035-0.173
			C46.229,48.424,47.083,47.317,47.083,46z"/>
		<path style="fill:#BDC3C7;" d="M39.083,37c0-2.757,2.243-5,5-5s5,2.243,5,5v2h2v-2c0-3.86-3.14-7-7-7s-7,3.14-7,7v2h2V37z"/>
	</g>
</g>
<g>
</g>
<g>
</g>
<g>
</g>
<g>
</g>
<g>
</g>
<g>
</g>
<g>
</g>
<g>
</g>
<g>
</g>
<g>
</g>
<g>
</g>
<g>
</g>
<g>
</g>
<g>
</g>
<g>
</g>
</svg>
