<?xml version="1.0" encoding="iso-8859-1"?>
<!-- Generator: Adobe Illustrator 18.0.0, SVG Export Plug-In . SVG Version: 6.00 Build 0)  -->
<!DOCTYPE svg PUBLIC "-//W3C//DTD SVG 1.1//EN" "http://www.w3.org/Graphics/SVG/1.1/DTD/svg11.dtd">
<svg version="1.1" id="Capa_1" xmlns="http://www.w3.org/2000/svg" xmlns:xlink="http://www.w3.org/1999/xlink" x="0px" y="0px"
	 viewBox="0 0 56 56" style="enable-background:new 0 0 56 56;" xml:space="preserve">
<g>
	<path style="fill:#545E73;" d="M49.372,8L49.372,8c-0.731-4.462-11.175-8-23.955-8S2.193,3.538,1.461,8l0,0H1.417v0.5V20v0.5V21v11
		v0.5V33v12h0.045c0.731,4.461,11.175,8,23.955,8s23.224-3.539,23.955-8h0.045V33v-0.5V32V21v-0.5V20V8.5V8H49.372z"/>
	<g>
		<path style="fill:#38454F;" d="M25.417,41c-13.255,0-24-3.806-24-8.5V45h0.045c0.731,4.461,11.175,8,23.955,8
			s23.224-3.539,23.955-8h0.045V32.5C49.417,37.194,38.672,41,25.417,41z"/>
		<path style="fill:#38454F;" d="M1.417,32v0.5c0-0.168,0.018-0.334,0.045-0.5H1.417z"/>
		<path style="fill:#38454F;" d="M49.372,32c0.027,0.166,0.045,0.332,0.045,0.5V32H49.372z"/>
	</g>
	<g>
		<path style="fill:#556080;" d="M25.417,29c-13.255,0-24-3.806-24-8.5V33h0.045c0.731,4.461,11.175,8,23.955,8
			s23.224-3.539,23.955-8h0.045V20.5C49.417,25.194,38.672,29,25.417,29z"/>
		<path style="fill:#556080;" d="M1.417,20v0.5c0-0.168,0.018-0.334,0.045-0.5H1.417z"/>
		<path style="fill:#556080;" d="M49.372,20c0.027,0.166,0.045,0.332,0.045,0.5V20H49.372z"/>
	</g>
	<ellipse style="fill:#91BAE1;" cx="25.417" cy="8.5" rx="24" ry="8.5"/>
	<g>
		<path style="fill:#8697CB;" d="M25.417,17c-13.255,0-24-3.806-24-8.5V21h0.045c0.731,4.461,11.175,8,23.955,8
			s23.224-3.539,23.955-8h0.045V8.5C49.417,13.194,38.672,17,25.417,17z"/>
		<path style="fill:#8697CB;" d="M1.417,8v0.5c0-0.168,0.018-0.334,0.045-0.5H1.417z"/>
		<path style="fill:#8697CB;" d="M49.372,8c0.027,0.166,0.045,0.332,0.045,0.5V8H49.372z"/>
	</g>
	<g>
		<circle style="fill:#71C386;" cx="42.583" cy="44" r="12"/>
		<path style="fill:#FFFFFF;" d="M48.583,43h-5v-5c0-0.552-0.448-1-1-1s-1,0.448-1,1v5h-5c-0.552,0-1,0.448-1,1s0.448,1,1,1h5v5
			c0,0.552,0.448,1,1,1s1-0.448,1-1v-5h5c0.552,0,1-0.448,1-1S49.136,43,48.583,43z"/>
	</g>
</g>
<g>
</g>
<g>
</g>
<g>
</g>
<g>
</g>
<g>
</g>
<g>
</g>
<g>
</g>
<g>
</g>
<g>
</g>
<g>
</g>
<g>
</g>
<g>
</g>
<g>
</g>
<g>
</g>
<g>
</g>
</svg>
