<?xml version="1.0" encoding="iso-8859-1"?>
<!-- Generator: Adobe Illustrator 18.0.0, SVG Export Plug-In . SVG Version: 6.00 Build 0)  -->
<!DOCTYPE svg PUBLIC "-//W3C//DTD SVG 1.1//EN" "http://www.w3.org/Graphics/SVG/1.1/DTD/svg11.dtd">
<svg version="1.1" id="Capa_1" xmlns="http://www.w3.org/2000/svg" xmlns:xlink="http://www.w3.org/1999/xlink" x="0px" y="0px"
	 viewBox="0 0 58 58" style="enable-background:new 0 0 58 58;" xml:space="preserve">
<g>
	<g>
		<polygon style="fill:#DCD6CD;" points="0,5 0,44 28,44 56,44 56,5 		"/>
		<path style="fill:#E8E3D9;" d="M30.965,27.107c-1.637,1.462-4.292,1.462-5.93,0l-2.087-1.843C16.419,31.091,0,44,0,44h21.607
			h12.787H56c0,0-16.419-12.909-22.948-18.736L30.965,27.107z"/>
		<path style="fill:#EFEBDE;" d="M0,5l25.035,22.107c1.637,1.462,4.292,1.462,5.93,0L56,5H0z"/>
	</g>
	<g>
		<circle style="fill:#71C386;" cx="46" cy="41" r="12"/>
		<path style="fill:#FFFFFF;" d="M52,40h-5v-5c0-0.552-0.448-1-1-1s-1,0.448-1,1v5h-5c-0.552,0-1,0.448-1,1s0.448,1,1,1h5v5
			c0,0.552,0.448,1,1,1s1-0.448,1-1v-5h5c0.552,0,1-0.448,1-1S52.552,40,52,40z"/>
	</g>
</g>
<g>
</g>
<g>
</g>
<g>
</g>
<g>
</g>
<g>
</g>
<g>
</g>
<g>
</g>
<g>
</g>
<g>
</g>
<g>
</g>
<g>
</g>
<g>
</g>
<g>
</g>
<g>
</g>
<g>
</g>
</svg>
