<?xml version="1.0" encoding="iso-8859-1"?>
<!-- Generator: Adobe Illustrator 18.0.0, SVG Export Plug-In . SVG Version: 6.00 Build 0)  -->
<!DOCTYPE svg PUBLIC "-//W3C//DTD SVG 1.1//EN" "http://www.w3.org/Graphics/SVG/1.1/DTD/svg11.dtd">
<svg version="1.1" id="Capa_1" xmlns="http://www.w3.org/2000/svg" xmlns:xlink="http://www.w3.org/1999/xlink" x="0px" y="0px"
	 viewBox="0 0 59 59" style="enable-background:new 0 0 59 59;" xml:space="preserve">
<g>
	<g>
		<polygon style="fill:#EFEBDE;" points="45.5,14 31.5,0 0.5,0 0.5,58 45.5,58 		"/>
		<g>
			<path style="fill:#D5D0BB;" d="M10.5,23h25c0.552,0,1-0.447,1-1s-0.448-1-1-1h-25c-0.552,0-1,0.447-1,1S9.948,23,10.5,23z"/>
			<path style="fill:#D5D0BB;" d="M10.5,15h10c0.552,0,1-0.447,1-1s-0.448-1-1-1h-10c-0.552,0-1,0.447-1,1S9.948,15,10.5,15z"/>
			<path style="fill:#D5D0BB;" d="M35.5,29h-25c-0.552,0-1,0.447-1,1s0.448,1,1,1h25c0.552,0,1-0.447,1-1S36.052,29,35.5,29z"/>
			<path style="fill:#D5D0BB;" d="M35.5,37h-25c-0.552,0-1,0.447-1,1s0.448,1,1,1h25c0.552,0,1-0.447,1-1S36.052,37,35.5,37z"/>
			<path style="fill:#D5D0BB;" d="M35.5,45h-25c-0.552,0-1,0.447-1,1s0.448,1,1,1h25c0.552,0,1-0.447,1-1S36.052,45,35.5,45z"/>
		</g>
		<polygon style="fill:#D5D0BB;" points="31.5,0 31.5,14 45.5,14 		"/>
	</g>
	<g>
		<circle style="fill:#48A0DC;" cx="46" cy="46.5" r="12.5"/>
		<path style="fill:#D0E8F9;" d="M46,36c-4.718,0-8.88,3.182-10.121,7.737c-0.146,0.533,0.169,1.083,0.702,1.228
			c0.528,0.143,1.082-0.168,1.228-0.702C38.813,40.575,42.182,38,46,38c4.687,0,8.5,3.813,8.5,8.5S50.687,55,46,55
			c-3.365,0-6.378-2.001-7.734-5H43.5v-2h-6h-1h-1v8h2v-3.341l0,0v-0.023C39.433,55.31,42.566,57,46,57c5.79,0,10.5-4.71,10.5-10.5
			S51.79,36,46,36z"/>
	</g>
</g>
<g>
</g>
<g>
</g>
<g>
</g>
<g>
</g>
<g>
</g>
<g>
</g>
<g>
</g>
<g>
</g>
<g>
</g>
<g>
</g>
<g>
</g>
<g>
</g>
<g>
</g>
<g>
</g>
<g>
</g>
</svg>
