<?xml version="1.0" encoding="iso-8859-1"?>
<!-- Generator: Adobe Illustrator 18.0.0, SVG Export Plug-In . SVG Version: 6.00 Build 0)  -->
<!DOCTYPE svg PUBLIC "-//W3C//DTD SVG 1.1//EN" "http://www.w3.org/Graphics/SVG/1.1/DTD/svg11.dtd">
<svg version="1.1" id="Capa_1" xmlns="http://www.w3.org/2000/svg" xmlns:xlink="http://www.w3.org/1999/xlink" x="0px" y="0px"
	 viewBox="0 0 58 58" style="enable-background:new 0 0 58 58;" xml:space="preserve">
<g>
	<g>
		<polygon style="fill:#EFEBDE;" points="46,14 32,0 1,0 1,58 46,58 		"/>
		<g>
			<path style="fill:#D5D0BB;" d="M11,23h25c0.552,0,1-0.447,1-1s-0.448-1-1-1H11c-0.552,0-1,0.447-1,1S10.448,23,11,23z"/>
			<path style="fill:#D5D0BB;" d="M11,15h10c0.552,0,1-0.447,1-1s-0.448-1-1-1H11c-0.552,0-1,0.447-1,1S10.448,15,11,15z"/>
			<path style="fill:#D5D0BB;" d="M36,29H11c-0.552,0-1,0.447-1,1s0.448,1,1,1h25c0.552,0,1-0.447,1-1S36.552,29,36,29z"/>
			<path style="fill:#D5D0BB;" d="M36,37H11c-0.552,0-1,0.447-1,1s0.448,1,1,1h25c0.552,0,1-0.447,1-1S36.552,37,36,37z"/>
			<path style="fill:#D5D0BB;" d="M36,45H11c-0.552,0-1,0.447-1,1s0.448,1,1,1h25c0.552,0,1-0.447,1-1S36.552,45,36,45z"/>
		</g>
		<polygon style="fill:#D5D0BB;" points="32,0 32,14 46,14 		"/>
	</g>
	<g>
		<circle style="fill:#76C9B0;" cx="46" cy="47" r="11"/>
		<path style="fill:#FFFFFF;" d="M52,46h-5v-5c0-0.552-0.447-1-1-1s-1,0.448-1,1v6c0,0.552,0.447,1,1,1h6c0.553,0,1-0.448,1-1
			S52.553,46,52,46z"/>
	</g>
</g>
<g>
</g>
<g>
</g>
<g>
</g>
<g>
</g>
<g>
</g>
<g>
</g>
<g>
</g>
<g>
</g>
<g>
</g>
<g>
</g>
<g>
</g>
<g>
</g>
<g>
</g>
<g>
</g>
<g>
</g>
</svg>
