<?xml version="1.0" encoding="iso-8859-1"?>
<!-- Generator: Adobe Illustrator 18.0.0, SVG Export Plug-In . SVG Version: 6.00 Build 0)  -->
<!DOCTYPE svg PUBLIC "-//W3C//DTD SVG 1.1//EN" "http://www.w3.org/Graphics/SVG/1.1/DTD/svg11.dtd">
<svg version="1.1" id="Capa_1" xmlns="http://www.w3.org/2000/svg" xmlns:xlink="http://www.w3.org/1999/xlink" x="0px" y="0px"
	 viewBox="0 0 58.981 58.981" style="enable-background:new 0 0 58.981 58.981;" xml:space="preserve">
<g>
	<g>
		<polygon style="fill:#EFEBDE;" points="45.482,14 31.482,0 0.482,0 0.482,58 45.482,58 		"/>
		<g>
			<path style="fill:#D5D0BB;" d="M10.482,23h25c0.552,0,1-0.447,1-1s-0.448-1-1-1h-25c-0.552,0-1,0.447-1,1S9.929,23,10.482,23z"/>
			<path style="fill:#D5D0BB;" d="M10.482,15h10c0.552,0,1-0.447,1-1s-0.448-1-1-1h-10c-0.552,0-1,0.447-1,1S9.929,15,10.482,15z"/>
			<path style="fill:#D5D0BB;" d="M35.482,29h-25c-0.552,0-1,0.447-1,1s0.448,1,1,1h25c0.552,0,1-0.447,1-1S36.034,29,35.482,29z"/>
			<path style="fill:#D5D0BB;" d="M35.482,37h-25c-0.552,0-1,0.447-1,1s0.448,1,1,1h25c0.552,0,1-0.447,1-1S36.034,37,35.482,37z"/>
			<path style="fill:#D5D0BB;" d="M35.482,45h-25c-0.552,0-1,0.447-1,1s0.448,1,1,1h25c0.552,0,1-0.447,1-1S36.034,45,35.482,45z"/>
		</g>
		<polygon style="fill:#D5D0BB;" points="31.482,0 31.482,14 45.482,14 		"/>
	</g>
	<g>
		<circle style="fill:#D0E8F9;" cx="44.277" cy="43.796" r="9.796"/>
		<path style="fill:#EAF6FD;" d="M47.83,34.674L35.156,47.348c0.706,1.81,1.93,3.357,3.495,4.459L52.289,38.17
			C51.187,36.604,49.64,35.38,47.83,34.674z"/>
		<path style="fill:#8697CB;" d="M58.223,57.291l-5.97-6.244c1.746-1.919,2.82-4.458,2.82-7.251C55.073,37.843,50.231,33,44.277,33
			s-10.796,4.843-10.796,10.796s4.843,10.796,10.796,10.796c2.442,0,4.689-0.824,6.499-2.196l6.001,6.276
			c0.196,0.206,0.459,0.309,0.723,0.309c0.249,0,0.497-0.092,0.691-0.277C58.59,58.323,58.605,57.689,58.223,57.291z M35.482,43.796
			c0-4.85,3.946-8.796,8.796-8.796s8.796,3.946,8.796,8.796s-3.946,8.796-8.796,8.796S35.482,48.646,35.482,43.796z"/>
	</g>
</g>
<g>
</g>
<g>
</g>
<g>
</g>
<g>
</g>
<g>
</g>
<g>
</g>
<g>
</g>
<g>
</g>
<g>
</g>
<g>
</g>
<g>
</g>
<g>
</g>
<g>
</g>
<g>
</g>
<g>
</g>
</svg>
