<?xml version="1.0" encoding="iso-8859-1"?>
<!-- Generator: Adobe Illustrator 18.0.0, SVG Export Plug-In . SVG Version: 6.00 Build 0)  -->
<!DOCTYPE svg PUBLIC "-//W3C//DTD SVG 1.1//EN" "http://www.w3.org/Graphics/SVG/1.1/DTD/svg11.dtd">
<svg version="1.1" id="Capa_1" xmlns="http://www.w3.org/2000/svg" xmlns:xlink="http://www.w3.org/1999/xlink" x="0px" y="0px"
	 viewBox="0 0 58 58" style="enable-background:new 0 0 58 58;" xml:space="preserve">
<g>
	<g>
		<polygon style="fill:#EFEBDE;" points="46.5,14 32.5,0 1.5,0 1.5,58 46.5,58 		"/>
		<g>
			<path style="fill:#D5D0BB;" d="M11.5,23h25c0.552,0,1-0.447,1-1s-0.448-1-1-1h-25c-0.552,0-1,0.447-1,1S10.948,23,11.5,23z"/>
			<path style="fill:#D5D0BB;" d="M11.5,15h10c0.552,0,1-0.447,1-1s-0.448-1-1-1h-10c-0.552,0-1,0.447-1,1S10.948,15,11.5,15z"/>
			<path style="fill:#D5D0BB;" d="M36.5,29h-25c-0.552,0-1,0.447-1,1s0.448,1,1,1h25c0.552,0,1-0.447,1-1S37.052,29,36.5,29z"/>
			<path style="fill:#D5D0BB;" d="M36.5,37h-25c-0.552,0-1,0.447-1,1s0.448,1,1,1h25c0.552,0,1-0.447,1-1S37.052,37,36.5,37z"/>
			<path style="fill:#D5D0BB;" d="M36.5,45h-25c-0.552,0-1,0.447-1,1s0.448,1,1,1h25c0.552,0,1-0.447,1-1S37.052,45,36.5,45z"/>
		</g>
		<polygon style="fill:#D5D0BB;" points="32.5,0 32.5,14 46.5,14 		"/>
	</g>
	<g>
		<rect x="36.5" y="42" style="fill:#CBB292;" width="20" height="16"/>
		<path style="fill:#7F5C53;" d="M49.5,49c0-1.657-1.343-3-3-3s-3,1.343-3,3c0,1.317,0.854,2.424,2.035,2.827
			C45.524,51.885,45.5,51.939,45.5,52v2c0,0.552,0.448,1,1,1s1-0.448,1-1v-2c0-0.061-0.024-0.115-0.035-0.173
			C48.646,51.424,49.5,50.317,49.5,49z"/>
		<path style="fill:#BDC3C7;" d="M41.5,40c0-2.757,2.243-5,5-5s5,2.243,5,5v2h2v-2c0-3.86-3.14-7-7-7s-7,3.14-7,7v2h2V40z"/>
	</g>
</g>
<g>
</g>
<g>
</g>
<g>
</g>
<g>
</g>
<g>
</g>
<g>
</g>
<g>
</g>
<g>
</g>
<g>
</g>
<g>
</g>
<g>
</g>
<g>
</g>
<g>
</g>
<g>
</g>
<g>
</g>
</svg>
