<?xml version="1.0" encoding="iso-8859-1"?>
<!-- Generator: Adobe Illustrator 18.0.0, SVG Export Plug-In . SVG Version: 6.00 Build 0)  -->
<!DOCTYPE svg PUBLIC "-//W3C//DTD SVG 1.1//EN" "http://www.w3.org/Graphics/SVG/1.1/DTD/svg11.dtd">
<svg version="1.1" id="Capa_1" xmlns="http://www.w3.org/2000/svg" xmlns:xlink="http://www.w3.org/1999/xlink" x="0px" y="0px"
	 viewBox="0 0 59 59" style="enable-background:new 0 0 59 59;" xml:space="preserve">
<g>
	<g>
		<polygon style="fill:#EFEBDE;" points="45,14 31,0 0,0 0,58 45,58 		"/>
		<g>
			<path style="fill:#D5D0BB;" d="M10,23h25c0.552,0,1-0.447,1-1s-0.448-1-1-1H10c-0.552,0-1,0.447-1,1S9.448,23,10,23z"/>
			<path style="fill:#D5D0BB;" d="M10,15h10c0.552,0,1-0.447,1-1s-0.448-1-1-1H10c-0.552,0-1,0.447-1,1S9.448,15,10,15z"/>
			<path style="fill:#D5D0BB;" d="M35,29H10c-0.552,0-1,0.447-1,1s0.448,1,1,1h25c0.552,0,1-0.447,1-1S35.552,29,35,29z"/>
			<path style="fill:#D5D0BB;" d="M35,37H10c-0.552,0-1,0.447-1,1s0.448,1,1,1h25c0.552,0,1-0.447,1-1S35.552,37,35,37z"/>
			<path style="fill:#D5D0BB;" d="M35,45H10c-0.552,0-1,0.447-1,1s0.448,1,1,1h25c0.552,0,1-0.447,1-1S35.552,45,35,45z"/>
		</g>
		<polygon style="fill:#D5D0BB;" points="31,0 31,14 45,14 		"/>
	</g>
	<g>
		<circle style="fill:#8697CB;" cx="46.5" cy="46.5" r="12.5"/>
		<g>
			<path style="fill:#C1BDDE;" d="M56.193,47.019c-0.55-0.113-1.068,0.246-1.175,0.788C54.198,51.975,50.616,55,46.5,55
				c-3.351,0-6.347-2.006-7.789-5H44v-2h-6h-1h-1v8h2v-3.341C39.976,55.315,43.085,57,46.5,57c5.068,0,9.477-3.704,10.481-8.807
				C57.087,47.651,56.735,47.125,56.193,47.019z"/>
			<path style="fill:#C1BDDE;" d="M55,36.998v3.341c-1.976-2.657-5.086-4.341-8.5-4.341c-5.068,0-9.477,3.704-10.481,8.807
				c-0.106,0.542,0.246,1.068,0.788,1.174c0.55,0.113,1.068-0.246,1.175-0.788c0.82-4.168,4.402-7.193,8.519-7.193
				c3.351,0,6.347,2.006,7.789,5H49v2h6h1h1v-8H55z"/>
		</g>
	</g>
</g>
<g>
</g>
<g>
</g>
<g>
</g>
<g>
</g>
<g>
</g>
<g>
</g>
<g>
</g>
<g>
</g>
<g>
</g>
<g>
</g>
<g>
</g>
<g>
</g>
<g>
</g>
<g>
</g>
<g>
</g>
</svg>
