<?xml version="1.0" encoding="iso-8859-1"?>
<!-- Generator: Adobe Illustrator 18.0.0, SVG Export Plug-In . SVG Version: 6.00 Build 0)  -->
<!DOCTYPE svg PUBLIC "-//W3C//DTD SVG 1.1//EN" "http://www.w3.org/Graphics/SVG/1.1/DTD/svg11.dtd">
<svg version="1.1" id="Capa_1" xmlns="http://www.w3.org/2000/svg" xmlns:xlink="http://www.w3.org/1999/xlink" x="0px" y="0px"
	 viewBox="0 0 58.195 58.195" style="enable-background:new 0 0 58.195 58.195;" xml:space="preserve">
<g>
	<g>
		<polygon style="fill:#EFEBDE;" points="45,14.097 31,0.097 0,0.097 0,58.097 45,58.097 		"/>
		<g>
			<path style="fill:#D5D0BB;" d="M10,23.097h25c0.552,0,1-0.447,1-1s-0.448-1-1-1H10c-0.552,0-1,0.447-1,1S9.448,23.097,10,23.097z
				"/>
			<path style="fill:#D5D0BB;" d="M10,15.097h10c0.552,0,1-0.447,1-1s-0.448-1-1-1H10c-0.552,0-1,0.447-1,1S9.448,15.097,10,15.097z
				"/>
			<path style="fill:#D5D0BB;" d="M35,29.097H10c-0.552,0-1,0.447-1,1s0.448,1,1,1h25c0.552,0,1-0.447,1-1S35.552,29.097,35,29.097z
				"/>
			<path style="fill:#D5D0BB;" d="M35,37.097H10c-0.552,0-1,0.447-1,1s0.448,1,1,1h25c0.552,0,1-0.447,1-1S35.552,37.097,35,37.097z
				"/>
			<path style="fill:#D5D0BB;" d="M35,45.097H10c-0.552,0-1,0.447-1,1s0.448,1,1,1h25c0.552,0,1-0.447,1-1S35.552,45.097,35,45.097z
				"/>
		</g>
		<polygon style="fill:#D5D0BB;" points="31,0.097 31,14.097 45,14.097 		"/>
	</g>
	<g>
		<path style="fill:#FFFFFF;" d="M57,48.289l-0.107,0.163c-7.121,10.876-18.773,10.876-25.893,0l0,0l0.107-0.163
			C38.227,37.412,49.879,37.412,57,48.289L57,48.289z"/>
		<circle style="fill:#556080;" cx="43.764" cy="46.007" r="5.909"/>
		<path style="fill:#8697CB;" d="M43.947,57.609c-5.254,0-10.148-3.058-13.783-8.609l-0.358-0.547l0.465-0.711
			c3.635-5.552,8.53-8.609,13.784-8.609c5.253,0,10.148,3.057,13.783,8.609l0.358,0.547l-0.465,0.711
			C54.095,54.552,49.2,57.609,43.947,57.609z M32.203,48.448c3.206,4.624,7.356,7.161,11.744,7.161c4.436,0,8.63-2.594,11.85-7.317
			c-3.206-4.624-7.356-7.161-11.743-7.161C39.617,41.132,35.423,43.725,32.203,48.448z"/>
	</g>
</g>
<g>
</g>
<g>
</g>
<g>
</g>
<g>
</g>
<g>
</g>
<g>
</g>
<g>
</g>
<g>
</g>
<g>
</g>
<g>
</g>
<g>
</g>
<g>
</g>
<g>
</g>
<g>
</g>
<g>
</g>
</svg>
