<?xml version="1.0" encoding="iso-8859-1"?>
<!-- Generator: Adobe Illustrator 18.0.0, SVG Export Plug-In . SVG Version: 6.00 Build 0)  -->
<!DOCTYPE svg PUBLIC "-//W3C//DTD SVG 1.1//EN" "http://www.w3.org/Graphics/SVG/1.1/DTD/svg11.dtd">
<svg version="1.1" id="Capa_1" xmlns="http://www.w3.org/2000/svg" xmlns:xlink="http://www.w3.org/1999/xlink" x="0px" y="0px"
	 viewBox="0 0 58 58" style="enable-background:new 0 0 58 58;" xml:space="preserve">
<g>
	<g>
		<polygon style="fill:#EFEBDE;" points="45,14 31,0 0,0 0,58 45,58 		"/>
		<g>
			<path style="fill:#D5D0BB;" d="M10,23h25c0.552,0,1-0.447,1-1s-0.448-1-1-1H10c-0.552,0-1,0.447-1,1S9.448,23,10,23z"/>
			<path style="fill:#D5D0BB;" d="M10,15h10c0.552,0,1-0.447,1-1s-0.448-1-1-1H10c-0.552,0-1,0.447-1,1S9.448,15,10,15z"/>
			<path style="fill:#D5D0BB;" d="M35,29H10c-0.552,0-1,0.447-1,1s0.448,1,1,1h25c0.552,0,1-0.447,1-1S35.552,29,35,29z"/>
			<path style="fill:#D5D0BB;" d="M35,37H10c-0.552,0-1,0.447-1,1s0.448,1,1,1h25c0.552,0,1-0.447,1-1S35.552,37,35,37z"/>
			<path style="fill:#D5D0BB;" d="M35,45H10c-0.552,0-1,0.447-1,1s0.448,1,1,1h25c0.552,0,1-0.447,1-1S35.552,45,35,45z"/>
		</g>
		<polygon style="fill:#D5D0BB;" points="31,0 31,14 45,14 		"/>
	</g>
	<g>
		<path style="fill:#EFC41A;" d="M56.761,58H33.07c-0.955,0-1.55-1.036-1.069-1.861l11.845-20.306c0.478-0.819,1.66-0.819,2.138,0
			L57.83,56.139C58.311,56.964,57.716,58,56.761,58z"/>
		<path style="fill:#FFFFFF;" d="M45,51c-0.552,0-1-0.448-1-1v-8c0-0.552,0.448-1,1-1s1,0.448,1,1v8C46,50.552,45.552,51,45,51z"/>
		<path style="fill:#FFFFFF;" d="M45,55c-0.26,0-0.52-0.11-0.71-0.29C44.11,54.52,44,54.26,44,54c0-0.26,0.11-0.52,0.29-0.71
			c0.38-0.37,1.04-0.37,1.42,0C45.89,53.48,46,53.74,46,54c0,0.26-0.11,0.52-0.29,0.71C45.52,54.89,45.27,55,45,55z"/>
	</g>
</g>
<g>
</g>
<g>
</g>
<g>
</g>
<g>
</g>
<g>
</g>
<g>
</g>
<g>
</g>
<g>
</g>
<g>
</g>
<g>
</g>
<g>
</g>
<g>
</g>
<g>
</g>
<g>
</g>
<g>
</g>
</svg>
