<?xml version="1.0" encoding="iso-8859-1"?>
<!-- Generator: Adobe Illustrator 18.0.0, SVG Export Plug-In . SVG Version: 6.00 Build 0)  -->
<!DOCTYPE svg PUBLIC "-//W3C//DTD SVG 1.1//EN" "http://www.w3.org/Graphics/SVG/1.1/DTD/svg11.dtd">
<svg version="1.1" id="Capa_1" xmlns="http://www.w3.org/2000/svg" xmlns:xlink="http://www.w3.org/1999/xlink" x="0px" y="0px"
	 viewBox="0 0 58 58" style="enable-background:new 0 0 58 58;" xml:space="preserve">
<g>
	<g>
		<polygon style="fill:#EFEBDE;" points="47.222,14 33.222,0 2.222,0 2.222,58 47.222,58 		"/>
		<g>
			<path style="fill:#D5D0BB;" d="M12.222,23h25c0.552,0,1-0.447,1-1s-0.448-1-1-1h-25c-0.552,0-1,0.447-1,1S11.669,23,12.222,23z"
				/>
			<path style="fill:#D5D0BB;" d="M12.222,15h10c0.552,0,1-0.447,1-1s-0.448-1-1-1h-10c-0.552,0-1,0.447-1,1S11.669,15,12.222,15z"
				/>
			<path style="fill:#D5D0BB;" d="M37.222,29h-25c-0.552,0-1,0.447-1,1s0.448,1,1,1h25c0.552,0,1-0.447,1-1S37.774,29,37.222,29z"/>
			<path style="fill:#D5D0BB;" d="M37.222,37h-25c-0.552,0-1,0.447-1,1s0.448,1,1,1h25c0.552,0,1-0.447,1-1S37.774,37,37.222,37z"/>
			<path style="fill:#D5D0BB;" d="M37.222,45h-25c-0.552,0-1,0.447-1,1s0.448,1,1,1h25c0.552,0,1-0.447,1-1S37.774,45,37.222,45z"/>
		</g>
		<polygon style="fill:#D5D0BB;" points="33.222,0 33.222,14 47.222,14 		"/>
	</g>
	<g>
		<path style="fill:#3D324C;" d="M55.485,55.293l-6.797-6.797l6.483-3.241l-17.637-6.498l6.499,17.637l3.241-6.484l6.797,6.797
			C54.267,56.902,54.522,57,54.778,57s0.512-0.098,0.707-0.293C55.876,56.316,55.876,55.684,55.485,55.293z"/>
	</g>
</g>
<g>
</g>
<g>
</g>
<g>
</g>
<g>
</g>
<g>
</g>
<g>
</g>
<g>
</g>
<g>
</g>
<g>
</g>
<g>
</g>
<g>
</g>
<g>
</g>
<g>
</g>
<g>
</g>
<g>
</g>
</svg>
