<?xml version="1.0" encoding="iso-8859-1"?>
<!-- Generator: Adobe Illustrator 18.0.0, SVG Export Plug-In . SVG Version: 6.00 Build 0)  -->
<!DOCTYPE svg PUBLIC "-//W3C//DTD SVG 1.1//EN" "http://www.w3.org/Graphics/SVG/1.1/DTD/svg11.dtd">
<svg version="1.1" id="Capa_1" xmlns="http://www.w3.org/2000/svg" xmlns:xlink="http://www.w3.org/1999/xlink" x="0px" y="0px"
	 viewBox="0 0 58 58" style="enable-background:new 0 0 58 58;" xml:space="preserve">
<g>
	<g>
		<polygon style="fill:#EFEBDE;" points="45.5,14 31.5,0 0.5,0 0.5,58 45.5,58 		"/>
		<g>
			<path style="fill:#D5D0BB;" d="M10.5,23h25c0.552,0,1-0.447,1-1s-0.448-1-1-1h-25c-0.552,0-1,0.447-1,1S9.948,23,10.5,23z"/>
			<path style="fill:#D5D0BB;" d="M10.5,15h10c0.552,0,1-0.447,1-1s-0.448-1-1-1h-10c-0.552,0-1,0.447-1,1S9.948,15,10.5,15z"/>
			<path style="fill:#D5D0BB;" d="M35.5,29h-25c-0.552,0-1,0.447-1,1s0.448,1,1,1h25c0.552,0,1-0.447,1-1S36.052,29,35.5,29z"/>
			<path style="fill:#D5D0BB;" d="M35.5,37h-25c-0.552,0-1,0.447-1,1s0.448,1,1,1h25c0.552,0,1-0.447,1-1S36.052,37,35.5,37z"/>
			<path style="fill:#D5D0BB;" d="M35.5,45h-25c-0.552,0-1,0.447-1,1s0.448,1,1,1h25c0.552,0,1-0.447,1-1S36.052,45,35.5,45z"/>
		</g>
		<polygon style="fill:#D5D0BB;" points="31.5,0 31.5,14 45.5,14 		"/>
	</g>
	<g>
		<polygon style="fill:#F29C21;" points="45.5,36 49.208,43.242 57.5,44.403 51.5,50.04 52.916,58 45.5,54.242 38.084,58 
			39.5,50.04 33.5,44.403 41.792,43.242 		"/>
	</g>
</g>
<g>
</g>
<g>
</g>
<g>
</g>
<g>
</g>
<g>
</g>
<g>
</g>
<g>
</g>
<g>
</g>
<g>
</g>
<g>
</g>
<g>
</g>
<g>
</g>
<g>
</g>
<g>
</g>
<g>
</g>
</svg>
