<?xml version="1.0" encoding="iso-8859-1"?>
<!-- Generator: Adobe Illustrator 18.0.0, SVG Export Plug-In . SVG Version: 6.00 Build 0)  -->
<!DOCTYPE svg PUBLIC "-//W3C//DTD SVG 1.1//EN" "http://www.w3.org/Graphics/SVG/1.1/DTD/svg11.dtd">
<svg version="1.1" id="Capa_1" xmlns="http://www.w3.org/2000/svg" xmlns:xlink="http://www.w3.org/1999/xlink" x="0px" y="0px"
	 viewBox="0 0 59.39 59.39" style="enable-background:new 0 0 59.39 59.39;" xml:space="preserve">
<g>
	<g>
		<polygon style="fill:#556080;" points="25,10.695 20,3.695 0,3.695 0,10.695 0,54.695 58,54.695 58,17.695 30,17.695 		"/>
		<polygon style="fill:#3D4451;" points="30,17.695 58,17.695 58,10.695 25,10.695 		"/>
	</g>
	<g>
		<circle style="fill:#ED7161;" cx="47.39" cy="43.695" r="12"/>
		<path style="fill:#FFFFFF;" d="M48.804,43.695l3.536-3.536c0.391-0.391,0.391-1.023,0-1.414s-1.023-0.391-1.414,0l-3.536,3.536
			l-3.536-3.536c-0.391-0.391-1.023-0.391-1.414,0s-0.391,1.023,0,1.414l3.536,3.536L42.44,47.23c-0.391,0.391-0.391,1.023,0,1.414
			c0.195,0.195,0.451,0.293,0.707,0.293s0.512-0.098,0.707-0.293l3.536-3.536l3.536,3.536c0.195,0.195,0.451,0.293,0.707,0.293
			s0.512-0.098,0.707-0.293c0.391-0.391,0.391-1.023,0-1.414L48.804,43.695z"/>
	</g>
</g>
<g>
</g>
<g>
</g>
<g>
</g>
<g>
</g>
<g>
</g>
<g>
</g>
<g>
</g>
<g>
</g>
<g>
</g>
<g>
</g>
<g>
</g>
<g>
</g>
<g>
</g>
<g>
</g>
<g>
</g>
</svg>
