<?xml version="1.0" encoding="iso-8859-1"?>
<!-- Generator: Adobe Illustrator 18.0.0, SVG Export Plug-In . SVG Version: 6.00 Build 0)  -->
<!DOCTYPE svg PUBLIC "-//W3C//DTD SVG 1.1//EN" "http://www.w3.org/Graphics/SVG/1.1/DTD/svg11.dtd">
<svg version="1.1" id="Capa_1" xmlns="http://www.w3.org/2000/svg" xmlns:xlink="http://www.w3.org/1999/xlink" x="0px" y="0px"
	 viewBox="0 0 59.39 59.39" style="enable-background:new 0 0 59.39 59.39;" xml:space="preserve">
<g>
	<g>
		<polygon style="fill:#556080;" points="25,10.195 20,3.195 0,3.195 0,10.195 0,54.195 58,54.195 58,17.195 30,17.195 		"/>
		<polygon style="fill:#3D4451;" points="30,17.195 58,17.195 58,10.195 25,10.195 		"/>
	</g>
	<g>
		<path style="fill:#D0E8F9;" d="M49.39,43.195h-2l0,0c-3.633-1.453-6-4.861-6-8.64v-3.36h14v3.36
			C55.39,38.333,53.023,41.742,49.39,43.195L49.39,43.195z"/>
		<path style="fill:#D0E8F9;" d="M47.39,43.195h2l0,0c3.633,1.453,6,4.861,6,8.64v3.36h-14v-3.36
			C41.39,48.056,43.756,44.648,47.39,43.195L47.39,43.195z"/>
		<g>
			<path style="fill:#BDC3C7;" d="M38.39,32.195h1h2h17c0.553,0,1-0.448,1-1s-0.447-1-1-1h-17h-2h-1c-0.553,0-1,0.448-1,1
				S37.837,32.195,38.39,32.195z"/>
			<path style="fill:#BDC3C7;" d="M58.389,54.193h-18c-0.003,0-0.006,0.002-0.01,0.002H38.39c-0.553,0-1,0.448-1,1s0.447,1,1,1h3
				c0.003,0,0.006-0.002,0.01-0.002h16.989c0.553,0,1-0.448,1-1S58.941,54.193,58.389,54.193z"/>
		</g>
	</g>
</g>
<g>
</g>
<g>
</g>
<g>
</g>
<g>
</g>
<g>
</g>
<g>
</g>
<g>
</g>
<g>
</g>
<g>
</g>
<g>
</g>
<g>
</g>
<g>
</g>
<g>
</g>
<g>
</g>
<g>
</g>
</svg>
