<?xml version="1.0" encoding="iso-8859-1"?>
<!-- Generator: Adobe Illustrator 18.0.0, SVG Export Plug-In . SVG Version: 6.00 Build 0)  -->
<!DOCTYPE svg PUBLIC "-//W3C//DTD SVG 1.1//EN" "http://www.w3.org/Graphics/SVG/1.1/DTD/svg11.dtd">
<svg version="1.1" id="Capa_1" xmlns="http://www.w3.org/2000/svg" xmlns:xlink="http://www.w3.org/1999/xlink" x="0px" y="0px"
	 viewBox="0 0 60.39 60.39" style="enable-background:new 0 0 60.39 60.39;" xml:space="preserve">
<g>
	<g>
		<polygon style="fill:#556080;" points="25,10.695 20,3.695 0,3.695 0,10.695 0,54.695 58,54.695 58,17.695 30,17.695 		"/>
		<polygon style="fill:#3D4451;" points="30,17.695 58,17.695 58,10.695 25,10.695 		"/>
	</g>
	<g>
		<path style="fill:#BDC3C7;" d="M60.39,43.541l-1.444-0.278c-2.143-0.412-3.125-2.916-1.835-4.675l0.907-1.236l-1.958-1.958
			l-1.217,0.825c-1.806,1.224-4.272,0.148-4.604-2.008l-0.233-1.515h-2.769l-0.359,1.865c-0.403,2.096-2.818,3.096-4.585,1.899
			l-1.572-1.065l-1.958,1.958l0.907,1.236c1.29,1.76,0.308,4.263-1.835,4.675l-1.444,0.278v2.769l1.515,0.233
			c2.157,0.332,3.232,2.797,2.008,4.604l-0.825,1.217l1.958,1.958l1.236-0.907c1.76-1.29,4.263-0.308,4.675,1.835l0.278,1.444h2.769
			l0.164-1.066c0.339-2.204,2.896-3.263,4.694-1.944l0.869,0.638l1.958-1.958l-0.825-1.217c-1.224-1.806-0.148-4.272,2.008-4.604
			l1.515-0.233V43.541z"/>
		<g>
			<circle style="fill:#FFFFFF;" cx="48.39" cy="44.695" r="4"/>
			<path style="fill:#ECF0F1;" d="M48.39,49.695c-2.757,0-5-2.243-5-5s2.243-5,5-5s5,2.243,5,5S51.146,49.695,48.39,49.695z
				 M48.39,41.695c-1.654,0-3,1.346-3,3s1.346,3,3,3s3-1.346,3-3S50.044,41.695,48.39,41.695z"/>
		</g>
	</g>
</g>
<g>
</g>
<g>
</g>
<g>
</g>
<g>
</g>
<g>
</g>
<g>
</g>
<g>
</g>
<g>
</g>
<g>
</g>
<g>
</g>
<g>
</g>
<g>
</g>
<g>
</g>
<g>
</g>
<g>
</g>
</svg>
