<?xml version="1.0" encoding="iso-8859-1"?>
<!-- Generator: Adobe Illustrator 18.0.0, SVG Export Plug-In . SVG Version: 6.00 Build 0)  -->
<!DOCTYPE svg PUBLIC "-//W3C//DTD SVG 1.1//EN" "http://www.w3.org/Graphics/SVG/1.1/DTD/svg11.dtd">
<svg version="1.1" id="Capa_1" xmlns="http://www.w3.org/2000/svg" xmlns:xlink="http://www.w3.org/1999/xlink" x="0px" y="0px"
	 viewBox="0 0 59 59" style="enable-background:new 0 0 59 59;" xml:space="preserve">
<g>
	<g>
		<polygon style="fill:#556080;" points="25,10 20,3 0,3 0,10 0,54 58,54 58,17 30,17 		"/>
		<polygon style="fill:#3D4451;" points="30,17 58,17 58,10 25,10 		"/>
	</g>
	<g>
		<path style="fill:#FFFFFF;" d="M57.805,46.679l-0.107,0.163c-7.121,10.876-18.773,10.876-25.893,0l0,0l0.107-0.163
			C39.033,35.803,50.685,35.803,57.805,46.679L57.805,46.679z"/>
		<circle style="fill:#556080;" cx="44.569" cy="44.397" r="5.909"/>
		<path style="fill:#B1D3EF;" d="M44.752,56c-5.254,0-10.148-3.058-13.783-8.609l-0.358-0.547l0.465-0.711
			c3.635-5.552,8.53-8.609,13.784-8.609c5.253,0,10.148,3.057,13.783,8.609L59,46.679l-0.465,0.711C54.9,52.942,50.005,56,44.752,56
			z M33.008,46.839C36.214,51.463,40.365,54,44.752,54c4.436,0,8.63-2.594,11.85-7.317c-3.206-4.624-7.356-7.161-11.743-7.161
			C40.422,39.522,36.229,42.116,33.008,46.839z"/>
	</g>
</g>
<g>
</g>
<g>
</g>
<g>
</g>
<g>
</g>
<g>
</g>
<g>
</g>
<g>
</g>
<g>
</g>
<g>
</g>
<g>
</g>
<g>
</g>
<g>
</g>
<g>
</g>
<g>
</g>
<g>
</g>
</svg>
