<?xml version="1.0" encoding="iso-8859-1"?>
<!-- Generator: Adobe Illustrator 18.0.0, SVG Export Plug-In . SVG Version: 6.00 Build 0)  -->
<!DOCTYPE svg PUBLIC "-//W3C//DTD SVG 1.1//EN" "http://www.w3.org/Graphics/SVG/1.1/DTD/svg11.dtd">
<svg version="1.1" id="Capa_1" xmlns="http://www.w3.org/2000/svg" xmlns:xlink="http://www.w3.org/1999/xlink" x="0px" y="0px"
	 viewBox="0 0 58.39 58.39" style="enable-background:new 0 0 58.39 58.39;" xml:space="preserve">
<g>
	<g>
		<polygon style="fill:#556080;" points="25,10.195 20,3.195 0,3.195 0,10.195 0,54.195 58,54.195 58,17.195 30,17.195 		"/>
		<polygon style="fill:#3D4451;" points="30,17.195 58,17.195 58,10.195 25,10.195 		"/>
	</g>
	<g>
		<path style="fill:#EFC41A;" d="M57.15,55.195H33.46c-0.955,0-1.55-1.036-1.069-1.861l11.845-20.306
			c0.478-0.819,1.66-0.819,2.138,0l11.845,20.306C58.7,54.159,58.105,55.195,57.15,55.195z"/>
		<path style="fill:#FFFFFF;" d="M45.39,48.195c-0.552,0-1-0.448-1-1v-8c0-0.552,0.448-1,1-1s1,0.448,1,1v8
			C46.39,47.747,45.942,48.195,45.39,48.195z"/>
		<path style="fill:#FFFFFF;" d="M45.39,52.195c-0.26,0-0.52-0.11-0.71-0.29c-0.18-0.19-0.29-0.45-0.29-0.71
			c0-0.26,0.11-0.52,0.29-0.71c0.38-0.37,1.04-0.37,1.42,0c0.18,0.19,0.29,0.45,0.29,0.71c0,0.26-0.11,0.52-0.29,0.71
			C45.91,52.084,45.66,52.195,45.39,52.195z"/>
	</g>
</g>
<g>
</g>
<g>
</g>
<g>
</g>
<g>
</g>
<g>
</g>
<g>
</g>
<g>
</g>
<g>
</g>
<g>
</g>
<g>
</g>
<g>
</g>
<g>
</g>
<g>
</g>
<g>
</g>
<g>
</g>
</svg>
