<?xml version="1.0" encoding="iso-8859-1"?>
<!-- Generator: Adobe Illustrator 18.0.0, SVG Export Plug-In . SVG Version: 6.00 Build 0)  -->
<!DOCTYPE svg PUBLIC "-//W3C//DTD SVG 1.1//EN" "http://www.w3.org/Graphics/SVG/1.1/DTD/svg11.dtd">
<svg version="1.1" id="Capa_1" xmlns="http://www.w3.org/2000/svg" xmlns:xlink="http://www.w3.org/1999/xlink" x="0px" y="0px"
	 viewBox="0 0 59.39 59.39" style="enable-background:new 0 0 59.39 59.39;" xml:space="preserve">
<g>
	<g>
		<polygon style="fill:#556080;" points="25,10.195 20,3.195 0,3.195 0,10.195 0,54.195 58,54.195 58,17.195 30,17.195 		"/>
		<polygon style="fill:#3D4451;" points="30,17.195 58,17.195 58,10.195 25,10.195 		"/>
	</g>
	<g>
		<circle style="fill:#B1D3EF;" cx="46.89" cy="43.695" r="12.5"/>
		<path style="fill:#556080;" d="M46.89,33.195c-4.718,0-8.88,3.182-10.121,7.737c-0.146,0.533,0.169,1.083,0.702,1.228
			c0.528,0.143,1.082-0.168,1.228-0.702c1.005-3.688,4.373-6.263,8.191-6.263c4.687,0,8.5,3.813,8.5,8.5s-3.813,8.5-8.5,8.5
			c-3.365,0-6.378-2.001-7.734-5h5.234v-2h-6h-1h-1v8h2v-3.341l0,0v-0.023c1.933,2.674,5.066,4.364,8.5,4.364
			c5.79,0,10.5-4.71,10.5-10.5S52.68,33.195,46.89,33.195z"/>
	</g>
</g>
<g>
</g>
<g>
</g>
<g>
</g>
<g>
</g>
<g>
</g>
<g>
</g>
<g>
</g>
<g>
</g>
<g>
</g>
<g>
</g>
<g>
</g>
<g>
</g>
<g>
</g>
<g>
</g>
<g>
</g>
</svg>
