<?xml version="1.0" encoding="iso-8859-1"?>
<!-- Generator: Adobe Illustrator 18.0.0, SVG Export Plug-In . SVG Version: 6.00 Build 0)  -->
<!DOCTYPE svg PUBLIC "-//W3C//DTD SVG 1.1//EN" "http://www.w3.org/Graphics/SVG/1.1/DTD/svg11.dtd">
<svg version="1.1" id="Capa_1" xmlns="http://www.w3.org/2000/svg" xmlns:xlink="http://www.w3.org/1999/xlink" x="0px" y="0px"
	 viewBox="0 0 58.39 58.39" style="enable-background:new 0 0 58.39 58.39;" xml:space="preserve">
<g>
	<g>
		<polygon style="fill:#556080;" points="25,9.695 20,2.695 0,2.695 0,9.695 0,53.695 58,53.695 58,16.695 30,16.695 		"/>
		<polygon style="fill:#3D4451;" points="30,16.695 58,16.695 58,9.695 25,9.695 		"/>
	</g>
	<g>
		<circle style="fill:#B1D3EF;" cx="45.89" cy="43.195" r="12.5"/>
		<g>
			<path style="fill:#556080;" d="M55.583,43.714c-0.55-0.113-1.068,0.246-1.175,0.788c-0.82,4.168-4.402,7.193-8.519,7.193
				c-3.351,0-6.347-2.006-7.789-5h5.289v-2h-6h-1h-1v8h2v-3.341c1.976,2.657,5.086,4.341,8.5,4.341
				c5.068,0,9.477-3.704,10.481-8.807C56.477,44.346,56.125,43.82,55.583,43.714z"/>
			<path style="fill:#556080;" d="M54.39,33.693v3.341c-1.976-2.657-5.086-4.341-8.5-4.341c-5.068,0-9.477,3.704-10.481,8.807
				c-0.106,0.542,0.246,1.068,0.788,1.174c0.55,0.113,1.068-0.246,1.175-0.788c0.82-4.168,4.402-7.193,8.519-7.193
				c3.351,0,6.347,2.006,7.789,5H48.39v2h6h1h1v-8H54.39z"/>
		</g>
	</g>
</g>
<g>
</g>
<g>
</g>
<g>
</g>
<g>
</g>
<g>
</g>
<g>
</g>
<g>
</g>
<g>
</g>
<g>
</g>
<g>
</g>
<g>
</g>
<g>
</g>
<g>
</g>
<g>
</g>
<g>
</g>
</svg>
