<?xml version="1.0" encoding="iso-8859-1"?>
<!-- Generator: Adobe Illustrator 18.0.0, SVG Export Plug-In . SVG Version: 6.00 Build 0)  -->
<!DOCTYPE svg PUBLIC "-//W3C//DTD SVG 1.1//EN" "http://www.w3.org/Graphics/SVG/1.1/DTD/svg11.dtd">
<svg version="1.1" id="Capa_1" xmlns="http://www.w3.org/2000/svg" xmlns:xlink="http://www.w3.org/1999/xlink" x="0px" y="0px"
	 viewBox="0 0 59.39 59.39" style="enable-background:new 0 0 59.39 59.39;" xml:space="preserve">
<g>
	<g>
		<polygon style="fill:#556080;" points="25,10.695 20,3.695 0,3.695 0,10.695 0,54.695 58,54.695 58,17.695 30,17.695 		"/>
		<polygon style="fill:#3D4451;" points="30,17.695 58,17.695 58,10.695 25,10.695 		"/>
	</g>
	<g>
		<path style="fill:#ED7161;" d="M47.39,38.895c0.969-2.183,3.109-4.2,5.684-4.2c3.467,0,5.964,2.821,6.278,6.183
			c0,0,0.17,0.835-0.203,2.337c-0.508,2.046-1.701,3.864-3.311,5.251l-8.447,7.228l-8.447-7.229
			c-1.61-1.387-2.803-3.205-3.311-5.251c-0.373-1.502-0.203-2.337-0.203-2.337c0.314-3.362,2.811-6.183,6.278-6.183
			C44.28,34.695,46.421,36.711,47.39,38.895z"/>
	</g>
</g>
<g>
</g>
<g>
</g>
<g>
</g>
<g>
</g>
<g>
</g>
<g>
</g>
<g>
</g>
<g>
</g>
<g>
</g>
<g>
</g>
<g>
</g>
<g>
</g>
<g>
</g>
<g>
</g>
<g>
</g>
</svg>
