<?xml version="1.0" encoding="iso-8859-1"?>
<!-- Generator: Adobe Illustrator 18.0.0, SVG Export Plug-In . SVG Version: 6.00 Build 0)  -->
<!DOCTYPE svg PUBLIC "-//W3C//DTD SVG 1.1//EN" "http://www.w3.org/Graphics/SVG/1.1/DTD/svg11.dtd">
<svg version="1.1" id="Capa_1" xmlns="http://www.w3.org/2000/svg" xmlns:xlink="http://www.w3.org/1999/xlink" x="0px" y="0px"
	 viewBox="0 0 60 60" style="enable-background:new 0 0 60 60;" xml:space="preserve">
<g>
	<g>
		<g>
			<rect x="1" y="4" style="fill:#ECF0F1;" width="55" height="42"/>
			<path style="fill:#545E73;" d="M57,47H0V3h57V47z M2,45h53V5H2V45z"/>
		</g>
		<g>
			<rect x="5" y="8" style="fill:#545E73;" width="47" height="34"/>
			<path style="fill:#ECF0F1;" d="M53,43H4V7h49V43z M6,41h45V9H6V41z"/>
		</g>
		<circle style="fill:#F3D55A;" cx="15" cy="16.569" r="4.569"/>
		<polygon style="fill:#11A085;" points="51,32.111 50,31 38,20 27.5,31.5 32.983,36.983 37,41 51,41 		"/>
		<polygon style="fill:#26B999;" points="6,41 37,41 32.983,36.983 22.017,26.017 6,40 		"/>
	</g>
	<g>
		<circle style="fill:#B1D3EF;" cx="47.5" cy="44.5" r="12.5"/>
		<path style="fill:#556080;" d="M47.5,34c-4.718,0-8.88,3.182-10.121,7.737c-0.146,0.533,0.169,1.083,0.702,1.228
			c0.528,0.143,1.082-0.168,1.228-0.702C40.313,38.575,43.682,36,47.5,36c4.687,0,8.5,3.813,8.5,8.5S52.187,53,47.5,53
			c-3.365,0-6.378-2.001-7.734-5H45v-2h-6h-1h-1v8h2v-3.341l0,0v-0.023C40.933,53.31,44.066,55,47.5,55C53.29,55,58,50.29,58,44.5
			S53.29,34,47.5,34z"/>
	</g>
</g>
<g>
</g>
<g>
</g>
<g>
</g>
<g>
</g>
<g>
</g>
<g>
</g>
<g>
</g>
<g>
</g>
<g>
</g>
<g>
</g>
<g>
</g>
<g>
</g>
<g>
</g>
<g>
</g>
<g>
</g>
</svg>
