<?xml version="1.0" encoding="iso-8859-1"?>
<!-- Generator: Adobe Illustrator 18.0.0, SVG Export Plug-In . SVG Version: 6.00 Build 0)  -->
<!DOCTYPE svg PUBLIC "-//W3C//DTD SVG 1.1//EN" "http://www.w3.org/Graphics/SVG/1.1/DTD/svg11.dtd">
<svg version="1.1" id="Capa_1" xmlns="http://www.w3.org/2000/svg" xmlns:xlink="http://www.w3.org/1999/xlink" x="0px" y="0px"
	 viewBox="0 0 60 60" style="enable-background:new 0 0 60 60;" xml:space="preserve">
<g>
	<g>
		<g>
			<rect x="1" y="4.5" style="fill:#ECF0F1;" width="55" height="42"/>
			<path style="fill:#545E73;" d="M57,47.5H0v-44h57V47.5z M2,45.5h53v-40H2V45.5z"/>
		</g>
		<g>
			<rect x="5" y="8.5" style="fill:#545E73;" width="47" height="34"/>
			<path style="fill:#ECF0F1;" d="M53,43.5H4v-36h49V43.5z M6,41.5h45v-32H6V41.5z"/>
		</g>
		<circle style="fill:#F3D55A;" cx="15" cy="17.069" r="4.569"/>
		<polygon style="fill:#11A085;" points="51,32.611 50,31.5 38,20.5 27.5,32 32.983,37.483 37,41.5 51,41.5 		"/>
		<polygon style="fill:#26B999;" points="6,41.5 37,41.5 32.983,37.483 22.017,26.517 6,40.5 		"/>
	</g>
	<g>
		<path style="fill:#EFC41A;" d="M58.761,56.5H35.07c-0.955,0-1.55-1.036-1.069-1.861l11.845-20.306c0.478-0.819,1.66-0.819,2.138,0
			L59.83,54.639C60.311,55.464,59.716,56.5,58.761,56.5z"/>
		<path style="fill:#FFFFFF;" d="M47,49.5c-0.552,0-1-0.448-1-1v-8c0-0.552,0.448-1,1-1s1,0.448,1,1v8
			C48,49.052,47.552,49.5,47,49.5z"/>
		<path style="fill:#FFFFFF;" d="M47,53.5c-0.26,0-0.52-0.11-0.71-0.29C46.11,53.02,46,52.76,46,52.5c0-0.26,0.11-0.52,0.29-0.71
			c0.38-0.37,1.04-0.37,1.42,0C47.89,51.98,48,52.24,48,52.5c0,0.26-0.11,0.52-0.29,0.71C47.52,53.39,47.27,53.5,47,53.5z"/>
	</g>
</g>
<g>
</g>
<g>
</g>
<g>
</g>
<g>
</g>
<g>
</g>
<g>
</g>
<g>
</g>
<g>
</g>
<g>
</g>
<g>
</g>
<g>
</g>
<g>
</g>
<g>
</g>
<g>
</g>
<g>
</g>
</svg>
