<?xml version="1.0" encoding="iso-8859-1"?>
<!-- Generator: Adobe Illustrator 18.0.0, SVG Export Plug-In . SVG Version: 6.00 Build 0)  -->
<!DOCTYPE svg PUBLIC "-//W3C//DTD SVG 1.1//EN" "http://www.w3.org/Graphics/SVG/1.1/DTD/svg11.dtd">
<svg version="1.1" id="Capa_1" xmlns="http://www.w3.org/2000/svg" xmlns:xlink="http://www.w3.org/1999/xlink" x="0px" y="0px"
	 viewBox="0 0 59.39 59.39" style="enable-background:new 0 0 59.39 59.39;" xml:space="preserve">
<g>
	<g>
		<g>
			<rect x="1" y="3.956" style="fill:#ECF0F1;" width="55" height="42"/>
			<path style="fill:#545E73;" d="M57,46.956H0v-44h57V46.956z M2,44.956h53v-40H2V44.956z"/>
		</g>
		<g>
			<rect x="5" y="7.956" style="fill:#545E73;" width="47" height="34"/>
			<path style="fill:#ECF0F1;" d="M53,42.956H4v-36h49V42.956z M6,40.956h45v-32H6V40.956z"/>
		</g>
		<circle style="fill:#F3D55A;" cx="15" cy="16.525" r="4.569"/>
		<polygon style="fill:#11A085;" points="51,32.067 50,30.956 38,19.956 27.5,31.456 32.983,36.939 37,40.956 51,40.956 		"/>
		<polygon style="fill:#26B999;" points="6,40.956 37,40.956 32.983,36.939 22.017,25.973 6,39.956 		"/>
	</g>
	<g>
		<path style="fill:#FFFFFF;" d="M58.195,47.113l-0.107,0.163c-7.121,10.876-18.773,10.876-25.893,0l0,0l0.107-0.163
			C39.422,36.237,51.074,36.237,58.195,47.113L58.195,47.113z"/>
		<circle style="fill:#556080;" cx="44.958" cy="44.831" r="5.909"/>
		<path style="fill:#B1D3EF;" d="M45.142,56.434c-5.254,0-10.148-3.058-13.783-8.609L31,47.277l0.465-0.711
			c3.635-5.552,8.53-8.609,13.784-8.609c5.253,0,10.148,3.057,13.783,8.609l0.358,0.547l-0.465,0.711
			C55.29,53.376,50.395,56.434,45.142,56.434z M33.398,47.272c3.206,4.624,7.356,7.161,11.744,7.161c4.436,0,8.63-2.594,11.85-7.317
			c-3.206-4.624-7.356-7.161-11.743-7.161C40.812,39.956,36.618,42.55,33.398,47.272z"/>
	</g>
</g>
<g>
</g>
<g>
</g>
<g>
</g>
<g>
</g>
<g>
</g>
<g>
</g>
<g>
</g>
<g>
</g>
<g>
</g>
<g>
</g>
<g>
</g>
<g>
</g>
<g>
</g>
<g>
</g>
<g>
</g>
</svg>
