<?xml version="1.0" encoding="iso-8859-1"?>
<!-- Generator: Adobe Illustrator 18.0.0, SVG Export Plug-In . SVG Version: 6.00 Build 0)  -->
<!DOCTYPE svg PUBLIC "-//W3C//DTD SVG 1.1//EN" "http://www.w3.org/Graphics/SVG/1.1/DTD/svg11.dtd">
<svg version="1.1" id="Capa_1" xmlns="http://www.w3.org/2000/svg" xmlns:xlink="http://www.w3.org/1999/xlink" x="0px" y="0px"
	 viewBox="0 0 60 60" style="enable-background:new 0 0 60 60;" xml:space="preserve">
<g>
	<g>
		<g>
			<rect x="1" y="4.009" style="fill:#ECF0F1;" width="55" height="42"/>
			<path style="fill:#545E73;" d="M57,47.009H0v-44h57V47.009z M2,45.009h53v-40H2V45.009z"/>
		</g>
		<g>
			<rect x="5" y="8.009" style="fill:#545E73;" width="47" height="34"/>
			<path style="fill:#ECF0F1;" d="M53,43.009H4v-36h49V43.009z M6,41.009h45v-32H6V41.009z"/>
		</g>
		<circle style="fill:#F3D55A;" cx="15" cy="16.578" r="4.569"/>
		<polygon style="fill:#11A085;" points="51,32.12 50,31.009 38,20.009 27.5,31.509 32.983,36.992 37,41.009 51,41.009 		"/>
		<polygon style="fill:#26B999;" points="6,41.009 37,41.009 32.983,36.992 22.017,26.026 6,40.009 		"/>
	</g>
	<g>
		<path style="fill:#91BAE1;" d="M50,43.991h-2l0,0c-3.633-1.453-6-4.861-6-8.64v-3.36h14v3.36C56,39.129,53.633,42.537,50,43.991
			L50,43.991z"/>
		<path style="fill:#91BAE1;" d="M48,43.991h2l0,0c3.633,1.453,6,4.861,6,8.64v3.36H42v-3.36C42,48.852,44.367,45.444,48,43.991
			L48,43.991z"/>
		<g>
			<path style="fill:#B1D3EF;" d="M39,32.991h1h2h17c0.553,0,1-0.448,1-1s-0.447-1-1-1H42h-2h-1c-0.553,0-1,0.448-1,1
				S38.447,32.991,39,32.991z"/>
			<path style="fill:#B1D3EF;" d="M58.999,54.989h-18c-0.003,0-0.006,0.002-0.01,0.002H39c-0.553,0-1,0.448-1,1s0.447,1,1,1h3
				c0.003,0,0.006-0.002,0.01-0.002h16.989c0.553,0,1-0.448,1-1S59.552,54.989,58.999,54.989z"/>
		</g>
	</g>
</g>
<g>
</g>
<g>
</g>
<g>
</g>
<g>
</g>
<g>
</g>
<g>
</g>
<g>
</g>
<g>
</g>
<g>
</g>
<g>
</g>
<g>
</g>
<g>
</g>
<g>
</g>
<g>
</g>
<g>
</g>
</svg>
