<?xml version="1.0" encoding="iso-8859-1"?>
<!-- Generator: Adobe Illustrator 18.0.0, SVG Export Plug-In . SVG Version: 6.00 Build 0)  -->
<!DOCTYPE svg PUBLIC "-//W3C//DTD SVG 1.1//EN" "http://www.w3.org/Graphics/SVG/1.1/DTD/svg11.dtd">
<svg version="1.1" id="Capa_1" xmlns="http://www.w3.org/2000/svg" xmlns:xlink="http://www.w3.org/1999/xlink" x="0px" y="0px"
	 viewBox="0 0 60 60" style="enable-background:new 0 0 60 60;" xml:space="preserve">
<g>
	<g>
		<g>
			<rect x="1" y="4.5" style="fill:#ECF0F1;" width="55" height="42"/>
			<path style="fill:#545E73;" d="M57,47.5H0v-44h57V47.5z M2,45.5h53v-40H2V45.5z"/>
		</g>
		<g>
			<rect x="5" y="8.5" style="fill:#545E73;" width="47" height="34"/>
			<path style="fill:#ECF0F1;" d="M53,43.5H4v-36h49V43.5z M6,41.5h45v-32H6V41.5z"/>
		</g>
		<circle style="fill:#F3D55A;" cx="15" cy="17.069" r="4.569"/>
		<polygon style="fill:#11A085;" points="51,32.611 50,31.5 38,20.5 27.5,32 32.983,37.483 37,41.5 51,41.5 		"/>
		<polygon style="fill:#26B999;" points="6,41.5 37,41.5 32.983,37.483 22.017,26.517 6,40.5 		"/>
	</g>
	<g>
		<path style="fill:#B1D3EF;" d="M60,43.346l-1.444-0.278c-2.143-0.412-3.125-2.916-1.835-4.675l0.907-1.236l-1.958-1.958
			l-1.217,0.825c-1.806,1.224-4.272,0.148-4.604-2.008L49.615,32.5h-2.769l-0.359,1.865c-0.403,2.096-2.818,3.096-4.585,1.899
			l-1.572-1.065l-1.958,1.958l0.907,1.236c1.29,1.76,0.308,4.263-1.835,4.675L36,43.346v2.769l1.515,0.233
			c2.157,0.332,3.232,2.797,2.008,4.604l-0.825,1.217l1.958,1.958l1.236-0.907c1.76-1.29,4.263-0.308,4.675,1.835l0.278,1.444h2.769
			l0.164-1.066c0.339-2.204,2.896-3.263,4.694-1.944l0.869,0.638l1.958-1.958l-0.825-1.217c-1.224-1.806-0.148-4.272,2.008-4.604
			L60,46.115V43.346z"/>
		<g>
			<circle style="fill:#FFFFFF;" cx="48" cy="44.5" r="4"/>
			<path style="fill:#ECF0F1;" d="M48,49.5c-2.757,0-5-2.243-5-5s2.243-5,5-5s5,2.243,5,5S50.757,49.5,48,49.5z M48,41.5
				c-1.654,0-3,1.346-3,3s1.346,3,3,3s3-1.346,3-3S49.654,41.5,48,41.5z"/>
		</g>
	</g>
</g>
<g>
</g>
<g>
</g>
<g>
</g>
<g>
</g>
<g>
</g>
<g>
</g>
<g>
</g>
<g>
</g>
<g>
</g>
<g>
</g>
<g>
</g>
<g>
</g>
<g>
</g>
<g>
</g>
<g>
</g>
</svg>
