<?xml version="1.0" encoding="iso-8859-1"?>
<!-- Generator: Adobe Illustrator 18.0.0, SVG Export Plug-In . SVG Version: 6.00 Build 0)  -->
<!DOCTYPE svg PUBLIC "-//W3C//DTD SVG 1.1//EN" "http://www.w3.org/Graphics/SVG/1.1/DTD/svg11.dtd">
<svg version="1.1" id="Capa_1" xmlns="http://www.w3.org/2000/svg" xmlns:xlink="http://www.w3.org/1999/xlink" x="0px" y="0px"
	 viewBox="0 0 60 60" style="enable-background:new 0 0 60 60;" xml:space="preserve">
<g>
	<g>
		<g>
			<rect x="1" y="4.509" style="fill:#ECF0F1;" width="55" height="42"/>
			<path style="fill:#545E73;" d="M57,47.509H0v-44h57V47.509z M2,45.509h53v-40H2V45.509z"/>
		</g>
		<g>
			<rect x="5" y="8.509" style="fill:#545E73;" width="47" height="34"/>
			<path style="fill:#ECF0F1;" d="M53,43.509H4v-36h49V43.509z M6,41.509h45v-32H6V41.509z"/>
		</g>
		<circle style="fill:#F3D55A;" cx="15" cy="17.078" r="4.569"/>
		<polygon style="fill:#11A085;" points="51,32.62 50,31.509 38,20.509 27.5,32.009 32.983,37.492 37,41.509 51,41.509 		"/>
		<polygon style="fill:#26B999;" points="6,41.509 37,41.509 32.983,37.492 22.017,26.526 6,40.509 		"/>
	</g>
	<g>
		<circle style="fill:#D0E8F9;" cx="45.777" cy="41.305" r="9.796"/>
		<path style="fill:#EAF6FD;" d="M49.33,32.184L36.656,44.858c0.706,1.81,1.93,3.357,3.495,4.459l13.638-13.638
			C52.687,34.113,51.14,32.889,49.33,32.184z"/>
		<path style="fill:#B1D3EF;" d="M59.723,54.8l-5.97-6.244c1.746-1.919,2.82-4.458,2.82-7.251c0-5.953-4.843-10.796-10.796-10.796
			s-10.796,4.843-10.796,10.796s4.843,10.796,10.796,10.796c2.442,0,4.689-0.824,6.499-2.196l6.001,6.276
			c0.196,0.206,0.459,0.309,0.723,0.309c0.249,0,0.497-0.092,0.691-0.277C60.09,55.832,60.105,55.199,59.723,54.8z M36.982,41.305
			c0-4.85,3.946-8.796,8.796-8.796s8.796,3.946,8.796,8.796s-3.946,8.796-8.796,8.796S36.982,46.155,36.982,41.305z"/>
	</g>
</g>
<g>
</g>
<g>
</g>
<g>
</g>
<g>
</g>
<g>
</g>
<g>
</g>
<g>
</g>
<g>
</g>
<g>
</g>
<g>
</g>
<g>
</g>
<g>
</g>
<g>
</g>
<g>
</g>
<g>
</g>
</svg>
