<?xml version="1.0" encoding="iso-8859-1"?>
<!-- Generator: Adobe Illustrator 18.0.0, SVG Export Plug-In . SVG Version: 6.00 Build 0)  -->
<!DOCTYPE svg PUBLIC "-//W3C//DTD SVG 1.1//EN" "http://www.w3.org/Graphics/SVG/1.1/DTD/svg11.dtd">
<svg version="1.1" id="Capa_1" xmlns="http://www.w3.org/2000/svg" xmlns:xlink="http://www.w3.org/1999/xlink" x="0px" y="0px"
	 viewBox="0 0 60 60" style="enable-background:new 0 0 60 60;" xml:space="preserve">
<g>
	<g>
		<g>
			<rect x="1" y="4" style="fill:#ECF0F1;" width="55" height="42"/>
			<path style="fill:#545E73;" d="M57,47H0V3h57V47z M2,45h53V5H2V45z"/>
		</g>
		<g>
			<rect x="5" y="8" style="fill:#545E73;" width="47" height="34"/>
			<path style="fill:#ECF0F1;" d="M53,43H4V7h49V43z M6,41h45V9H6V41z"/>
		</g>
		<circle style="fill:#F3D55A;" cx="15" cy="16.569" r="4.569"/>
		<polygon style="fill:#11A085;" points="51,32.111 50,31 38,20 27.5,31.5 32.983,36.983 37,41 51,41 		"/>
		<polygon style="fill:#26B999;" points="6,41 37,41 32.983,36.983 22.017,26.017 6,40 		"/>
	</g>
	<g>
		<rect x="38" y="35" style="fill:#48A0DC;" width="22" height="22"/>
		<rect x="48" y="41" style="fill:#FFFFFF;" width="2" height="16"/>
		<polygon style="fill:#FFFFFF;" points="54.293,47.707 49,42.414 43.707,47.707 42.293,46.293 49,39.586 55.707,46.293 		"/>
	</g>
</g>
<g>
</g>
<g>
</g>
<g>
</g>
<g>
</g>
<g>
</g>
<g>
</g>
<g>
</g>
<g>
</g>
<g>
</g>
<g>
</g>
<g>
</g>
<g>
</g>
<g>
</g>
<g>
</g>
<g>
</g>
</svg>
