<?xml version="1.0" encoding="iso-8859-1"?>
<!-- Generator: Adobe Illustrator 18.0.0, SVG Export Plug-In . SVG Version: 6.00 Build 0)  -->
<!DOCTYPE svg PUBLIC "-//W3C//DTD SVG 1.1//EN" "http://www.w3.org/Graphics/SVG/1.1/DTD/svg11.dtd">
<svg version="1.1" id="Capa_1" xmlns="http://www.w3.org/2000/svg" xmlns:xlink="http://www.w3.org/1999/xlink" x="0px" y="0px"
	 viewBox="0 0 56 56" style="enable-background:new 0 0 56 56;" xml:space="preserve">
<g>
	<g>
		<path style="fill:#3ABCA7;" d="M44.636,52H9.364C4.745,52,1,48.255,1,43.636V8.364C1,3.745,4.745,0,9.364,0h35.272
			C49.255,0,53,3.745,53,8.364v35.272C53,48.255,49.255,52,44.636,52z"/>
		<path style="fill:#FFFFFF;" d="M45,14H27c-0.552,0-1-0.447-1-1s0.448-1,1-1h18c0.553,0,1,0.447,1,1S45.553,14,45,14z"/>
		<path style="fill:#FFFFFF;" d="M45,28H27c-0.552,0-1-0.447-1-1s0.448-1,1-1h18c0.553,0,1,0.447,1,1S45.553,28,45,28z"/>
		<path style="fill:#FFFFFF;" d="M45,42H27c-0.552,0-1-0.447-1-1s0.448-1,1-1h18c0.553,0,1,0.447,1,1S45.553,42,45,42z"/>
		<path style="fill:#FFFFFF;" d="M13.071,17c-0.209,0-0.42-0.065-0.6-0.2L7.9,13.371c-0.442-0.331-0.531-0.958-0.2-1.399
			c0.331-0.442,0.957-0.531,1.4-0.2l3.822,2.866l6.248-7.288c0.359-0.42,0.992-0.468,1.41-0.108c0.419,0.359,0.468,0.99,0.108,1.409
			l-6.857,8C13.633,16.881,13.354,17,13.071,17z"/>
		<path style="fill:#FFFFFF;" d="M13.071,31c-0.209,0-0.42-0.065-0.6-0.2L7.9,27.371c-0.442-0.331-0.531-0.958-0.2-1.399
			c0.331-0.442,0.957-0.531,1.4-0.2l3.822,2.866l6.248-7.288c0.359-0.42,0.992-0.468,1.41-0.108c0.419,0.359,0.468,0.99,0.108,1.409
			l-6.857,8C13.633,30.881,13.354,31,13.071,31z"/>
		<path style="fill:#FFFFFF;" d="M13.071,45.999c-0.209,0-0.42-0.065-0.6-0.2L7.9,42.37c-0.442-0.331-0.531-0.958-0.2-1.399
			c0.331-0.442,0.957-0.53,1.4-0.2l3.822,2.866l6.248-7.287c0.359-0.42,0.992-0.468,1.41-0.108c0.419,0.359,0.468,0.99,0.108,1.409
			l-6.857,7.999C13.633,45.88,13.354,45.999,13.071,45.999z"/>
	</g>
	<g>
		<path style="fill:#EFC41A;" d="M53.761,56H30.07c-0.955,0-1.55-1.036-1.069-1.861l11.845-20.306c0.478-0.819,1.66-0.819,2.138,0
			L54.83,54.139C55.311,54.964,54.716,56,53.761,56z"/>
		<path style="fill:#FFFFFF;" d="M42,49c-0.552,0-1-0.448-1-1v-8c0-0.552,0.448-1,1-1s1,0.448,1,1v8C43,48.552,42.552,49,42,49z"/>
		<path style="fill:#FFFFFF;" d="M42,53c-0.26,0-0.52-0.11-0.71-0.29C41.11,52.52,41,52.26,41,52c0-0.26,0.11-0.52,0.29-0.71
			c0.38-0.37,1.04-0.37,1.42,0C42.89,51.48,43,51.74,43,52c0,0.26-0.11,0.52-0.29,0.71C42.52,52.89,42.27,53,42,53z"/>
	</g>
</g>
<g>
</g>
<g>
</g>
<g>
</g>
<g>
</g>
<g>
</g>
<g>
</g>
<g>
</g>
<g>
</g>
<g>
</g>
<g>
</g>
<g>
</g>
<g>
</g>
<g>
</g>
<g>
</g>
<g>
</g>
</svg>
