<?xml version="1.0" encoding="iso-8859-1"?>
<!-- Generator: Adobe Illustrator 18.0.0, SVG Export Plug-In . SVG Version: 6.00 Build 0)  -->
<!DOCTYPE svg PUBLIC "-//W3C//DTD SVG 1.1//EN" "http://www.w3.org/Graphics/SVG/1.1/DTD/svg11.dtd">
<svg version="1.1" id="Capa_1" xmlns="http://www.w3.org/2000/svg" xmlns:xlink="http://www.w3.org/1999/xlink" x="0px" y="0px"
	 viewBox="0 0 55 55" style="enable-background:new 0 0 55 55;" xml:space="preserve">
<g>
	<g>
		<path style="fill:#3ABCA7;" d="M44.136,52H8.864C4.245,52,0.5,48.255,0.5,43.636V8.364C0.5,3.745,4.245,0,8.864,0h35.272
			C48.755,0,52.5,3.745,52.5,8.364v35.272C52.5,48.255,48.755,52,44.136,52z"/>
		<path style="fill:#FFFFFF;" d="M44.5,14h-18c-0.553,0-1-0.447-1-1s0.447-1,1-1h18c0.553,0,1,0.447,1,1S45.053,14,44.5,14z"/>
		<path style="fill:#FFFFFF;" d="M44.5,28h-18c-0.553,0-1-0.447-1-1s0.447-1,1-1h18c0.553,0,1,0.447,1,1S45.053,28,44.5,28z"/>
		<path style="fill:#FFFFFF;" d="M44.5,42h-18c-0.553,0-1-0.447-1-1s0.447-1,1-1h18c0.553,0,1,0.447,1,1S45.053,42,44.5,42z"/>
		<path style="fill:#FFFFFF;" d="M12.57,17c-0.209,0-0.42-0.065-0.599-0.2L7.4,13.371c-0.442-0.331-0.532-0.958-0.2-1.399
			c0.331-0.443,0.958-0.531,1.399-0.2l3.822,2.866L18.67,7.35c0.359-0.42,0.991-0.468,1.409-0.108
			c0.42,0.359,0.469,0.99,0.108,1.409l-6.857,8C13.134,16.881,12.854,17,12.57,17z"/>
		<path style="fill:#FFFFFF;" d="M12.57,31c-0.209,0-0.42-0.065-0.599-0.2L7.4,27.371c-0.442-0.331-0.532-0.958-0.2-1.399
			c0.331-0.443,0.958-0.531,1.399-0.2l3.822,2.866l6.248-7.288c0.359-0.421,0.991-0.468,1.409-0.108
			c0.42,0.359,0.469,0.99,0.108,1.409l-6.857,8C13.134,30.881,12.854,31,12.57,31z"/>
		<path style="fill:#FFFFFF;" d="M12.57,45.999c-0.209,0-0.42-0.065-0.599-0.2L7.4,42.37c-0.442-0.331-0.532-0.958-0.2-1.399
			c0.331-0.443,0.958-0.531,1.399-0.2l3.822,2.866l6.248-7.287c0.359-0.42,0.991-0.468,1.409-0.108
			c0.42,0.359,0.469,0.99,0.108,1.409l-6.857,7.999C13.134,45.88,12.854,45.999,12.57,45.999z"/>
	</g>
	<g>
		<circle style="fill:#B1D3EF;" cx="42" cy="42.5" r="12.5"/>
		<g>
			<path style="fill:#556080;" d="M51.693,43.019c-0.55-0.113-1.068,0.246-1.175,0.788C49.698,47.975,46.116,51,42,51
				c-3.351,0-6.347-2.006-7.789-5H39.5v-2h-6h-1h-1v8h2v-3.341C35.476,51.315,38.585,53,42,53c5.068,0,9.477-3.704,10.481-8.807
				C52.587,43.651,52.235,43.125,51.693,43.019z"/>
			<path style="fill:#556080;" d="M50.5,32.998v3.341c-1.976-2.657-5.086-4.341-8.5-4.341c-5.068,0-9.477,3.704-10.481,8.807
				c-0.106,0.542,0.246,1.068,0.788,1.174c0.55,0.113,1.068-0.246,1.175-0.788c0.82-4.168,4.402-7.193,8.519-7.193
				c3.351,0,6.347,2.006,7.789,5H44.5v2h6h1h1v-8H50.5z"/>
		</g>
	</g>
</g>
<g>
</g>
<g>
</g>
<g>
</g>
<g>
</g>
<g>
</g>
<g>
</g>
<g>
</g>
<g>
</g>
<g>
</g>
<g>
</g>
<g>
</g>
<g>
</g>
<g>
</g>
<g>
</g>
<g>
</g>
</svg>
