<?xml version="1.0" encoding="iso-8859-1"?>
<!-- Generator: Adobe Illustrator 18.0.0, SVG Export Plug-In . SVG Version: 6.00 Build 0)  -->
<!DOCTYPE svg PUBLIC "-//W3C//DTD SVG 1.1//EN" "http://www.w3.org/Graphics/SVG/1.1/DTD/svg11.dtd">
<svg version="1.1" id="Capa_1" xmlns="http://www.w3.org/2000/svg" xmlns:xlink="http://www.w3.org/1999/xlink" x="0px" y="0px"
	 viewBox="0 0 55 55" style="enable-background:new 0 0 55 55;" xml:space="preserve">
<g>
	<g>
		<path style="fill:#3ABCA7;" d="M44.136,52H8.864C4.245,52,0.5,48.255,0.5,43.636V8.364C0.5,3.745,4.245,0,8.864,0h35.272
			C48.755,0,52.5,3.745,52.5,8.364v35.272C52.5,48.255,48.755,52,44.136,52z"/>
		<path style="fill:#FFFFFF;" d="M44.5,14h-18c-0.553,0-1-0.447-1-1s0.447-1,1-1h18c0.553,0,1,0.447,1,1S45.053,14,44.5,14z"/>
		<path style="fill:#FFFFFF;" d="M44.5,28h-18c-0.553,0-1-0.447-1-1s0.447-1,1-1h18c0.553,0,1,0.447,1,1S45.053,28,44.5,28z"/>
		<path style="fill:#FFFFFF;" d="M44.5,42h-18c-0.553,0-1-0.447-1-1s0.447-1,1-1h18c0.553,0,1,0.447,1,1S45.053,42,44.5,42z"/>
		<path style="fill:#FFFFFF;" d="M12.57,17c-0.209,0-0.42-0.065-0.599-0.2L7.4,13.371c-0.442-0.331-0.532-0.958-0.2-1.399
			c0.331-0.443,0.958-0.531,1.399-0.2l3.822,2.866L18.67,7.35c0.359-0.42,0.991-0.468,1.409-0.108
			c0.42,0.359,0.469,0.99,0.108,1.409l-6.857,8C13.134,16.881,12.854,17,12.57,17z"/>
		<path style="fill:#FFFFFF;" d="M12.57,31c-0.209,0-0.42-0.065-0.599-0.2L7.4,27.371c-0.442-0.331-0.532-0.958-0.2-1.399
			c0.331-0.443,0.958-0.531,1.399-0.2l3.822,2.866l6.248-7.288c0.359-0.421,0.991-0.468,1.409-0.108
			c0.42,0.359,0.469,0.99,0.108,1.409l-6.857,8C13.134,30.881,12.854,31,12.57,31z"/>
		<path style="fill:#FFFFFF;" d="M12.57,45.999c-0.209,0-0.42-0.065-0.599-0.2L7.4,42.37c-0.442-0.331-0.532-0.958-0.2-1.399
			c0.331-0.443,0.958-0.531,1.399-0.2l3.822,2.866l6.248-7.287c0.359-0.42,0.991-0.468,1.409-0.108
			c0.42,0.359,0.469,0.99,0.108,1.409l-6.857,7.999C13.134,45.88,12.854,45.999,12.57,45.999z"/>
	</g>
	<g>
		<path style="fill:#D0E8F9;" d="M44.5,42h-2l0,0c-3.633-1.453-6-4.861-6-8.64V30h14v3.36C50.5,37.139,48.133,40.547,44.5,42
			L44.5,42z"/>
		<path style="fill:#D0E8F9;" d="M42.5,42h2l0,0c3.633,1.453,6,4.861,6,8.64V54h-14v-3.36C36.5,46.861,38.867,43.453,42.5,42
			L42.5,42z"/>
		<g>
			<path style="fill:#556080;" d="M33.5,31h1h2h17c0.553,0,1-0.448,1-1s-0.447-1-1-1h-17h-2h-1c-0.553,0-1,0.448-1,1
				S32.947,31,33.5,31z"/>
			<path style="fill:#556080;" d="M53.499,52.998h-18c-0.003,0-0.006,0.002-0.01,0.002H33.5c-0.553,0-1,0.448-1,1s0.447,1,1,1h3
				c0.003,0,0.006-0.002,0.01-0.002h16.989c0.553,0,1-0.448,1-1S54.052,52.998,53.499,52.998z"/>
		</g>
	</g>
</g>
<g>
</g>
<g>
</g>
<g>
</g>
<g>
</g>
<g>
</g>
<g>
</g>
<g>
</g>
<g>
</g>
<g>
</g>
<g>
</g>
<g>
</g>
<g>
</g>
<g>
</g>
<g>
</g>
<g>
</g>
</svg>
