<?xml version="1.0" encoding="iso-8859-1"?>
<!-- Generator: Adobe Illustrator 18.0.0, SVG Export Plug-In . SVG Version: 6.00 Build 0)  -->
<!DOCTYPE svg PUBLIC "-//W3C//DTD SVG 1.1//EN" "http://www.w3.org/Graphics/SVG/1.1/DTD/svg11.dtd">
<svg version="1.1" id="Capa_1" xmlns="http://www.w3.org/2000/svg" xmlns:xlink="http://www.w3.org/1999/xlink" x="0px" y="0px"
	 viewBox="0 0 56 56" style="enable-background:new 0 0 56 56;" xml:space="preserve">
<g>
	<g>
		<path style="fill:#3ABCA7;" d="M44.636,52H9.364C4.745,52,1,48.255,1,43.636V8.364C1,3.745,4.745,0,9.364,0h35.272
			C49.255,0,53,3.745,53,8.364v35.272C53,48.255,49.255,52,44.636,52z"/>
		<path style="fill:#FFFFFF;" d="M45,14H27c-0.553,0-1-0.447-1-1s0.447-1,1-1h18c0.553,0,1,0.447,1,1S45.553,14,45,14z"/>
		<path style="fill:#FFFFFF;" d="M45,28H27c-0.553,0-1-0.447-1-1s0.447-1,1-1h18c0.553,0,1,0.447,1,1S45.553,28,45,28z"/>
		<path style="fill:#FFFFFF;" d="M45,42H27c-0.553,0-1-0.447-1-1s0.447-1,1-1h18c0.553,0,1,0.447,1,1S45.553,42,45,42z"/>
		<path style="fill:#FFFFFF;" d="M13.07,17c-0.209,0-0.42-0.065-0.599-0.2L7.9,13.371c-0.442-0.331-0.532-0.958-0.2-1.399
			c0.331-0.443,0.959-0.53,1.399-0.2l3.822,2.866L19.17,7.35c0.359-0.42,0.991-0.468,1.409-0.108c0.42,0.359,0.469,0.99,0.108,1.409
			l-6.857,8C13.634,16.881,13.354,17,13.07,17z"/>
		<path style="fill:#FFFFFF;" d="M13.07,31c-0.209,0-0.42-0.065-0.599-0.2L7.9,27.371c-0.442-0.331-0.532-0.958-0.2-1.399
			c0.331-0.443,0.959-0.53,1.399-0.2l3.822,2.866l6.248-7.288c0.359-0.42,0.991-0.468,1.409-0.108
			c0.42,0.359,0.469,0.99,0.108,1.409l-6.857,8C13.634,30.881,13.354,31,13.07,31z"/>
		<path style="fill:#FFFFFF;" d="M13.07,45.999c-0.209,0-0.42-0.065-0.599-0.2L7.9,42.37c-0.442-0.331-0.532-0.958-0.2-1.399
			c0.331-0.443,0.959-0.531,1.399-0.2l3.822,2.866l6.248-7.287c0.359-0.42,0.991-0.468,1.409-0.108
			c0.42,0.359,0.469,0.99,0.108,1.409l-6.857,7.999C13.634,45.88,13.354,45.999,13.07,45.999z"/>
	</g>
	<g>
		<path style="fill:#ED7161;" d="M43,39.2c0.969-2.183,3.109-4.2,5.684-4.2c3.467,0,5.964,2.821,6.278,6.183
			c0,0,0.17,0.835-0.203,2.337c-0.508,2.046-1.701,3.864-3.311,5.251L43,56l-8.447-7.229c-1.61-1.387-2.803-3.205-3.311-5.251
			c-0.373-1.502-0.203-2.337-0.203-2.337C31.352,37.821,33.849,35,37.316,35C39.891,35,42.031,37.017,43,39.2z"/>
	</g>
</g>
<g>
</g>
<g>
</g>
<g>
</g>
<g>
</g>
<g>
</g>
<g>
</g>
<g>
</g>
<g>
</g>
<g>
</g>
<g>
</g>
<g>
</g>
<g>
</g>
<g>
</g>
<g>
</g>
<g>
</g>
</svg>
