<?xml version="1.0" encoding="iso-8859-1"?>
<!-- Generator: Adobe Illustrator 18.0.0, SVG Export Plug-In . SVG Version: 6.00 Build 0)  -->
<!DOCTYPE svg PUBLIC "-//W3C//DTD SVG 1.1//EN" "http://www.w3.org/Graphics/SVG/1.1/DTD/svg11.dtd">
<svg version="1.1" id="Capa_1" xmlns="http://www.w3.org/2000/svg" xmlns:xlink="http://www.w3.org/1999/xlink" x="0px" y="0px"
	 viewBox="0 0 55 55" style="enable-background:new 0 0 55 55;" xml:space="preserve">
<g>
	<g>
		<path style="fill:#3ABCA7;" d="M44.136,52H8.864C4.245,52,0.5,48.255,0.5,43.636V8.364C0.5,3.745,4.245,0,8.864,0h35.272
			C48.755,0,52.5,3.745,52.5,8.364v35.272C52.5,48.255,48.755,52,44.136,52z"/>
		<path style="fill:#FFFFFF;" d="M44.5,14h-18c-0.552,0-1-0.447-1-1s0.448-1,1-1h18c0.553,0,1,0.447,1,1S45.053,14,44.5,14z"/>
		<path style="fill:#FFFFFF;" d="M44.5,28h-18c-0.552,0-1-0.447-1-1s0.448-1,1-1h18c0.553,0,1,0.447,1,1S45.053,28,44.5,28z"/>
		<path style="fill:#FFFFFF;" d="M44.5,42h-18c-0.552,0-1-0.447-1-1s0.448-1,1-1h18c0.553,0,1,0.447,1,1S45.053,42,44.5,42z"/>
		<path style="fill:#FFFFFF;" d="M12.571,17c-0.209,0-0.42-0.065-0.6-0.2L7.4,13.371c-0.442-0.331-0.531-0.958-0.2-1.399
			c0.331-0.441,0.957-0.531,1.4-0.2l3.822,2.866l6.248-7.288c0.359-0.42,0.992-0.468,1.41-0.108c0.419,0.359,0.468,0.99,0.108,1.409
			l-6.857,8C13.133,16.881,12.854,17,12.571,17z"/>
		<path style="fill:#FFFFFF;" d="M12.571,31c-0.209,0-0.42-0.065-0.6-0.2L7.4,27.371c-0.442-0.331-0.531-0.958-0.2-1.399
			c0.331-0.441,0.957-0.531,1.4-0.2l3.822,2.866l6.248-7.288c0.359-0.42,0.992-0.468,1.41-0.108c0.419,0.359,0.468,0.99,0.108,1.409
			l-6.857,8C13.133,30.881,12.854,31,12.571,31z"/>
		<path style="fill:#FFFFFF;" d="M12.571,45.999c-0.209,0-0.42-0.065-0.6-0.2L7.4,42.37c-0.442-0.331-0.531-0.958-0.2-1.399
			c0.331-0.441,0.957-0.531,1.4-0.2l3.822,2.866l6.248-7.287c0.359-0.421,0.992-0.469,1.41-0.108
			c0.419,0.359,0.468,0.99,0.108,1.409l-6.857,7.999C13.133,45.88,12.854,45.999,12.571,45.999z"/>
	</g>
	<g>
		<rect x="32.5" y="33" style="fill:#21AE5E;" width="22" height="22"/>
		<rect x="42.5" y="34.586" style="fill:#FFFFFF;" width="2" height="16"/>
		<polygon style="fill:#FFFFFF;" points="43.5,52 36.5,45.293 37.976,43.879 43.5,49.172 49.024,43.879 50.5,45.293 		"/>
	</g>
</g>
<g>
</g>
<g>
</g>
<g>
</g>
<g>
</g>
<g>
</g>
<g>
</g>
<g>
</g>
<g>
</g>
<g>
</g>
<g>
</g>
<g>
</g>
<g>
</g>
<g>
</g>
<g>
</g>
<g>
</g>
</svg>
