<?xml version="1.0" encoding="iso-8859-1"?>
<!-- Generator: Adobe Illustrator 18.0.0, SVG Export Plug-In . SVG Version: 6.00 Build 0)  -->
<!DOCTYPE svg PUBLIC "-//W3C//DTD SVG 1.1//EN" "http://www.w3.org/Graphics/SVG/1.1/DTD/svg11.dtd">
<svg version="1.1" id="Capa_1" xmlns="http://www.w3.org/2000/svg" xmlns:xlink="http://www.w3.org/1999/xlink" x="0px" y="0px"
	 viewBox="0 0 59 59" style="enable-background:new 0 0 59 59;" xml:space="preserve">
<g>
	<g>
		<polygon style="fill:#DCD6CD;" points="0,5.5 0,44.5 28,44.5 56,44.5 56,5.5 		"/>
		<path style="fill:#E8E3D9;" d="M30.965,27.607c-1.637,1.462-4.292,1.462-5.93,0l-2.087-1.843C16.419,31.591,0,44.5,0,44.5h21.607
			h12.787H56c0,0-16.419-12.909-22.948-18.736L30.965,27.607z"/>
		<path style="fill:#EFEBDE;" d="M0,5.5l25.035,22.107c1.637,1.462,4.292,1.462,5.93,0L56,5.5H0z"/>
	</g>
	<g>
		<circle style="fill:#48A0DC;" cx="46.5" cy="41" r="12.5"/>
		<path style="fill:#D0E8F9;" d="M46.5,30.5c-4.718,0-8.88,3.182-10.121,7.737c-0.146,0.533,0.169,1.083,0.702,1.228
			c0.528,0.143,1.082-0.168,1.228-0.702c1.005-3.688,4.373-6.263,8.191-6.263c4.687,0,8.5,3.813,8.5,8.5s-3.813,8.5-8.5,8.5
			c-3.365,0-6.378-2.001-7.734-5H44v-2h-6h-1h-1v8h2v-3.341l0,0v-0.023c1.933,2.674,5.066,4.364,8.5,4.364
			C52.29,51.5,57,46.79,57,41S52.29,30.5,46.5,30.5z"/>
	</g>
</g>
<g>
</g>
<g>
</g>
<g>
</g>
<g>
</g>
<g>
</g>
<g>
</g>
<g>
</g>
<g>
</g>
<g>
</g>
<g>
</g>
<g>
</g>
<g>
</g>
<g>
</g>
<g>
</g>
<g>
</g>
</svg>
