<?xml version="1.0" encoding="iso-8859-1"?>
<!-- Generator: Adobe Illustrator 18.0.0, SVG Export Plug-In . SVG Version: 6.00 Build 0)  -->
<!DOCTYPE svg PUBLIC "-//W3C//DTD SVG 1.1//EN" "http://www.w3.org/Graphics/SVG/1.1/DTD/svg11.dtd">
<svg version="1.1" id="Capa_1" xmlns="http://www.w3.org/2000/svg" xmlns:xlink="http://www.w3.org/1999/xlink" x="0px" y="0px"
	 viewBox="0 0 58 58" style="enable-background:new 0 0 58 58;" xml:space="preserve">
<g>
	<g>
		<polygon style="fill:#DCD6CD;" points="0,5 0,44 28,44 56,44 56,5 		"/>
		<path style="fill:#E8E3D9;" d="M30.965,27.107c-1.637,1.462-4.292,1.462-5.93,0l-2.087-1.843C16.419,31.091,0,44,0,44h21.607
			h12.787H56c0,0-16.419-12.909-22.948-18.736L30.965,27.107z"/>
		<path style="fill:#EFEBDE;" d="M0,5l25.035,22.107c1.637,1.462,4.292,1.462,5.93,0L56,5H0z"/>
	</g>
	<g>
		<circle style="fill:#26B999;" cx="46" cy="41" r="12"/>
		<path style="fill:#FFFFFF;" d="M52.571,35.179c-0.455-0.316-1.077-0.204-1.392,0.25l-5.596,8.04l-3.949-3.242
			c-0.426-0.351-1.057-0.288-1.407,0.139c-0.351,0.427-0.289,1.057,0.139,1.407l4.786,3.929c0.18,0.147,0.404,0.227,0.634,0.227
			c0.045,0,0.091-0.003,0.137-0.009c0.276-0.039,0.524-0.19,0.684-0.419l6.214-8.929C53.136,36.118,53.024,35.495,52.571,35.179z"/>
	</g>
</g>
<g>
</g>
<g>
</g>
<g>
</g>
<g>
</g>
<g>
</g>
<g>
</g>
<g>
</g>
<g>
</g>
<g>
</g>
<g>
</g>
<g>
</g>
<g>
</g>
<g>
</g>
<g>
</g>
<g>
</g>
</svg>
