<?xml version="1.0" encoding="iso-8859-1"?>
<!-- Generator: Adobe Illustrator 18.0.0, SVG Export Plug-In . SVG Version: 6.00 Build 0)  -->
<!DOCTYPE svg PUBLIC "-//W3C//DTD SVG 1.1//EN" "http://www.w3.org/Graphics/SVG/1.1/DTD/svg11.dtd">
<svg version="1.1" id="Capa_1" xmlns="http://www.w3.org/2000/svg" xmlns:xlink="http://www.w3.org/1999/xlink" x="0px" y="0px"
	 viewBox="0 0 59 59" style="enable-background:new 0 0 59 59;" xml:space="preserve">
<g>
	<g>
		<polygon style="fill:#DCD6CD;" points="0,6.5 0,45.5 28,45.5 56,45.5 56,6.5 		"/>
		<path style="fill:#E8E3D9;" d="M30.965,28.607c-1.637,1.462-4.292,1.462-5.93,0l-2.087-1.843C16.419,32.591,0,45.5,0,45.5h21.607
			h12.787H56c0,0-16.419-12.909-22.948-18.736L30.965,28.607z"/>
		<path style="fill:#EFEBDE;" d="M0,6.5l25.035,22.107c1.637,1.462,4.292,1.462,5.93,0L56,6.5H0z"/>
	</g>
	<g>
		<g>
			<path style="fill:#91BAE1;" d="M54.045,41.611c-0.05-3.935-3.162-7.111-6.999-7.111c-2.568,0-4.806,1.426-6.025,3.546
				c-0.421-0.141-0.87-0.22-1.337-0.22c-2.063,0-3.785,1.492-4.208,3.484c-1.754,0.865-2.975,2.706-2.975,4.831
				c0,2.947,2.343,5.359,5.208,5.359h10.775c0.061,0,0.119-0.007,0.18-0.009c0.06,0.002,0.119,0.009,0.18,0.009h4.31
				c2.667,0,4.849-2.245,4.849-4.989C58,44.081,56.288,42.046,54.045,41.611z"/>
			<path style="fill:#8697CB;" d="M53.151,52.5h-4.31c-0.059,0-0.117-0.003-0.175-0.007c-0.068,0.004-0.126,0.007-0.185,0.007
				H37.708c-3.423,0-6.208-2.853-6.208-6.359c0-2.26,1.209-4.371,3.116-5.502c0.686-2.235,2.746-3.813,5.066-3.813
				c0.297,0,0.592,0.025,0.884,0.076c1.495-2.116,3.915-3.402,6.479-3.402c4.102,0,7.524,3.225,7.954,7.333
				c2.358,0.805,4,3.078,4,5.678C59,49.813,56.376,52.5,53.151,52.5z M48.63,50.491l0.178,0.006l4.344,0.002
				c2.122,0,3.849-1.79,3.849-3.989c0-1.917-1.323-3.565-3.146-3.918l-0.799-0.155l-0.011-0.814
				c-0.044-3.376-2.734-6.124-5.999-6.124c-2.134,0-4.063,1.138-5.158,3.045l-0.409,0.711l-0.777-0.262
				c-0.331-0.111-0.674-0.168-1.019-0.168c-1.54,0-2.898,1.132-3.229,2.692l-0.102,0.474l-0.435,0.214
				c-1.468,0.725-2.417,2.27-2.417,3.935c0,2.403,1.888,4.359,4.208,4.359L48.63,50.491z"/>
		</g>
	</g>
</g>
<g>
</g>
<g>
</g>
<g>
</g>
<g>
</g>
<g>
</g>
<g>
</g>
<g>
</g>
<g>
</g>
<g>
</g>
<g>
</g>
<g>
</g>
<g>
</g>
<g>
</g>
<g>
</g>
<g>
</g>
</svg>
