<?xml version="1.0" encoding="iso-8859-1"?>
<!-- Generator: Adobe Illustrator 18.0.0, SVG Export Plug-In . SVG Version: 6.00 Build 0)  -->
<!DOCTYPE svg PUBLIC "-//W3C//DTD SVG 1.1//EN" "http://www.w3.org/Graphics/SVG/1.1/DTD/svg11.dtd">
<svg version="1.1" id="Capa_1" xmlns="http://www.w3.org/2000/svg" xmlns:xlink="http://www.w3.org/1999/xlink" x="0px" y="0px"
	 viewBox="0 0 58 58" style="enable-background:new 0 0 58 58;" xml:space="preserve">
<g>
	<g>
		<polygon style="fill:#DCD6CD;" points="0,5 0,44 28,44 56,44 56,5 		"/>
		<path style="fill:#E8E3D9;" d="M30.965,27.107c-1.637,1.462-4.292,1.462-5.93,0l-2.087-1.843C16.419,31.091,0,44,0,44h21.607
			h12.787H56c0,0-16.419-12.909-22.948-18.736L30.965,27.107z"/>
		<path style="fill:#EFEBDE;" d="M0,5l25.035,22.107c1.637,1.462,4.292,1.462,5.93,0L56,5H0z"/>
	</g>
	<g>
		<path style="fill:#FFFFFF;" d="M56.805,43.679l-0.107,0.163c-7.121,10.876-18.773,10.876-25.893,0l0,0l0.107-0.163
			C38.033,32.803,49.685,32.803,56.805,43.679L56.805,43.679z"/>
		<circle style="fill:#556080;" cx="43.569" cy="41.397" r="5.909"/>
		<path style="fill:#8697CB;" d="M43.752,53c-5.254,0-10.148-3.058-13.783-8.609l-0.358-0.547l0.465-0.711
			c3.635-5.552,8.53-8.609,13.784-8.609c5.253,0,10.148,3.057,13.783,8.609L58,43.679l-0.465,0.711C53.9,49.942,49.005,53,43.752,53
			z M32.008,43.839C35.214,48.463,39.365,51,43.752,51c4.436,0,8.63-2.594,11.85-7.317c-3.206-4.624-7.356-7.161-11.743-7.161
			C39.422,36.522,35.229,39.116,32.008,43.839z"/>
	</g>
</g>
<g>
</g>
<g>
</g>
<g>
</g>
<g>
</g>
<g>
</g>
<g>
</g>
<g>
</g>
<g>
</g>
<g>
</g>
<g>
</g>
<g>
</g>
<g>
</g>
<g>
</g>
<g>
</g>
<g>
</g>
</svg>
