<?xml version="1.0" encoding="iso-8859-1"?>
<!-- Generator: Adobe Illustrator 18.0.0, SVG Export Plug-In . SVG Version: 6.00 Build 0)  -->
<!DOCTYPE svg PUBLIC "-//W3C//DTD SVG 1.1//EN" "http://www.w3.org/Graphics/SVG/1.1/DTD/svg11.dtd">
<svg version="1.1" id="Capa_1" xmlns="http://www.w3.org/2000/svg" xmlns:xlink="http://www.w3.org/1999/xlink" x="0px" y="0px"
	 viewBox="0 0 58 58" style="enable-background:new 0 0 58 58;" xml:space="preserve">
<g>
	<g>
		<polygon style="fill:#DCD6CD;" points="0,5 0,44 28,44 56,44 56,5 		"/>
		<path style="fill:#E8E3D9;" d="M30.965,27.107c-1.637,1.462-4.292,1.462-5.93,0l-2.087-1.843C16.419,31.091,0,44,0,44h21.607
			h12.787H56c0,0-16.419-12.909-22.948-18.736L30.965,27.107z"/>
		<path style="fill:#EFEBDE;" d="M0,5l25.035,22.107c1.637,1.462,4.292,1.462,5.93,0L56,5H0z"/>
	</g>
	<g>
		<path style="fill:#EFC41A;" d="M56.761,53H33.07c-0.955,0-1.55-1.036-1.069-1.861l11.845-20.306c0.478-0.819,1.66-0.819,2.138,0
			L57.83,51.139C58.311,51.964,57.716,53,56.761,53z"/>
		<path style="fill:#FFFFFF;" d="M45,46c-0.552,0-1-0.448-1-1v-8c0-0.552,0.448-1,1-1s1,0.448,1,1v8C46,45.552,45.552,46,45,46z"/>
		<path style="fill:#FFFFFF;" d="M45,50c-0.26,0-0.52-0.11-0.71-0.29C44.11,49.52,44,49.26,44,49c0-0.26,0.11-0.52,0.29-0.71
			c0.38-0.37,1.04-0.37,1.42,0C45.89,48.48,46,48.74,46,49c0,0.26-0.11,0.52-0.29,0.71C45.52,49.89,45.27,50,45,50z"/>
	</g>
</g>
<g>
</g>
<g>
</g>
<g>
</g>
<g>
</g>
<g>
</g>
<g>
</g>
<g>
</g>
<g>
</g>
<g>
</g>
<g>
</g>
<g>
</g>
<g>
</g>
<g>
</g>
<g>
</g>
<g>
</g>
</svg>
