<?xml version="1.0" encoding="iso-8859-1"?>
<!-- Generator: Adobe Illustrator 18.0.0, SVG Export Plug-In . SVG Version: 6.00 Build 0)  -->
<!DOCTYPE svg PUBLIC "-//W3C//DTD SVG 1.1//EN" "http://www.w3.org/Graphics/SVG/1.1/DTD/svg11.dtd">
<svg version="1.1" id="Capa_1" xmlns="http://www.w3.org/2000/svg" xmlns:xlink="http://www.w3.org/1999/xlink" x="0px" y="0px"
	 viewBox="0 0 57 57" style="enable-background:new 0 0 57 57;" xml:space="preserve">
<g>
	<g>
		<polygon style="fill:#DCD6CD;" points="0,4.5 0,43.5 28,43.5 56,43.5 56,4.5 		"/>
		<path style="fill:#E8E3D9;" d="M30.965,26.607c-1.637,1.462-4.292,1.462-5.93,0l-2.087-1.843C16.419,30.591,0,43.5,0,43.5h21.607
			h12.787H56c0,0-16.419-12.909-22.948-18.736L30.965,26.607z"/>
		<path style="fill:#EFEBDE;" d="M0,4.5l25.035,22.107c1.637,1.462,4.292,1.462,5.93,0L56,4.5H0z"/>
	</g>
	<g>
		<polygon style="fill:#F29C21;" points="45,30.5 48.708,37.742 57,38.903 51,44.54 52.416,52.5 45,48.742 37.584,52.5 39,44.54 
			33,38.903 41.292,37.742 		"/>
	</g>
</g>
<g>
</g>
<g>
</g>
<g>
</g>
<g>
</g>
<g>
</g>
<g>
</g>
<g>
</g>
<g>
</g>
<g>
</g>
<g>
</g>
<g>
</g>
<g>
</g>
<g>
</g>
<g>
</g>
<g>
</g>
</svg>
