<?xml version="1.0" encoding="iso-8859-1"?>
<!-- Generator: Adobe Illustrator 18.0.0, SVG Export Plug-In . SVG Version: 6.00 Build 0)  -->
<!DOCTYPE svg PUBLIC "-//W3C//DTD SVG 1.1//EN" "http://www.w3.org/Graphics/SVG/1.1/DTD/svg11.dtd">
<svg version="1.1" id="Capa_1" xmlns="http://www.w3.org/2000/svg" xmlns:xlink="http://www.w3.org/1999/xlink" x="0px" y="0px"
	 viewBox="0 0 57 57" style="enable-background:new 0 0 57 57;" xml:space="preserve">
<g>
	<g>
		<polygon style="fill:#DCD6CD;" points="0,5.5 0,44.5 28,44.5 56,44.5 56,5.5 		"/>
		<path style="fill:#E8E3D9;" d="M30.965,27.607c-1.637,1.462-4.292,1.462-5.93,0l-2.087-1.843C16.419,31.591,0,44.5,0,44.5h21.607
			h12.787H56c0,0-16.419-12.909-22.948-18.736L30.965,27.607z"/>
		<path style="fill:#EFEBDE;" d="M0,5.5l25.035,22.107c1.637,1.462,4.292,1.462,5.93,0L56,5.5H0z"/>
	</g>
	<g>
		<path style="fill:#3D324C;" d="M56.707,49.793l-6.797-6.797l6.483-3.241l-17.637-6.498l6.499,17.637l3.241-6.484l6.797,6.797
			C55.488,51.402,55.744,51.5,56,51.5s0.512-0.098,0.707-0.293C57.098,50.816,57.098,50.184,56.707,49.793z"/>
	</g>
</g>
<g>
</g>
<g>
</g>
<g>
</g>
<g>
</g>
<g>
</g>
<g>
</g>
<g>
</g>
<g>
</g>
<g>
</g>
<g>
</g>
<g>
</g>
<g>
</g>
<g>
</g>
<g>
</g>
<g>
</g>
</svg>
