<?xml version="1.0" encoding="iso-8859-1"?>
<!-- Generator: Adobe Illustrator 18.0.0, SVG Export Plug-In . SVG Version: 6.00 Build 0)  -->
<!DOCTYPE svg PUBLIC "-//W3C//DTD SVG 1.1//EN" "http://www.w3.org/Graphics/SVG/1.1/DTD/svg11.dtd">
<svg version="1.1" id="Capa_1" xmlns="http://www.w3.org/2000/svg" xmlns:xlink="http://www.w3.org/1999/xlink" x="0px" y="0px"
	 viewBox="0 0 58 58" style="enable-background:new 0 0 58 58;" xml:space="preserve">
<g>
	<g>
		<polygon style="fill:#DCD6CD;" points="0,5.146 0,44.146 28,44.146 56,44.146 56,5.146 		"/>
		<path style="fill:#E8E3D9;" d="M30.965,27.253c-1.637,1.462-4.292,1.462-5.93,0l-2.087-1.843C16.419,31.238,0,44.146,0,44.146
			h21.607h12.787H56c0,0-16.419-12.909-22.948-18.736L30.965,27.253z"/>
		<path style="fill:#EFEBDE;" d="M0,5.146l25.035,22.107c1.637,1.462,4.292,1.462,5.93,0L56,5.146H0z"/>
	</g>
	<g>
		<polygon style="fill:#EDDCC7;" points="36.566,43.361 36.559,43.368 34.571,50.658 39.217,46.011 		"/>
		<path style="fill:#D75A4A;" d="M55.816,29.412l-1.247-1.247c-0.775-0.775-2.032-0.775-2.807,0l-3.582,3.582l2.651,2.651
			L55.816,29.412z"/>
		
			<rect x="41.824" y="30.667" transform="matrix(0.7071 0.7071 -0.7071 0.7071 40.2908 -19.5122)" style="fill:#F29C21;" width="3.749" height="16.424"/>
		<polygon style="fill:#D6C4B1;" points="42.216,49.025 42.223,49.018 39.217,46.011 34.571,50.658 34.437,51.146 		"/>
		<path style="fill:#A34740;" d="M53.837,37.404l3.582-3.582c0.775-0.775,0.775-2.032,0-2.807l-1.602-1.602l-4.985,4.985
			L53.837,37.404z"/>
		
			<rect x="44.401" y="33.495" transform="matrix(-0.7071 -0.7071 0.7071 -0.7071 49.9343 104.099)" style="fill:#E18C25;" width="4.251" height="16.424"/>
		<path style="fill:#5E5E5E;" d="M33.73,52.854c-0.256,0-0.512-0.098-0.707-0.293c-0.391-0.391-0.391-1.023,0-1.414l2.207-2.207
			c0.391-0.391,1.023-0.391,1.414,0s0.391,1.023,0,1.414l-2.207,2.207C34.242,52.756,33.986,52.854,33.73,52.854z"/>
	</g>
</g>
<g>
</g>
<g>
</g>
<g>
</g>
<g>
</g>
<g>
</g>
<g>
</g>
<g>
</g>
<g>
</g>
<g>
</g>
<g>
</g>
<g>
</g>
<g>
</g>
<g>
</g>
<g>
</g>
<g>
</g>
</svg>
