<?xml version="1.0" encoding="iso-8859-1"?>
<!-- Generator: Adobe Illustrator 18.0.0, SVG Export Plug-In . SVG Version: 6.00 Build 0)  -->
<!DOCTYPE svg PUBLIC "-//W3C//DTD SVG 1.1//EN" "http://www.w3.org/Graphics/SVG/1.1/DTD/svg11.dtd">
<svg version="1.1" id="Capa_1" xmlns="http://www.w3.org/2000/svg" xmlns:xlink="http://www.w3.org/1999/xlink" x="0px" y="0px"
	 viewBox="0 0 58.018 58.018" style="enable-background:new 0 0 58.018 58.018;" xml:space="preserve">
<g>
	<g>
		<polygon style="fill:#DCD6CD;" points="0,4.518 0,43.518 28,43.518 56,43.518 56,4.518 		"/>
		<path style="fill:#E8E3D9;" d="M30.965,26.625c-1.637,1.462-4.292,1.462-5.93,0l-2.087-1.843C16.419,30.61,0,43.518,0,43.518
			h21.607h12.787H56c0,0-16.419-12.909-22.948-18.736L30.965,26.625z"/>
		<path style="fill:#EFEBDE;" d="M0,4.518l25.035,22.107c1.637,1.462,4.292,1.462,5.93,0L56,4.518H0z"/>
	</g>
	<g>
		<circle style="fill:#D0E8F9;" cx="43.796" cy="38.314" r="9.796"/>
		<path style="fill:#EAF6FD;" d="M47.348,29.193L34.675,41.867c0.706,1.81,1.93,3.357,3.495,4.459l13.638-13.638
			C50.706,31.123,49.158,29.899,47.348,29.193z"/>
		<path style="fill:#8697CB;" d="M57.741,51.809l-5.97-6.244c1.746-1.919,2.82-4.458,2.82-7.251c0-5.953-4.843-10.796-10.796-10.796
			S33,32.362,33,38.314S37.843,49.11,43.796,49.11c2.442,0,4.689-0.824,6.499-2.196l6.001,6.276
			c0.196,0.206,0.459,0.309,0.723,0.309c0.249,0,0.497-0.092,0.691-0.277C58.108,52.841,58.123,52.208,57.741,51.809z M35,38.314
			c0-4.85,3.946-8.796,8.796-8.796s8.796,3.946,8.796,8.796s-3.946,8.796-8.796,8.796S35,43.164,35,38.314z"/>
	</g>
</g>
<g>
</g>
<g>
</g>
<g>
</g>
<g>
</g>
<g>
</g>
<g>
</g>
<g>
</g>
<g>
</g>
<g>
</g>
<g>
</g>
<g>
</g>
<g>
</g>
<g>
</g>
<g>
</g>
<g>
</g>
</svg>
