<?xml version="1.0" encoding="iso-8859-1"?>
<!-- Generator: Adobe Illustrator 18.0.0, SVG Export Plug-In . SVG Version: 6.00 Build 0)  -->
<!DOCTYPE svg PUBLIC "-//W3C//DTD SVG 1.1//EN" "http://www.w3.org/Graphics/SVG/1.1/DTD/svg11.dtd">
<svg version="1.1" id="Capa_1" xmlns="http://www.w3.org/2000/svg" xmlns:xlink="http://www.w3.org/1999/xlink" x="0px" y="0px"
	 viewBox="0 0 58 58" style="enable-background:new 0 0 58 58;" xml:space="preserve">
<g>
	<g>
		<polygon style="fill:#DCD6CD;" points="0,5.5 0,44.5 28,44.5 56,44.5 56,5.5 		"/>
		<path style="fill:#E8E3D9;" d="M30.965,27.607c-1.637,1.462-4.292,1.462-5.93,0l-2.087-1.843C16.419,31.591,0,44.5,0,44.5h21.607
			h12.787H56c0,0-16.419-12.909-22.948-18.736L30.965,27.607z"/>
		<path style="fill:#EFEBDE;" d="M0,5.5l25.035,22.107c1.637,1.462,4.292,1.462,5.93,0L56,5.5H0z"/>
	</g>
	<g>
		<rect x="38" y="36.5" style="fill:#CBB292;" width="20" height="16"/>
		<path style="fill:#7F5C53;" d="M51,43.5c0-1.657-1.343-3-3-3s-3,1.343-3,3c0,1.317,0.854,2.424,2.035,2.827
			C47.024,46.385,47,46.439,47,46.5v2c0,0.552,0.448,1,1,1s1-0.448,1-1v-2c0-0.061-0.024-0.115-0.035-0.173
			C50.146,45.924,51,44.817,51,43.5z"/>
		<path style="fill:#BDC3C7;" d="M43,34.5c0-2.757,2.243-5,5-5s5,2.243,5,5v2h2v-2c0-3.86-3.14-7-7-7s-7,3.14-7,7v2h2V34.5z"/>
	</g>
</g>
<g>
</g>
<g>
</g>
<g>
</g>
<g>
</g>
<g>
</g>
<g>
</g>
<g>
</g>
<g>
</g>
<g>
</g>
<g>
</g>
<g>
</g>
<g>
</g>
<g>
</g>
<g>
</g>
<g>
</g>
</svg>
