<?xml version="1.0" encoding="iso-8859-1"?>
<!-- Generator: Adobe Illustrator 18.0.0, SVG Export Plug-In . SVG Version: 6.00 Build 0)  -->
<!DOCTYPE svg PUBLIC "-//W3C//DTD SVG 1.1//EN" "http://www.w3.org/Graphics/SVG/1.1/DTD/svg11.dtd">
<svg version="1.1" id="Capa_1" xmlns="http://www.w3.org/2000/svg" xmlns:xlink="http://www.w3.org/1999/xlink" x="0px" y="0px"
	 viewBox="0 0 59 59" style="enable-background:new 0 0 59 59;" xml:space="preserve">
<g>
	<g>
		<polygon style="fill:#DCD6CD;" points="0,5.5 0,44.5 28,44.5 56,44.5 56,5.5 		"/>
		<path style="fill:#E8E3D9;" d="M30.965,27.607c-1.637,1.462-4.292,1.462-5.93,0l-2.087-1.843C16.419,31.591,0,44.5,0,44.5h21.607
			h12.787H56c0,0-16.419-12.909-22.948-18.736L30.965,27.607z"/>
		<path style="fill:#EFEBDE;" d="M0,5.5l25.035,22.107c1.637,1.462,4.292,1.462,5.93,0L56,5.5H0z"/>
	</g>
	<g>
		<path style="fill:#91BAE1;" d="M49,40.5h-2l0,0c-3.633-1.453-6-4.861-6-8.64V28.5h14v3.36C55,35.639,52.633,39.047,49,40.5
			L49,40.5z"/>
		<path style="fill:#91BAE1;" d="M47,40.5h2l0,0c3.633,1.453,6,4.861,6,8.64v3.36H41v-3.36C41,45.361,43.367,41.953,47,40.5L47,40.5
			z"/>
		<g>
			<path style="fill:#556080;" d="M38,29.5h1h2h17c0.553,0,1-0.448,1-1s-0.447-1-1-1H41h-2h-1c-0.553,0-1,0.448-1,1
				S37.447,29.5,38,29.5z"/>
			<path style="fill:#556080;" d="M57.999,51.498h-18c-0.003,0-0.006,0.002-0.01,0.002H38c-0.553,0-1,0.448-1,1s0.447,1,1,1h3
				c0.003,0,0.006-0.002,0.01-0.002h16.989c0.553,0,1-0.448,1-1S58.552,51.498,57.999,51.498z"/>
		</g>
	</g>
</g>
<g>
</g>
<g>
</g>
<g>
</g>
<g>
</g>
<g>
</g>
<g>
</g>
<g>
</g>
<g>
</g>
<g>
</g>
<g>
</g>
<g>
</g>
<g>
</g>
<g>
</g>
<g>
</g>
<g>
</g>
</svg>
