<?xml version="1.0" encoding="iso-8859-1"?>
<!-- Generator: Adobe Illustrator 18.0.0, SVG Export Plug-In . SVG Version: 6.00 Build 0)  -->
<!DOCTYPE svg PUBLIC "-//W3C//DTD SVG 1.1//EN" "http://www.w3.org/Graphics/SVG/1.1/DTD/svg11.dtd">
<svg version="1.1" id="Capa_1" xmlns="http://www.w3.org/2000/svg" xmlns:xlink="http://www.w3.org/1999/xlink" x="0px" y="0px"
	 viewBox="0 0 55 55" style="enable-background:new 0 0 55 55;" xml:space="preserve">
<g>
	<g>
		<polygon style="fill:#4FBA6E;" points="18,21.243 2.256,5.499 0,6 0,49 2.099,48.534 18,32.632 		"/>
		<polygon style="fill:#48A0DC;" points="9.372,46.917 18,45 18,38.289 		"/>
		<polygon style="fill:#4FBA6E;" points="18,2 6.884,4.47 18,15.586 		"/>
		<polygon style="fill:#4FBA6E;" points="49.449,1.184 35,6 35,15.632 		"/>
		<polygon style="fill:#48A0DC;" points="35,21.289 35,48 53,41 53,3.289 		"/>
		<polygon style="fill:#4AA461;" points="26.523,24.109 35,15.632 35,6 18,2 18,15.586 		"/>
		<polygon style="fill:#4AA461;" points="18,21.243 18,32.632 23.695,26.938 		"/>
		<polygon style="fill:#51A2C9;" points="18,38.289 18,45 35,48 35,21.289 		"/>
		<polygon style="fill:#F3D55A;" points="18,15.586 6.884,4.47 2.256,5.499 18,21.243 		"/>
		<polygon style="fill:#F3D55A;" points="18,32.632 2.099,48.534 9.372,46.917 18,38.289 		"/>
		<polygon style="fill:#F3D55A;" points="35,21.289 53,3.289 53,0 49.449,1.184 35,15.632 		"/>
		<polygon style="fill:#DCBD56;" points="26.523,24.109 18,15.586 18,21.243 23.695,26.938 18,32.632 18,38.289 35,21.289 
			35,15.632 		"/>
	</g>
	<g>
		<circle style="fill:#556080;" cx="42.5" cy="42.5" r="12.5"/>
		<path style="fill:#C1BDDE;" d="M42.5,32c-4.718,0-8.88,3.182-10.121,7.737c-0.146,0.533,0.169,1.083,0.702,1.228
			c0.528,0.143,1.082-0.168,1.228-0.702C35.313,36.575,38.682,34,42.5,34c4.687,0,8.5,3.813,8.5,8.5S47.187,51,42.5,51
			c-3.365,0-6.378-2.001-7.734-5H40v-2h-6h-1h-1v8h2v-3.341l0,0v-0.023C35.933,51.31,39.066,53,42.5,53C48.29,53,53,48.29,53,42.5
			S48.29,32,42.5,32z"/>
	</g>
</g>
<g>
</g>
<g>
</g>
<g>
</g>
<g>
</g>
<g>
</g>
<g>
</g>
<g>
</g>
<g>
</g>
<g>
</g>
<g>
</g>
<g>
</g>
<g>
</g>
<g>
</g>
<g>
</g>
<g>
</g>
</svg>
