<?xml version="1.0" encoding="iso-8859-1"?>
<!-- Generator: Adobe Illustrator 18.0.0, SVG Export Plug-In . SVG Version: 6.00 Build 0)  -->
<!DOCTYPE svg PUBLIC "-//W3C//DTD SVG 1.1//EN" "http://www.w3.org/Graphics/SVG/1.1/DTD/svg11.dtd">
<svg version="1.1" id="Capa_1" xmlns="http://www.w3.org/2000/svg" xmlns:xlink="http://www.w3.org/1999/xlink" x="0px" y="0px"
	 viewBox="0 0 56 56" style="enable-background:new 0 0 56 56;" xml:space="preserve">
<g>
	<g>
		<polygon style="fill:#4FBA6E;" points="19,21.243 3.256,5.499 1,6 1,49 3.099,48.534 19,32.632 		"/>
		<polygon style="fill:#48A0DC;" points="10.372,46.917 19,45 19,38.289 		"/>
		<polygon style="fill:#4FBA6E;" points="19,2 7.884,4.47 19,15.586 		"/>
		<polygon style="fill:#4FBA6E;" points="50.449,1.184 36,6 36,15.632 		"/>
		<polygon style="fill:#48A0DC;" points="36,21.289 36,48 54,41 54,3.289 		"/>
		<polygon style="fill:#4AA461;" points="27.523,24.109 36,15.632 36,6 19,2 19,15.586 		"/>
		<polygon style="fill:#4AA461;" points="19,21.243 19,32.632 24.695,26.938 		"/>
		<polygon style="fill:#51A2C9;" points="19,38.289 19,45 36,48 36,21.289 		"/>
		<polygon style="fill:#F3D55A;" points="19,15.586 7.884,4.47 3.256,5.499 19,21.243 		"/>
		<polygon style="fill:#F3D55A;" points="19,32.632 3.099,48.534 10.372,46.917 19,38.289 		"/>
		<polygon style="fill:#F3D55A;" points="36,21.289 54,3.289 54,0 50.449,1.184 36,15.632 		"/>
		<polygon style="fill:#DCBD56;" points="27.523,24.109 19,15.586 19,21.243 24.695,26.938 19,32.632 19,38.289 36,21.289 
			36,15.632 		"/>
	</g>
	<g>
		<path style="fill:#B1D3EF;" d="M45,43h-2l0,0c-3.633-1.453-6-4.861-6-8.64V31h14v3.36C51,38.139,48.633,41.547,45,43L45,43z"/>
		<path style="fill:#B1D3EF;" d="M43,43h2l0,0c3.633,1.453,6,4.861,6,8.64V55H37v-3.36C37,47.861,39.367,44.453,43,43L43,43z"/>
		<g>
			<path style="fill:#556080;" d="M34,32h1h2h17c0.553,0,1-0.448,1-1s-0.447-1-1-1H37h-2h-1c-0.553,0-1,0.448-1,1S33.447,32,34,32z"
				/>
			<path style="fill:#556080;" d="M53.999,53.998h-18c-0.003,0-0.006,0.002-0.01,0.002H34c-0.553,0-1,0.448-1,1s0.447,1,1,1h3
				c0.003,0,0.006-0.002,0.01-0.002h16.989c0.553,0,1-0.448,1-1S54.552,53.998,53.999,53.998z"/>
		</g>
	</g>
</g>
<g>
</g>
<g>
</g>
<g>
</g>
<g>
</g>
<g>
</g>
<g>
</g>
<g>
</g>
<g>
</g>
<g>
</g>
<g>
</g>
<g>
</g>
<g>
</g>
<g>
</g>
<g>
</g>
<g>
</g>
</svg>
