<?xml version="1.0" encoding="iso-8859-1"?>
<!-- Generator: Adobe Illustrator 18.0.0, SVG Export Plug-In . SVG Version: 6.00 Build 0)  -->
<!DOCTYPE svg PUBLIC "-//W3C//DTD SVG 1.1//EN" "http://www.w3.org/Graphics/SVG/1.1/DTD/svg11.dtd">
<svg version="1.1" id="Capa_1" xmlns="http://www.w3.org/2000/svg" xmlns:xlink="http://www.w3.org/1999/xlink" x="0px" y="0px"
	 viewBox="0 0 55 55" style="enable-background:new 0 0 55 55;" xml:space="preserve">
<g>
	<g>
		<polygon style="fill:#4FBA6E;" points="19,21.243 3.256,5.499 1,6 1,49 3.099,48.534 19,32.632 		"/>
		<polygon style="fill:#48A0DC;" points="10.372,46.917 19,45 19,38.289 		"/>
		<polygon style="fill:#4FBA6E;" points="19,2 7.884,4.47 19,15.586 		"/>
		<polygon style="fill:#4FBA6E;" points="50.449,1.184 36,6 36,15.632 		"/>
		<polygon style="fill:#48A0DC;" points="36,21.289 36,48 54,41 54,3.289 		"/>
		<polygon style="fill:#4AA461;" points="27.523,24.109 36,15.632 36,6 19,2 19,15.586 		"/>
		<polygon style="fill:#4AA461;" points="19,21.243 19,32.632 24.695,26.938 		"/>
		<polygon style="fill:#51A2C9;" points="19,38.289 19,45 36,48 36,21.289 		"/>
		<polygon style="fill:#F3D55A;" points="19,15.586 7.884,4.47 3.256,5.499 19,21.243 		"/>
		<polygon style="fill:#F3D55A;" points="19,32.632 3.099,48.534 10.372,46.917 19,38.289 		"/>
		<polygon style="fill:#F3D55A;" points="36,21.289 54,3.289 54,0 50.449,1.184 36,15.632 		"/>
		<polygon style="fill:#DCBD56;" points="27.523,24.109 19,15.586 19,21.243 24.695,26.938 19,32.632 19,38.289 36,21.289 
			36,15.632 		"/>
	</g>
	<g>
		<rect x="34" y="39" style="fill:#CBB292;" width="20" height="16"/>
		<path style="fill:#7F5C53;" d="M47,46c0-1.657-1.343-3-3-3s-3,1.343-3,3c0,1.317,0.854,2.424,2.035,2.827
			C43.024,48.885,43,48.939,43,49v2c0,0.552,0.448,1,1,1s1-0.448,1-1v-2c0-0.061-0.024-0.115-0.035-0.173
			C46.146,48.424,47,47.317,47,46z"/>
		<path style="fill:#BDC3C7;" d="M39,37c0-2.757,2.243-5,5-5s5,2.243,5,5v2h2v-2c0-3.86-3.14-7-7-7s-7,3.14-7,7v2h2V37z"/>
	</g>
</g>
<g>
</g>
<g>
</g>
<g>
</g>
<g>
</g>
<g>
</g>
<g>
</g>
<g>
</g>
<g>
</g>
<g>
</g>
<g>
</g>
<g>
</g>
<g>
</g>
<g>
</g>
<g>
</g>
<g>
</g>
</svg>
