<?xml version="1.0" encoding="iso-8859-1"?>
<!-- Generator: Adobe Illustrator 18.0.0, SVG Export Plug-In . SVG Version: 6.00 Build 0)  -->
<!DOCTYPE svg PUBLIC "-//W3C//DTD SVG 1.1//EN" "http://www.w3.org/Graphics/SVG/1.1/DTD/svg11.dtd">
<svg version="1.1" id="Capa_1" xmlns="http://www.w3.org/2000/svg" xmlns:xlink="http://www.w3.org/1999/xlink" x="0px" y="0px"
	 viewBox="0 0 56 56" style="enable-background:new 0 0 56 56;" xml:space="preserve">
<g>
	<g>
		<polygon style="fill:#4FBA6E;" points="18.5,21.243 2.756,5.499 0.5,6 0.5,49 2.599,48.534 18.5,32.632 		"/>
		<polygon style="fill:#48A0DC;" points="9.872,46.917 18.5,45 18.5,38.289 		"/>
		<polygon style="fill:#4FBA6E;" points="18.5,2 7.384,4.47 18.5,15.586 		"/>
		<polygon style="fill:#4FBA6E;" points="49.949,1.184 35.5,6 35.5,15.632 		"/>
		<polygon style="fill:#48A0DC;" points="35.5,21.289 35.5,48 53.5,41 53.5,3.289 		"/>
		<polygon style="fill:#4AA461;" points="27.023,24.109 35.5,15.632 35.5,6 18.5,2 18.5,15.586 		"/>
		<polygon style="fill:#4AA461;" points="18.5,21.243 18.5,32.632 24.195,26.938 		"/>
		<polygon style="fill:#51A2C9;" points="18.5,38.289 18.5,45 35.5,48 35.5,21.289 		"/>
		<polygon style="fill:#F3D55A;" points="18.5,15.586 7.384,4.47 2.756,5.499 18.5,21.243 		"/>
		<polygon style="fill:#F3D55A;" points="18.5,32.632 2.599,48.534 9.872,46.917 18.5,38.289 		"/>
		<polygon style="fill:#F3D55A;" points="35.5,21.289 53.5,3.289 53.5,0 49.949,1.184 35.5,15.632 		"/>
		<polygon style="fill:#DCBD56;" points="27.023,24.109 18.5,15.586 18.5,21.243 24.195,26.938 18.5,32.632 18.5,38.289 
			35.5,21.289 35.5,15.632 		"/>
	</g>
	<g>
		<circle style="fill:#F29C21;" cx="43.5" cy="44" r="12"/>
		<path style="fill:#FFFFFF;" d="M49.5,45h-12c-0.552,0-1-0.448-1-1s0.448-1,1-1h12c0.552,0,1,0.448,1,1S50.052,45,49.5,45z"/>
	</g>
</g>
<g>
</g>
<g>
</g>
<g>
</g>
<g>
</g>
<g>
</g>
<g>
</g>
<g>
</g>
<g>
</g>
<g>
</g>
<g>
</g>
<g>
</g>
<g>
</g>
<g>
</g>
<g>
</g>
<g>
</g>
</svg>
