<?xml version="1.0" encoding="iso-8859-1"?>
<!-- Generator: Adobe Illustrator 18.0.0, SVG Export Plug-In . SVG Version: 6.00 Build 0)  -->
<!DOCTYPE svg PUBLIC "-//W3C//DTD SVG 1.1//EN" "http://www.w3.org/Graphics/SVG/1.1/DTD/svg11.dtd">
<svg version="1.1" id="Capa_1" xmlns="http://www.w3.org/2000/svg" xmlns:xlink="http://www.w3.org/1999/xlink" x="0px" y="0px"
	 viewBox="0 0 55.39 55.39" style="enable-background:new 0 0 55.39 55.39;" xml:space="preserve">
<g>
	<g>
		<polygon style="fill:#4FBA6E;" points="18,23.199 2.256,7.455 0,7.956 0,50.956 2.099,50.49 18,34.588 		"/>
		<polygon style="fill:#48A0DC;" points="9.372,48.874 18,46.956 18,40.245 		"/>
		<polygon style="fill:#4FBA6E;" points="18,3.956 6.884,6.426 18,17.542 		"/>
		<polygon style="fill:#4FBA6E;" points="49.449,3.14 35,7.956 35,17.588 		"/>
		<polygon style="fill:#48A0DC;" points="35,23.245 35,49.956 53,42.956 53,5.245 		"/>
		<polygon style="fill:#4AA461;" points="26.523,26.065 35,17.588 35,7.956 18,3.956 18,17.542 		"/>
		<polygon style="fill:#4AA461;" points="18,23.199 18,34.588 23.695,28.894 		"/>
		<polygon style="fill:#51A2C9;" points="18,40.245 18,46.956 35,49.956 35,23.245 		"/>
		<polygon style="fill:#F3D55A;" points="18,17.542 6.884,6.426 2.256,7.455 18,23.199 		"/>
		<polygon style="fill:#F3D55A;" points="18,34.588 2.099,50.49 9.372,48.874 18,40.245 		"/>
		<polygon style="fill:#F3D55A;" points="35,23.245 53,5.245 53,1.956 49.449,3.14 35,17.588 		"/>
		<polygon style="fill:#DCBD56;" points="26.523,26.065 18,17.542 18,23.199 23.695,28.894 18,34.588 18,40.245 35,23.245 
			35,17.588 		"/>
	</g>
	<g>
		<path style="fill:#FFFFFF;" d="M54.195,44.113l-0.107,0.163c-7.121,10.876-18.773,10.876-25.893,0l0,0l0.107-0.163
			C35.422,33.237,47.074,33.237,54.195,44.113L54.195,44.113z"/>
		<circle style="fill:#556080;" cx="40.958" cy="41.831" r="5.909"/>
		<path style="fill:#8697CB;" d="M41.142,53.434c-5.254,0-10.148-3.058-13.783-8.609L27,44.277l0.465-0.711
			c3.635-5.552,8.53-8.609,13.784-8.609c5.253,0,10.148,3.057,13.783,8.609l0.358,0.547l-0.465,0.711
			C51.29,50.376,46.395,53.434,41.142,53.434z M29.398,44.272c3.206,4.624,7.356,7.161,11.744,7.161c4.436,0,8.63-2.594,11.85-7.317
			c-3.206-4.624-7.356-7.161-11.743-7.161C36.812,36.956,32.618,39.55,29.398,44.272z"/>
	</g>
</g>
<g>
</g>
<g>
</g>
<g>
</g>
<g>
</g>
<g>
</g>
<g>
</g>
<g>
</g>
<g>
</g>
<g>
</g>
<g>
</g>
<g>
</g>
<g>
</g>
<g>
</g>
<g>
</g>
<g>
</g>
</svg>
