<?xml version="1.0" encoding="iso-8859-1"?>
<!-- Generator: Adobe Illustrator 18.0.0, SVG Export Plug-In . SVG Version: 6.00 Build 0)  -->
<!DOCTYPE svg PUBLIC "-//W3C//DTD SVG 1.1//EN" "http://www.w3.org/Graphics/SVG/1.1/DTD/svg11.dtd">
<svg version="1.1" id="Capa_1" xmlns="http://www.w3.org/2000/svg" xmlns:xlink="http://www.w3.org/1999/xlink" x="0px" y="0px"
	 viewBox="0 0 56 56" style="enable-background:new 0 0 56 56;" xml:space="preserve">
<g>
	<g>
		<polygon style="fill:#4FBA6E;" points="18.5,21.243 2.756,5.499 0.5,6 0.5,49 2.599,48.534 18.5,32.632 		"/>
		<polygon style="fill:#48A0DC;" points="9.872,46.917 18.5,45 18.5,38.289 		"/>
		<polygon style="fill:#4FBA6E;" points="18.5,2 7.384,4.47 18.5,15.586 		"/>
		<polygon style="fill:#4FBA6E;" points="49.949,1.184 35.5,6 35.5,15.632 		"/>
		<polygon style="fill:#48A0DC;" points="35.5,21.289 35.5,48 53.5,41 53.5,3.289 		"/>
		<polygon style="fill:#4AA461;" points="27.023,24.109 35.5,15.632 35.5,6 18.5,2 18.5,15.586 		"/>
		<polygon style="fill:#4AA461;" points="18.5,21.243 18.5,32.632 24.195,26.938 		"/>
		<polygon style="fill:#51A2C9;" points="18.5,38.289 18.5,45 35.5,48 35.5,21.289 		"/>
		<polygon style="fill:#F3D55A;" points="18.5,15.586 7.384,4.47 2.756,5.499 18.5,21.243 		"/>
		<polygon style="fill:#F3D55A;" points="18.5,32.632 2.599,48.534 9.872,46.917 18.5,38.289 		"/>
		<polygon style="fill:#F3D55A;" points="35.5,21.289 53.5,3.289 53.5,0 49.949,1.184 35.5,15.632 		"/>
		<polygon style="fill:#DCBD56;" points="27.023,24.109 18.5,15.586 18.5,21.243 24.195,26.938 18.5,32.632 18.5,38.289 
			35.5,21.289 35.5,15.632 		"/>
	</g>
	<g>
		<circle style="fill:#26B999;" cx="43.5" cy="44" r="12"/>
		<path style="fill:#FFFFFF;" d="M50.071,38.179c-0.455-0.316-1.077-0.204-1.392,0.25l-5.596,8.04l-3.949-3.242
			c-0.426-0.351-1.057-0.288-1.407,0.139c-0.351,0.427-0.289,1.057,0.139,1.407l4.786,3.929c0.18,0.147,0.404,0.227,0.634,0.227
			c0.045,0,0.091-0.003,0.137-0.009c0.276-0.039,0.524-0.19,0.684-0.419l6.214-8.929C50.636,39.118,50.524,38.495,50.071,38.179z"/>
	</g>
</g>
<g>
</g>
<g>
</g>
<g>
</g>
<g>
</g>
<g>
</g>
<g>
</g>
<g>
</g>
<g>
</g>
<g>
</g>
<g>
</g>
<g>
</g>
<g>
</g>
<g>
</g>
<g>
</g>
<g>
</g>
</svg>
