<?xml version="1.0" encoding="iso-8859-1"?>
<!-- Generator: Adobe Illustrator 18.0.0, SVG Export Plug-In . SVG Version: 6.00 Build 0)  -->
<!DOCTYPE svg PUBLIC "-//W3C//DTD SVG 1.1//EN" "http://www.w3.org/Graphics/SVG/1.1/DTD/svg11.dtd">
<svg version="1.1" id="Capa_1" xmlns="http://www.w3.org/2000/svg" xmlns:xlink="http://www.w3.org/1999/xlink" x="0px" y="0px"
	 viewBox="0 0 55 55" style="enable-background:new 0 0 55 55;" xml:space="preserve">
<g>
	<g>
		<polygon style="fill:#4FBA6E;" points="18,21.243 2.256,5.499 0,6 0,49 2.099,48.534 18,32.632 		"/>
		<polygon style="fill:#48A0DC;" points="9.372,46.917 18,45 18,38.289 		"/>
		<polygon style="fill:#4FBA6E;" points="18,2 6.884,4.47 18,15.586 		"/>
		<polygon style="fill:#4FBA6E;" points="49.449,1.184 35,6 35,15.632 		"/>
		<polygon style="fill:#48A0DC;" points="35,21.289 35,48 53,41 53,3.289 		"/>
		<polygon style="fill:#4AA461;" points="26.523,24.109 35,15.632 35,6 18,2 18,15.586 		"/>
		<polygon style="fill:#4AA461;" points="18,21.243 18,32.632 23.695,26.938 		"/>
		<polygon style="fill:#51A2C9;" points="18,38.289 18,45 35,48 35,21.289 		"/>
		<polygon style="fill:#F3D55A;" points="18,15.586 6.884,4.47 2.256,5.499 18,21.243 		"/>
		<polygon style="fill:#F3D55A;" points="18,32.632 2.099,48.534 9.372,46.917 18,38.289 		"/>
		<polygon style="fill:#F3D55A;" points="35,21.289 53,3.289 53,0 49.449,1.184 35,15.632 		"/>
		<polygon style="fill:#DCBD56;" points="26.523,24.109 18,15.586 18,21.243 23.695,26.938 18,32.632 18,38.289 35,21.289 
			35,15.632 		"/>
	</g>
	<g>
		<circle style="fill:#556080;" cx="42.5" cy="42.5" r="12.5"/>
		<g>
			<path style="fill:#C1BDDE;" d="M52.193,43.019c-0.55-0.113-1.068,0.246-1.175,0.788C50.198,47.975,46.616,51,42.5,51
				c-3.351,0-6.347-2.006-7.789-5H40v-2h-6h-1h-1v8h2v-3.341C35.976,51.315,39.085,53,42.5,53c5.068,0,9.477-3.704,10.481-8.807
				C53.087,43.651,52.735,43.125,52.193,43.019z"/>
			<path style="fill:#C1BDDE;" d="M51,32.998v3.341c-1.976-2.657-5.086-4.341-8.5-4.341c-5.068,0-9.477,3.704-10.481,8.807
				c-0.106,0.542,0.246,1.068,0.788,1.174c0.55,0.113,1.068-0.246,1.175-0.788c0.82-4.168,4.402-7.193,8.519-7.193
				c3.351,0,6.347,2.006,7.789,5H45v2h6h1h1v-8H51z"/>
		</g>
	</g>
</g>
<g>
</g>
<g>
</g>
<g>
</g>
<g>
</g>
<g>
</g>
<g>
</g>
<g>
</g>
<g>
</g>
<g>
</g>
<g>
</g>
<g>
</g>
<g>
</g>
<g>
</g>
<g>
</g>
<g>
</g>
</svg>
