<?xml version="1.0" encoding="iso-8859-1"?>
<!-- Generator: Adobe Illustrator 18.0.0, SVG Export Plug-In . SVG Version: 6.00 Build 0)  -->
<!DOCTYPE svg PUBLIC "-//W3C//DTD SVG 1.1//EN" "http://www.w3.org/Graphics/SVG/1.1/DTD/svg11.dtd">
<svg version="1.1" id="Capa_1" xmlns="http://www.w3.org/2000/svg" xmlns:xlink="http://www.w3.org/1999/xlink" x="0px" y="0px"
	 viewBox="0 0 56 56" style="enable-background:new 0 0 56 56;" xml:space="preserve">
<g>
	<g>
		<polygon style="fill:#4FBA6E;" points="18.365,21.243 2.621,5.499 0.365,6 0.365,49 2.464,48.534 18.365,32.632 		"/>
		<polygon style="fill:#48A0DC;" points="9.737,46.917 18.365,45 18.365,38.289 		"/>
		<polygon style="fill:#4FBA6E;" points="18.365,2 7.25,4.47 18.365,15.586 		"/>
		<polygon style="fill:#4FBA6E;" points="49.814,1.184 35.365,6 35.365,15.632 		"/>
		<polygon style="fill:#48A0DC;" points="35.365,21.289 35.365,48 53.365,41 53.365,3.289 		"/>
		<polygon style="fill:#4AA461;" points="26.889,24.109 35.365,15.632 35.365,6 18.365,2 18.365,15.586 		"/>
		<polygon style="fill:#4AA461;" points="18.365,21.243 18.365,32.632 24.06,26.938 		"/>
		<polygon style="fill:#51A2C9;" points="18.365,38.289 18.365,45 35.365,48 35.365,21.289 		"/>
		<polygon style="fill:#F3D55A;" points="18.365,15.586 7.25,4.47 2.621,5.499 18.365,21.243 		"/>
		<polygon style="fill:#F3D55A;" points="18.365,32.632 2.464,48.534 9.737,46.917 18.365,38.289 		"/>
		<polygon style="fill:#F3D55A;" points="35.365,21.289 53.365,3.289 53.365,0 49.814,1.184 35.365,15.632 		"/>
		<polygon style="fill:#DCBD56;" points="26.889,24.109 18.365,15.586 18.365,21.243 24.06,26.938 18.365,32.632 18.365,38.289 
			35.365,21.289 35.365,15.632 		"/>
	</g>
	<g>
		<polygon style="fill:#EDDCC7;" points="34.201,46.507 34.194,46.515 32.205,53.804 36.852,49.158 		"/>
		<path style="fill:#D75A4A;" d="M53.451,32.559l-1.247-1.247c-0.775-0.775-2.032-0.775-2.807,0l-3.582,3.582l2.651,2.651
			L53.451,32.559z"/>
		
			<rect x="39.459" y="33.814" transform="matrix(0.7071 0.7071 -0.7071 0.7071 41.8229 -16.9181)" style="fill:#F29C21;" width="3.749" height="16.424"/>
		<polygon style="fill:#D6C4B1;" points="39.85,52.172 39.858,52.164 36.852,49.158 32.205,53.804 32.072,54.293 		"/>
		<path style="fill:#A34740;" d="M51.472,40.55l3.582-3.582c0.775-0.775,0.775-2.032,0-2.807l-1.602-1.602l-4.985,4.985
			L51.472,40.55z"/>
		
			<rect x="42.036" y="36.642" transform="matrix(-0.7071 -0.7071 0.7071 -0.7071 43.6717 107.7979)" style="fill:#E18C25;" width="4.251" height="16.424"/>
		<path style="fill:#5E5E5E;" d="M31.365,56c-0.256,0-0.512-0.098-0.707-0.293c-0.391-0.391-0.391-1.023,0-1.414l2.207-2.207
			c0.391-0.391,1.023-0.391,1.414,0s0.391,1.023,0,1.414l-2.207,2.207C31.877,55.902,31.621,56,31.365,56z"/>
	</g>
</g>
<g>
</g>
<g>
</g>
<g>
</g>
<g>
</g>
<g>
</g>
<g>
</g>
<g>
</g>
<g>
</g>
<g>
</g>
<g>
</g>
<g>
</g>
<g>
</g>
<g>
</g>
<g>
</g>
<g>
</g>
</svg>
