<?xml version="1.0" encoding="iso-8859-1"?>
<!-- Generator: Adobe Illustrator 18.0.0, SVG Export Plug-In . SVG Version: 6.00 Build 0)  -->
<!DOCTYPE svg PUBLIC "-//W3C//DTD SVG 1.1//EN" "http://www.w3.org/Graphics/SVG/1.1/DTD/svg11.dtd">
<svg version="1.1" id="Capa_1" xmlns="http://www.w3.org/2000/svg" xmlns:xlink="http://www.w3.org/1999/xlink" x="0px" y="0px"
	 viewBox="0 0 56 56" style="enable-background:new 0 0 56 56;" xml:space="preserve">
<g>
	<g>
		<polygon style="fill:#4FBA6E;" points="18.5,21.243 2.756,5.499 0.5,6 0.5,49 2.599,48.534 18.5,32.632 		"/>
		<polygon style="fill:#48A0DC;" points="9.872,46.917 18.5,45 18.5,38.289 		"/>
		<polygon style="fill:#4FBA6E;" points="18.5,2 7.384,4.47 18.5,15.586 		"/>
		<polygon style="fill:#4FBA6E;" points="49.949,1.184 35.5,6 35.5,15.632 		"/>
		<polygon style="fill:#48A0DC;" points="35.5,21.289 35.5,48 53.5,41 53.5,3.289 		"/>
		<polygon style="fill:#4AA461;" points="27.023,24.109 35.5,15.632 35.5,6 18.5,2 18.5,15.586 		"/>
		<polygon style="fill:#4AA461;" points="18.5,21.243 18.5,32.632 24.195,26.938 		"/>
		<polygon style="fill:#51A2C9;" points="18.5,38.289 18.5,45 35.5,48 35.5,21.289 		"/>
		<polygon style="fill:#F3D55A;" points="18.5,15.586 7.384,4.47 2.756,5.499 18.5,21.243 		"/>
		<polygon style="fill:#F3D55A;" points="18.5,32.632 2.599,48.534 9.872,46.917 18.5,38.289 		"/>
		<polygon style="fill:#F3D55A;" points="35.5,21.289 53.5,3.289 53.5,0 49.949,1.184 35.5,15.632 		"/>
		<polygon style="fill:#DCBD56;" points="27.023,24.109 18.5,15.586 18.5,21.243 24.195,26.938 18.5,32.632 18.5,38.289 
			35.5,21.289 35.5,15.632 		"/>
	</g>
	<g>
		<path style="fill:#556080;" d="M55.5,42.846l-1.444-0.278c-2.143-0.412-3.125-2.916-1.835-4.675l0.907-1.236l-1.958-1.958
			l-1.217,0.825c-1.806,1.224-4.272,0.148-4.604-2.008L45.115,32h-2.769l-0.359,1.865c-0.403,2.096-2.818,3.096-4.585,1.899
			l-1.572-1.065l-1.958,1.958l0.907,1.236c1.29,1.76,0.308,4.263-1.835,4.675L31.5,42.846v2.769l1.515,0.233
			c2.157,0.332,3.232,2.797,2.008,4.604l-0.825,1.217l1.958,1.958l1.236-0.907c1.76-1.29,4.263-0.308,4.675,1.835L42.346,56h2.769
			l0.164-1.066c0.339-2.204,2.896-3.263,4.694-1.944l0.869,0.638l1.958-1.958l-0.825-1.217c-1.224-1.806-0.148-4.272,2.008-4.604
			l1.515-0.233V42.846z"/>
		<g>
			<circle style="fill:#FFFFFF;" cx="43.5" cy="44" r="4"/>
			<path style="fill:#ECF0F1;" d="M43.5,49c-2.757,0-5-2.243-5-5s2.243-5,5-5s5,2.243,5,5S46.257,49,43.5,49z M43.5,41
				c-1.654,0-3,1.346-3,3s1.346,3,3,3s3-1.346,3-3S45.154,41,43.5,41z"/>
		</g>
	</g>
</g>
<g>
</g>
<g>
</g>
<g>
</g>
<g>
</g>
<g>
</g>
<g>
</g>
<g>
</g>
<g>
</g>
<g>
</g>
<g>
</g>
<g>
</g>
<g>
</g>
<g>
</g>
<g>
</g>
<g>
</g>
</svg>
