<?xml version="1.0" encoding="iso-8859-1"?>
<!-- Generator: Adobe Illustrator 18.0.0, SVG Export Plug-In . SVG Version: 6.00 Build 0)  -->
<!DOCTYPE svg PUBLIC "-//W3C//DTD SVG 1.1//EN" "http://www.w3.org/Graphics/SVG/1.1/DTD/svg11.dtd">
<svg version="1.1" id="Capa_1" xmlns="http://www.w3.org/2000/svg" xmlns:xlink="http://www.w3.org/1999/xlink" x="0px" y="0px"
	 viewBox="0 0 56 56" style="enable-background:new 0 0 56 56;" xml:space="preserve">
<g>
	<g>
		<polygon style="fill:#4FBA6E;" points="18.75,21.243 3.006,5.499 0.75,6 0.75,49 2.849,48.534 18.75,32.632 		"/>
		<polygon style="fill:#48A0DC;" points="10.122,46.917 18.75,45 18.75,38.289 		"/>
		<polygon style="fill:#4FBA6E;" points="18.75,2 7.634,4.47 18.75,15.586 		"/>
		<polygon style="fill:#4FBA6E;" points="50.199,1.184 35.75,6 35.75,15.632 		"/>
		<polygon style="fill:#48A0DC;" points="35.75,21.289 35.75,48 53.75,41 53.75,3.289 		"/>
		<polygon style="fill:#4AA461;" points="27.273,24.109 35.75,15.632 35.75,6 18.75,2 18.75,15.586 		"/>
		<polygon style="fill:#4AA461;" points="18.75,21.243 18.75,32.632 24.445,26.938 		"/>
		<polygon style="fill:#51A2C9;" points="18.75,38.289 18.75,45 35.75,48 35.75,21.289 		"/>
		<polygon style="fill:#F3D55A;" points="18.75,15.586 7.634,4.47 3.006,5.499 18.75,21.243 		"/>
		<polygon style="fill:#F3D55A;" points="18.75,32.632 2.849,48.534 10.122,46.917 18.75,38.289 		"/>
		<polygon style="fill:#F3D55A;" points="35.75,21.289 53.75,3.289 53.75,0 50.199,1.184 35.75,15.632 		"/>
		<polygon style="fill:#DCBD56;" points="27.273,24.109 18.75,15.586 18.75,21.243 24.445,26.938 18.75,32.632 18.75,38.289 
			35.75,21.289 35.75,15.632 		"/>
	</g>
	<g>
		<g>
			<path style="fill:#91BAE1;" d="M50.295,45.111C50.244,41.175,47.132,38,43.296,38c-2.568,0-4.806,1.426-6.025,3.546
				c-0.421-0.141-0.87-0.22-1.337-0.22c-2.063,0-3.785,1.492-4.208,3.484c-1.754,0.865-2.975,2.706-2.975,4.831
				c0,2.947,2.343,5.359,5.208,5.359h10.775c0.061,0,0.119-0.007,0.18-0.009c0.06,0.002,0.119,0.009,0.18,0.009h4.31
				c2.667,0,4.849-2.245,4.849-4.989C54.25,47.581,52.538,45.546,50.295,45.111z"/>
			<path style="fill:#8697CB;" d="M49.401,56h-4.31c-0.063,0-0.126-0.004-0.188-0.008C44.856,55.996,44.795,56,44.732,56H33.958
				c-3.423,0-6.208-2.853-6.208-6.358c0-2.262,1.209-4.372,3.116-5.503c0.686-2.235,2.746-3.813,5.066-3.813
				c0.296,0,0.592,0.025,0.884,0.076C38.312,38.286,40.73,37,43.296,37c4.102,0,7.524,3.225,7.954,7.332
				c2.358,0.806,4,3.079,4,5.679C55.25,53.313,52.626,56,49.401,56z M44.864,53.991l0.186,0.006L49.401,54
				c2.122,0,3.849-1.79,3.849-3.989c0-1.917-1.323-3.564-3.146-3.919l-0.799-0.155l-0.011-0.813C49.251,41.747,46.561,39,43.296,39
				c-2.135,0-4.063,1.139-5.158,3.045l-0.409,0.711l-0.777-0.261c-0.332-0.112-0.675-0.169-1.019-0.169
				c-1.54,0-2.898,1.133-3.229,2.692l-0.102,0.475l-0.435,0.214c-1.469,0.725-2.417,2.269-2.417,3.935
				c0,2.403,1.888,4.358,4.208,4.358L44.864,53.991z"/>
		</g>
	</g>
</g>
<g>
</g>
<g>
</g>
<g>
</g>
<g>
</g>
<g>
</g>
<g>
</g>
<g>
</g>
<g>
</g>
<g>
</g>
<g>
</g>
<g>
</g>
<g>
</g>
<g>
</g>
<g>
</g>
<g>
</g>
</svg>
