<?xml version="1.0" encoding="iso-8859-1"?>
<!-- Generator: Adobe Illustrator 18.0.0, SVG Export Plug-In . SVG Version: 6.00 Build 0)  -->
<!DOCTYPE svg PUBLIC "-//W3C//DTD SVG 1.1//EN" "http://www.w3.org/Graphics/SVG/1.1/DTD/svg11.dtd">
<svg version="1.1" id="Capa_1" xmlns="http://www.w3.org/2000/svg" xmlns:xlink="http://www.w3.org/1999/xlink" x="0px" y="0px"
	 viewBox="0 0 54 54" style="enable-background:new 0 0 54 54;" xml:space="preserve">
<g>
	<g>
		<polygon style="fill:#4FBA6E;" points="18.378,21.243 2.634,5.499 0.378,6 0.378,49 2.477,48.534 18.378,32.632 		"/>
		<polygon style="fill:#48A0DC;" points="9.75,46.917 18.378,45 18.378,38.289 		"/>
		<polygon style="fill:#4FBA6E;" points="18.378,2 7.262,4.47 18.378,15.586 		"/>
		<polygon style="fill:#4FBA6E;" points="49.827,1.184 35.378,6 35.378,15.632 		"/>
		<polygon style="fill:#48A0DC;" points="35.378,21.289 35.378,48 53.378,41 53.378,3.289 		"/>
		<polygon style="fill:#4AA461;" points="26.901,24.109 35.378,15.632 35.378,6 18.378,2 18.378,15.586 		"/>
		<polygon style="fill:#4AA461;" points="18.378,21.243 18.378,32.632 24.073,26.938 		"/>
		<polygon style="fill:#51A2C9;" points="18.378,38.289 18.378,45 35.378,48 35.378,21.289 		"/>
		<polygon style="fill:#F3D55A;" points="18.378,15.586 7.262,4.47 2.634,5.499 18.378,21.243 		"/>
		<polygon style="fill:#F3D55A;" points="18.378,32.632 2.477,48.534 9.75,46.917 18.378,38.289 		"/>
		<polygon style="fill:#F3D55A;" points="35.378,21.289 53.378,3.289 53.378,0 49.827,1.184 35.378,15.632 		"/>
		<polygon style="fill:#DCBD56;" points="26.901,24.109 18.378,15.586 18.378,21.243 24.073,26.938 18.378,32.632 18.378,38.289 
			35.378,21.289 35.378,15.632 		"/>
	</g>
	<g>
		<path style="fill:#3D324C;" d="M53.329,52.293l-6.797-6.797l6.483-3.241l-17.637-6.498l6.499,17.637l3.241-6.484l6.797,6.797
			C52.11,53.902,52.366,54,52.622,54s0.512-0.098,0.707-0.293C53.72,53.316,53.72,52.684,53.329,52.293z"/>
	</g>
</g>
<g>
</g>
<g>
</g>
<g>
</g>
<g>
</g>
<g>
</g>
<g>
</g>
<g>
</g>
<g>
</g>
<g>
</g>
<g>
</g>
<g>
</g>
<g>
</g>
<g>
</g>
<g>
</g>
<g>
</g>
</svg>
