<?xml version="1.0" encoding="iso-8859-1"?>
<!-- Generator: Adobe Illustrator 18.0.0, SVG Export Plug-In . SVG Version: 6.00 Build 0)  -->
<!DOCTYPE svg PUBLIC "-//W3C//DTD SVG 1.1//EN" "http://www.w3.org/Graphics/SVG/1.1/DTD/svg11.dtd">
<svg version="1.1" id="Capa_1" xmlns="http://www.w3.org/2000/svg" xmlns:xlink="http://www.w3.org/1999/xlink" x="0px" y="0px"
	 viewBox="0 0 58 58" style="enable-background:new 0 0 58 58;" xml:space="preserve">
<g>
	<g>
		<polygon style="fill:#DF4D60;" points="0,1 0,48 12,48 34.697,48 56,48 56,37.372 56,17 56,1 		"/>
		<path style="fill:#FFFFFF;" d="M39.659,10.248c-0.216-0.19-0.506-0.277-0.79-0.239l-18,2.367C20.372,12.441,20,12.865,20,13.367
			v3.551v1.449v14.434c-1.169-1.019-2.754-1.649-4.5-1.649c-3.584,0-6.5,2.642-6.5,5.889s2.916,5.889,6.5,5.889s6.5-2.642,6.5-5.889
			V19.244l16-2.104v10.402c-1.133-0.966-2.653-1.562-4.327-1.562c-3.488,0-6.326,2.572-6.326,5.734s2.838,5.735,6.326,5.735
			c3.489,0,6.327-2.573,6.327-5.735V16v-1.449V11C40,10.712,39.876,10.438,39.659,10.248z"/>
	</g>
	<g>
		<path style="fill:#3D324C;" d="M57.707,55.293l-6.797-6.797l6.483-3.241l-17.637-6.498l6.499,17.637l3.241-6.484l6.797,6.797
			C56.488,56.902,56.744,57,57,57s0.512-0.098,0.707-0.293C58.098,56.316,58.098,55.684,57.707,55.293z"/>
	</g>
</g>
<g>
</g>
<g>
</g>
<g>
</g>
<g>
</g>
<g>
</g>
<g>
</g>
<g>
</g>
<g>
</g>
<g>
</g>
<g>
</g>
<g>
</g>
<g>
</g>
<g>
</g>
<g>
</g>
<g>
</g>
</svg>
