<?xml version="1.0" encoding="iso-8859-1"?>
<!-- Generator: Adobe Illustrator 18.0.0, SVG Export Plug-In . SVG Version: 6.00 Build 0)  -->
<!DOCTYPE svg PUBLIC "-//W3C//DTD SVG 1.1//EN" "http://www.w3.org/Graphics/SVG/1.1/DTD/svg11.dtd">
<svg version="1.1" id="Capa_1" xmlns="http://www.w3.org/2000/svg" xmlns:xlink="http://www.w3.org/1999/xlink" x="0px" y="0px"
	 viewBox="0 0 58.39 58.39" style="enable-background:new 0 0 58.39 58.39;" xml:space="preserve">
<g>
	<g>
		<polygon style="fill:#DF4D60;" points="0,0.956 0,47.956 12,47.956 34.697,47.956 56,47.956 56,37.328 56,16.956 56,0.956 		"/>
		<path style="fill:#FFFFFF;" d="M39.659,10.204c-0.216-0.19-0.506-0.277-0.79-0.239l-18,2.367C20.372,12.397,20,12.821,20,13.323
			v3.551v1.449v14.434c-1.169-1.019-2.754-1.649-4.5-1.649c-3.584,0-6.5,2.642-6.5,5.889s2.916,5.889,6.5,5.889s6.5-2.642,6.5-5.889
			V19.2l16-2.104v10.402c-1.133-0.966-2.653-1.562-4.327-1.562c-3.488,0-6.326,2.572-6.326,5.734s2.838,5.735,6.326,5.735
			c3.489,0,6.327-2.573,6.327-5.735V15.956v-1.449v-3.551C40,10.668,39.876,10.395,39.659,10.204z"/>
	</g>
	<g>
		<path style="fill:#FFFFFF;" d="M57.195,48.113l-0.107,0.163c-7.121,10.876-18.773,10.876-25.893,0l0,0l0.107-0.163
			C38.422,37.237,50.074,37.237,57.195,48.113L57.195,48.113z"/>
		<circle style="fill:#556080;" cx="43.958" cy="45.831" r="5.909"/>
		<path style="fill:#B1D3EF;" d="M44.142,57.434c-5.254,0-10.148-3.058-13.783-8.609L30,48.277l0.465-0.711
			c3.635-5.552,8.53-8.609,13.784-8.609c5.253,0,10.148,3.057,13.783,8.609l0.358,0.547l-0.465,0.711
			C54.29,54.376,49.395,57.434,44.142,57.434z M32.398,48.272c3.206,4.624,7.356,7.161,11.744,7.161c4.436,0,8.63-2.594,11.85-7.317
			c-3.206-4.624-7.356-7.161-11.743-7.161C39.812,40.956,35.618,43.55,32.398,48.272z"/>
	</g>
</g>
<g>
</g>
<g>
</g>
<g>
</g>
<g>
</g>
<g>
</g>
<g>
</g>
<g>
</g>
<g>
</g>
<g>
</g>
<g>
</g>
<g>
</g>
<g>
</g>
<g>
</g>
<g>
</g>
<g>
</g>
</svg>
