<?xml version="1.0" encoding="iso-8859-1"?>
<!-- Generator: Adobe Illustrator 18.0.0, SVG Export Plug-In . SVG Version: 6.00 Build 0)  -->
<!DOCTYPE svg PUBLIC "-//W3C//DTD SVG 1.1//EN" "http://www.w3.org/Graphics/SVG/1.1/DTD/svg11.dtd">
<svg version="1.1" id="Capa_1" xmlns="http://www.w3.org/2000/svg" xmlns:xlink="http://www.w3.org/1999/xlink" x="0px" y="0px"
	 viewBox="0 0 59 59" style="enable-background:new 0 0 59 59;" xml:space="preserve">
<g>
	<g>
		<polygon style="fill:#DF4D60;" points="0,1 0,48 12,48 34.697,48 56,48 56,37.372 56,17 56,1 		"/>
		<path style="fill:#FFFFFF;" d="M39.659,10.248c-0.216-0.19-0.506-0.277-0.79-0.239l-18,2.367C20.372,12.441,20,12.865,20,13.367
			v3.551v1.449v14.434c-1.169-1.019-2.754-1.649-4.5-1.649c-3.584,0-6.5,2.642-6.5,5.889s2.916,5.889,6.5,5.889s6.5-2.642,6.5-5.889
			V19.244l16-2.104v10.402c-1.133-0.966-2.653-1.562-4.327-1.562c-3.488,0-6.326,2.572-6.326,5.734s2.838,5.735,6.326,5.735
			c3.489,0,6.327-2.573,6.327-5.735V16v-1.449V11C40,10.712,39.876,10.438,39.659,10.248z"/>
	</g>
	<g>
		<circle style="fill:#B1D3EF;" cx="46.5" cy="45.5" r="12.5"/>
		<g>
			<path style="fill:#556080;" d="M56.193,46.019c-0.55-0.113-1.068,0.246-1.175,0.788C54.198,50.975,50.616,54,46.5,54
				c-3.351,0-6.347-2.006-7.789-5H44v-2h-6h-1h-1v8h2v-3.341C39.976,54.315,43.085,56,46.5,56c5.068,0,9.477-3.704,10.481-8.807
				C57.087,46.651,56.735,46.125,56.193,46.019z"/>
			<path style="fill:#556080;" d="M55,35.998v3.341c-1.976-2.657-5.086-4.341-8.5-4.341c-5.068,0-9.477,3.704-10.481,8.807
				c-0.106,0.542,0.246,1.068,0.788,1.174c0.55,0.113,1.068-0.246,1.175-0.788c0.82-4.168,4.402-7.193,8.519-7.193
				c3.351,0,6.347,2.006,7.789,5H49v2h6h1h1v-8H55z"/>
		</g>
	</g>
</g>
<g>
</g>
<g>
</g>
<g>
</g>
<g>
</g>
<g>
</g>
<g>
</g>
<g>
</g>
<g>
</g>
<g>
</g>
<g>
</g>
<g>
</g>
<g>
</g>
<g>
</g>
<g>
</g>
<g>
</g>
</svg>
