<?xml version="1.0" encoding="iso-8859-1"?>
<!-- Generator: Adobe Illustrator 18.0.0, SVG Export Plug-In . SVG Version: 6.00 Build 0)  -->
<!DOCTYPE svg PUBLIC "-//W3C//DTD SVG 1.1//EN" "http://www.w3.org/Graphics/SVG/1.1/DTD/svg11.dtd">
<svg version="1.1" id="Capa_1" xmlns="http://www.w3.org/2000/svg" xmlns:xlink="http://www.w3.org/1999/xlink" x="0px" y="0px"
	 viewBox="0 0 59 59" style="enable-background:new 0 0 59 59;" xml:space="preserve">
<g>
	<g>
		<polygon style="fill:#DF4D60;" points="0,2 0,49 12,49 34.697,49 56,49 56,38.372 56,18 56,2 		"/>
		<path style="fill:#FFFFFF;" d="M39.659,11.248c-0.216-0.19-0.506-0.277-0.79-0.239l-18,2.367C20.372,13.441,20,13.865,20,14.367
			v3.551v1.449v14.434c-1.169-1.019-2.754-1.649-4.5-1.649c-3.584,0-6.5,2.642-6.5,5.889s2.916,5.889,6.5,5.889s6.5-2.642,6.5-5.889
			V20.244l16-2.104v10.402c-1.133-0.966-2.653-1.562-4.327-1.562c-3.488,0-6.326,2.572-6.326,5.734s2.838,5.735,6.326,5.735
			c3.489,0,6.327-2.573,6.327-5.735V17v-1.449V12C40,11.712,39.876,11.438,39.659,11.248z"/>
	</g>
	<g>
		<g>
			<path style="fill:#48A0DC;" d="M54.045,46.111C53.994,42.175,50.882,39,47.046,39c-2.568,0-4.806,1.426-6.025,3.546
				c-0.421-0.141-0.87-0.22-1.337-0.22c-2.063,0-3.785,1.492-4.208,3.484c-1.754,0.865-2.975,2.706-2.975,4.831
				c0,2.947,2.343,5.359,5.208,5.359h10.775c0.061,0,0.119-0.007,0.18-0.009c0.06,0.002,0.119,0.009,0.18,0.009h4.31
				C55.818,56,58,53.755,58,51.011C58,48.581,56.288,46.546,54.045,46.111z"/>
			<path style="fill:#B1D3EF;" d="M53.151,57h-4.31c-0.063,0-0.126-0.004-0.188-0.008C48.606,56.996,48.545,57,48.482,57H37.708
				c-3.423,0-6.208-2.853-6.208-6.358c0-2.262,1.209-4.372,3.116-5.503c0.686-2.235,2.746-3.813,5.066-3.813
				c0.296,0,0.592,0.025,0.884,0.076C42.062,39.286,44.48,38,47.046,38c4.102,0,7.524,3.225,7.954,7.332
				c2.358,0.806,4,3.079,4,5.679C59,54.313,56.376,57,53.151,57z M48.614,54.991l0.186,0.006L53.151,55
				C55.273,55,57,53.21,57,51.011c0-1.917-1.323-3.564-3.146-3.919l-0.799-0.155l-0.011-0.813C53.001,42.747,50.311,40,47.046,40
				c-2.135,0-4.063,1.139-5.158,3.045l-0.409,0.711l-0.777-0.261c-0.332-0.112-0.675-0.169-1.019-0.169
				c-1.54,0-2.898,1.133-3.229,2.692l-0.102,0.475l-0.435,0.214c-1.469,0.725-2.417,2.269-2.417,3.935
				c0,2.403,1.888,4.358,4.208,4.358L48.614,54.991z"/>
		</g>
	</g>
</g>
<g>
</g>
<g>
</g>
<g>
</g>
<g>
</g>
<g>
</g>
<g>
</g>
<g>
</g>
<g>
</g>
<g>
</g>
<g>
</g>
<g>
</g>
<g>
</g>
<g>
</g>
<g>
</g>
<g>
</g>
</svg>
