<?xml version="1.0" encoding="iso-8859-1"?>
<!-- Generator: Adobe Illustrator 18.0.0, SVG Export Plug-In . SVG Version: 6.00 Build 0)  -->
<!DOCTYPE svg PUBLIC "-//W3C//DTD SVG 1.1//EN" "http://www.w3.org/Graphics/SVG/1.1/DTD/svg11.dtd">
<svg version="1.1" id="Capa_1" xmlns="http://www.w3.org/2000/svg" xmlns:xlink="http://www.w3.org/1999/xlink" x="0px" y="0px"
	 viewBox="0 0 59 59" style="enable-background:new 0 0 59 59;" xml:space="preserve">
<g>
	<g>
		<polygon style="fill:#DF4D60;" points="0,2 0,49 12,49 34.697,49 56,49 56,38.372 56,18 56,2 		"/>
		<path style="fill:#FFFFFF;" d="M39.659,11.248c-0.216-0.19-0.506-0.277-0.79-0.239l-18,2.367C20.372,13.441,20,13.865,20,14.367
			v3.551v1.449v14.434c-1.169-1.019-2.754-1.649-4.5-1.649c-3.584,0-6.5,2.642-6.5,5.889s2.916,5.889,6.5,5.889s6.5-2.642,6.5-5.889
			V20.244l16-2.104v10.402c-1.133-0.966-2.653-1.562-4.327-1.562c-3.488,0-6.326,2.572-6.326,5.734s2.838,5.735,6.326,5.735
			c3.489,0,6.327-2.573,6.327-5.735V17v-1.449V12C40,11.712,39.876,11.438,39.659,11.248z"/>
	</g>
	<g>
		<circle style="fill:#ED7161;" cx="47" cy="45" r="12"/>
		<path style="fill:#FFFFFF;" d="M48.414,45l3.536-3.536c0.391-0.391,0.391-1.023,0-1.414s-1.023-0.391-1.414,0L47,43.586
			l-3.536-3.536c-0.391-0.391-1.023-0.391-1.414,0s-0.391,1.023,0,1.414L45.586,45l-3.536,3.536c-0.391,0.391-0.391,1.023,0,1.414
			c0.195,0.195,0.451,0.293,0.707,0.293s0.512-0.098,0.707-0.293L47,46.414l3.536,3.536c0.195,0.195,0.451,0.293,0.707,0.293
			s0.512-0.098,0.707-0.293c0.391-0.391,0.391-1.023,0-1.414L48.414,45z"/>
	</g>
</g>
<g>
</g>
<g>
</g>
<g>
</g>
<g>
</g>
<g>
</g>
<g>
</g>
<g>
</g>
<g>
</g>
<g>
</g>
<g>
</g>
<g>
</g>
<g>
</g>
<g>
</g>
<g>
</g>
<g>
</g>
</svg>
