<?xml version="1.0" encoding="iso-8859-1"?>
<!-- Generator: Adobe Illustrator 18.0.0, SVG Export Plug-In . SVG Version: 6.00 Build 0)  -->
<!DOCTYPE svg PUBLIC "-//W3C//DTD SVG 1.1//EN" "http://www.w3.org/Graphics/SVG/1.1/DTD/svg11.dtd">
<svg version="1.1" id="Capa_1" xmlns="http://www.w3.org/2000/svg" xmlns:xlink="http://www.w3.org/1999/xlink" x="0px" y="0px"
	 viewBox="0 0 59 59" style="enable-background:new 0 0 59 59;" xml:space="preserve">
<g>
	<g>
		<polygon style="fill:#DF4D60;" points="0,2.009 0,49.009 12,49.009 34.697,49.009 56,49.009 56,38.381 56,18.009 56,2.009 		"/>
		<path style="fill:#FFFFFF;" d="M39.659,11.257c-0.216-0.19-0.506-0.277-0.79-0.239l-18,2.367C20.372,13.451,20,13.875,20,14.376
			v3.551v1.449v14.434c-1.169-1.019-2.754-1.649-4.5-1.649c-3.584,0-6.5,2.642-6.5,5.889s2.916,5.889,6.5,5.889S22,41.297,22,38.05
			V20.253l16-2.104v10.402c-1.133-0.966-2.653-1.562-4.327-1.562c-3.488,0-6.326,2.572-6.326,5.734s2.838,5.735,6.326,5.735
			c3.489,0,6.327-2.573,6.327-5.735V17.009V15.56v-3.551C40,11.721,39.876,11.448,39.659,11.257z"/>
	</g>
	<g>
		<circle style="fill:#D0E8F9;" cx="44.777" cy="41.805" r="9.796"/>
		<path style="fill:#EAF6FD;" d="M48.33,32.684L35.656,45.358c0.706,1.81,1.93,3.357,3.495,4.459l13.638-13.638
			C51.687,34.613,50.14,33.389,48.33,32.684z"/>
		<path style="fill:#B1D3EF;" d="M58.723,55.3l-5.97-6.244c1.746-1.919,2.82-4.458,2.82-7.251c0-5.953-4.843-10.796-10.796-10.796
			s-10.796,4.843-10.796,10.796s4.843,10.796,10.796,10.796c2.442,0,4.689-0.824,6.499-2.196l6.001,6.276
			c0.196,0.206,0.459,0.309,0.723,0.309c0.249,0,0.497-0.092,0.691-0.277C59.09,56.332,59.105,55.699,58.723,55.3z M35.982,41.805
			c0-4.85,3.946-8.796,8.796-8.796s8.796,3.946,8.796,8.796s-3.946,8.796-8.796,8.796S35.982,46.655,35.982,41.805z"/>
	</g>
</g>
<g>
</g>
<g>
</g>
<g>
</g>
<g>
</g>
<g>
</g>
<g>
</g>
<g>
</g>
<g>
</g>
<g>
</g>
<g>
</g>
<g>
</g>
<g>
</g>
<g>
</g>
<g>
</g>
<g>
</g>
</svg>
