<?xml version="1.0" encoding="iso-8859-1"?>
<!-- Generator: Adobe Illustrator 18.0.0, SVG Export Plug-In . SVG Version: 6.00 Build 0)  -->
<!DOCTYPE svg PUBLIC "-//W3C//DTD SVG 1.1//EN" "http://www.w3.org/Graphics/SVG/1.1/DTD/svg11.dtd">
<svg version="1.1" id="Capa_1" xmlns="http://www.w3.org/2000/svg" xmlns:xlink="http://www.w3.org/1999/xlink" x="0px" y="0px"
	 viewBox="0 0 59 59" style="enable-background:new 0 0 59 59;" xml:space="preserve">
<g>
	<g>
		<polygon style="fill:#DF4D60;" points="0,1 0,48 12,48 34.697,48 56,48 56,37.372 56,17 56,1 		"/>
		<path style="fill:#FFFFFF;" d="M39.659,10.248c-0.216-0.19-0.506-0.277-0.79-0.239l-18,2.367C20.372,12.441,20,12.865,20,13.367
			v3.551v1.449v14.434c-1.169-1.019-2.754-1.649-4.5-1.649c-3.584,0-6.5,2.642-6.5,5.889s2.916,5.889,6.5,5.889s6.5-2.642,6.5-5.889
			V19.244l16-2.104v10.402c-1.133-0.966-2.653-1.562-4.327-1.562c-3.488,0-6.326,2.572-6.326,5.734s2.838,5.735,6.326,5.735
			c3.489,0,6.327-2.573,6.327-5.735V16v-1.449V11C40,10.712,39.876,10.438,39.659,10.248z"/>
	</g>
	<g>
		<circle style="fill:#B1D3EF;" cx="46.5" cy="45.5" r="12.5"/>
		<path style="fill:#556080;" d="M46.5,35c-4.718,0-8.88,3.182-10.121,7.737c-0.146,0.533,0.169,1.083,0.702,1.228
			c0.528,0.143,1.082-0.168,1.228-0.702C39.313,39.575,42.682,37,46.5,37c4.687,0,8.5,3.813,8.5,8.5S51.187,54,46.5,54
			c-3.365,0-6.378-2.001-7.734-5H44v-2h-6h-1h-1v8h2v-3.341l0,0v-0.023C39.933,54.31,43.066,56,46.5,56C52.29,56,57,51.29,57,45.5
			S52.29,35,46.5,35z"/>
	</g>
</g>
<g>
</g>
<g>
</g>
<g>
</g>
<g>
</g>
<g>
</g>
<g>
</g>
<g>
</g>
<g>
</g>
<g>
</g>
<g>
</g>
<g>
</g>
<g>
</g>
<g>
</g>
<g>
</g>
<g>
</g>
</svg>
