<?xml version="1.0" encoding="iso-8859-1"?>
<!-- Generator: Adobe Illustrator 18.0.0, SVG Export Plug-In . SVG Version: 6.00 Build 0)  -->
<!DOCTYPE svg PUBLIC "-//W3C//DTD SVG 1.1//EN" "http://www.w3.org/Graphics/SVG/1.1/DTD/svg11.dtd">
<svg version="1.1" id="Capa_1" xmlns="http://www.w3.org/2000/svg" xmlns:xlink="http://www.w3.org/1999/xlink" x="0px" y="0px"
	 viewBox="0 0 58.27 58.27" style="enable-background:new 0 0 58.27 58.27;" xml:space="preserve">
<g>
	<g>
		<polygon style="fill:#DF4D60;" points="0,0.644 0,47.644 12,47.644 34.697,47.644 56,47.644 56,37.016 56,16.644 56,0.644 		"/>
		<path style="fill:#FFFFFF;" d="M39.659,9.892c-0.216-0.19-0.506-0.277-0.79-0.239l-18,2.367C20.372,12.085,20,12.509,20,13.011
			v3.551v1.449v14.434c-1.169-1.019-2.754-1.649-4.5-1.649c-3.584,0-6.5,2.642-6.5,5.889s2.916,5.889,6.5,5.889s6.5-2.642,6.5-5.889
			V18.888l16-2.104v10.402c-1.133-0.966-2.653-1.562-4.327-1.562c-3.488,0-6.326,2.572-6.326,5.734s2.838,5.735,6.326,5.735
			c3.489,0,6.327-2.573,6.327-5.735V15.644v-1.449v-3.551C40,10.356,39.876,10.083,39.659,9.892z"/>
	</g>
	<g>
		<polygon style="fill:#EDDCC7;" points="36.836,48.133 36.828,48.14 34.84,55.43 39.487,50.783 		"/>
		<path style="fill:#D75A4A;" d="M56.086,34.184l-1.247-1.247c-0.775-0.775-2.032-0.775-2.807,0l-3.582,3.582L51.1,39.17
			L56.086,34.184z"/>
		
			<rect x="42.094" y="35.439" transform="matrix(0.7071 0.7071 -0.7071 0.7071 43.744 -18.3051)" style="fill:#F29C21;" width="3.749" height="16.424"/>
		<polygon style="fill:#D6C4B1;" points="42.485,53.797 42.493,53.79 39.487,50.783 34.84,55.43 34.707,55.918 		"/>
		<path style="fill:#A34740;" d="M54.107,42.176l3.582-3.582c0.775-0.775,0.775-2.032,0-2.807l-1.602-1.602L51.1,39.17
			L54.107,42.176z"/>
		
			<rect x="44.671" y="38.268" transform="matrix(-0.7071 -0.7071 0.7071 -0.7071 47.0201 112.4359)" style="fill:#E18C25;" width="4.251" height="16.424"/>
		<path style="fill:#5E5E5E;" d="M34,57.626c-0.256,0-0.512-0.098-0.707-0.293c-0.391-0.391-0.391-1.023,0-1.414l2.207-2.207
			c0.391-0.391,1.023-0.391,1.414,0s0.391,1.023,0,1.414l-2.207,2.207C34.512,57.528,34.256,57.626,34,57.626z"/>
	</g>
</g>
<g>
</g>
<g>
</g>
<g>
</g>
<g>
</g>
<g>
</g>
<g>
</g>
<g>
</g>
<g>
</g>
<g>
</g>
<g>
</g>
<g>
</g>
<g>
</g>
<g>
</g>
<g>
</g>
<g>
</g>
</svg>
