<?xml version="1.0" encoding="iso-8859-1"?>
<!-- Generator: Adobe Illustrator 18.0.0, SVG Export Plug-In . SVG Version: 6.00 Build 0)  -->
<!DOCTYPE svg PUBLIC "-//W3C//DTD SVG 1.1//EN" "http://www.w3.org/Graphics/SVG/1.1/DTD/svg11.dtd">
<svg version="1.1" id="Capa_1" xmlns="http://www.w3.org/2000/svg" xmlns:xlink="http://www.w3.org/1999/xlink" x="0px" y="0px"
	 viewBox="0 0 59 59" style="enable-background:new 0 0 59 59;" xml:space="preserve">
<g>
	<g>
		<polygon style="fill:#DF4D60;" points="0,2 0,49 12,49 34.697,49 56,49 56,38.372 56,18 56,2 		"/>
		<path style="fill:#FFFFFF;" d="M39.659,11.248c-0.216-0.19-0.506-0.277-0.79-0.239l-18,2.367C20.372,13.441,20,13.865,20,14.367
			v3.551v1.449v14.434c-1.169-1.019-2.754-1.649-4.5-1.649c-3.584,0-6.5,2.642-6.5,5.889s2.916,5.889,6.5,5.889s6.5-2.642,6.5-5.889
			V20.244l16-2.104v10.402c-1.133-0.966-2.653-1.562-4.327-1.562c-3.488,0-6.326,2.572-6.326,5.734s2.838,5.735,6.326,5.735
			c3.489,0,6.327-2.573,6.327-5.735V17v-1.449V12C40,11.712,39.876,11.438,39.659,11.248z"/>
	</g>
	<g>
		<path style="fill:#EFC41A;" d="M57.761,57H34.07c-0.955,0-1.55-1.036-1.069-1.861l11.845-20.306c0.478-0.819,1.66-0.819,2.138,0
			L58.83,55.139C59.311,55.964,58.716,57,57.761,57z"/>
		<path style="fill:#FFFFFF;" d="M46,50c-0.552,0-1-0.448-1-1v-8c0-0.552,0.448-1,1-1s1,0.448,1,1v8C47,49.552,46.552,50,46,50z"/>
		<path style="fill:#FFFFFF;" d="M46,54c-0.26,0-0.52-0.11-0.71-0.29C45.11,53.52,45,53.26,45,53c0-0.26,0.11-0.52,0.29-0.71
			c0.38-0.37,1.04-0.37,1.42,0C46.89,52.48,47,52.74,47,53c0,0.26-0.11,0.52-0.29,0.71C46.52,53.89,46.27,54,46,54z"/>
	</g>
</g>
<g>
</g>
<g>
</g>
<g>
</g>
<g>
</g>
<g>
</g>
<g>
</g>
<g>
</g>
<g>
</g>
<g>
</g>
<g>
</g>
<g>
</g>
<g>
</g>
<g>
</g>
<g>
</g>
<g>
</g>
</svg>
