<?xml version="1.0" encoding="iso-8859-1"?>
<!-- Generator: Adobe Illustrator 18.0.0, SVG Export Plug-In . SVG Version: 6.00 Build 0)  -->
<!DOCTYPE svg PUBLIC "-//W3C//DTD SVG 1.1//EN" "http://www.w3.org/Graphics/SVG/1.1/DTD/svg11.dtd">
<svg version="1.1" id="Capa_1" xmlns="http://www.w3.org/2000/svg" xmlns:xlink="http://www.w3.org/1999/xlink" x="0px" y="0px"
	 viewBox="0 0 59 59" style="enable-background:new 0 0 59 59;" xml:space="preserve">
<g>
	<g>
		<polygon style="fill:#DF4D60;" points="0,1.009 0,48.009 12,48.009 34.697,48.009 56,48.009 56,37.381 56,17.009 56,1.009 		"/>
		<path style="fill:#FFFFFF;" d="M39.659,10.257c-0.216-0.19-0.506-0.277-0.79-0.239l-18,2.367C20.372,12.451,20,12.875,20,13.376
			v3.551v1.449v14.434c-1.169-1.019-2.754-1.649-4.5-1.649c-3.584,0-6.5,2.642-6.5,5.889s2.916,5.889,6.5,5.889S22,40.297,22,37.05
			V19.253l16-2.104v10.402c-1.133-0.966-2.653-1.562-4.327-1.562c-3.488,0-6.326,2.572-6.326,5.734s2.838,5.735,6.326,5.735
			c3.489,0,6.327-2.573,6.327-5.735V16.009V14.56v-3.551C40,10.721,39.876,10.448,39.659,10.257z"/>
	</g>
	<g>
		<path style="fill:#91BAE1;" d="M49,44.991h-2l0,0c-3.633-1.453-6-4.861-6-8.64v-3.36h14v3.36C55,40.129,52.633,43.537,49,44.991
			L49,44.991z"/>
		<path style="fill:#91BAE1;" d="M47,44.991h2l0,0c3.633,1.453,6,4.861,6,8.64v3.36H41v-3.36C41,49.852,43.367,46.444,47,44.991
			L47,44.991z"/>
		<g>
			<path style="fill:#B1D3EF;" d="M38,33.991h1h2h17c0.553,0,1-0.448,1-1s-0.447-1-1-1H41h-2h-1c-0.553,0-1,0.448-1,1
				S37.447,33.991,38,33.991z"/>
			<path style="fill:#B1D3EF;" d="M57.999,55.989h-18c-0.003,0-0.006,0.002-0.01,0.002H38c-0.553,0-1,0.448-1,1s0.447,1,1,1h3
				c0.003,0,0.006-0.002,0.01-0.002h16.989c0.553,0,1-0.448,1-1S58.552,55.989,57.999,55.989z"/>
		</g>
	</g>
</g>
<g>
</g>
<g>
</g>
<g>
</g>
<g>
</g>
<g>
</g>
<g>
</g>
<g>
</g>
<g>
</g>
<g>
</g>
<g>
</g>
<g>
</g>
<g>
</g>
<g>
</g>
<g>
</g>
<g>
</g>
</svg>
