<?xml version="1.0" encoding="iso-8859-1"?>
<!-- Generator: Adobe Illustrator 18.0.0, SVG Export Plug-In . SVG Version: 6.00 Build 0)  -->
<!DOCTYPE svg PUBLIC "-//W3C//DTD SVG 1.1//EN" "http://www.w3.org/Graphics/SVG/1.1/DTD/svg11.dtd">
<svg version="1.1" id="Capa_1" xmlns="http://www.w3.org/2000/svg" xmlns:xlink="http://www.w3.org/1999/xlink" x="0px" y="0px"
	 viewBox="0 0 59 59" style="enable-background:new 0 0 59 59;" xml:space="preserve">
<g>
	<rect x="2" style="fill:#CBB292;" width="44" height="58"/>
	<rect x="2" style="fill:#7F6E5D;" width="8" height="58"/>
	<rect x="17" y="10" style="fill:#EFEBDE;" width="22" height="12"/>
	<rect x="21" y="13" style="fill:#D5D0BB;" width="14" height="2"/>
	<rect x="21" y="17" style="fill:#D5D0BB;" width="14" height="2"/>
	<path style="fill:#0096E6;" d="M55,59h-3c-0.553,0-1-0.447-1-1s0.447-1,1-1h3c0.553,0,1,0.447,1,1S55.553,59,55,59z"/>
	<path style="fill:#0096E6;" d="M38,59h-2c-0.553,0-1-0.447-1-1s0.447-1,1-1h2c0.553,0,1,0.447,1,1S38.553,59,38,59z"/>
	<g>
		<path style="fill:#91BAE1;" d="M47,46h-2l0,0c-3.633-1.453-6-4.861-6-8.64V34h14v3.36C53,41.139,50.633,44.547,47,46L47,46z"/>
		<path style="fill:#91BAE1;" d="M45,46h2l0,0c3.633,1.453,6,4.861,6,8.64V58H39v-3.36C39,50.861,41.367,47.453,45,46L45,46z"/>
		<g>
			<path style="fill:#556080;" d="M36,35h1h2h17c0.553,0,1-0.448,1-1s-0.447-1-1-1H39h-2h-1c-0.553,0-1,0.448-1,1S35.447,35,36,35z"
				/>
			<path style="fill:#556080;" d="M55.999,56.998h-18c-0.003,0-0.006,0.002-0.01,0.002H36c-0.553,0-1,0.448-1,1s0.447,1,1,1h3
				c0.003,0,0.006-0.002,0.01-0.002h16.989c0.553,0,1-0.448,1-1S56.552,56.998,55.999,56.998z"/>
		</g>
	</g>
</g>
<g>
</g>
<g>
</g>
<g>
</g>
<g>
</g>
<g>
</g>
<g>
</g>
<g>
</g>
<g>
</g>
<g>
</g>
<g>
</g>
<g>
</g>
<g>
</g>
<g>
</g>
<g>
</g>
<g>
</g>
</svg>
