<?xml version="1.0" encoding="iso-8859-1"?>
<!-- Generator: Adobe Illustrator 18.0.0, SVG Export Plug-In . SVG Version: 6.00 Build 0)  -->
<!DOCTYPE svg PUBLIC "-//W3C//DTD SVG 1.1//EN" "http://www.w3.org/Graphics/SVG/1.1/DTD/svg11.dtd">
<svg version="1.1" id="Capa_1" xmlns="http://www.w3.org/2000/svg" xmlns:xlink="http://www.w3.org/1999/xlink" x="0px" y="0px"
	 viewBox="0 0 59 59" style="enable-background:new 0 0 59 59;" xml:space="preserve">
<g>
	<g>
		<polygon style="fill:#545E73;" points="34.5,2 30.5,2 30.5,5 21.5,5 21.5,2 17.5,2 2.5,2 2.5,58 49.5,58 49.5,2 		"/>
		<rect x="21.5" style="fill:#404656;" width="9" height="5"/>
		<polygon style="fill:#EFEBDE;" points="37.5,5 37.5,8 14.5,8 14.5,5 5.5,5 5.5,55 46.5,55 46.5,5 		"/>
		<polygon style="fill:#8697CB;" points="30.5,2 30.5,5 21.5,5 21.5,2 14.5,2 14.5,8 37.5,8 37.5,2 		"/>
		<path style="fill:#D5D0BB;" d="M24.5,16h-13c-0.553,0-1-0.447-1-1s0.447-1,1-1h13c0.553,0,1,0.447,1,1S25.053,16,24.5,16z"/>
		<path style="fill:#D5D0BB;" d="M24.5,47h-13c-0.553,0-1-0.447-1-1s0.447-1,1-1h13c0.553,0,1,0.447,1,1S25.053,47,24.5,47z"/>
		<path style="fill:#D5D0BB;" d="M40.5,22h-29c-0.553,0-1-0.447-1-1s0.447-1,1-1h29c0.553,0,1,0.447,1,1S41.053,22,40.5,22z"/>
		<path style="fill:#D5D0BB;" d="M40.5,34h-29c-0.553,0-1-0.447-1-1s0.447-1,1-1h29c0.553,0,1,0.447,1,1S41.053,34,40.5,34z"/>
		<path style="fill:#D5D0BB;" d="M40.5,41h-29c-0.553,0-1-0.447-1-1s0.447-1,1-1h29c0.553,0,1,0.447,1,1S41.053,41,40.5,41z"/>
		<path style="fill:#D5D0BB;" d="M25.5,28h-14c-0.553,0-1-0.447-1-1s0.447-1,1-1h14c0.553,0,1,0.447,1,1S26.053,28,25.5,28z"/>
		<path style="fill:#D5D0BB;" d="M40.5,28h-7c-0.553,0-1-0.447-1-1s0.447-1,1-1h7c0.553,0,1,0.447,1,1S41.053,28,40.5,28z"/>
		<path style="fill:#D5D0BB;" d="M29.5,28c-0.271,0-0.521-0.101-0.71-0.29c-0.181-0.19-0.29-0.45-0.29-0.71
			c0-0.271,0.1-0.521,0.29-0.71c0.38-0.38,1.04-0.37,1.42,0c0.189,0.189,0.29,0.439,0.29,0.71c0,0.27-0.11,0.52-0.29,0.71
			C30.02,27.89,29.77,28,29.5,28z"/>
	</g>
	<g>
		<path style="fill:#D0E8F9;" d="M46.5,46h-2l0,0c-3.633-1.453-6-4.861-6-8.64V34h14v3.36C52.5,41.139,50.133,44.547,46.5,46
			L46.5,46z"/>
		<path style="fill:#D0E8F9;" d="M44.5,46h2l0,0c3.633,1.453,6,4.861,6,8.64V58h-14v-3.36C38.5,50.861,40.867,47.453,44.5,46
			L44.5,46z"/>
		<g>
			<path style="fill:#556080;" d="M35.5,35h1h2h17c0.553,0,1-0.448,1-1s-0.447-1-1-1h-17h-2h-1c-0.553,0-1,0.448-1,1
				S34.947,35,35.5,35z"/>
			<path style="fill:#556080;" d="M55.499,56.998h-18c-0.003,0-0.006,0.002-0.01,0.002H35.5c-0.553,0-1,0.448-1,1s0.447,1,1,1h3
				c0.003,0,0.006-0.002,0.01-0.002h16.989c0.553,0,1-0.448,1-1S56.052,56.998,55.499,56.998z"/>
		</g>
	</g>
</g>
<g>
</g>
<g>
</g>
<g>
</g>
<g>
</g>
<g>
</g>
<g>
</g>
<g>
</g>
<g>
</g>
<g>
</g>
<g>
</g>
<g>
</g>
<g>
</g>
<g>
</g>
<g>
</g>
<g>
</g>
</svg>
