<?xml version="1.0" encoding="iso-8859-1"?>
<!-- Generator: Adobe Illustrator 18.0.0, SVG Export Plug-In . SVG Version: 6.00 Build 0)  -->
<!DOCTYPE svg PUBLIC "-//W3C//DTD SVG 1.1//EN" "http://www.w3.org/Graphics/SVG/1.1/DTD/svg11.dtd">
<svg version="1.1" id="Capa_1" xmlns="http://www.w3.org/2000/svg" xmlns:xlink="http://www.w3.org/1999/xlink" x="0px" y="0px"
	 viewBox="0 0 58 58" style="enable-background:new 0 0 58 58;" xml:space="preserve">
<g>
	<rect x="0.805" style="fill:#CBB292;" width="44" height="58"/>
	<rect x="0.805" style="fill:#7F6E5D;" width="8" height="58"/>
	<rect x="15.805" y="10" style="fill:#EFEBDE;" width="22" height="12"/>
	<rect x="19.805" y="13" style="fill:#D5D0BB;" width="14" height="2"/>
	<rect x="19.805" y="17" style="fill:#D5D0BB;" width="14" height="2"/>
	<g>
		<path style="fill:#FFFFFF;" d="M56,43.679l-0.107,0.163c-7.121,10.876-18.773,10.876-25.893,0l0,0l0.107-0.163
			C37.227,32.803,48.879,32.803,56,43.679L56,43.679z"/>
		<circle style="fill:#556080;" cx="42.764" cy="41.397" r="5.909"/>
		<path style="fill:#8697CB;" d="M42.947,53c-5.254,0-10.148-3.058-13.783-8.609l-0.358-0.547l0.465-0.711
			c3.635-5.552,8.53-8.609,13.784-8.609c5.253,0,10.148,3.057,13.783,8.609l0.358,0.547L56.73,44.39
			C53.095,49.942,48.2,53,42.947,53z M31.203,43.839C34.409,48.463,38.56,51,42.947,51c4.436,0,8.63-2.594,11.85-7.317
			c-3.206-4.624-7.356-7.161-11.743-7.161C38.617,36.522,34.423,39.116,31.203,43.839z"/>
	</g>
</g>
<g>
</g>
<g>
</g>
<g>
</g>
<g>
</g>
<g>
</g>
<g>
</g>
<g>
</g>
<g>
</g>
<g>
</g>
<g>
</g>
<g>
</g>
<g>
</g>
<g>
</g>
<g>
</g>
<g>
</g>
</svg>
