<?xml version="1.0" encoding="iso-8859-1"?>
<!-- Generator: Adobe Illustrator 18.0.0, SVG Export Plug-In . SVG Version: 6.00 Build 0)  -->
<!DOCTYPE svg PUBLIC "-//W3C//DTD SVG 1.1//EN" "http://www.w3.org/Graphics/SVG/1.1/DTD/svg11.dtd">
<svg version="1.1" id="Capa_1" xmlns="http://www.w3.org/2000/svg" xmlns:xlink="http://www.w3.org/1999/xlink" x="0px" y="0px"
	 viewBox="0 0 58 58" style="enable-background:new 0 0 58 58;" xml:space="preserve">
<g>
	<rect x="1" style="fill:#CBB292;" width="44" height="58"/>
	<rect x="1" style="fill:#7F6E5D;" width="8" height="58"/>
	<rect x="16" y="10" style="fill:#EFEBDE;" width="22" height="12"/>
	<rect x="20" y="13" style="fill:#D5D0BB;" width="14" height="2"/>
	<rect x="20" y="17" style="fill:#D5D0BB;" width="14" height="2"/>
	<g>
		<circle style="fill:#8697CB;" cx="44.5" cy="45.5" r="12.5"/>
		<g>
			<path style="fill:#C1BDDE;" d="M54.193,46.019c-0.55-0.113-1.068,0.246-1.175,0.788C52.198,50.975,48.616,54,44.5,54
				c-3.351,0-6.347-2.006-7.789-5H42v-2h-6h-1h-1v8h2v-3.341C37.976,54.315,41.085,56,44.5,56c5.068,0,9.477-3.704,10.481-8.807
				C55.087,46.651,54.735,46.125,54.193,46.019z"/>
			<path style="fill:#C1BDDE;" d="M53,35.998v3.341c-1.976-2.657-5.086-4.341-8.5-4.341c-5.068,0-9.477,3.704-10.481,8.807
				c-0.106,0.542,0.246,1.068,0.788,1.174c0.55,0.113,1.068-0.246,1.175-0.788c0.82-4.168,4.402-7.193,8.519-7.193
				c3.351,0,6.347,2.006,7.789,5H47v2h6h1h1v-8H53z"/>
		</g>
	</g>
</g>
<g>
</g>
<g>
</g>
<g>
</g>
<g>
</g>
<g>
</g>
<g>
</g>
<g>
</g>
<g>
</g>
<g>
</g>
<g>
</g>
<g>
</g>
<g>
</g>
<g>
</g>
<g>
</g>
<g>
</g>
</svg>
