<?xml version="1.0" encoding="iso-8859-1"?>
<!-- Generator: Adobe Illustrator 18.0.0, SVG Export Plug-In . SVG Version: 6.00 Build 0)  -->
<!DOCTYPE svg PUBLIC "-//W3C//DTD SVG 1.1//EN" "http://www.w3.org/Graphics/SVG/1.1/DTD/svg11.dtd">
<svg version="1.1" id="Capa_1" xmlns="http://www.w3.org/2000/svg" xmlns:xlink="http://www.w3.org/1999/xlink" x="0px" y="0px"
	 viewBox="0 0 59 59" style="enable-background:new 0 0 59 59;" xml:space="preserve">
<g>
	<g>
		<polygon style="fill:#545E73;" points="35.5,2 31.5,2 31.5,5 22.5,5 22.5,2 18.5,2 3.5,2 3.5,58 50.5,58 50.5,2 		"/>
		<rect x="22.5" style="fill:#404656;" width="9" height="5"/>
		<polygon style="fill:#EFEBDE;" points="38.5,5 38.5,8 15.5,8 15.5,5 6.5,5 6.5,55 47.5,55 47.5,5 		"/>
		<polygon style="fill:#8697CB;" points="31.5,2 31.5,5 22.5,5 22.5,2 15.5,2 15.5,8 38.5,8 38.5,2 		"/>
		<path style="fill:#D5D0BB;" d="M25.5,16h-13c-0.553,0-1-0.447-1-1s0.447-1,1-1h13c0.553,0,1,0.447,1,1S26.053,16,25.5,16z"/>
		<path style="fill:#D5D0BB;" d="M25.5,47h-13c-0.553,0-1-0.447-1-1s0.447-1,1-1h13c0.553,0,1,0.447,1,1S26.053,47,25.5,47z"/>
		<path style="fill:#D5D0BB;" d="M41.5,22h-29c-0.553,0-1-0.447-1-1s0.447-1,1-1h29c0.553,0,1,0.447,1,1S42.053,22,41.5,22z"/>
		<path style="fill:#D5D0BB;" d="M41.5,34h-29c-0.553,0-1-0.447-1-1s0.447-1,1-1h29c0.553,0,1,0.447,1,1S42.053,34,41.5,34z"/>
		<path style="fill:#D5D0BB;" d="M41.5,41h-29c-0.553,0-1-0.447-1-1s0.447-1,1-1h29c0.553,0,1,0.447,1,1S42.053,41,41.5,41z"/>
		<path style="fill:#D5D0BB;" d="M26.5,28h-14c-0.553,0-1-0.447-1-1s0.447-1,1-1h14c0.553,0,1,0.447,1,1S27.053,28,26.5,28z"/>
		<path style="fill:#D5D0BB;" d="M41.5,28h-7c-0.553,0-1-0.447-1-1s0.447-1,1-1h7c0.553,0,1,0.447,1,1S42.053,28,41.5,28z"/>
		<path style="fill:#D5D0BB;" d="M30.5,28c-0.271,0-0.521-0.101-0.71-0.29c-0.181-0.19-0.29-0.45-0.29-0.71
			c0-0.271,0.1-0.521,0.29-0.71c0.38-0.38,1.04-0.37,1.42,0c0.189,0.189,0.29,0.439,0.29,0.71c0,0.27-0.11,0.52-0.29,0.71
			C31.02,27.89,30.77,28,30.5,28z"/>
	</g>
	<g>
		<rect x="33.5" y="37" style="fill:#21AE5E;" width="22" height="22"/>
		<rect x="43.5" y="38.586" style="fill:#FFFFFF;" width="2" height="16"/>
		<polygon style="fill:#FFFFFF;" points="44.5,56 37.5,49.293 38.976,47.879 44.5,53.172 50.024,47.879 51.5,49.293 		"/>
	</g>
</g>
<g>
</g>
<g>
</g>
<g>
</g>
<g>
</g>
<g>
</g>
<g>
</g>
<g>
</g>
<g>
</g>
<g>
</g>
<g>
</g>
<g>
</g>
<g>
</g>
<g>
</g>
<g>
</g>
<g>
</g>
</svg>
