<?xml version="1.0" encoding="iso-8859-1"?>
<!-- Generator: Adobe Illustrator 18.0.0, SVG Export Plug-In . SVG Version: 6.00 Build 0)  -->
<!DOCTYPE svg PUBLIC "-//W3C//DTD SVG 1.1//EN" "http://www.w3.org/Graphics/SVG/1.1/DTD/svg11.dtd">
<svg version="1.1" id="Capa_1" xmlns="http://www.w3.org/2000/svg" xmlns:xlink="http://www.w3.org/1999/xlink" x="0px" y="0px"
	 viewBox="0 0 58 58" style="enable-background:new 0 0 58 58;" xml:space="preserve">
<g>
	<g>
		<polygon style="fill:#545E73;" points="34,2 30,2 30,5 21,5 21,2 17,2 2,2 2,58 49,58 49,2 		"/>
		<rect x="21" style="fill:#404656;" width="9" height="5"/>
		<polygon style="fill:#EFEBDE;" points="37,5 37,8 14,8 14,5 5,5 5,55 46,55 46,5 		"/>
		<polygon style="fill:#8697CB;" points="30,2 30,5 21,5 21,2 14,2 14,8 37,8 37,2 		"/>
		<path style="fill:#D5D0BB;" d="M24,16H11c-0.553,0-1-0.447-1-1s0.447-1,1-1h13c0.553,0,1,0.447,1,1S24.553,16,24,16z"/>
		<path style="fill:#D5D0BB;" d="M24,47H11c-0.553,0-1-0.447-1-1s0.447-1,1-1h13c0.553,0,1,0.447,1,1S24.553,47,24,47z"/>
		<path style="fill:#D5D0BB;" d="M40,22H11c-0.553,0-1-0.447-1-1s0.447-1,1-1h29c0.553,0,1,0.447,1,1S40.553,22,40,22z"/>
		<path style="fill:#D5D0BB;" d="M40,34H11c-0.553,0-1-0.447-1-1s0.447-1,1-1h29c0.553,0,1,0.447,1,1S40.553,34,40,34z"/>
		<path style="fill:#D5D0BB;" d="M40,41H11c-0.553,0-1-0.447-1-1s0.447-1,1-1h29c0.553,0,1,0.447,1,1S40.553,41,40,41z"/>
		<path style="fill:#D5D0BB;" d="M25,28H11c-0.553,0-1-0.447-1-1s0.447-1,1-1h14c0.553,0,1,0.447,1,1S25.553,28,25,28z"/>
		<path style="fill:#D5D0BB;" d="M40,28h-7c-0.553,0-1-0.447-1-1s0.447-1,1-1h7c0.553,0,1,0.447,1,1S40.553,28,40,28z"/>
		<path style="fill:#D5D0BB;" d="M29,28c-0.271,0-0.521-0.101-0.71-0.29C28.109,27.52,28,27.26,28,27c0-0.271,0.1-0.521,0.29-0.71
			c0.38-0.38,1.04-0.37,1.42,0C29.899,26.479,30,26.729,30,27c0,0.27-0.11,0.52-0.29,0.71C29.52,27.89,29.27,28,29,28z"/>
	</g>
	<g>
		<circle style="fill:#D0E8F9;" cx="41.777" cy="42.796" r="9.796"/>
		<path style="fill:#EAF6FD;" d="M45.33,33.674L32.656,46.348c0.706,1.81,1.93,3.357,3.495,4.459L49.789,37.17
			C48.687,35.604,47.14,34.38,45.33,33.674z"/>
		<path style="fill:#B1D3EF;" d="M55.723,56.291l-5.97-6.244c1.746-1.919,2.82-4.458,2.82-7.251C52.573,36.843,47.731,32,41.777,32
			s-10.796,4.843-10.796,10.796s4.843,10.796,10.796,10.796c2.442,0,4.689-0.824,6.499-2.196l6.001,6.276
			c0.196,0.206,0.459,0.309,0.723,0.309c0.249,0,0.497-0.092,0.691-0.277C56.09,57.323,56.105,56.689,55.723,56.291z M32.982,42.796
			c0-4.85,3.946-8.796,8.796-8.796s8.796,3.946,8.796,8.796s-3.946,8.796-8.796,8.796S32.982,47.646,32.982,42.796z"/>
	</g>
</g>
<g>
</g>
<g>
</g>
<g>
</g>
<g>
</g>
<g>
</g>
<g>
</g>
<g>
</g>
<g>
</g>
<g>
</g>
<g>
</g>
<g>
</g>
<g>
</g>
<g>
</g>
<g>
</g>
<g>
</g>
</svg>
