<?xml version="1.0" encoding="iso-8859-1"?>
<!-- Generator: Adobe Illustrator 18.0.0, SVG Export Plug-In . SVG Version: 6.00 Build 0)  -->
<!DOCTYPE svg PUBLIC "-//W3C//DTD SVG 1.1//EN" "http://www.w3.org/Graphics/SVG/1.1/DTD/svg11.dtd">
<svg version="1.1" id="Capa_1" xmlns="http://www.w3.org/2000/svg" xmlns:xlink="http://www.w3.org/1999/xlink" x="0px" y="0px"
	 viewBox="0 0 59 59" style="enable-background:new 0 0 59 59;" xml:space="preserve">
<g>
	<g>
		<polygon style="fill:#545E73;" points="34,2 30,2 30,5 21,5 21,2 17,2 2,2 2,58 49,58 49,2 		"/>
		<rect x="21" style="fill:#404656;" width="9" height="5"/>
		<polygon style="fill:#EFEBDE;" points="37,5 37,8 14,8 14,5 5,5 5,55 46,55 46,5 		"/>
		<polygon style="fill:#8697CB;" points="30,2 30,5 21,5 21,2 14,2 14,8 37,8 37,2 		"/>
		<path style="fill:#D5D0BB;" d="M24,16H11c-0.553,0-1-0.447-1-1s0.447-1,1-1h13c0.553,0,1,0.447,1,1S24.553,16,24,16z"/>
		<path style="fill:#D5D0BB;" d="M24,47H11c-0.553,0-1-0.447-1-1s0.447-1,1-1h13c0.553,0,1,0.447,1,1S24.553,47,24,47z"/>
		<path style="fill:#D5D0BB;" d="M40,22H11c-0.553,0-1-0.447-1-1s0.447-1,1-1h29c0.553,0,1,0.447,1,1S40.553,22,40,22z"/>
		<path style="fill:#D5D0BB;" d="M40,34H11c-0.553,0-1-0.447-1-1s0.447-1,1-1h29c0.553,0,1,0.447,1,1S40.553,34,40,34z"/>
		<path style="fill:#D5D0BB;" d="M40,41H11c-0.553,0-1-0.447-1-1s0.447-1,1-1h29c0.553,0,1,0.447,1,1S40.553,41,40,41z"/>
		<path style="fill:#D5D0BB;" d="M25,28H11c-0.553,0-1-0.447-1-1s0.447-1,1-1h14c0.553,0,1,0.447,1,1S25.553,28,25,28z"/>
		<path style="fill:#D5D0BB;" d="M40,28h-7c-0.553,0-1-0.447-1-1s0.447-1,1-1h7c0.553,0,1,0.447,1,1S40.553,28,40,28z"/>
		<path style="fill:#D5D0BB;" d="M29,28c-0.271,0-0.521-0.101-0.71-0.29C28.109,27.52,28,27.26,28,27c0-0.271,0.1-0.521,0.29-0.71
			c0.38-0.38,1.04-0.37,1.42,0C29.899,26.479,30,26.729,30,27c0,0.27-0.11,0.52-0.29,0.71C29.52,27.89,29.27,28,29,28z"/>
	</g>
	<g>
		<circle style="fill:#76C9B0;" cx="46" cy="48" r="11"/>
		<path style="fill:#FFFFFF;" d="M52,47h-5v-5c0-0.552-0.447-1-1-1s-1,0.448-1,1v6c0,0.552,0.447,1,1,1h6c0.553,0,1-0.448,1-1
			S52.553,47,52,47z"/>
	</g>
</g>
<g>
</g>
<g>
</g>
<g>
</g>
<g>
</g>
<g>
</g>
<g>
</g>
<g>
</g>
<g>
</g>
<g>
</g>
<g>
</g>
<g>
</g>
<g>
</g>
<g>
</g>
<g>
</g>
<g>
</g>
</svg>
