<?xml version="1.0" encoding="iso-8859-1"?>
<!-- Generator: Adobe Illustrator 18.0.0, SVG Export Plug-In . SVG Version: 6.00 Build 0)  -->
<!DOCTYPE svg PUBLIC "-//W3C//DTD SVG 1.1//EN" "http://www.w3.org/Graphics/SVG/1.1/DTD/svg11.dtd">
<svg version="1.1" id="Capa_1" xmlns="http://www.w3.org/2000/svg" xmlns:xlink="http://www.w3.org/1999/xlink" x="0px" y="0px"
	 viewBox="0 0 59 59" style="enable-background:new 0 0 59 59;" xml:space="preserve">
<g>
	<g>
		<polygon style="fill:#545E73;" points="33.5,2 29.5,2 29.5,5 20.5,5 20.5,2 16.5,2 1.5,2 1.5,58 48.5,58 48.5,2 		"/>
		<rect x="20.5" style="fill:#404656;" width="9" height="5"/>
		<polygon style="fill:#EFEBDE;" points="36.5,5 36.5,8 13.5,8 13.5,5 4.5,5 4.5,55 45.5,55 45.5,5 		"/>
		<polygon style="fill:#8697CB;" points="29.5,2 29.5,5 20.5,5 20.5,2 13.5,2 13.5,8 36.5,8 36.5,2 		"/>
		<path style="fill:#D5D0BB;" d="M23.5,16h-13c-0.553,0-1-0.447-1-1s0.447-1,1-1h13c0.553,0,1,0.447,1,1S24.053,16,23.5,16z"/>
		<path style="fill:#D5D0BB;" d="M23.5,47h-13c-0.553,0-1-0.447-1-1s0.447-1,1-1h13c0.553,0,1,0.447,1,1S24.053,47,23.5,47z"/>
		<path style="fill:#D5D0BB;" d="M39.5,22h-29c-0.553,0-1-0.447-1-1s0.447-1,1-1h29c0.553,0,1,0.447,1,1S40.053,22,39.5,22z"/>
		<path style="fill:#D5D0BB;" d="M39.5,34h-29c-0.553,0-1-0.447-1-1s0.447-1,1-1h29c0.553,0,1,0.447,1,1S40.053,34,39.5,34z"/>
		<path style="fill:#D5D0BB;" d="M39.5,41h-29c-0.553,0-1-0.447-1-1s0.447-1,1-1h29c0.553,0,1,0.447,1,1S40.053,41,39.5,41z"/>
		<path style="fill:#D5D0BB;" d="M24.5,28h-14c-0.553,0-1-0.447-1-1s0.447-1,1-1h14c0.553,0,1,0.447,1,1S25.053,28,24.5,28z"/>
		<path style="fill:#D5D0BB;" d="M39.5,28h-7c-0.553,0-1-0.447-1-1s0.447-1,1-1h7c0.553,0,1,0.447,1,1S40.053,28,39.5,28z"/>
		<path style="fill:#D5D0BB;" d="M28.5,28c-0.271,0-0.521-0.101-0.71-0.29c-0.181-0.19-0.29-0.45-0.29-0.71
			c0-0.271,0.1-0.521,0.29-0.71c0.38-0.38,1.04-0.37,1.42,0c0.189,0.189,0.29,0.439,0.29,0.71c0,0.27-0.11,0.52-0.29,0.71
			C29.02,27.89,28.77,28,28.5,28z"/>
	</g>
	<g>
		<path style="fill:#BDC3C7;" d="M57.5,45.846l-1.444-0.278c-2.143-0.412-3.125-2.916-1.835-4.675l0.907-1.236l-1.958-1.958
			l-1.217,0.825c-1.806,1.224-4.272,0.148-4.604-2.008L47.115,35h-2.769l-0.359,1.865c-0.403,2.096-2.818,3.096-4.585,1.899
			l-1.572-1.065l-1.958,1.958l0.907,1.236c1.29,1.76,0.308,4.263-1.835,4.675L33.5,45.846v2.769l1.515,0.233
			c2.157,0.332,3.232,2.797,2.008,4.604l-0.825,1.217l1.958,1.958l1.236-0.907c1.76-1.29,4.263-0.308,4.675,1.835L44.346,59h2.769
			l0.164-1.066c0.339-2.204,2.896-3.263,4.694-1.944l0.869,0.638l1.958-1.958l-0.825-1.217c-1.224-1.806-0.148-4.272,2.008-4.604
			l1.515-0.233V45.846z"/>
		<g>
			<circle style="fill:#FFFFFF;" cx="45.5" cy="47" r="4"/>
			<path style="fill:#ECF0F1;" d="M45.5,52c-2.757,0-5-2.243-5-5s2.243-5,5-5s5,2.243,5,5S48.257,52,45.5,52z M45.5,44
				c-1.654,0-3,1.346-3,3s1.346,3,3,3s3-1.346,3-3S47.154,44,45.5,44z"/>
		</g>
	</g>
</g>
<g>
</g>
<g>
</g>
<g>
</g>
<g>
</g>
<g>
</g>
<g>
</g>
<g>
</g>
<g>
</g>
<g>
</g>
<g>
</g>
<g>
</g>
<g>
</g>
<g>
</g>
<g>
</g>
<g>
</g>
</svg>
