<?xml version="1.0" encoding="iso-8859-1"?>
<!-- Generator: Adobe Illustrator 18.0.0, SVG Export Plug-In . SVG Version: 6.00 Build 0)  -->
<!DOCTYPE svg PUBLIC "-//W3C//DTD SVG 1.1//EN" "http://www.w3.org/Graphics/SVG/1.1/DTD/svg11.dtd">
<svg version="1.1" id="Capa_1" xmlns="http://www.w3.org/2000/svg" xmlns:xlink="http://www.w3.org/1999/xlink" x="0px" y="0px"
	 viewBox="0 0 59 59" style="enable-background:new 0 0 59 59;" xml:space="preserve">
<g>
	<rect x="1.365" style="fill:#CBB292;" width="44" height="58"/>
	<rect x="1.365" style="fill:#7F6E5D;" width="8" height="58"/>
	<rect x="16.365" y="10" style="fill:#EFEBDE;" width="22" height="12"/>
	<rect x="20.365" y="13" style="fill:#D5D0BB;" width="14" height="2"/>
	<rect x="20.365" y="17" style="fill:#D5D0BB;" width="14" height="2"/>
	<g>
		<polygon style="fill:#EDDCC7;" points="36.201,49.507 36.194,49.515 34.205,56.804 38.852,52.158 		"/>
		<path style="fill:#D75A4A;" d="M55.451,35.559l-1.247-1.247c-0.775-0.775-2.032-0.775-2.807,0l-3.582,3.582l2.651,2.651
			L55.451,35.559z"/>
		
			<rect x="41.459" y="36.814" transform="matrix(0.7071 0.7071 -0.7071 0.7071 44.53 -17.4537)" style="fill:#F29C21;" width="3.749" height="16.424"/>
		<polygon style="fill:#D6C4B1;" points="41.85,55.172 41.858,55.164 38.852,52.158 34.205,56.804 34.072,57.293 		"/>
		<path style="fill:#A34740;" d="M53.472,43.55l3.582-3.582c0.775-0.775,0.775-2.032,0-2.807l-1.602-1.602l-4.985,4.985
			L53.472,43.55z"/>
		
			<rect x="44.036" y="39.642" transform="matrix(-0.7071 -0.7071 0.7071 -0.7071 44.9646 114.3334)" style="fill:#E18C25;" width="4.251" height="16.424"/>
		<path style="fill:#5E5E5E;" d="M33.365,59c-0.256,0-0.512-0.098-0.707-0.293c-0.391-0.391-0.391-1.023,0-1.414l2.207-2.207
			c0.391-0.391,1.023-0.391,1.414,0s0.391,1.023,0,1.414l-2.207,2.207C33.877,58.902,33.621,59,33.365,59z"/>
	</g>
</g>
<g>
</g>
<g>
</g>
<g>
</g>
<g>
</g>
<g>
</g>
<g>
</g>
<g>
</g>
<g>
</g>
<g>
</g>
<g>
</g>
<g>
</g>
<g>
</g>
<g>
</g>
<g>
</g>
<g>
</g>
</svg>
