<?xml version="1.0" encoding="iso-8859-1"?>
<!-- Generator: Adobe Illustrator 18.0.0, SVG Export Plug-In . SVG Version: 6.00 Build 0)  -->
<!DOCTYPE svg PUBLIC "-//W3C//DTD SVG 1.1//EN" "http://www.w3.org/Graphics/SVG/1.1/DTD/svg11.dtd">
<svg version="1.1" id="Capa_1" xmlns="http://www.w3.org/2000/svg" xmlns:xlink="http://www.w3.org/1999/xlink" x="0px" y="0px"
	 viewBox="0 0 58.981 58.981" style="enable-background:new 0 0 58.981 58.981;" xml:space="preserve">
<g>
	<g>
		<polygon style="fill:#545E73;" points="34.856,2 30.856,2 30.856,5 21.856,5 21.856,2 17.856,2 2.856,2 2.856,58 49.856,58 
			49.856,2 		"/>
		<rect x="21.856" style="fill:#404656;" width="9" height="5"/>
		<polygon style="fill:#EFEBDE;" points="37.856,5 37.856,8 14.856,8 14.856,5 5.856,5 5.856,55 46.856,55 46.856,5 		"/>
		<polygon style="fill:#8697CB;" points="30.856,2 30.856,5 21.856,5 21.856,2 14.856,2 14.856,8 37.856,8 37.856,2 		"/>
		<path style="fill:#D5D0BB;" d="M24.856,16h-13c-0.553,0-1-0.447-1-1s0.447-1,1-1h13c0.553,0,1,0.447,1,1S25.409,16,24.856,16z"/>
		<path style="fill:#D5D0BB;" d="M24.856,47h-13c-0.553,0-1-0.447-1-1s0.447-1,1-1h13c0.553,0,1,0.447,1,1S25.409,47,24.856,47z"/>
		<path style="fill:#D5D0BB;" d="M40.856,22h-29c-0.553,0-1-0.447-1-1s0.447-1,1-1h29c0.553,0,1,0.447,1,1S41.409,22,40.856,22z"/>
		<path style="fill:#D5D0BB;" d="M40.856,34h-29c-0.553,0-1-0.447-1-1s0.447-1,1-1h29c0.553,0,1,0.447,1,1S41.409,34,40.856,34z"/>
		<path style="fill:#D5D0BB;" d="M40.856,41h-29c-0.553,0-1-0.447-1-1s0.447-1,1-1h29c0.553,0,1,0.447,1,1S41.409,41,40.856,41z"/>
		<path style="fill:#D5D0BB;" d="M25.856,28h-14c-0.553,0-1-0.447-1-1s0.447-1,1-1h14c0.553,0,1,0.447,1,1S26.409,28,25.856,28z"/>
		<path style="fill:#D5D0BB;" d="M40.856,28h-7c-0.553,0-1-0.447-1-1s0.447-1,1-1h7c0.553,0,1,0.447,1,1S41.409,28,40.856,28z"/>
		<path style="fill:#D5D0BB;" d="M29.856,28c-0.271,0-0.521-0.101-0.71-0.29c-0.181-0.19-0.29-0.45-0.29-0.71
			c0-0.271,0.1-0.521,0.29-0.71c0.38-0.38,1.04-0.37,1.42,0c0.189,0.189,0.29,0.439,0.29,0.71c0,0.27-0.11,0.52-0.29,0.71
			C30.375,27.89,30.125,28,29.856,28z"/>
	</g>
	<g>
		<polygon style="fill:#EDDCC7;" points="34.692,49.489 34.684,49.496 32.696,56.786 37.343,52.139 		"/>
		<path style="fill:#D75A4A;" d="M53.942,35.54l-1.247-1.247c-0.775-0.775-2.032-0.775-2.807,0l-3.582,3.582l2.651,2.651
			L53.942,35.54z"/>
		
			<rect x="39.95" y="36.795" transform="matrix(0.7071 0.7071 -0.7071 0.7071 44.0748 -16.3919)" style="fill:#F29C21;" width="3.749" height="16.424"/>
		<polygon style="fill:#D6C4B1;" points="40.341,55.153 40.349,55.145 37.343,52.139 32.696,56.786 32.563,57.274 		"/>
		<path style="fill:#A34740;" d="M51.962,43.532l3.582-3.582c0.775-0.775,0.775-2.032,0-2.807l-1.602-1.602l-4.985,4.985
			L51.962,43.532z"/>
		
			<rect x="42.527" y="39.623" transform="matrix(-0.7071 -0.7071 0.7071 -0.7071 42.4013 113.2343)" style="fill:#E18C25;" width="4.251" height="16.424"/>
		<path style="fill:#5E5E5E;" d="M31.856,58.981c-0.256,0-0.512-0.098-0.707-0.293c-0.391-0.391-0.391-1.023,0-1.414l2.207-2.207
			c0.391-0.391,1.023-0.391,1.414,0s0.391,1.023,0,1.414l-2.207,2.207C32.368,58.884,32.112,58.981,31.856,58.981z"/>
	</g>
</g>
<g>
</g>
<g>
</g>
<g>
</g>
<g>
</g>
<g>
</g>
<g>
</g>
<g>
</g>
<g>
</g>
<g>
</g>
<g>
</g>
<g>
</g>
<g>
</g>
<g>
</g>
<g>
</g>
<g>
</g>
</svg>
