<?xml version="1.0" encoding="iso-8859-1"?>
<!-- Generator: Adobe Illustrator 18.0.0, SVG Export Plug-In . SVG Version: 6.00 Build 0)  -->
<!DOCTYPE svg PUBLIC "-//W3C//DTD SVG 1.1//EN" "http://www.w3.org/Graphics/SVG/1.1/DTD/svg11.dtd">
<svg version="1.1" id="Capa_1" xmlns="http://www.w3.org/2000/svg" xmlns:xlink="http://www.w3.org/1999/xlink" x="0px" y="0px"
	 viewBox="0 0 59 59" style="enable-background:new 0 0 59 59;" xml:space="preserve">
<g>
	<g>
		<polygon style="fill:#545E73;" points="33.5,2 29.5,2 29.5,5 20.5,5 20.5,2 16.5,2 1.5,2 1.5,58 48.5,58 48.5,2 		"/>
		<rect x="20.5" style="fill:#404656;" width="9" height="5"/>
		<polygon style="fill:#EFEBDE;" points="36.5,5 36.5,8 13.5,8 13.5,5 4.5,5 4.5,55 45.5,55 45.5,5 		"/>
		<polygon style="fill:#8697CB;" points="29.5,2 29.5,5 20.5,5 20.5,2 13.5,2 13.5,8 36.5,8 36.5,2 		"/>
		<path style="fill:#D5D0BB;" d="M23.5,16h-13c-0.553,0-1-0.447-1-1s0.447-1,1-1h13c0.553,0,1,0.447,1,1S24.053,16,23.5,16z"/>
		<path style="fill:#D5D0BB;" d="M23.5,47h-13c-0.553,0-1-0.447-1-1s0.447-1,1-1h13c0.553,0,1,0.447,1,1S24.053,47,23.5,47z"/>
		<path style="fill:#D5D0BB;" d="M39.5,22h-29c-0.553,0-1-0.447-1-1s0.447-1,1-1h29c0.553,0,1,0.447,1,1S40.053,22,39.5,22z"/>
		<path style="fill:#D5D0BB;" d="M39.5,34h-29c-0.553,0-1-0.447-1-1s0.447-1,1-1h29c0.553,0,1,0.447,1,1S40.053,34,39.5,34z"/>
		<path style="fill:#D5D0BB;" d="M39.5,41h-29c-0.553,0-1-0.447-1-1s0.447-1,1-1h29c0.553,0,1,0.447,1,1S40.053,41,39.5,41z"/>
		<path style="fill:#D5D0BB;" d="M24.5,28h-14c-0.553,0-1-0.447-1-1s0.447-1,1-1h14c0.553,0,1,0.447,1,1S25.053,28,24.5,28z"/>
		<path style="fill:#D5D0BB;" d="M39.5,28h-7c-0.553,0-1-0.447-1-1s0.447-1,1-1h7c0.553,0,1,0.447,1,1S40.053,28,39.5,28z"/>
		<path style="fill:#D5D0BB;" d="M28.5,28c-0.271,0-0.521-0.101-0.71-0.29c-0.181-0.19-0.29-0.45-0.29-0.71
			c0-0.271,0.1-0.521,0.29-0.71c0.38-0.38,1.04-0.37,1.42,0c0.189,0.189,0.29,0.439,0.29,0.71c0,0.27-0.11,0.52-0.29,0.71
			C29.02,27.89,28.77,28,28.5,28z"/>
	</g>
	<g>
		<circle style="fill:#B1D3EF;" cx="45" cy="46.5" r="12.5"/>
		<path style="fill:#556080;" d="M45,36c-4.718,0-8.88,3.182-10.121,7.737c-0.146,0.533,0.169,1.083,0.702,1.228
			c0.528,0.143,1.082-0.168,1.228-0.702C37.813,40.575,41.182,38,45,38c4.687,0,8.5,3.813,8.5,8.5S49.687,55,45,55
			c-3.365,0-6.378-2.001-7.734-5H42.5v-2h-6h-1h-1v8h2v-3.341l0,0v-0.023C38.433,55.31,41.566,57,45,57c5.79,0,10.5-4.71,10.5-10.5
			S50.79,36,45,36z"/>
	</g>
</g>
<g>
</g>
<g>
</g>
<g>
</g>
<g>
</g>
<g>
</g>
<g>
</g>
<g>
</g>
<g>
</g>
<g>
</g>
<g>
</g>
<g>
</g>
<g>
</g>
<g>
</g>
<g>
</g>
<g>
</g>
</svg>
