<?xml version="1.0" encoding="iso-8859-1"?>
<!-- Generator: Adobe Illustrator 18.0.0, SVG Export Plug-In . SVG Version: 6.00 Build 0)  -->
<!DOCTYPE svg PUBLIC "-//W3C//DTD SVG 1.1//EN" "http://www.w3.org/Graphics/SVG/1.1/DTD/svg11.dtd">
<svg version="1.1" id="Capa_1" xmlns="http://www.w3.org/2000/svg" xmlns:xlink="http://www.w3.org/1999/xlink" x="0px" y="0px"
	 viewBox="0 0 58 58" style="enable-background:new 0 0 58 58;" xml:space="preserve">
<g>
	<g>
		<polygon style="fill:#545E73;" points="34,2 30,2 30,5 21,5 21,2 17,2 2,2 2,58 49,58 49,2 		"/>
		<rect x="21" style="fill:#404656;" width="9" height="5"/>
		<polygon style="fill:#EFEBDE;" points="37,5 37,8 14,8 14,5 5,5 5,55 46,55 46,5 		"/>
		<polygon style="fill:#8697CB;" points="30,2 30,5 21,5 21,2 14,2 14,8 37,8 37,2 		"/>
		<path style="fill:#D5D0BB;" d="M24,16H11c-0.553,0-1-0.447-1-1s0.447-1,1-1h13c0.553,0,1,0.447,1,1S24.553,16,24,16z"/>
		<path style="fill:#D5D0BB;" d="M24,47H11c-0.553,0-1-0.447-1-1s0.447-1,1-1h13c0.553,0,1,0.447,1,1S24.553,47,24,47z"/>
		<path style="fill:#D5D0BB;" d="M40,22H11c-0.553,0-1-0.447-1-1s0.447-1,1-1h29c0.553,0,1,0.447,1,1S40.553,22,40,22z"/>
		<path style="fill:#D5D0BB;" d="M40,34H11c-0.553,0-1-0.447-1-1s0.447-1,1-1h29c0.553,0,1,0.447,1,1S40.553,34,40,34z"/>
		<path style="fill:#D5D0BB;" d="M40,41H11c-0.553,0-1-0.447-1-1s0.447-1,1-1h29c0.553,0,1,0.447,1,1S40.553,41,40,41z"/>
		<path style="fill:#D5D0BB;" d="M25,28H11c-0.553,0-1-0.447-1-1s0.447-1,1-1h14c0.553,0,1,0.447,1,1S25.553,28,25,28z"/>
		<path style="fill:#D5D0BB;" d="M40,28h-7c-0.553,0-1-0.447-1-1s0.447-1,1-1h7c0.553,0,1,0.447,1,1S40.553,28,40,28z"/>
		<path style="fill:#D5D0BB;" d="M29,28c-0.271,0-0.521-0.101-0.71-0.29C28.109,27.52,28,27.26,28,27c0-0.271,0.1-0.521,0.29-0.71
			c0.38-0.38,1.04-0.37,1.42,0C29.899,26.479,30,26.729,30,27c0,0.27-0.11,0.52-0.29,0.71C29.52,27.89,29.27,28,29,28z"/>
	</g>
	<g>
		<g>
			<path style="fill:#48A0DC;" d="M51.045,47.111C50.994,43.175,47.882,40,44.046,40c-2.568,0-4.806,1.426-6.025,3.546
				c-0.421-0.141-0.87-0.22-1.337-0.22c-2.063,0-3.785,1.492-4.208,3.484c-1.754,0.865-2.975,2.706-2.975,4.831
				c0,2.947,2.343,5.359,5.208,5.359h10.775c0.061,0,0.119-0.007,0.18-0.009c0.06,0.002,0.119,0.009,0.18,0.009h4.31
				C52.818,57,55,54.755,55,52.011C55,49.581,53.288,47.546,51.045,47.111z"/>
			<path style="fill:#B1D3EF;" d="M50.151,58h-4.31c-0.063,0-0.126-0.004-0.188-0.008C45.606,57.996,45.545,58,45.482,58H34.708
				c-3.423,0-6.208-2.853-6.208-6.358c0-2.262,1.209-4.372,3.116-5.503c0.686-2.235,2.746-3.813,5.066-3.813
				c0.296,0,0.592,0.025,0.884,0.076C39.062,40.286,41.48,39,44.046,39c4.102,0,7.524,3.225,7.954,7.332
				c2.358,0.806,4,3.079,4,5.679C56,55.313,53.376,58,50.151,58z M45.614,55.991l0.186,0.006L50.151,56
				C52.273,56,54,54.21,54,52.011c0-1.917-1.323-3.564-3.146-3.919l-0.799-0.155l-0.011-0.813C50.001,43.747,47.311,41,44.046,41
				c-2.135,0-4.063,1.139-5.158,3.045l-0.409,0.711l-0.777-0.261c-0.332-0.112-0.675-0.169-1.019-0.169
				c-1.54,0-2.898,1.133-3.229,2.692l-0.102,0.475l-0.435,0.214c-1.469,0.725-2.417,2.269-2.417,3.935
				c0,2.403,1.888,4.358,4.208,4.358L45.614,55.991z"/>
		</g>
	</g>
</g>
<g>
</g>
<g>
</g>
<g>
</g>
<g>
</g>
<g>
</g>
<g>
</g>
<g>
</g>
<g>
</g>
<g>
</g>
<g>
</g>
<g>
</g>
<g>
</g>
<g>
</g>
<g>
</g>
<g>
</g>
</svg>
