<?xml version="1.0" encoding="iso-8859-1"?>
<!-- Generator: Adobe Illustrator 18.0.0, SVG Export Plug-In . SVG Version: 6.00 Build 0)  -->
<!DOCTYPE svg PUBLIC "-//W3C//DTD SVG 1.1//EN" "http://www.w3.org/Graphics/SVG/1.1/DTD/svg11.dtd">
<svg version="1.1" id="Capa_1" xmlns="http://www.w3.org/2000/svg" xmlns:xlink="http://www.w3.org/1999/xlink" x="0px" y="0px"
	 viewBox="0 0 59 59" style="enable-background:new 0 0 59 59;" xml:space="preserve">
<g>
	<g>
		<polygon style="fill:#545E73;" points="35.5,2 31.5,2 31.5,5 22.5,5 22.5,2 18.5,2 3.5,2 3.5,58 50.5,58 50.5,2 		"/>
		<rect x="22.5" style="fill:#404656;" width="9" height="5"/>
		<polygon style="fill:#EFEBDE;" points="38.5,5 38.5,8 15.5,8 15.5,5 6.5,5 6.5,55 47.5,55 47.5,5 		"/>
		<polygon style="fill:#8697CB;" points="31.5,2 31.5,5 22.5,5 22.5,2 15.5,2 15.5,8 38.5,8 38.5,2 		"/>
		<path style="fill:#D5D0BB;" d="M25.5,16h-13c-0.553,0-1-0.447-1-1s0.447-1,1-1h13c0.553,0,1,0.447,1,1S26.053,16,25.5,16z"/>
		<path style="fill:#D5D0BB;" d="M25.5,47h-13c-0.553,0-1-0.447-1-1s0.447-1,1-1h13c0.553,0,1,0.447,1,1S26.053,47,25.5,47z"/>
		<path style="fill:#D5D0BB;" d="M41.5,22h-29c-0.553,0-1-0.447-1-1s0.447-1,1-1h29c0.553,0,1,0.447,1,1S42.053,22,41.5,22z"/>
		<path style="fill:#D5D0BB;" d="M41.5,34h-29c-0.553,0-1-0.447-1-1s0.447-1,1-1h29c0.553,0,1,0.447,1,1S42.053,34,41.5,34z"/>
		<path style="fill:#D5D0BB;" d="M41.5,41h-29c-0.553,0-1-0.447-1-1s0.447-1,1-1h29c0.553,0,1,0.447,1,1S42.053,41,41.5,41z"/>
		<path style="fill:#D5D0BB;" d="M26.5,28h-14c-0.553,0-1-0.447-1-1s0.447-1,1-1h14c0.553,0,1,0.447,1,1S27.053,28,26.5,28z"/>
		<path style="fill:#D5D0BB;" d="M41.5,28h-7c-0.553,0-1-0.447-1-1s0.447-1,1-1h7c0.553,0,1,0.447,1,1S42.053,28,41.5,28z"/>
		<path style="fill:#D5D0BB;" d="M30.5,28c-0.271,0-0.521-0.101-0.71-0.29c-0.181-0.19-0.29-0.45-0.29-0.71
			c0-0.271,0.1-0.521,0.29-0.71c0.38-0.38,1.04-0.37,1.42,0c0.189,0.189,0.29,0.439,0.29,0.71c0,0.27-0.11,0.52-0.29,0.71
			C31.02,27.89,30.77,28,30.5,28z"/>
	</g>
	<g>
		<circle style="fill:#B1D3EF;" cx="43" cy="46.5" r="12.5"/>
		<g>
			<path style="fill:#556080;" d="M52.693,47.019c-0.55-0.113-1.068,0.246-1.175,0.788C50.698,51.975,47.116,55,43,55
				c-3.351,0-6.347-2.006-7.789-5H40.5v-2h-6h-1h-1v8h2v-3.341C36.476,55.315,39.585,57,43,57c5.068,0,9.477-3.704,10.481-8.807
				C53.587,47.651,53.235,47.125,52.693,47.019z"/>
			<path style="fill:#556080;" d="M51.5,36.998v3.341c-1.976-2.657-5.086-4.341-8.5-4.341c-5.068,0-9.477,3.704-10.481,8.807
				c-0.106,0.542,0.246,1.068,0.788,1.174c0.55,0.113,1.068-0.246,1.175-0.788c0.82-4.168,4.402-7.193,8.519-7.193
				c3.351,0,6.347,2.006,7.789,5H45.5v2h6h1h1v-8H51.5z"/>
		</g>
	</g>
</g>
<g>
</g>
<g>
</g>
<g>
</g>
<g>
</g>
<g>
</g>
<g>
</g>
<g>
</g>
<g>
</g>
<g>
</g>
<g>
</g>
<g>
</g>
<g>
</g>
<g>
</g>
<g>
</g>
<g>
</g>
</svg>
