<?xml version="1.0" encoding="iso-8859-1"?>
<!-- Generator: Adobe Illustrator 18.0.0, SVG Export Plug-In . SVG Version: 6.00 Build 0)  -->
<!DOCTYPE svg PUBLIC "-//W3C//DTD SVG 1.1//EN" "http://www.w3.org/Graphics/SVG/1.1/DTD/svg11.dtd">
<svg version="1.1" id="Capa_1" xmlns="http://www.w3.org/2000/svg" xmlns:xlink="http://www.w3.org/1999/xlink" x="0px" y="0px"
	 viewBox="0 0 58.478 58.478" style="enable-background:new 0 0 58.478 58.478;" xml:space="preserve">
<g>
	<g>
		<polygon style="fill:#545E73;" points="33.544,2 29.544,2 29.544,5 20.544,5 20.544,2 16.544,2 1.544,2 1.544,58 48.544,58 
			48.544,2 		"/>
		<rect x="20.544" style="fill:#404656;" width="9" height="5"/>
		<polygon style="fill:#EFEBDE;" points="36.544,5 36.544,8 13.544,8 13.544,5 4.544,5 4.544,55 45.544,55 45.544,5 		"/>
		<polygon style="fill:#8697CB;" points="29.544,2 29.544,5 20.544,5 20.544,2 13.544,2 13.544,8 36.544,8 36.544,2 		"/>
		<path style="fill:#D5D0BB;" d="M23.544,16h-13c-0.553,0-1-0.447-1-1s0.447-1,1-1h13c0.553,0,1,0.447,1,1S24.097,16,23.544,16z"/>
		<path style="fill:#D5D0BB;" d="M23.544,47h-13c-0.553,0-1-0.447-1-1s0.447-1,1-1h13c0.553,0,1,0.447,1,1S24.097,47,23.544,47z"/>
		<path style="fill:#D5D0BB;" d="M39.544,22h-29c-0.553,0-1-0.447-1-1s0.447-1,1-1h29c0.553,0,1,0.447,1,1S40.097,22,39.544,22z"/>
		<path style="fill:#D5D0BB;" d="M39.544,34h-29c-0.553,0-1-0.447-1-1s0.447-1,1-1h29c0.553,0,1,0.447,1,1S40.097,34,39.544,34z"/>
		<path style="fill:#D5D0BB;" d="M39.544,41h-29c-0.553,0-1-0.447-1-1s0.447-1,1-1h29c0.553,0,1,0.447,1,1S40.097,41,39.544,41z"/>
		<path style="fill:#D5D0BB;" d="M24.544,28h-14c-0.553,0-1-0.447-1-1s0.447-1,1-1h14c0.553,0,1,0.447,1,1S25.097,28,24.544,28z"/>
		<path style="fill:#D5D0BB;" d="M39.544,28h-7c-0.553,0-1-0.447-1-1s0.447-1,1-1h7c0.553,0,1,0.447,1,1S40.097,28,39.544,28z"/>
		<path style="fill:#D5D0BB;" d="M28.544,28c-0.271,0-0.521-0.101-0.71-0.29c-0.181-0.19-0.29-0.45-0.29-0.71
			c0-0.271,0.1-0.521,0.29-0.71c0.38-0.38,1.04-0.37,1.42,0c0.189,0.189,0.29,0.439,0.29,0.71c0,0.27-0.11,0.52-0.29,0.71
			C29.063,27.89,28.813,28,28.544,28z"/>
	</g>
	<g>
		<path style="fill:#FFFFFF;" d="M55.739,49.157l-0.107,0.163c-7.121,10.876-18.773,10.876-25.893,0l0,0l0.107-0.163
			C36.966,38.281,48.618,38.281,55.739,49.157L55.739,49.157z"/>
		<circle style="fill:#556080;" cx="42.502" cy="46.875" r="5.909"/>
		<path style="fill:#B1D3EF;" d="M42.686,58.478c-5.254,0-10.148-3.058-13.783-8.609l-0.358-0.547l0.465-0.711
			C32.644,43.057,37.539,40,42.792,40c5.253,0,10.148,3.057,13.783,8.609l0.358,0.547l-0.465,0.711
			C52.833,55.42,47.939,58.478,42.686,58.478z M30.942,49.316c3.206,4.624,7.356,7.161,11.744,7.161c4.436,0,8.63-2.594,11.85-7.317
			C51.33,44.537,47.179,42,42.792,42C38.356,42,34.162,44.594,30.942,49.316z"/>
	</g>
</g>
<g>
</g>
<g>
</g>
<g>
</g>
<g>
</g>
<g>
</g>
<g>
</g>
<g>
</g>
<g>
</g>
<g>
</g>
<g>
</g>
<g>
</g>
<g>
</g>
<g>
</g>
<g>
</g>
<g>
</g>
</svg>
