<?xml version="1.0" encoding="iso-8859-1"?>
<!-- Generator: Adobe Illustrator 18.0.0, SVG Export Plug-In . SVG Version: 6.00 Build 0)  -->
<!DOCTYPE svg PUBLIC "-//W3C//DTD SVG 1.1//EN" "http://www.w3.org/Graphics/SVG/1.1/DTD/svg11.dtd">
<svg version="1.1" id="Capa_1" xmlns="http://www.w3.org/2000/svg" xmlns:xlink="http://www.w3.org/1999/xlink" x="0px" y="0px"
	 viewBox="0 0 58 58" style="enable-background:new 0 0 58 58;" xml:space="preserve">
<g>
	<g>
		<polygon style="fill:#545E73;" points="35,2 31,2 31,5 22,5 22,2 18,2 3,2 3,58 50,58 50,2 		"/>
		<rect x="22" style="fill:#404656;" width="9" height="5"/>
		<polygon style="fill:#EFEBDE;" points="38,5 38,8 15,8 15,5 6,5 6,55 47,55 47,5 		"/>
		<polygon style="fill:#8697CB;" points="31,2 31,5 22,5 22,2 15,2 15,8 38,8 38,2 		"/>
		<path style="fill:#D5D0BB;" d="M25,16H12c-0.553,0-1-0.447-1-1s0.447-1,1-1h13c0.553,0,1,0.447,1,1S25.553,16,25,16z"/>
		<path style="fill:#D5D0BB;" d="M25,47H12c-0.553,0-1-0.447-1-1s0.447-1,1-1h13c0.553,0,1,0.447,1,1S25.553,47,25,47z"/>
		<path style="fill:#D5D0BB;" d="M41,22H12c-0.553,0-1-0.447-1-1s0.447-1,1-1h29c0.553,0,1,0.447,1,1S41.553,22,41,22z"/>
		<path style="fill:#D5D0BB;" d="M41,34H12c-0.553,0-1-0.447-1-1s0.447-1,1-1h29c0.553,0,1,0.447,1,1S41.553,34,41,34z"/>
		<path style="fill:#D5D0BB;" d="M41,41H12c-0.553,0-1-0.447-1-1s0.447-1,1-1h29c0.553,0,1,0.447,1,1S41.553,41,41,41z"/>
		<path style="fill:#D5D0BB;" d="M26,28H12c-0.553,0-1-0.447-1-1s0.447-1,1-1h14c0.553,0,1,0.447,1,1S26.553,28,26,28z"/>
		<path style="fill:#D5D0BB;" d="M41,28h-7c-0.553,0-1-0.447-1-1s0.447-1,1-1h7c0.553,0,1,0.447,1,1S41.553,28,41,28z"/>
		<path style="fill:#D5D0BB;" d="M30,28c-0.271,0-0.521-0.101-0.71-0.29C29.109,27.52,29,27.26,29,27c0-0.271,0.1-0.521,0.29-0.71
			c0.38-0.38,1.04-0.37,1.42,0C30.899,26.479,31,26.729,31,27c0,0.27-0.11,0.52-0.29,0.71C30.52,27.89,30.27,28,30,28z"/>
	</g>
	<g>
		<polygon style="fill:#F3D55A;" points="43,36 46.708,43.242 55,44.403 49,50.04 50.416,58 43,54.242 35.584,58 37,50.04 
			31,44.403 39.292,43.242 		"/>
	</g>
</g>
<g>
</g>
<g>
</g>
<g>
</g>
<g>
</g>
<g>
</g>
<g>
</g>
<g>
</g>
<g>
</g>
<g>
</g>
<g>
</g>
<g>
</g>
<g>
</g>
<g>
</g>
<g>
</g>
<g>
</g>
</svg>
