<?xml version="1.0" encoding="iso-8859-1"?>
<!-- Generator: Adobe Illustrator 18.0.0, SVG Export Plug-In . SVG Version: 6.00 Build 0)  -->
<!DOCTYPE svg PUBLIC "-//W3C//DTD SVG 1.1//EN" "http://www.w3.org/Graphics/SVG/1.1/DTD/svg11.dtd">
<svg version="1.1" id="Capa_1" xmlns="http://www.w3.org/2000/svg" xmlns:xlink="http://www.w3.org/1999/xlink" x="0px" y="0px"
	 viewBox="0 0 58 58" style="enable-background:new 0 0 58 58;" xml:space="preserve">
<g>
	<rect x="1" style="fill:#CBB292;" width="44" height="58"/>
	<rect x="1" style="fill:#7F6E5D;" width="8" height="58"/>
	<rect x="16" y="10" style="fill:#EFEBDE;" width="22" height="12"/>
	<rect x="20" y="13" style="fill:#D5D0BB;" width="14" height="2"/>
	<rect x="20" y="17" style="fill:#D5D0BB;" width="14" height="2"/>
	<g>
		<circle style="fill:#D0E8F9;" cx="42.777" cy="42.814" r="9.796"/>
		<path style="fill:#EAF6FD;" d="M46.33,33.693L33.656,46.367c0.706,1.81,1.93,3.357,3.495,4.459l13.638-13.638
			C49.687,35.623,48.14,34.399,46.33,33.693z"/>
		<path style="fill:#8697CB;" d="M56.723,56.309l-5.97-6.244c1.746-1.919,2.82-4.458,2.82-7.251c0-5.953-4.843-10.796-10.796-10.796
			s-10.796,4.843-10.796,10.796S36.824,53.61,42.777,53.61c2.442,0,4.689-0.824,6.499-2.196l6.001,6.276
			C55.474,57.896,55.736,58,56,58c0.249,0,0.497-0.092,0.691-0.277C57.09,57.341,57.105,56.708,56.723,56.309z M33.982,42.814
			c0-4.85,3.946-8.796,8.796-8.796s8.796,3.946,8.796,8.796s-3.946,8.796-8.796,8.796S33.982,47.665,33.982,42.814z"/>
	</g>
</g>
<g>
</g>
<g>
</g>
<g>
</g>
<g>
</g>
<g>
</g>
<g>
</g>
<g>
</g>
<g>
</g>
<g>
</g>
<g>
</g>
<g>
</g>
<g>
</g>
<g>
</g>
<g>
</g>
<g>
</g>
</svg>
