<?xml version="1.0" encoding="iso-8859-1"?>
<!-- Generator: Adobe Illustrator 18.0.0, SVG Export Plug-In . SVG Version: 6.00 Build 0)  -->
<!DOCTYPE svg PUBLIC "-//W3C//DTD SVG 1.1//EN" "http://www.w3.org/Graphics/SVG/1.1/DTD/svg11.dtd">
<svg version="1.1" id="Capa_1" xmlns="http://www.w3.org/2000/svg" xmlns:xlink="http://www.w3.org/1999/xlink" x="0px" y="0px"
	 viewBox="0 0 53.943 53.943" style="enable-background:new 0 0 53.943 53.943;" xml:space="preserve">
<g>
	<g>
		<path style="fill:#69BC45;" d="M52.48,41.376c-1.898-3.587-8.899-7.69-8.899-7.69c-1.584-0.903-3.495-1.004-4.399,0.606
			c0,0-2.274,2.728-2.853,3.12c-2.643,1.791-5.091,1.722-7.562-0.75l-5.743-5.743l-5.743-5.743c-2.472-2.472-2.541-4.919-0.75-7.562
			c0.392-0.579,3.12-2.853,3.12-2.853c1.609-0.904,1.509-2.815,0.606-4.399c0,0-4.103-7.001-7.69-8.899
			c-1.526-0.808-3.4-0.526-4.621,0.695L5.408,4.693c-8.045,8.045-4.084,17.129,3.961,25.174l7.353,7.353l7.353,7.353
			c8.045,8.045,17.129,12.007,25.174,3.961l2.537-2.537C53.006,44.776,53.288,42.901,52.48,41.376z"/>
		<path style="fill:#449E46;" d="M53.364,40.908c-2.008-3.796-8.981-7.912-9.287-8.092c-0.896-0.51-1.831-0.78-2.706-0.78
			c-1.301,0-2.366,0.596-3.011,1.68c-1.02,1.22-2.286,2.646-2.592,2.867c-2.376,1.612-4.237,1.429-6.294-0.629L17.987,24.467
			c-2.044-2.045-2.232-3.928-0.632-6.29c0.224-0.31,1.65-1.575,2.871-2.597c0.778-0.463,1.312-1.15,1.545-1.995
			c0.312-1.122,0.082-2.444-0.652-3.731c-0.173-0.296-4.29-7.27-8.085-9.277c-0.708-0.375-1.506-0.573-2.306-0.573
			c-1.318,0-2.558,0.514-3.489,1.445L4.7,3.986c-4.014,4.013-5.467,8.562-4.321,13.52c0.956,4.132,3.742,8.529,8.282,13.068
			l14.705,14.705c5.746,5.746,11.224,8.66,16.282,8.66c0,0,0,0,0.001,0c3.72,0,7.188-1.581,10.305-4.698l2.537-2.537
			C54.033,45.164,54.383,42.835,53.364,40.908z M51.078,45.29l-2.537,2.537c-2.729,2.729-5.72,4.112-8.891,4.112c0,0,0,0,0,0
			c-4.509,0-9.512-2.717-14.869-8.074L10.076,29.16c-4.271-4.271-6.878-8.344-7.748-12.105C1.334,12.754,2.572,8.942,6.114,5.4
			l2.537-2.537c0.554-0.554,1.291-0.859,2.075-0.859c0.476,0,0.949,0.118,1.371,0.341c3.294,1.743,7.256,8.454,7.29,8.511
			c0.449,0.787,0.62,1.608,0.457,2.196c-0.1,0.36-0.323,0.633-0.683,0.835l-0.151,0.104c-0.853,0.711-2.882,2.433-3.308,3.061
			c-0.612,0.904-1.018,1.793-1.23,2.666c-0.711-1.418-1.286-3.061-1.475-4.881c-0.057-0.548-0.546-0.931-1.098-0.892
			c-0.549,0.058-0.949,0.549-0.892,1.099c0.722,6.953,6.129,11.479,6.359,11.668c0.025,0.021,0.056,0.029,0.082,0.047l10.611,10.61
			c0.044,0.044,0.09,0.083,0.134,0.126c0.036,0.053,0.059,0.111,0.106,0.157c0.189,0.187,4.704,4.567,11.599,5.283
			c0.035,0.003,0.07,0.005,0.104,0.005c0.506,0,0.94-0.383,0.994-0.896c0.057-0.55-0.342-1.041-0.892-1.099
			c-2.112-0.219-3.983-0.838-5.543-1.556c0.762-0.231,1.538-0.614,2.328-1.149c0.628-0.425,2.35-2.455,3.061-3.308l0.104-0.151
			c0.281-0.5,0.712-0.744,1.317-0.744c0.52,0,1.129,0.185,1.705,0.512c1.879,1.102,7.072,4.559,8.521,7.296
			C52.202,42.989,51.994,44.374,51.078,45.29z"/>
	</g>
	<g>
		<polygon style="fill:#EDDCC7;" points="7.452,37.446 7.444,37.454 5.456,44.743 10.102,40.097 		"/>
		<path style="fill:#D75A4A;" d="M26.701,23.498l-1.247-1.247c-0.775-0.775-2.032-0.775-2.807,0l-3.582,3.582l2.651,2.651
			L26.701,23.498z"/>
		
			<rect x="12.709" y="24.753" transform="matrix(0.7071 0.7071 -0.7071 0.7071 27.5812 -0.6571)" style="fill:#F29C21;" width="3.749" height="16.424"/>
		<polygon style="fill:#D6C4B1;" points="13.101,43.111 13.108,43.103 10.102,40.097 5.456,44.743 5.323,45.232 		"/>
		<path style="fill:#A34740;" d="M24.722,31.489l3.582-3.582c0.775-0.775,0.775-2.032,0-2.807l-1.602-1.602l-4.985,4.985
			L24.722,31.489z"/>
		
			<rect x="15.287" y="27.581" transform="matrix(-0.7071 -0.7071 0.7071 -0.7071 4.4145 73.4147)" style="fill:#E18C25;" width="4.251" height="16.424"/>
		<path style="fill:#5E5E5E;" d="M4.616,46.939c-0.256,0-0.512-0.098-0.707-0.293c-0.391-0.391-0.391-1.023,0-1.414l2.207-2.207
			c0.391-0.391,1.023-0.391,1.414,0s0.391,1.023,0,1.414l-2.207,2.207C5.127,46.841,4.871,46.939,4.616,46.939z"/>
	</g>
</g>
<g>
</g>
<g>
</g>
<g>
</g>
<g>
</g>
<g>
</g>
<g>
</g>
<g>
</g>
<g>
</g>
<g>
</g>
<g>
</g>
<g>
</g>
<g>
</g>
<g>
</g>
<g>
</g>
<g>
</g>
</svg>
