<?xml version="1.0" encoding="iso-8859-1"?>
<!-- Generator: Adobe Illustrator 18.0.0, SVG Export Plug-In . SVG Version: 6.00 Build 0)  -->
<!DOCTYPE svg PUBLIC "-//W3C//DTD SVG 1.1//EN" "http://www.w3.org/Graphics/SVG/1.1/DTD/svg11.dtd">
<svg version="1.1" id="Capa_1" xmlns="http://www.w3.org/2000/svg" xmlns:xlink="http://www.w3.org/1999/xlink" x="0px" y="0px"
	 viewBox="0 0 55.5 55.5" style="enable-background:new 0 0 55.5 55.5;" xml:space="preserve">
<g>
	<g>
		<path style="fill:#69BC45;" d="M54.038,42.154c-1.898-3.587-8.899-7.69-8.899-7.69c-1.584-0.903-3.495-1.004-4.399,0.606
			c0,0-2.274,2.728-2.853,3.12c-2.643,1.791-5.091,1.722-7.562-0.75l-5.743-5.743l-5.743-5.743c-2.472-2.472-2.541-4.919-0.75-7.562
			c0.392-0.579,3.12-2.853,3.12-2.853c1.609-0.904,1.509-2.815,0.606-4.399c0,0-4.103-7.001-7.69-8.899
			c-1.526-0.808-3.4-0.526-4.621,0.695L6.965,5.471c-8.045,8.045-4.084,17.129,3.961,25.174l7.353,7.353l7.353,7.353
			c8.045,8.045,17.129,12.007,25.174,3.961l2.537-2.537C54.563,45.554,54.845,43.68,54.038,42.154z"/>
		<path style="fill:#449E46;" d="M54.921,41.687c-2.008-3.796-8.981-7.912-9.287-8.092c-0.896-0.51-1.831-0.78-2.706-0.78
			c-1.301,0-2.366,0.596-3.011,1.68c-1.02,1.22-2.286,2.646-2.592,2.867c-2.376,1.612-4.237,1.429-6.294-0.629L19.544,25.246
			c-2.044-2.045-2.232-3.928-0.632-6.29c0.224-0.31,1.65-1.575,2.871-2.597c0.778-0.463,1.312-1.15,1.545-1.995
			c0.312-1.122,0.082-2.444-0.652-3.731c-0.173-0.296-4.29-7.27-8.085-9.277c-0.708-0.375-1.506-0.573-2.306-0.573
			c-1.318,0-2.558,0.514-3.489,1.445L6.258,4.765c-4.014,4.013-5.467,8.562-4.321,13.52c0.956,4.132,3.742,8.529,8.282,13.068
			l14.705,14.705c5.746,5.746,11.224,8.66,16.282,8.66c0,0,0,0,0.001,0c3.72,0,7.188-1.581,10.305-4.698l2.537-2.537
			C55.59,45.942,55.941,43.613,54.921,41.687z M52.635,46.068l-2.537,2.537c-2.729,2.729-5.72,4.112-8.891,4.112c0,0,0,0,0,0
			c-4.509,0-9.512-2.717-14.869-8.074L11.633,29.938c-4.271-4.271-6.878-8.344-7.748-12.105c-0.995-4.3,0.244-8.112,3.786-11.654
			l2.537-2.537c0.554-0.554,1.291-0.859,2.075-0.859c0.476,0,0.949,0.118,1.371,0.341c3.294,1.743,7.256,8.454,7.29,8.511
			c0.449,0.787,0.62,1.608,0.457,2.196c-0.1,0.36-0.323,0.633-0.683,0.835l-0.151,0.104c-0.853,0.711-2.882,2.433-3.308,3.061
			c-0.612,0.904-1.018,1.793-1.23,2.666c-0.711-1.418-1.286-3.061-1.475-4.881c-0.057-0.548-0.546-0.931-1.098-0.892
			c-0.549,0.058-0.949,0.549-0.892,1.099c0.722,6.953,6.129,11.479,6.359,11.668c0.025,0.021,0.056,0.029,0.082,0.047l10.611,10.61
			c0.044,0.044,0.09,0.083,0.134,0.126c0.036,0.053,0.059,0.111,0.106,0.157c0.189,0.187,4.704,4.567,11.599,5.283
			c0.035,0.003,0.07,0.005,0.104,0.005c0.506,0,0.94-0.383,0.994-0.896c0.057-0.55-0.342-1.041-0.892-1.099
			c-2.112-0.219-3.983-0.838-5.543-1.556c0.762-0.231,1.538-0.614,2.328-1.149c0.628-0.425,2.35-2.455,3.061-3.308l0.104-0.151
			c0.281-0.5,0.712-0.744,1.317-0.744c0.52,0,1.129,0.185,1.705,0.512c1.879,1.102,7.072,4.559,8.521,7.296
			C53.76,43.768,53.551,45.152,52.635,46.068z"/>
	</g>
	<g>
		<g>
			<path style="fill:#48A0DC;" d="M22.545,37.829c-0.05-3.935-3.162-7.111-6.999-7.111c-2.568,0-4.806,1.426-6.025,3.546
				c-0.421-0.141-0.87-0.22-1.337-0.22c-2.063,0-3.785,1.492-4.208,3.484C2.221,38.393,1,40.234,1,42.359
				c0,2.947,2.343,5.359,5.208,5.359h10.775c0.061,0,0.119-0.007,0.18-0.009c0.06,0.002,0.119,0.009,0.18,0.009h4.31
				c2.667,0,4.849-2.245,4.849-4.989C26.5,40.299,24.788,38.263,22.545,37.829z"/>
			<path style="fill:#B1D3EF;" d="M21.651,48.718h-4.31c-0.063,0-0.126-0.004-0.188-0.008c-0.048,0.004-0.109,0.008-0.172,0.008
				H6.208C2.785,48.718,0,45.865,0,42.359c0-2.262,1.209-4.372,3.116-5.503c0.686-2.235,2.746-3.813,5.066-3.813
				c0.296,0,0.592,0.025,0.884,0.076c1.495-2.116,3.914-3.402,6.479-3.402c4.102,0,7.524,3.225,7.954,7.332
				c2.358,0.806,4,3.079,4,5.679C27.5,46.031,24.876,48.718,21.651,48.718z M17.114,46.709l0.186,0.006l4.352,0.003
				c2.122,0,3.849-1.79,3.849-3.989c0-1.917-1.323-3.564-3.146-3.919l-0.799-0.155l-0.011-0.813
				c-0.044-3.376-2.734-6.123-5.999-6.123c-2.135,0-4.063,1.139-5.158,3.045l-0.409,0.711l-0.777-0.261
				c-0.332-0.112-0.675-0.169-1.019-0.169c-1.54,0-2.898,1.133-3.229,2.692l-0.102,0.475l-0.435,0.214
				C2.948,39.149,2,40.693,2,42.359c0,2.403,1.888,4.358,4.208,4.358L17.114,46.709z"/>
		</g>
	</g>
</g>
<g>
</g>
<g>
</g>
<g>
</g>
<g>
</g>
<g>
</g>
<g>
</g>
<g>
</g>
<g>
</g>
<g>
</g>
<g>
</g>
<g>
</g>
<g>
</g>
<g>
</g>
<g>
</g>
<g>
</g>
</svg>
