<?xml version="1.0" encoding="iso-8859-1"?>
<!-- Generator: Adobe Illustrator 18.0.0, SVG Export Plug-In . SVG Version: 6.00 Build 0)  -->
<!DOCTYPE svg PUBLIC "-//W3C//DTD SVG 1.1//EN" "http://www.w3.org/Graphics/SVG/1.1/DTD/svg11.dtd">
<svg version="1.1" id="Capa_1" xmlns="http://www.w3.org/2000/svg" xmlns:xlink="http://www.w3.org/1999/xlink" x="0px" y="0px"
	 viewBox="0 0 53 53" style="enable-background:new 0 0 53 53;" xml:space="preserve">
<g>
	<path style="fill:#0096E6;" d="M37.658,5.324L37.658,5.324c-7.098-7.098-18.607-7.098-25.706,0h0
		C5.556,11.72,4.837,23.763,10.264,31l14.541,21l14.541-21C44.774,23.763,44.054,11.72,37.658,5.324z M24.982,24
		c-3.314,0-6-2.686-6-6s2.686-6,6-6s6,2.686,6,6S28.296,24,24.982,24z"/>
	<g>
		<circle style="fill:#76C9B0;" cx="35.372" cy="42" r="11"/>
		<path style="fill:#FFFFFF;" d="M41.372,41h-5v-5c0-0.552-0.447-1-1-1s-1,0.448-1,1v6c0,0.552,0.447,1,1,1h6c0.553,0,1-0.448,1-1
			S41.924,41,41.372,41z"/>
	</g>
</g>
<g>
</g>
<g>
</g>
<g>
</g>
<g>
</g>
<g>
</g>
<g>
</g>
<g>
</g>
<g>
</g>
<g>
</g>
<g>
</g>
<g>
</g>
<g>
</g>
<g>
</g>
<g>
</g>
<g>
</g>
</svg>
