<?xml version="1.0" encoding="iso-8859-1"?>
<!-- Generator: Adobe Illustrator 18.0.0, SVG Export Plug-In . SVG Version: 6.00 Build 0)  -->
<!DOCTYPE svg PUBLIC "-//W3C//DTD SVG 1.1//EN" "http://www.w3.org/Graphics/SVG/1.1/DTD/svg11.dtd">
<svg version="1.1" id="Capa_1" xmlns="http://www.w3.org/2000/svg" xmlns:xlink="http://www.w3.org/1999/xlink" x="0px" y="0px"
	 viewBox="0 0 53.707 53.707" style="enable-background:new 0 0 53.707 53.707;" xml:space="preserve">
<g>
	<path style="fill:#0096E6;" d="M37.748,5.324L37.748,5.324c-7.098-7.098-18.607-7.098-25.706,0h0
		C5.647,11.72,4.927,23.763,10.354,31l14.541,21l14.541-21C44.864,23.763,44.145,11.72,37.748,5.324z M25.072,24
		c-3.314,0-6-2.686-6-6s2.686-6,6-6s6,2.686,6,6S28.386,24,25.072,24z"/>
	<g>
		<polygon style="fill:#EDDCC7;" points="25.555,44.214 25.547,44.222 23.559,51.511 28.206,46.865 		"/>
		<path style="fill:#D75A4A;" d="M44.804,30.266l-1.247-1.247c-0.775-0.775-2.032-0.775-2.807,0l-3.582,3.582l2.651,2.651
			L44.804,30.266z"/>
		
			<rect x="30.813" y="31.521" transform="matrix(0.7071 0.7071 -0.7071 0.7071 37.6691 -11.4757)" style="fill:#F29C21;" width="3.749" height="16.424"/>
		<polygon style="fill:#D6C4B1;" points="31.204,49.879 31.212,49.871 28.206,46.865 23.559,51.511 23.426,52 		"/>
		<path style="fill:#A34740;" d="M42.825,38.257l3.582-3.582c0.775-0.775,0.775-2.032,0-2.807l-1.602-1.602l-4.985,4.985
			L42.825,38.257z"/>
		
			<rect x="33.39" y="34.349" transform="matrix(-0.7071 -0.7071 0.7071 -0.7071 30.5327 97.7696)" style="fill:#E18C25;" width="4.251" height="16.424"/>
		<path style="fill:#5E5E5E;" d="M22.719,53.707c-0.256,0-0.512-0.098-0.707-0.293c-0.391-0.391-0.391-1.023,0-1.414l2.207-2.207
			c0.391-0.391,1.023-0.391,1.414,0s0.391,1.023,0,1.414l-2.207,2.207C23.23,53.609,22.975,53.707,22.719,53.707z"/>
	</g>
</g>
<g>
</g>
<g>
</g>
<g>
</g>
<g>
</g>
<g>
</g>
<g>
</g>
<g>
</g>
<g>
</g>
<g>
</g>
<g>
</g>
<g>
</g>
<g>
</g>
<g>
</g>
<g>
</g>
<g>
</g>
</svg>
