<?xml version="1.0" encoding="iso-8859-1"?>
<!-- Generator: Adobe Illustrator 18.0.0, SVG Export Plug-In . SVG Version: 6.00 Build 0)  -->
<!DOCTYPE svg PUBLIC "-//W3C//DTD SVG 1.1//EN" "http://www.w3.org/Graphics/SVG/1.1/DTD/svg11.dtd">
<svg version="1.1" id="Capa_1" xmlns="http://www.w3.org/2000/svg" xmlns:xlink="http://www.w3.org/1999/xlink" x="0px" y="0px"
	 viewBox="0 0 53 53" style="enable-background:new 0 0 53 53;" xml:space="preserve">
<g>
	<path style="fill:#0096E6;" d="M37.53,5.324L37.53,5.324c-7.098-7.098-18.607-7.098-25.706,0h0C5.428,11.72,4.708,23.763,10.136,31
		l14.541,21l14.541-21C44.646,23.763,43.926,11.72,37.53,5.324z M24.854,24c-3.314,0-6-2.686-6-6s2.686-6,6-6s6,2.686,6,6
		S28.167,24,24.854,24z"/>
	<g>
		<rect x="24.5" y="31" style="fill:#556080;" width="22" height="22"/>
		<rect x="34.5" y="37" style="fill:#FFFFFF;" width="2" height="16"/>
		<polygon style="fill:#FFFFFF;" points="40.793,43.707 35.5,38.414 30.207,43.707 28.793,42.293 35.5,35.586 42.207,42.293 		"/>
	</g>
</g>
<g>
</g>
<g>
</g>
<g>
</g>
<g>
</g>
<g>
</g>
<g>
</g>
<g>
</g>
<g>
</g>
<g>
</g>
<g>
</g>
<g>
</g>
<g>
</g>
<g>
</g>
<g>
</g>
<g>
</g>
</svg>
