<?xml version="1.0" encoding="iso-8859-1"?>
<!-- Generator: Adobe Illustrator 18.0.0, SVG Export Plug-In . SVG Version: 6.00 Build 0)  -->
<!DOCTYPE svg PUBLIC "-//W3C//DTD SVG 1.1//EN" "http://www.w3.org/Graphics/SVG/1.1/DTD/svg11.dtd">
<svg version="1.1" id="Capa_1" xmlns="http://www.w3.org/2000/svg" xmlns:xlink="http://www.w3.org/1999/xlink" x="0px" y="0px"
	 viewBox="0 0 52 52" style="enable-background:new 0 0 52 52;" xml:space="preserve">
<g>
	<path style="fill:#0096E6;" d="M37.03,5.324L37.03,5.324c-7.098-7.098-18.607-7.098-25.706,0h0C4.928,11.72,4.208,23.763,9.636,31
		l14.541,21l14.541-21C44.146,23.763,43.426,11.72,37.03,5.324z M24.354,24c-3.314,0-6-2.686-6-6s2.686-6,6-6s6,2.686,6,6
		S27.667,24,24.354,24z"/>
	<g>
		<path style="fill:#F09372;" d="M34,35.2c0.969-2.183,3.109-4.2,5.684-4.2c3.467,0,5.964,2.821,6.278,6.183
			c0,0,0.17,0.835-0.203,2.337c-0.508,2.046-1.701,3.864-3.311,5.251L34,52l-8.447-7.229c-1.61-1.387-2.803-3.205-3.311-5.251
			c-0.373-1.502-0.203-2.337-0.203-2.337C22.352,33.821,24.849,31,28.316,31C30.891,31,33.031,33.017,34,35.2z"/>
	</g>
</g>
<g>
</g>
<g>
</g>
<g>
</g>
<g>
</g>
<g>
</g>
<g>
</g>
<g>
</g>
<g>
</g>
<g>
</g>
<g>
</g>
<g>
</g>
<g>
</g>
<g>
</g>
<g>
</g>
<g>
</g>
</svg>
