<?xml version="1.0" encoding="iso-8859-1"?>
<!-- Generator: Adobe Illustrator 18.0.0, SVG Export Plug-In . SVG Version: 6.00 Build 0)  -->
<!DOCTYPE svg PUBLIC "-//W3C//DTD SVG 1.1//EN" "http://www.w3.org/Graphics/SVG/1.1/DTD/svg11.dtd">
<svg version="1.1" id="Capa_1" xmlns="http://www.w3.org/2000/svg" xmlns:xlink="http://www.w3.org/1999/xlink" x="0px" y="0px"
	 viewBox="0 0 53 53" style="enable-background:new 0 0 53 53;" xml:space="preserve">
<g>
	<path style="fill:#0096E6;" d="M37.835,5.324L37.835,5.324c-7.098-7.098-18.607-7.098-25.706,0h0
		C5.733,11.72,5.013,23.763,10.441,31l14.541,21l14.541-21C44.951,23.763,44.231,11.72,37.835,5.324z M25.159,24
		c-3.314,0-6-2.686-6-6s2.686-6,6-6s6,2.686,6,6S28.473,24,25.159,24z"/>
	<g>
		<rect x="24.195" y="31" style="fill:#21AE5E;" width="22" height="22"/>
		<rect x="34.195" y="32.586" style="fill:#FFFFFF;" width="2" height="16"/>
		<polygon style="fill:#FFFFFF;" points="35.195,50 28.195,43.293 29.671,41.879 35.195,47.172 40.719,41.879 42.195,43.293 		"/>
	</g>
</g>
<g>
</g>
<g>
</g>
<g>
</g>
<g>
</g>
<g>
</g>
<g>
</g>
<g>
</g>
<g>
</g>
<g>
</g>
<g>
</g>
<g>
</g>
<g>
</g>
<g>
</g>
<g>
</g>
<g>
</g>
</svg>
