<?xml version="1.0" encoding="iso-8859-1"?>
<!-- Generator: Adobe Illustrator 18.0.0, SVG Export Plug-In . SVG Version: 6.00 Build 0)  -->
<!DOCTYPE svg PUBLIC "-//W3C//DTD SVG 1.1//EN" "http://www.w3.org/Graphics/SVG/1.1/DTD/svg11.dtd">
<svg version="1.1" id="Capa_1" xmlns="http://www.w3.org/2000/svg" xmlns:xlink="http://www.w3.org/1999/xlink" x="0px" y="0px"
	 viewBox="0 0 54 54" style="enable-background:new 0 0 54 54;" xml:space="preserve">
<g>
	<path style="fill:#0096E6;" d="M37.658,5.324L37.658,5.324c-7.098-7.098-18.607-7.098-25.706,0h0
		C5.556,11.72,4.837,23.763,10.264,31l14.541,21l14.541-21C44.774,23.763,44.054,11.72,37.658,5.324z M24.982,24
		c-3.314,0-6-2.686-6-6s2.686-6,6-6s6,2.686,6,6S28.296,24,24.982,24z"/>
	<g>
		<circle style="fill:#F3D55A;" cx="34.872" cy="41.5" r="12.5"/>
		<g>
			<path style="fill:#F29C21;" d="M44.565,42.019c-0.55-0.113-1.068,0.246-1.175,0.788C42.57,46.975,38.987,50,34.871,50
				c-3.351,0-6.347-2.006-7.789-5h5.289v-2h-6h-1h-1v8h2v-3.341c1.976,2.657,5.086,4.341,8.5,4.341
				c5.068,0,9.477-3.704,10.481-8.807C45.459,42.651,45.107,42.126,44.565,42.019z"/>
			<path style="fill:#F29C21;" d="M43.372,31.998v3.341c-1.976-2.657-5.086-4.341-8.5-4.341c-5.068,0-9.477,3.704-10.481,8.807
				c-0.106,0.542,0.246,1.068,0.788,1.174c0.55,0.113,1.068-0.246,1.175-0.788c0.82-4.168,4.402-7.193,8.519-7.193
				c3.351,0,6.347,2.006,7.789,5h-5.289v2h6h1h1v-8H43.372z"/>
		</g>
	</g>
</g>
<g>
</g>
<g>
</g>
<g>
</g>
<g>
</g>
<g>
</g>
<g>
</g>
<g>
</g>
<g>
</g>
<g>
</g>
<g>
</g>
<g>
</g>
<g>
</g>
<g>
</g>
<g>
</g>
<g>
</g>
</svg>
