<?xml version="1.0" encoding="iso-8859-1"?>
<!-- Generator: Adobe Illustrator 18.0.0, SVG Export Plug-In . SVG Version: 6.00 Build 0)  -->
<!DOCTYPE svg PUBLIC "-//W3C//DTD SVG 1.1//EN" "http://www.w3.org/Graphics/SVG/1.1/DTD/svg11.dtd">
<svg version="1.1" id="Capa_1" xmlns="http://www.w3.org/2000/svg" xmlns:xlink="http://www.w3.org/1999/xlink" x="0px" y="0px"
	 viewBox="0 0 54 54" style="enable-background:new 0 0 54 54;" xml:space="preserve">
<g>
	<path style="fill:#0096E6;" d="M39.835,5.324L39.835,5.324c-7.098-7.098-18.607-7.098-25.706,0h0
		C7.733,11.72,7.013,23.763,12.441,31l14.541,21l14.541-21C46.951,23.763,46.231,11.72,39.835,5.324z M27.159,24
		c-3.314,0-6-2.686-6-6s2.686-6,6-6s6,2.686,6,6S30.473,24,27.159,24z"/>
	<g>
		<path style="fill:#91BAE1;" d="M35.195,41h-2l0,0c-3.633-1.453-6-4.861-6-8.64V29h14v3.36C41.195,36.139,38.828,39.547,35.195,41
			L35.195,41z"/>
		<path style="fill:#91BAE1;" d="M33.195,41h2l0,0c3.633,1.453,6,4.861,6,8.64V53h-14v-3.36C27.195,45.861,29.562,42.453,33.195,41
			L33.195,41z"/>
		<g>
			<path style="fill:#556080;" d="M24.195,30h1h2h17c0.553,0,1-0.448,1-1s-0.447-1-1-1h-17h-2h-1c-0.553,0-1,0.448-1,1
				S23.642,30,24.195,30z"/>
			<path style="fill:#556080;" d="M44.194,51.998h-18c-0.003,0-0.006,0.002-0.01,0.002h-1.989c-0.553,0-1,0.448-1,1s0.447,1,1,1h3
				c0.003,0,0.006-0.002,0.01-0.002h16.989c0.553,0,1-0.448,1-1S44.747,51.998,44.194,51.998z"/>
		</g>
	</g>
</g>
<g>
</g>
<g>
</g>
<g>
</g>
<g>
</g>
<g>
</g>
<g>
</g>
<g>
</g>
<g>
</g>
<g>
</g>
<g>
</g>
<g>
</g>
<g>
</g>
<g>
</g>
<g>
</g>
<g>
</g>
</svg>
