<?xml version="1.0" encoding="iso-8859-1"?>
<!-- Generator: Adobe Illustrator 18.0.0, SVG Export Plug-In . SVG Version: 6.00 Build 0)  -->
<!DOCTYPE svg PUBLIC "-//W3C//DTD SVG 1.1//EN" "http://www.w3.org/Graphics/SVG/1.1/DTD/svg11.dtd">
<svg version="1.1" id="Capa_1" xmlns="http://www.w3.org/2000/svg" xmlns:xlink="http://www.w3.org/1999/xlink" x="0px" y="0px"
	 viewBox="0 0 53 53" style="enable-background:new 0 0 53 53;" xml:space="preserve">
<g>
	<path style="fill:#0096E6;" d="M34.853,5.324L34.853,5.324c-7.098-7.098-18.607-7.098-25.706,0h0
		C2.751,11.72,2.031,23.763,7.459,31L22,52l14.541-21C41.969,23.763,41.249,11.72,34.853,5.324z M22.177,24c-3.314,0-6-2.686-6-6
		s2.686-6,6-6s6,2.686,6,6S25.491,24,22.177,24z"/>
	<g>
		<circle style="fill:#71C386;" cx="37.177" cy="41" r="12"/>
		<path style="fill:#FFFFFF;" d="M43.177,40h-5v-5c0-0.552-0.448-1-1-1s-1,0.448-1,1v5h-5c-0.552,0-1,0.448-1,1s0.448,1,1,1h5v5
			c0,0.552,0.448,1,1,1s1-0.448,1-1v-5h5c0.552,0,1-0.448,1-1S43.729,40,43.177,40z"/>
	</g>
</g>
<g>
</g>
<g>
</g>
<g>
</g>
<g>
</g>
<g>
</g>
<g>
</g>
<g>
</g>
<g>
</g>
<g>
</g>
<g>
</g>
<g>
</g>
<g>
</g>
<g>
</g>
<g>
</g>
<g>
</g>
</svg>
