<?xml version="1.0" encoding="iso-8859-1"?>
<!-- Generator: Adobe Illustrator 18.0.0, SVG Export Plug-In . SVG Version: 6.00 Build 0)  -->
<!DOCTYPE svg PUBLIC "-//W3C//DTD SVG 1.1//EN" "http://www.w3.org/Graphics/SVG/1.1/DTD/svg11.dtd">
<svg version="1.1" id="Capa_1" xmlns="http://www.w3.org/2000/svg" xmlns:xlink="http://www.w3.org/1999/xlink" x="0px" y="0px"
	 viewBox="0 0 54 54" style="enable-background:new 0 0 54 54;" xml:space="preserve">
<g>
	<path style="fill:#0096E6;" d="M36.158,5.324L36.158,5.324c-7.098-7.098-18.607-7.098-25.706,0h0
		C4.056,11.72,3.337,23.763,8.764,31l14.541,21l14.541-21C43.274,23.763,42.554,11.72,36.158,5.324z M23.482,24
		c-3.314,0-6-2.686-6-6s2.686-6,6-6s6,2.686,6,6S26.796,24,23.482,24z"/>
	<g>
		<circle style="fill:#26B999;" cx="36.372" cy="41.5" r="12.5"/>
		<path style="fill:#D0E8F9;" d="M36.372,31c-4.718,0-8.88,3.182-10.121,7.737c-0.146,0.533,0.169,1.083,0.702,1.228
			c0.528,0.143,1.082-0.168,1.228-0.702C29.185,35.575,32.553,33,36.372,33c4.687,0,8.5,3.813,8.5,8.5s-3.813,8.5-8.5,8.5
			c-3.365,0-6.378-2.001-7.734-5h5.234v-2h-6h-1h-1v8h2v-3.341l0,0v-0.023C29.805,50.31,32.938,52,36.372,52
			c5.79,0,10.5-4.71,10.5-10.5S42.162,31,36.372,31z"/>
	</g>
</g>
<g>
</g>
<g>
</g>
<g>
</g>
<g>
</g>
<g>
</g>
<g>
</g>
<g>
</g>
<g>
</g>
<g>
</g>
<g>
</g>
<g>
</g>
<g>
</g>
<g>
</g>
<g>
</g>
<g>
</g>
</svg>
