<?xml version="1.0" encoding="iso-8859-1"?>
<!-- Generator: Adobe Illustrator 18.0.0, SVG Export Plug-In . SVG Version: 6.00 Build 0)  -->
<!DOCTYPE svg PUBLIC "-//W3C//DTD SVG 1.1//EN" "http://www.w3.org/Graphics/SVG/1.1/DTD/svg11.dtd">
<svg version="1.1" id="Capa_1" xmlns="http://www.w3.org/2000/svg" xmlns:xlink="http://www.w3.org/1999/xlink" x="0px" y="0px"
	 viewBox="0 0 53 53" style="enable-background:new 0 0 53 53;" xml:space="preserve">
<g>
	<path style="fill:#0096E6;" d="M34.03,5.324L34.03,5.324c-7.098-7.098-18.607-7.098-25.706,0h0C1.928,11.72,1.208,23.763,6.636,31
		l14.541,21l14.541-21C41.146,23.763,40.426,11.72,34.03,5.324z M21.354,24c-3.314,0-6-2.686-6-6s2.686-6,6-6s6,2.686,6,6
		S24.667,24,21.354,24z"/>
	<g>
		<circle style="fill:#F29C21;" cx="38" cy="41" r="12"/>
		<path style="fill:#FFFFFF;" d="M44,42H32c-0.552,0-1-0.448-1-1s0.448-1,1-1h12c0.552,0,1,0.448,1,1S44.552,42,44,42z"/>
	</g>
</g>
<g>
</g>
<g>
</g>
<g>
</g>
<g>
</g>
<g>
</g>
<g>
</g>
<g>
</g>
<g>
</g>
<g>
</g>
<g>
</g>
<g>
</g>
<g>
</g>
<g>
</g>
<g>
</g>
<g>
</g>
</svg>
