<?xml version="1.0" encoding="iso-8859-1"?>
<!-- Generator: Adobe Illustrator 18.0.0, SVG Export Plug-In . SVG Version: 6.00 Build 0)  -->
<!DOCTYPE svg PUBLIC "-//W3C//DTD SVG 1.1//EN" "http://www.w3.org/Graphics/SVG/1.1/DTD/svg11.dtd">
<svg version="1.1" id="Capa_1" xmlns="http://www.w3.org/2000/svg" xmlns:xlink="http://www.w3.org/1999/xlink" x="0px" y="0px"
	 viewBox="0 0 52 52" style="enable-background:new 0 0 52 52;" xml:space="preserve">
<g>
	<path style="fill:#0096E6;" d="M36.835,5.324L36.835,5.324c-7.098-7.098-18.607-7.098-25.706,0h0
		C4.733,11.72,4.013,23.763,9.441,31l14.541,21l14.541-21C43.951,23.763,43.231,11.72,36.835,5.324z M24.159,24
		c-3.314,0-6-2.686-6-6s2.686-6,6-6s6,2.686,6,6S27.473,24,24.159,24z"/>
	<g>
		<path style="fill:#3D324C;" d="M45.902,50.293l-6.797-6.797l6.483-3.241l-17.637-6.498l6.499,17.637l3.241-6.484l6.797,6.797
			C44.683,51.902,44.939,52,45.195,52s0.512-0.098,0.707-0.293C46.293,51.316,46.293,50.684,45.902,50.293z"/>
	</g>
</g>
<g>
</g>
<g>
</g>
<g>
</g>
<g>
</g>
<g>
</g>
<g>
</g>
<g>
</g>
<g>
</g>
<g>
</g>
<g>
</g>
<g>
</g>
<g>
</g>
<g>
</g>
<g>
</g>
<g>
</g>
</svg>
