<?xml version="1.0" encoding="iso-8859-1"?>
<!-- Generator: Adobe Illustrator 18.0.0, SVG Export Plug-In . SVG Version: 6.00 Build 0)  -->
<!DOCTYPE svg PUBLIC "-//W3C//DTD SVG 1.1//EN" "http://www.w3.org/Graphics/SVG/1.1/DTD/svg11.dtd">
<svg version="1.1" id="Capa_1" xmlns="http://www.w3.org/2000/svg" xmlns:xlink="http://www.w3.org/1999/xlink" x="0px" y="0px"
	 viewBox="0 0 53 53" style="enable-background:new 0 0 53 53;" xml:space="preserve">
<g>
	<path style="fill:#0096E6;" d="M36.835,5.324L36.835,5.324c-7.098-7.098-18.607-7.098-25.706,0h0
		C4.733,11.72,4.013,23.763,9.441,31l14.541,21l14.541-21C43.951,23.763,43.231,11.72,36.835,5.324z M24.159,24
		c-3.314,0-6-2.686-6-6s2.686-6,6-6s6,2.686,6,6S27.473,24,24.159,24z"/>
	<g>
		<g>
			<path style="fill:#91BAE1;" d="M42.239,42.111C42.189,38.175,39.077,35,35.241,35c-2.568,0-4.806,1.426-6.025,3.546
				c-0.421-0.141-0.87-0.22-1.337-0.22c-2.063,0-3.785,1.492-4.208,3.484c-1.754,0.865-2.975,2.706-2.975,4.831
				c0,2.947,2.343,5.359,5.208,5.359h10.775c0.061,0,0.119-0.007,0.18-0.009c0.06,0.002,0.119,0.009,0.18,0.009h4.31
				c2.667,0,4.849-2.245,4.849-4.989C46.195,44.581,44.483,42.546,42.239,42.111z"/>
			<path style="fill:#8697CB;" d="M41.346,53h-4.31c-0.063,0-0.126-0.004-0.188-0.008C36.801,52.996,36.74,53,36.677,53H25.903
				c-3.423,0-6.208-2.853-6.208-6.358c0-2.262,1.209-4.372,3.116-5.503c0.686-2.235,2.746-3.813,5.066-3.813
				c0.296,0,0.592,0.025,0.884,0.076C30.256,35.286,32.675,34,35.241,34c4.102,0,7.524,3.225,7.954,7.332
				c2.358,0.806,4,3.079,4,5.679C47.195,50.314,44.571,53,41.346,53z M36.809,50.991l0.186,0.006L41.346,51
				c2.122,0,3.849-1.79,3.849-3.989c0-1.917-1.323-3.564-3.146-3.919l-0.799-0.155l-0.011-0.813C41.196,38.747,38.505,36,35.241,36
				c-2.135,0-4.063,1.139-5.158,3.045l-0.409,0.711l-0.777-0.261c-0.332-0.112-0.675-0.169-1.019-0.169
				c-1.54,0-2.898,1.133-3.229,2.692l-0.102,0.475l-0.435,0.214c-1.469,0.725-2.417,2.269-2.417,3.935
				c0,2.403,1.888,4.358,4.208,4.358L36.809,50.991z"/>
		</g>
	</g>
</g>
<g>
</g>
<g>
</g>
<g>
</g>
<g>
</g>
<g>
</g>
<g>
</g>
<g>
</g>
<g>
</g>
<g>
</g>
<g>
</g>
<g>
</g>
<g>
</g>
<g>
</g>
<g>
</g>
<g>
</g>
</svg>
