<?xml version="1.0" encoding="iso-8859-1"?>
<!-- Generator: Adobe Illustrator 18.0.0, SVG Export Plug-In . SVG Version: 6.00 Build 0)  -->
<!DOCTYPE svg PUBLIC "-//W3C//DTD SVG 1.1//EN" "http://www.w3.org/Graphics/SVG/1.1/DTD/svg11.dtd">
<svg version="1.1" id="Capa_1" xmlns="http://www.w3.org/2000/svg" xmlns:xlink="http://www.w3.org/1999/xlink" x="0px" y="0px"
	 viewBox="0 0 53 53" style="enable-background:new 0 0 53 53;" xml:space="preserve">
<g>
	<path style="fill:#0096E6;" d="M36.53,5.324L36.53,5.324c-7.098-7.098-18.607-7.098-25.706,0h0C4.428,11.72,3.708,23.763,9.136,31
		l14.541,21l14.541-21C43.646,23.763,42.926,11.72,36.53,5.324z M23.854,24c-3.314,0-6-2.686-6-6s2.686-6,6-6s6,2.686,6,6
		S27.167,24,23.854,24z"/>
	<g>
		<path style="fill:#EFC41A;" d="M46.261,53H22.57c-0.955,0-1.55-1.036-1.069-1.861l11.845-20.306c0.478-0.819,1.66-0.819,2.138,0
			L47.33,51.139C47.811,51.964,47.216,53,46.261,53z"/>
		<path style="fill:#FFFFFF;" d="M34.5,46c-0.552,0-1-0.448-1-1v-8c0-0.552,0.448-1,1-1s1,0.448,1,1v8
			C35.5,45.552,35.052,46,34.5,46z"/>
		<path style="fill:#FFFFFF;" d="M34.5,50c-0.26,0-0.52-0.11-0.71-0.29c-0.18-0.19-0.29-0.45-0.29-0.71c0-0.26,0.11-0.52,0.29-0.71
			c0.38-0.37,1.04-0.37,1.42,0c0.18,0.19,0.29,0.45,0.29,0.71c0,0.26-0.11,0.52-0.29,0.71C35.02,49.89,34.77,50,34.5,50z"/>
	</g>
</g>
<g>
</g>
<g>
</g>
<g>
</g>
<g>
</g>
<g>
</g>
<g>
</g>
<g>
</g>
<g>
</g>
<g>
</g>
<g>
</g>
<g>
</g>
<g>
</g>
<g>
</g>
<g>
</g>
<g>
</g>
</svg>
