<?xml version="1.0" encoding="iso-8859-1"?>
<!-- Generator: Adobe Illustrator 18.0.0, SVG Export Plug-In . SVG Version: 6.00 Build 0)  -->
<!DOCTYPE svg PUBLIC "-//W3C//DTD SVG 1.1//EN" "http://www.w3.org/Graphics/SVG/1.1/DTD/svg11.dtd">
<svg version="1.1" id="Capa_1" xmlns="http://www.w3.org/2000/svg" xmlns:xlink="http://www.w3.org/1999/xlink" x="0px" y="0px"
	 viewBox="0 0 54 54" style="enable-background:new 0 0 54 54;" xml:space="preserve">
<g>
	<path style="fill:#0096E6;" d="M37.158,5.324L37.158,5.324c-7.098-7.098-18.607-7.098-25.706,0h0
		C5.056,11.72,4.337,23.763,9.764,31l14.541,21l14.541-21C44.274,23.763,43.554,11.72,37.158,5.324z M24.482,24
		c-3.314,0-6-2.686-6-6s2.686-6,6-6s6,2.686,6,6S27.796,24,24.482,24z"/>
	<g>
		<path style="fill:#FFFFFF;" d="M46.677,44.679l-0.107,0.163c-7.121,10.876-18.773,10.876-25.893,0l0,0l0.107-0.163
			C27.904,33.803,39.556,33.803,46.677,44.679L46.677,44.679z"/>
		<circle style="fill:#556080;" cx="33.441" cy="42.397" r="5.909"/>
		<path style="fill:#8697CB;" d="M33.624,54c-5.254,0-10.148-3.058-13.783-8.609l-0.358-0.547l0.465-0.711
			c3.635-5.552,8.53-8.609,13.784-8.609c5.253,0,10.148,3.057,13.783,8.609l0.358,0.547l-0.465,0.711
			C43.772,50.942,38.877,54,33.624,54z M21.88,44.839C25.086,49.463,29.236,52,33.624,52c4.436,0,8.63-2.594,11.85-7.317
			c-3.206-4.624-7.356-7.161-11.743-7.161C29.294,37.523,25.1,40.116,21.88,44.839z"/>
	</g>
</g>
<g>
</g>
<g>
</g>
<g>
</g>
<g>
</g>
<g>
</g>
<g>
</g>
<g>
</g>
<g>
</g>
<g>
</g>
<g>
</g>
<g>
</g>
<g>
</g>
<g>
</g>
<g>
</g>
<g>
</g>
</svg>
