<?xml version="1.0" encoding="iso-8859-1"?>
<!-- Generator: Adobe Illustrator 18.0.0, SVG Export Plug-In . SVG Version: 6.00 Build 0)  -->
<!DOCTYPE svg PUBLIC "-//W3C//DTD SVG 1.1//EN" "http://www.w3.org/Graphics/SVG/1.1/DTD/svg11.dtd">
<svg version="1.1" id="Capa_1" xmlns="http://www.w3.org/2000/svg" xmlns:xlink="http://www.w3.org/1999/xlink" x="0px" y="0px"
	 viewBox="0 0 54.478 54.478" style="enable-background:new 0 0 54.478 54.478;" xml:space="preserve">
<g>
	<g>
		<path style="fill:#E7D4B1;" d="M43.71,0H30.533L6.086,24.367l23.734,23.785l24.418-24.338V10.504L43.71,0z M42.254,14.87
			c-1.621,0-2.935-1.314-2.935-2.935S40.633,9,42.254,9c1.621,0,2.935,1.314,2.935,2.935S43.875,14.87,42.254,14.87z"/>
		<polygon style="fill:#D3C2A4;" points="6.115,24.354 0.239,30.215 23.973,54 29.875,48.113 		"/>
		<path style="fill:#CBB292;" d="M42.254,9c1.621,0,2.935,1.314,2.935,2.935s-1.314,2.935-2.935,2.935
			c-1.621,0-2.935-1.314-2.935-2.935S40.633,9,42.254,9 M42.254,5c-3.824,0-6.935,3.111-6.935,6.935s3.111,6.935,6.935,6.935
			c3.824,0,6.935-3.111,6.935-6.935S46.078,5,42.254,5L42.254,5z"/>
	</g>
	<g>
		<path style="fill:#FFFFFF;" d="M46.434,45.157l-0.107,0.163c-7.121,10.876-18.773,10.876-25.893,0l0,0l0.107-0.163
			C27.661,34.281,39.313,34.281,46.434,45.157L46.434,45.157z"/>
		<circle style="fill:#556080;" cx="33.197" cy="42.875" r="5.909"/>
		<path style="fill:#B1D3EF;" d="M33.38,54.478c-5.254,0-10.148-3.058-13.783-8.609l-0.358-0.547l0.465-0.711
			C23.339,39.057,28.233,36,33.487,36c5.253,0,10.148,3.057,13.783,8.609l0.358,0.547l-0.465,0.711
			C43.528,51.42,38.634,54.478,33.38,54.478z M21.637,45.316c3.206,4.624,7.356,7.161,11.744,7.161c4.436,0,8.63-2.594,11.85-7.317
			C42.024,40.537,37.874,38,33.487,38C29.051,38,24.857,40.594,21.637,45.316z"/>
	</g>
</g>
<g>
</g>
<g>
</g>
<g>
</g>
<g>
</g>
<g>
</g>
<g>
</g>
<g>
</g>
<g>
</g>
<g>
</g>
<g>
</g>
<g>
</g>
<g>
</g>
<g>
</g>
<g>
</g>
<g>
</g>
</svg>
