<?xml version="1.0" encoding="iso-8859-1"?>
<!-- Generator: Adobe Illustrator 18.0.0, SVG Export Plug-In . SVG Version: 6.00 Build 0)  -->
<!DOCTYPE svg PUBLIC "-//W3C//DTD SVG 1.1//EN" "http://www.w3.org/Graphics/SVG/1.1/DTD/svg11.dtd">
<svg version="1.1" id="Capa_1" xmlns="http://www.w3.org/2000/svg" xmlns:xlink="http://www.w3.org/1999/xlink" x="0px" y="0px"
	 viewBox="0 0 56 56" style="enable-background:new 0 0 56 56;" xml:space="preserve">
<g>
	<path style="fill:#E7D4B1;" d="M44.472,0H31.294L6.848,24.367l23.734,23.785L55,23.814V10.504L44.472,0z M43.015,14.87
		c-1.621,0-2.935-1.314-2.935-2.935S41.394,9,43.015,9c1.621,0,2.935,1.314,2.935,2.935S44.636,14.87,43.015,14.87z"/>
	<polygon style="fill:#D3C2A4;" points="6.877,24.354 1,30.215 24.734,54 30.637,48.113 	"/>
	<path style="fill:#CBB292;" d="M43.015,9c1.621,0,2.935,1.314,2.935,2.935s-1.314,2.935-2.935,2.935
		c-1.621,0-2.935-1.314-2.935-2.935S41.394,9,43.015,9 M43.015,5c-3.824,0-6.935,3.111-6.935,6.935s3.111,6.935,6.935,6.935
		c3.824,0,6.935-3.111,6.935-6.935S46.839,5,43.015,5L43.015,5z"/>
	<g>
		<circle style="fill:#71C386;" cx="37" cy="44" r="12"/>
		<path style="fill:#FFFFFF;" d="M43,43h-5v-5c0-0.552-0.448-1-1-1s-1,0.448-1,1v5h-5c-0.552,0-1,0.448-1,1s0.448,1,1,1h5v5
			c0,0.552,0.448,1,1,1s1-0.448,1-1v-5h5c0.552,0,1-0.448,1-1S43.552,43,43,43z"/>
	</g>
</g>
<g>
</g>
<g>
</g>
<g>
</g>
<g>
</g>
<g>
</g>
<g>
</g>
<g>
</g>
<g>
</g>
<g>
</g>
<g>
</g>
<g>
</g>
<g>
</g>
<g>
</g>
<g>
</g>
<g>
</g>
</svg>
