<?xml version="1.0" encoding="iso-8859-1"?>
<!-- Generator: Adobe Illustrator 18.0.0, SVG Export Plug-In . SVG Version: 6.00 Build 0)  -->
<!DOCTYPE svg PUBLIC "-//W3C//DTD SVG 1.1//EN" "http://www.w3.org/Graphics/SVG/1.1/DTD/svg11.dtd">
<svg version="1.1" id="Capa_1" xmlns="http://www.w3.org/2000/svg" xmlns:xlink="http://www.w3.org/1999/xlink" x="0px" y="0px"
	 viewBox="0 0 54.981 54.981" style="enable-background:new 0 0 54.981 54.981;" xml:space="preserve">
<g>
	<g>
		<path style="fill:#E7D4B1;" d="M43.962,0H30.785L6.338,24.367l23.734,23.785l24.418-24.338V10.504L43.962,0z M42.506,14.87
			c-1.621,0-2.935-1.314-2.935-2.935S40.885,9,42.506,9c1.621,0,2.935,1.314,2.935,2.935S44.127,14.87,42.506,14.87z"/>
		<polygon style="fill:#D3C2A4;" points="6.367,24.354 0.491,30.215 24.225,54 30.127,48.113 		"/>
		<path style="fill:#CBB292;" d="M42.506,9c1.621,0,2.935,1.314,2.935,2.935s-1.314,2.935-2.935,2.935
			c-1.621,0-2.935-1.314-2.935-2.935S40.885,9,42.506,9 M42.506,5c-3.824,0-6.935,3.111-6.935,6.935s3.111,6.935,6.935,6.935
			c3.824,0,6.935-3.111,6.935-6.935S46.33,5,42.506,5L42.506,5z"/>
	</g>
	<g>
		<polygon style="fill:#EDDCC7;" points="27.327,45.489 27.319,45.496 25.331,52.786 29.977,48.139 		"/>
		<path style="fill:#D75A4A;" d="M46.576,31.54l-1.247-1.247c-0.775-0.775-2.032-0.775-2.807,0l-3.582,3.582l2.651,2.651
			L46.576,31.54z"/>
		
			<rect x="32.585" y="32.795" transform="matrix(0.7071 0.7071 -0.7071 0.7071 39.0892 -12.3555)" style="fill:#F29C21;" width="3.749" height="16.424"/>
		<polygon style="fill:#D6C4B1;" points="32.976,51.153 32.984,51.145 29.977,48.139 25.331,52.786 25.198,53.274 		"/>
		<path style="fill:#A34740;" d="M44.597,39.532l3.582-3.582c0.775-0.775,0.775-2.032,0-2.807l-1.602-1.602l-4.985,4.985
			L44.597,39.532z"/>
		
			<rect x="35.162" y="35.623" transform="matrix(-0.7071 -0.7071 0.7071 -0.7071 32.6566 101.1979)" style="fill:#E18C25;" width="4.251" height="16.424"/>
		<path style="fill:#5E5E5E;" d="M24.491,54.981c-0.256,0-0.512-0.098-0.707-0.293c-0.391-0.391-0.391-1.023,0-1.414l2.207-2.207
			c0.391-0.391,1.023-0.391,1.414,0s0.391,1.023,0,1.414l-2.207,2.207C25.002,54.884,24.747,54.981,24.491,54.981z"/>
	</g>
</g>
<g>
</g>
<g>
</g>
<g>
</g>
<g>
</g>
<g>
</g>
<g>
</g>
<g>
</g>
<g>
</g>
<g>
</g>
<g>
</g>
<g>
</g>
<g>
</g>
<g>
</g>
<g>
</g>
<g>
</g>
</svg>
