<?xml version="1.0" encoding="iso-8859-1"?>
<!-- Generator: Adobe Illustrator 18.0.0, SVG Export Plug-In . SVG Version: 6.00 Build 0)  -->
<!DOCTYPE svg PUBLIC "-//W3C//DTD SVG 1.1//EN" "http://www.w3.org/Graphics/SVG/1.1/DTD/svg11.dtd">
<svg version="1.1" id="Capa_1" xmlns="http://www.w3.org/2000/svg" xmlns:xlink="http://www.w3.org/1999/xlink" x="0px" y="0px"
	 viewBox="0 0 55.981 55.981" style="enable-background:new 0 0 55.981 55.981;" xml:space="preserve">
<g>
	<g>
		<path style="fill:#E7D4B1;" d="M44.462,0H31.285L6.838,24.367l23.734,23.785l24.418-24.338V10.504L44.462,0z M43.006,14.87
			c-1.621,0-2.935-1.314-2.935-2.935S41.385,9,43.006,9c1.621,0,2.935,1.314,2.935,2.935S44.627,14.87,43.006,14.87z"/>
		<polygon style="fill:#D3C2A4;" points="6.867,24.354 0.991,30.215 24.725,54 30.627,48.113 		"/>
		<path style="fill:#CBB292;" d="M43.006,9c1.621,0,2.935,1.314,2.935,2.935s-1.314,2.935-2.935,2.935
			c-1.621,0-2.935-1.314-2.935-2.935S41.385,9,43.006,9 M43.006,5c-3.824,0-6.935,3.111-6.935,6.935s3.111,6.935,6.935,6.935
			c3.824,0,6.935-3.111,6.935-6.935S46.83,5,43.006,5L43.006,5z"/>
	</g>
	<g>
		<circle style="fill:#D0E8F9;" cx="33.768" cy="40.796" r="9.796"/>
		<path style="fill:#EAF6FD;" d="M37.321,31.674L24.647,44.348c0.706,1.81,1.93,3.357,3.495,4.459L41.78,35.17
			C40.678,33.604,39.131,32.38,37.321,31.674z"/>
		<path style="fill:#B1D3EF;" d="M47.713,54.291l-5.97-6.244c1.746-1.919,2.82-4.458,2.82-7.251C44.564,34.843,39.721,30,33.768,30
			s-10.796,4.843-10.796,10.796s4.843,10.796,10.796,10.796c2.442,0,4.689-0.824,6.499-2.196l6.001,6.276
			c0.196,0.206,0.459,0.309,0.723,0.309c0.249,0,0.497-0.092,0.691-0.277C48.081,55.323,48.095,54.689,47.713,54.291z
			 M24.972,40.796c0-4.85,3.946-8.796,8.796-8.796s8.796,3.946,8.796,8.796s-3.946,8.796-8.796,8.796S24.972,45.646,24.972,40.796z"
			/>
	</g>
</g>
<g>
</g>
<g>
</g>
<g>
</g>
<g>
</g>
<g>
</g>
<g>
</g>
<g>
</g>
<g>
</g>
<g>
</g>
<g>
</g>
<g>
</g>
<g>
</g>
<g>
</g>
<g>
</g>
<g>
</g>
</svg>
