<?xml version="1.0" encoding="iso-8859-1"?>
<!-- Generator: Adobe Illustrator 18.0.0, SVG Export Plug-In . SVG Version: 6.00 Build 0)  -->
<!DOCTYPE svg PUBLIC "-//W3C//DTD SVG 1.1//EN" "http://www.w3.org/Graphics/SVG/1.1/DTD/svg11.dtd">
<svg version="1.1" id="Capa_1" xmlns="http://www.w3.org/2000/svg" xmlns:xlink="http://www.w3.org/1999/xlink" x="0px" y="0px"
	 viewBox="0 0 55 55" style="enable-background:new 0 0 55 55;" xml:space="preserve">
<g>
	<g>
		<path style="fill:#E7D4B1;" d="M43.972,0H30.794L6.348,24.367l23.734,23.785L54.5,23.814V10.504L43.972,0z M42.515,14.87
			c-1.621,0-2.935-1.314-2.935-2.935S40.894,9,42.515,9c1.621,0,2.935,1.314,2.935,2.935S44.136,14.87,42.515,14.87z"/>
		<polygon style="fill:#D3C2A4;" points="6.377,24.354 0.5,30.215 24.234,54 30.137,48.113 		"/>
		<path style="fill:#CBB292;" d="M42.515,9c1.621,0,2.935,1.314,2.935,2.935s-1.314,2.935-2.935,2.935
			c-1.621,0-2.935-1.314-2.935-2.935S40.894,9,42.515,9 M42.515,5c-3.824,0-6.935,3.111-6.935,6.935s3.111,6.935,6.935,6.935
			c3.824,0,6.935-3.111,6.935-6.935S46.339,5,42.515,5L42.515,5z"/>
	</g>
	<g>
		<path style="fill:#D0E8F9;" d="M38.5,42h-2l0,0c-3.633-1.453-6-4.861-6-8.64V30h14v3.36C44.5,37.139,42.133,40.547,38.5,42
			L38.5,42z"/>
		<path style="fill:#D0E8F9;" d="M36.5,42h2l0,0c3.633,1.453,6,4.861,6,8.64V54h-14v-3.36C30.5,46.861,32.867,43.453,36.5,42
			L36.5,42z"/>
		<g>
			<path style="fill:#556080;" d="M27.5,31h1h2h17c0.553,0,1-0.448,1-1s-0.447-1-1-1h-17h-2h-1c-0.553,0-1,0.448-1,1
				S26.947,31,27.5,31z"/>
			<path style="fill:#556080;" d="M47.499,52.998h-18c-0.003,0-0.006,0.002-0.01,0.002H27.5c-0.553,0-1,0.448-1,1s0.447,1,1,1h3
				c0.003,0,0.006-0.002,0.01-0.002h16.989c0.553,0,1-0.448,1-1S48.052,52.998,47.499,52.998z"/>
		</g>
	</g>
</g>
<g>
</g>
<g>
</g>
<g>
</g>
<g>
</g>
<g>
</g>
<g>
</g>
<g>
</g>
<g>
</g>
<g>
</g>
<g>
</g>
<g>
</g>
<g>
</g>
<g>
</g>
<g>
</g>
<g>
</g>
</svg>
