<?xml version="1.0" encoding="iso-8859-1"?>
<!-- Generator: Adobe Illustrator 18.0.0, SVG Export Plug-In . SVG Version: 6.00 Build 0)  -->
<!DOCTYPE svg PUBLIC "-//W3C//DTD SVG 1.1//EN" "http://www.w3.org/Graphics/SVG/1.1/DTD/svg11.dtd">
<svg version="1.1" id="Capa_1" xmlns="http://www.w3.org/2000/svg" xmlns:xlink="http://www.w3.org/1999/xlink" x="0px" y="0px"
	 viewBox="0 0 54 54" style="enable-background:new 0 0 54 54;" xml:space="preserve">
<g>
	<g>
		<path style="fill:#E7D4B1;" d="M43.472,0H30.294L5.848,24.367l23.734,23.785L54,23.814V10.504L43.472,0z M42.015,14.87
			c-1.621,0-2.935-1.314-2.935-2.935S40.394,9,42.015,9c1.621,0,2.935,1.314,2.935,2.935S43.636,14.87,42.015,14.87z"/>
		<polygon style="fill:#D3C2A4;" points="5.877,24.354 0,30.215 23.734,54 29.637,48.113 		"/>
		<path style="fill:#CBB292;" d="M42.015,9c1.621,0,2.935,1.314,2.935,2.935s-1.314,2.935-2.935,2.935
			c-1.621,0-2.935-1.314-2.935-2.935S40.394,9,42.015,9 M42.015,5c-3.824,0-6.935,3.111-6.935,6.935s3.111,6.935,6.935,6.935
			c3.824,0,6.935-3.111,6.935-6.935S45.839,5,42.015,5L42.015,5z"/>
	</g>
	<g>
		<path style="fill:#3D324C;" d="M45.707,52.293l-6.797-6.797l6.483-3.241l-17.637-6.498l6.499,17.637l3.241-6.484l6.797,6.797
			C44.488,53.902,44.744,54,45,54s0.512-0.098,0.707-0.293C46.098,53.316,46.098,52.684,45.707,52.293z"/>
	</g>
</g>
<g>
</g>
<g>
</g>
<g>
</g>
<g>
</g>
<g>
</g>
<g>
</g>
<g>
</g>
<g>
</g>
<g>
</g>
<g>
</g>
<g>
</g>
<g>
</g>
<g>
</g>
<g>
</g>
<g>
</g>
</svg>
