<?xml version="1.0" encoding="iso-8859-1"?>
<!-- Generator: Adobe Illustrator 18.0.0, SVG Export Plug-In . SVG Version: 6.00 Build 0)  -->
<!DOCTYPE svg PUBLIC "-//W3C//DTD SVG 1.1//EN" "http://www.w3.org/Graphics/SVG/1.1/DTD/svg11.dtd">
<svg version="1.1" id="Capa_1" xmlns="http://www.w3.org/2000/svg" xmlns:xlink="http://www.w3.org/1999/xlink" x="0px" y="0px"
	 viewBox="0 0 56 56" style="enable-background:new 0 0 56 56;" xml:space="preserve">
<g>
	<g>
		<path style="fill:#E7D4B1;" d="M44.472,0H31.294L6.848,24.367l23.734,23.785L55,23.814V10.504L44.472,0z M43.015,14.87
			c-1.621,0-2.935-1.314-2.935-2.935S41.394,9,43.015,9c1.621,0,2.935,1.314,2.935,2.935S44.636,14.87,43.015,14.87z"/>
		<polygon style="fill:#D3C2A4;" points="6.877,24.354 1,30.215 24.734,54 30.637,48.113 		"/>
		<path style="fill:#CBB292;" d="M43.015,9c1.621,0,2.935,1.314,2.935,2.935s-1.314,2.935-2.935,2.935
			c-1.621,0-2.935-1.314-2.935-2.935S41.394,9,43.015,9 M43.015,5c-3.824,0-6.935,3.111-6.935,6.935s3.111,6.935,6.935,6.935
			c3.824,0,6.935-3.111,6.935-6.935S46.839,5,43.015,5L43.015,5z"/>
	</g>
	<g>
		<circle style="fill:#26B999;" cx="37" cy="44" r="12"/>
		<path style="fill:#FFFFFF;" d="M43.571,38.179c-0.455-0.316-1.077-0.204-1.392,0.25l-5.596,8.04l-3.949-3.242
			c-0.426-0.351-1.057-0.288-1.407,0.139c-0.351,0.427-0.289,1.057,0.139,1.407l4.786,3.929c0.18,0.147,0.404,0.227,0.634,0.227
			c0.045,0,0.091-0.003,0.137-0.009c0.276-0.039,0.524-0.19,0.684-0.419l6.214-8.929C44.136,39.118,44.024,38.495,43.571,38.179z"/>
	</g>
</g>
<g>
</g>
<g>
</g>
<g>
</g>
<g>
</g>
<g>
</g>
<g>
</g>
<g>
</g>
<g>
</g>
<g>
</g>
<g>
</g>
<g>
</g>
<g>
</g>
<g>
</g>
<g>
</g>
<g>
</g>
</svg>
