<?xml version="1.0" encoding="iso-8859-1"?>
<!-- Generator: Adobe Illustrator 18.0.0, SVG Export Plug-In . SVG Version: 6.00 Build 0)  -->
<!DOCTYPE svg PUBLIC "-//W3C//DTD SVG 1.1//EN" "http://www.w3.org/Graphics/SVG/1.1/DTD/svg11.dtd">
<svg version="1.1" id="Capa_1" xmlns="http://www.w3.org/2000/svg" xmlns:xlink="http://www.w3.org/1999/xlink" x="0px" y="0px"
	 viewBox="0 0 55 55" style="enable-background:new 0 0 55 55;" xml:space="preserve">
<g>
	<g>
		<path style="fill:#E7D4B1;" d="M43.972,0H30.794L6.348,24.367l23.734,23.785L54.5,23.814V10.504L43.972,0z M42.515,14.87
			c-1.621,0-2.935-1.314-2.935-2.935S40.894,9,42.515,9c1.621,0,2.935,1.314,2.935,2.935S44.136,14.87,42.515,14.87z"/>
		<polygon style="fill:#D3C2A4;" points="6.377,24.354 0.5,30.215 24.234,54 30.137,48.113 		"/>
		<path style="fill:#CBB292;" d="M42.515,9c1.621,0,2.935,1.314,2.935,2.935s-1.314,2.935-2.935,2.935
			c-1.621,0-2.935-1.314-2.935-2.935S40.894,9,42.515,9 M42.515,5c-3.824,0-6.935,3.111-6.935,6.935s3.111,6.935,6.935,6.935
			c3.824,0,6.935-3.111,6.935-6.935S46.339,5,42.515,5L42.515,5z"/>
	</g>
	<g>
		<circle style="fill:#B1D3EF;" cx="35" cy="42.5" r="12.5"/>
		<path style="fill:#556080;" d="M35,32c-4.718,0-8.88,3.182-10.121,7.737c-0.146,0.533,0.169,1.083,0.702,1.228
			c0.528,0.143,1.082-0.168,1.228-0.702C27.813,36.575,31.182,34,35,34c4.687,0,8.5,3.813,8.5,8.5S39.687,51,35,51
			c-3.365,0-6.378-2.001-7.734-5H32.5v-2h-6h-1h-1v8h2v-3.341l0,0v-0.023C28.433,51.31,31.566,53,35,53c5.79,0,10.5-4.71,10.5-10.5
			S40.79,32,35,32z"/>
	</g>
</g>
<g>
</g>
<g>
</g>
<g>
</g>
<g>
</g>
<g>
</g>
<g>
</g>
<g>
</g>
<g>
</g>
<g>
</g>
<g>
</g>
<g>
</g>
<g>
</g>
<g>
</g>
<g>
</g>
<g>
</g>
</svg>
