<?xml version="1.0" encoding="iso-8859-1"?>
<!-- Generator: Adobe Illustrator 18.0.0, SVG Export Plug-In . SVG Version: 6.00 Build 0)  -->
<!DOCTYPE svg PUBLIC "-//W3C//DTD SVG 1.1//EN" "http://www.w3.org/Graphics/SVG/1.1/DTD/svg11.dtd">
<svg version="1.1" id="Capa_1" xmlns="http://www.w3.org/2000/svg" xmlns:xlink="http://www.w3.org/1999/xlink" x="0px" y="0px"
	 viewBox="0 0 55 55" style="enable-background:new 0 0 55 55;" xml:space="preserve">
<g>
	<g>
		<path style="fill:#E7D4B1;" d="M43.972,0H30.794L6.348,24.367l23.734,23.785L54.5,23.814V10.504L43.972,0z M42.515,14.87
			c-1.621,0-2.935-1.314-2.935-2.935S40.894,9,42.515,9c1.621,0,2.935,1.314,2.935,2.935S44.136,14.87,42.515,14.87z"/>
		<polygon style="fill:#D3C2A4;" points="6.377,24.354 0.5,30.215 24.234,54 30.137,48.113 		"/>
		<path style="fill:#CBB292;" d="M42.515,9c1.621,0,2.935,1.314,2.935,2.935s-1.314,2.935-2.935,2.935
			c-1.621,0-2.935-1.314-2.935-2.935S40.894,9,42.515,9 M42.515,5c-3.824,0-6.935,3.111-6.935,6.935s3.111,6.935,6.935,6.935
			c3.824,0,6.935-3.111,6.935-6.935S46.339,5,42.515,5L42.515,5z"/>
	</g>
	<g>
		<rect x="28.5" y="39" style="fill:#B1D3EF;" width="20" height="16"/>
		<path style="fill:#556080;" d="M41.5,46c0-1.657-1.343-3-3-3s-3,1.343-3,3c0,1.317,0.854,2.424,2.035,2.827
			C37.524,48.885,37.5,48.939,37.5,49v2c0,0.552,0.448,1,1,1s1-0.448,1-1v-2c0-0.061-0.024-0.115-0.035-0.173
			C40.646,48.424,41.5,47.317,41.5,46z"/>
		<path style="fill:#BDC3C7;" d="M33.5,37c0-2.757,2.243-5,5-5s5,2.243,5,5v2h2v-2c0-3.86-3.14-7-7-7s-7,3.14-7,7v2h2V37z"/>
	</g>
</g>
<g>
</g>
<g>
</g>
<g>
</g>
<g>
</g>
<g>
</g>
<g>
</g>
<g>
</g>
<g>
</g>
<g>
</g>
<g>
</g>
<g>
</g>
<g>
</g>
<g>
</g>
<g>
</g>
<g>
</g>
</svg>
