<?xml version="1.0" encoding="iso-8859-1"?>
<!-- Generator: Adobe Illustrator 18.0.0, SVG Export Plug-In . SVG Version: 6.00 Build 0)  -->
<!DOCTYPE svg PUBLIC "-//W3C//DTD SVG 1.1//EN" "http://www.w3.org/Graphics/SVG/1.1/DTD/svg11.dtd">
<svg version="1.1" id="Capa_1" xmlns="http://www.w3.org/2000/svg" xmlns:xlink="http://www.w3.org/1999/xlink" x="0px" y="0px"
	 viewBox="0 0 59 59" style="enable-background:new 0 0 59 59;" xml:space="preserve">
<g>
	<g>
		<path style="fill:#556080;" d="M54.392,19H3.608C1.616,19,0,17.384,0,15.392V3.608C0,1.616,1.616,0,3.608,0h50.783
			C56.384,0,58,1.616,58,3.608v11.783C58,17.384,56.384,19,54.392,19z"/>
		<path style="fill:#38454F;" d="M54.392,38H3.608C1.616,38,0,36.384,0,34.392V22.608C0,20.616,1.616,19,3.608,19h50.783
			C56.384,19,58,20.616,58,22.608v11.783C58,36.384,56.384,38,54.392,38z"/>
		<path style="fill:#556080;" d="M54.392,57H3.608C1.616,57,0,55.384,0,53.392V41.608C0,39.616,1.616,38,3.608,38h50.783
			C56.384,38,58,39.616,58,41.608v11.783C58,55.384,56.384,57,54.392,57z"/>
		<circle style="fill:#8697CB;" cx="9.5" cy="9.5" r="3.5"/>
		<circle style="fill:#8697CB;" cx="49" cy="8" r="1"/>
		<circle style="fill:#8697CB;" cx="45" cy="8" r="1"/>
		<circle style="fill:#8697CB;" cx="51" cy="11" r="1"/>
		<circle style="fill:#8697CB;" cx="47" cy="11" r="1"/>
		<circle style="fill:#8697CB;" cx="41" cy="8" r="1"/>
		<circle style="fill:#8697CB;" cx="43" cy="11" r="1"/>
		<circle style="fill:#8697CB;" cx="37" cy="8" r="1"/>
		<circle style="fill:#8697CB;" cx="39" cy="11" r="1"/>
		<circle style="fill:#8697CB;" cx="33" cy="8" r="1"/>
		<circle style="fill:#8697CB;" cx="35" cy="11" r="1"/>
		<circle style="fill:#8697CB;" cx="9.5" cy="28.5" r="3.5"/>
		<circle style="fill:#8697CB;" cx="49" cy="27" r="1"/>
		<circle style="fill:#8697CB;" cx="45" cy="27" r="1"/>
		<circle style="fill:#8697CB;" cx="51" cy="30" r="1"/>
		<circle style="fill:#8697CB;" cx="47" cy="30" r="1"/>
		<circle style="fill:#8697CB;" cx="41" cy="27" r="1"/>
		<circle style="fill:#8697CB;" cx="43" cy="30" r="1"/>
		<circle style="fill:#8697CB;" cx="37" cy="27" r="1"/>
		<circle style="fill:#8697CB;" cx="39" cy="30" r="1"/>
		<circle style="fill:#8697CB;" cx="33" cy="27" r="1"/>
		<circle style="fill:#8697CB;" cx="35" cy="30" r="1"/>
		<circle style="fill:#8697CB;" cx="9.5" cy="47.5" r="3.5"/>
		<circle style="fill:#8697CB;" cx="49" cy="46" r="1"/>
		<circle style="fill:#8697CB;" cx="45" cy="46" r="1"/>
		<circle style="fill:#8697CB;" cx="51" cy="49" r="1"/>
		<circle style="fill:#8697CB;" cx="47" cy="49" r="1"/>
		<circle style="fill:#8697CB;" cx="41" cy="46" r="1"/>
		<circle style="fill:#8697CB;" cx="43" cy="49" r="1"/>
		<circle style="fill:#8697CB;" cx="37" cy="46" r="1"/>
		<circle style="fill:#8697CB;" cx="39" cy="49" r="1"/>
		<circle style="fill:#8697CB;" cx="33" cy="46" r="1"/>
		<circle style="fill:#8697CB;" cx="35" cy="49" r="1"/>
	</g>
	<g>
		<path style="fill:#BDC3C7;" d="M59,45.846l-1.444-0.278c-2.143-0.412-3.125-2.916-1.835-4.675l0.907-1.236l-1.958-1.958
			l-1.217,0.825c-1.806,1.224-4.272,0.148-4.604-2.008L48.615,35h-2.769l-0.359,1.865c-0.403,2.096-2.818,3.096-4.585,1.899
			l-1.572-1.065l-1.958,1.958l0.907,1.236c1.29,1.76,0.308,4.263-1.835,4.675L35,45.846v2.769l1.515,0.233
			c2.157,0.332,3.232,2.797,2.008,4.604l-0.825,1.217l1.958,1.958l1.236-0.907c1.76-1.29,4.263-0.308,4.675,1.835L45.846,59h2.769
			l0.164-1.066c0.339-2.204,2.896-3.263,4.694-1.944l0.869,0.638l1.958-1.958l-0.825-1.217c-1.224-1.806-0.148-4.272,2.008-4.604
			L59,48.615V45.846z"/>
		<g>
			<circle style="fill:#FFFFFF;" cx="47" cy="47" r="4"/>
			<path style="fill:#ECF0F1;" d="M47,52c-2.757,0-5-2.243-5-5s2.243-5,5-5s5,2.243,5,5S49.757,52,47,52z M47,44
				c-1.654,0-3,1.346-3,3s1.346,3,3,3s3-1.346,3-3S48.654,44,47,44z"/>
		</g>
	</g>
</g>
<g>
</g>
<g>
</g>
<g>
</g>
<g>
</g>
<g>
</g>
<g>
</g>
<g>
</g>
<g>
</g>
<g>
</g>
<g>
</g>
<g>
</g>
<g>
</g>
<g>
</g>
<g>
</g>
<g>
</g>
</svg>
