<?xml version="1.0" encoding="iso-8859-1"?>
<!-- Generator: Adobe Illustrator 18.0.0, SVG Export Plug-In . SVG Version: 6.00 Build 0)  -->
<!DOCTYPE svg PUBLIC "-//W3C//DTD SVG 1.1//EN" "http://www.w3.org/Graphics/SVG/1.1/DTD/svg11.dtd">
<svg version="1.1" id="Capa_1" xmlns="http://www.w3.org/2000/svg" xmlns:xlink="http://www.w3.org/1999/xlink" x="0px" y="0px"
	 viewBox="0 0 59 59" style="enable-background:new 0 0 59 59;" xml:space="preserve">
<g>
	<g>
		<path style="fill:#556080;" d="M54.892,19H4.108C2.116,19,0.5,17.384,0.5,15.392V3.608C0.5,1.616,2.116,0,4.108,0h50.783
			C56.884,0,58.5,1.616,58.5,3.608v11.783C58.5,17.384,56.884,19,54.892,19z"/>
		<path style="fill:#38454F;" d="M54.892,38H4.108C2.116,38,0.5,36.384,0.5,34.392V22.608C0.5,20.616,2.116,19,4.108,19h50.783
			c1.993,0,3.608,1.616,3.608,3.608v11.783C58.5,36.384,56.884,38,54.892,38z"/>
		<path style="fill:#556080;" d="M54.892,57H4.108C2.116,57,0.5,55.384,0.5,53.392V41.608C0.5,39.616,2.116,38,4.108,38h50.783
			c1.993,0,3.608,1.616,3.608,3.608v11.783C58.5,55.384,56.884,57,54.892,57z"/>
		<circle style="fill:#8697CB;" cx="10" cy="9.5" r="3.5"/>
		<circle style="fill:#8697CB;" cx="49.5" cy="8" r="1"/>
		<circle style="fill:#8697CB;" cx="45.5" cy="8" r="1"/>
		<circle style="fill:#8697CB;" cx="51.5" cy="11" r="1"/>
		<circle style="fill:#8697CB;" cx="47.5" cy="11" r="1"/>
		<circle style="fill:#8697CB;" cx="41.5" cy="8" r="1"/>
		<circle style="fill:#8697CB;" cx="43.5" cy="11" r="1"/>
		<circle style="fill:#8697CB;" cx="37.5" cy="8" r="1"/>
		<circle style="fill:#8697CB;" cx="39.5" cy="11" r="1"/>
		<circle style="fill:#8697CB;" cx="33.5" cy="8" r="1"/>
		<circle style="fill:#8697CB;" cx="35.5" cy="11" r="1"/>
		<circle style="fill:#8697CB;" cx="10" cy="28.5" r="3.5"/>
		<circle style="fill:#8697CB;" cx="49.5" cy="27" r="1"/>
		<circle style="fill:#8697CB;" cx="45.5" cy="27" r="1"/>
		<circle style="fill:#8697CB;" cx="51.5" cy="30" r="1"/>
		<circle style="fill:#8697CB;" cx="47.5" cy="30" r="1"/>
		<circle style="fill:#8697CB;" cx="41.5" cy="27" r="1"/>
		<circle style="fill:#8697CB;" cx="43.5" cy="30" r="1"/>
		<circle style="fill:#8697CB;" cx="37.5" cy="27" r="1"/>
		<circle style="fill:#8697CB;" cx="39.5" cy="30" r="1"/>
		<circle style="fill:#8697CB;" cx="33.5" cy="27" r="1"/>
		<circle style="fill:#8697CB;" cx="35.5" cy="30" r="1"/>
		<circle style="fill:#8697CB;" cx="10" cy="47.5" r="3.5"/>
		<circle style="fill:#8697CB;" cx="49.5" cy="46" r="1"/>
		<circle style="fill:#8697CB;" cx="45.5" cy="46" r="1"/>
		<circle style="fill:#8697CB;" cx="51.5" cy="49" r="1"/>
		<circle style="fill:#8697CB;" cx="47.5" cy="49" r="1"/>
		<circle style="fill:#8697CB;" cx="41.5" cy="46" r="1"/>
		<circle style="fill:#8697CB;" cx="43.5" cy="49" r="1"/>
		<circle style="fill:#8697CB;" cx="37.5" cy="46" r="1"/>
		<circle style="fill:#8697CB;" cx="39.5" cy="49" r="1"/>
		<circle style="fill:#8697CB;" cx="33.5" cy="46" r="1"/>
		<circle style="fill:#8697CB;" cx="35.5" cy="49" r="1"/>
	</g>
	<g>
		<polygon style="fill:#F3D55A;" points="46.5,37 50.208,44.242 58.5,45.403 52.5,51.04 53.916,59 46.5,55.242 39.084,59 
			40.5,51.04 34.5,45.403 42.792,44.242 		"/>
	</g>
</g>
<g>
</g>
<g>
</g>
<g>
</g>
<g>
</g>
<g>
</g>
<g>
</g>
<g>
</g>
<g>
</g>
<g>
</g>
<g>
</g>
<g>
</g>
<g>
</g>
<g>
</g>
<g>
</g>
<g>
</g>
</svg>
