<?xml version="1.0" encoding="iso-8859-1"?>
<!-- Generator: Adobe Illustrator 18.0.0, SVG Export Plug-In . SVG Version: 6.00 Build 0)  -->
<!DOCTYPE svg PUBLIC "-//W3C//DTD SVG 1.1//EN" "http://www.w3.org/Graphics/SVG/1.1/DTD/svg11.dtd">
<svg version="1.1" id="Capa_1" xmlns="http://www.w3.org/2000/svg" xmlns:xlink="http://www.w3.org/1999/xlink" x="0px" y="0px"
	 viewBox="0 0 59 59" style="enable-background:new 0 0 59 59;" xml:space="preserve">
<g>
	<path style="fill:#556080;" d="M54.392,19H3.608C1.616,19,0,17.384,0,15.392V3.608C0,1.616,1.616,0,3.608,0h50.783
		C56.384,0,58,1.616,58,3.608v11.783C58,17.384,56.384,19,54.392,19z"/>
	<path style="fill:#38454F;" d="M54.392,38H3.608C1.616,38,0,36.384,0,34.392V22.608C0,20.616,1.616,19,3.608,19h50.783
		C56.384,19,58,20.616,58,22.608v11.783C58,36.384,56.384,38,54.392,38z"/>
	<path style="fill:#556080;" d="M54.392,57H3.608C1.616,57,0,55.384,0,53.392V41.608C0,39.616,1.616,38,3.608,38h50.783
		C56.384,38,58,39.616,58,41.608v11.783C58,55.384,56.384,57,54.392,57z"/>
	<circle style="fill:#8697CB;" cx="9.5" cy="9.5" r="3.5"/>
	<circle style="fill:#8697CB;" cx="49" cy="8" r="1"/>
	<circle style="fill:#8697CB;" cx="45" cy="8" r="1"/>
	<circle style="fill:#8697CB;" cx="51" cy="11" r="1"/>
	<circle style="fill:#8697CB;" cx="47" cy="11" r="1"/>
	<circle style="fill:#8697CB;" cx="41" cy="8" r="1"/>
	<circle style="fill:#8697CB;" cx="43" cy="11" r="1"/>
	<circle style="fill:#8697CB;" cx="37" cy="8" r="1"/>
	<circle style="fill:#8697CB;" cx="39" cy="11" r="1"/>
	<circle style="fill:#8697CB;" cx="33" cy="8" r="1"/>
	<circle style="fill:#8697CB;" cx="35" cy="11" r="1"/>
	<circle style="fill:#8697CB;" cx="9.5" cy="28.5" r="3.5"/>
	<circle style="fill:#8697CB;" cx="49" cy="27" r="1"/>
	<circle style="fill:#8697CB;" cx="45" cy="27" r="1"/>
	<circle style="fill:#8697CB;" cx="51" cy="30" r="1"/>
	<circle style="fill:#8697CB;" cx="47" cy="30" r="1"/>
	<circle style="fill:#8697CB;" cx="41" cy="27" r="1"/>
	<circle style="fill:#8697CB;" cx="43" cy="30" r="1"/>
	<circle style="fill:#8697CB;" cx="37" cy="27" r="1"/>
	<circle style="fill:#8697CB;" cx="39" cy="30" r="1"/>
	<circle style="fill:#8697CB;" cx="33" cy="27" r="1"/>
	<circle style="fill:#8697CB;" cx="35" cy="30" r="1"/>
	<circle style="fill:#8697CB;" cx="9.5" cy="47.5" r="3.5"/>
	<circle style="fill:#8697CB;" cx="49" cy="46" r="1"/>
	<circle style="fill:#8697CB;" cx="45" cy="46" r="1"/>
	<circle style="fill:#8697CB;" cx="51" cy="49" r="1"/>
	<circle style="fill:#8697CB;" cx="47" cy="49" r="1"/>
	<circle style="fill:#8697CB;" cx="41" cy="46" r="1"/>
	<circle style="fill:#8697CB;" cx="43" cy="49" r="1"/>
	<circle style="fill:#8697CB;" cx="37" cy="46" r="1"/>
	<circle style="fill:#8697CB;" cx="39" cy="49" r="1"/>
	<circle style="fill:#8697CB;" cx="33" cy="46" r="1"/>
	<circle style="fill:#8697CB;" cx="35" cy="49" r="1"/>
	<g>
		<circle style="fill:#71C386;" cx="47" cy="47" r="12"/>
		<path style="fill:#FFFFFF;" d="M53,46h-5v-5c0-0.552-0.448-1-1-1s-1,0.448-1,1v5h-5c-0.552,0-1,0.448-1,1s0.448,1,1,1h5v5
			c0,0.552,0.448,1,1,1s1-0.448,1-1v-5h5c0.552,0,1-0.448,1-1S53.552,46,53,46z"/>
	</g>
</g>
<g>
</g>
<g>
</g>
<g>
</g>
<g>
</g>
<g>
</g>
<g>
</g>
<g>
</g>
<g>
</g>
<g>
</g>
<g>
</g>
<g>
</g>
<g>
</g>
<g>
</g>
<g>
</g>
<g>
</g>
</svg>
