<?xml version="1.0" encoding="iso-8859-1"?>
<!-- Generator: Adobe Illustrator 18.0.0, SVG Export Plug-In . SVG Version: 6.00 Build 0)  -->
<!DOCTYPE svg PUBLIC "-//W3C//DTD SVG 1.1//EN" "http://www.w3.org/Graphics/SVG/1.1/DTD/svg11.dtd">
<svg version="1.1" id="Capa_1" xmlns="http://www.w3.org/2000/svg" xmlns:xlink="http://www.w3.org/1999/xlink" x="0px" y="0px"
	 viewBox="0 0 59 59" style="enable-background:new 0 0 59 59;" xml:space="preserve">
<g>
	<g>
		<path style="fill:#556080;" d="M54.892,19H4.108C2.116,19,0.5,17.384,0.5,15.392V3.608C0.5,1.616,2.116,0,4.108,0h50.783
			C56.884,0,58.5,1.616,58.5,3.608v11.783C58.5,17.384,56.884,19,54.892,19z"/>
		<path style="fill:#38454F;" d="M54.892,38H4.108C2.116,38,0.5,36.384,0.5,34.392V22.608C0.5,20.616,2.116,19,4.108,19h50.783
			c1.993,0,3.608,1.616,3.608,3.608v11.783C58.5,36.384,56.884,38,54.892,38z"/>
		<path style="fill:#556080;" d="M54.892,57H4.108C2.116,57,0.5,55.384,0.5,53.392V41.608C0.5,39.616,2.116,38,4.108,38h50.783
			c1.993,0,3.608,1.616,3.608,3.608v11.783C58.5,55.384,56.884,57,54.892,57z"/>
		<circle style="fill:#8697CB;" cx="10" cy="9.5" r="3.5"/>
		<circle style="fill:#8697CB;" cx="49.5" cy="8" r="1"/>
		<circle style="fill:#8697CB;" cx="45.5" cy="8" r="1"/>
		<circle style="fill:#8697CB;" cx="51.5" cy="11" r="1"/>
		<circle style="fill:#8697CB;" cx="47.5" cy="11" r="1"/>
		<circle style="fill:#8697CB;" cx="41.5" cy="8" r="1"/>
		<circle style="fill:#8697CB;" cx="43.5" cy="11" r="1"/>
		<circle style="fill:#8697CB;" cx="37.5" cy="8" r="1"/>
		<circle style="fill:#8697CB;" cx="39.5" cy="11" r="1"/>
		<circle style="fill:#8697CB;" cx="33.5" cy="8" r="1"/>
		<circle style="fill:#8697CB;" cx="35.5" cy="11" r="1"/>
		<circle style="fill:#8697CB;" cx="10" cy="28.5" r="3.5"/>
		<circle style="fill:#8697CB;" cx="49.5" cy="27" r="1"/>
		<circle style="fill:#8697CB;" cx="45.5" cy="27" r="1"/>
		<circle style="fill:#8697CB;" cx="51.5" cy="30" r="1"/>
		<circle style="fill:#8697CB;" cx="47.5" cy="30" r="1"/>
		<circle style="fill:#8697CB;" cx="41.5" cy="27" r="1"/>
		<circle style="fill:#8697CB;" cx="43.5" cy="30" r="1"/>
		<circle style="fill:#8697CB;" cx="37.5" cy="27" r="1"/>
		<circle style="fill:#8697CB;" cx="39.5" cy="30" r="1"/>
		<circle style="fill:#8697CB;" cx="33.5" cy="27" r="1"/>
		<circle style="fill:#8697CB;" cx="35.5" cy="30" r="1"/>
		<circle style="fill:#8697CB;" cx="10" cy="47.5" r="3.5"/>
		<circle style="fill:#8697CB;" cx="49.5" cy="46" r="1"/>
		<circle style="fill:#8697CB;" cx="45.5" cy="46" r="1"/>
		<circle style="fill:#8697CB;" cx="51.5" cy="49" r="1"/>
		<circle style="fill:#8697CB;" cx="47.5" cy="49" r="1"/>
		<circle style="fill:#8697CB;" cx="41.5" cy="46" r="1"/>
		<circle style="fill:#8697CB;" cx="43.5" cy="49" r="1"/>
		<circle style="fill:#8697CB;" cx="37.5" cy="46" r="1"/>
		<circle style="fill:#8697CB;" cx="39.5" cy="49" r="1"/>
		<circle style="fill:#8697CB;" cx="33.5" cy="46" r="1"/>
		<circle style="fill:#8697CB;" cx="35.5" cy="49" r="1"/>
	</g>
	<g>
		<path style="fill:#EFC41A;" d="M57.261,59H33.57c-0.955,0-1.55-1.036-1.069-1.861l11.845-20.306c0.478-0.819,1.66-0.819,2.138,0
			L58.33,57.139C58.811,57.964,58.216,59,57.261,59z"/>
		<path style="fill:#FFFFFF;" d="M45.5,52c-0.552,0-1-0.448-1-1v-8c0-0.552,0.448-1,1-1s1,0.448,1,1v8
			C46.5,51.552,46.052,52,45.5,52z"/>
		<path style="fill:#FFFFFF;" d="M45.5,56c-0.26,0-0.52-0.11-0.71-0.29c-0.18-0.19-0.29-0.45-0.29-0.71c0-0.26,0.11-0.52,0.29-0.71
			c0.38-0.37,1.04-0.37,1.42,0c0.18,0.19,0.29,0.45,0.29,0.71c0,0.26-0.11,0.52-0.29,0.71C46.02,55.89,45.77,56,45.5,56z"/>
	</g>
</g>
<g>
</g>
<g>
</g>
<g>
</g>
<g>
</g>
<g>
</g>
<g>
</g>
<g>
</g>
<g>
</g>
<g>
</g>
<g>
</g>
<g>
</g>
<g>
</g>
<g>
</g>
<g>
</g>
<g>
</g>
</svg>
