<?xml version="1.0" encoding="iso-8859-1"?>
<!-- Generator: Adobe Illustrator 18.0.0, SVG Export Plug-In . SVG Version: 6.00 Build 0)  -->
<!DOCTYPE svg PUBLIC "-//W3C//DTD SVG 1.1//EN" "http://www.w3.org/Graphics/SVG/1.1/DTD/svg11.dtd">
<svg version="1.1" id="Capa_1" xmlns="http://www.w3.org/2000/svg" xmlns:xlink="http://www.w3.org/1999/xlink" x="0px" y="0px"
	 viewBox="0 0 59.018 59.018" style="enable-background:new 0 0 59.018 59.018;" xml:space="preserve">
<g>
	<g>
		<path style="fill:#556080;" d="M54.392,19.009H3.608C1.616,19.009,0,17.394,0,15.401V3.618c0-1.993,1.616-3.608,3.608-3.608
			h50.783C56.384,0.009,58,1.625,58,3.618v11.783C58,17.394,56.384,19.009,54.392,19.009z"/>
		<path style="fill:#38454F;" d="M54.392,38.009H3.608C1.616,38.009,0,36.394,0,34.401V22.618c0-1.993,1.616-3.608,3.608-3.608
			h50.783c1.993,0,3.608,1.616,3.608,3.608v11.783C58,36.394,56.384,38.009,54.392,38.009z"/>
		<path style="fill:#556080;" d="M54.392,57.009H3.608C1.616,57.009,0,55.394,0,53.401V41.618c0-1.993,1.616-3.608,3.608-3.608
			h50.783c1.993,0,3.608,1.616,3.608,3.608v11.783C58,55.394,56.384,57.009,54.392,57.009z"/>
		<circle style="fill:#8697CB;" cx="9.5" cy="9.509" r="3.5"/>
		<circle style="fill:#8697CB;" cx="49" cy="8.009" r="1"/>
		<circle style="fill:#8697CB;" cx="45" cy="8.009" r="1"/>
		<circle style="fill:#8697CB;" cx="51" cy="11.009" r="1"/>
		<circle style="fill:#8697CB;" cx="47" cy="11.009" r="1"/>
		<circle style="fill:#8697CB;" cx="41" cy="8.009" r="1"/>
		<circle style="fill:#8697CB;" cx="43" cy="11.009" r="1"/>
		<circle style="fill:#8697CB;" cx="37" cy="8.009" r="1"/>
		<circle style="fill:#8697CB;" cx="39" cy="11.009" r="1"/>
		<circle style="fill:#8697CB;" cx="33" cy="8.009" r="1"/>
		<circle style="fill:#8697CB;" cx="35" cy="11.009" r="1"/>
		<circle style="fill:#8697CB;" cx="9.5" cy="28.509" r="3.5"/>
		<circle style="fill:#8697CB;" cx="49" cy="27.009" r="1"/>
		<circle style="fill:#8697CB;" cx="45" cy="27.009" r="1"/>
		<circle style="fill:#8697CB;" cx="51" cy="30.009" r="1"/>
		<circle style="fill:#8697CB;" cx="47" cy="30.009" r="1"/>
		<circle style="fill:#8697CB;" cx="41" cy="27.009" r="1"/>
		<circle style="fill:#8697CB;" cx="43" cy="30.009" r="1"/>
		<circle style="fill:#8697CB;" cx="37" cy="27.009" r="1"/>
		<circle style="fill:#8697CB;" cx="39" cy="30.009" r="1"/>
		<circle style="fill:#8697CB;" cx="33" cy="27.009" r="1"/>
		<circle style="fill:#8697CB;" cx="35" cy="30.009" r="1"/>
		<circle style="fill:#8697CB;" cx="9.5" cy="47.509" r="3.5"/>
		<circle style="fill:#8697CB;" cx="49" cy="46.009" r="1"/>
		<circle style="fill:#8697CB;" cx="45" cy="46.009" r="1"/>
		<circle style="fill:#8697CB;" cx="51" cy="49.009" r="1"/>
		<circle style="fill:#8697CB;" cx="47" cy="49.009" r="1"/>
		<circle style="fill:#8697CB;" cx="41" cy="46.009" r="1"/>
		<circle style="fill:#8697CB;" cx="43" cy="49.009" r="1"/>
		<circle style="fill:#8697CB;" cx="37" cy="46.009" r="1"/>
		<circle style="fill:#8697CB;" cx="39" cy="49.009" r="1"/>
		<circle style="fill:#8697CB;" cx="33" cy="46.009" r="1"/>
		<circle style="fill:#8697CB;" cx="35" cy="49.009" r="1"/>
	</g>
	<g>
		<circle style="fill:#D0E8F9;" cx="44.796" cy="43.824" r="9.796"/>
		<path style="fill:#EAF6FD;" d="M48.348,34.702L35.675,47.376c0.706,1.81,1.93,3.357,3.495,4.459l13.638-13.638
			C51.706,36.632,50.158,35.408,48.348,34.702z"/>
		<path style="fill:#B1D3EF;" d="M58.741,57.318l-5.97-6.244c1.746-1.919,2.82-4.458,2.82-7.251c0-5.953-4.843-10.796-10.796-10.796
			S34,37.871,34,43.824S38.843,54.62,44.796,54.62c2.442,0,4.689-0.824,6.499-2.196l6.001,6.276
			c0.196,0.206,0.459,0.309,0.723,0.309c0.249,0,0.497-0.092,0.691-0.277C59.108,58.351,59.123,57.717,58.741,57.318z M36,43.824
			c0-4.85,3.946-8.796,8.796-8.796s8.796,3.946,8.796,8.796s-3.946,8.796-8.796,8.796S36,48.674,36,43.824z"/>
	</g>
</g>
<g>
</g>
<g>
</g>
<g>
</g>
<g>
</g>
<g>
</g>
<g>
</g>
<g>
</g>
<g>
</g>
<g>
</g>
<g>
</g>
<g>
</g>
<g>
</g>
<g>
</g>
<g>
</g>
<g>
</g>
</svg>
