<?xml version="1.0" encoding="iso-8859-1"?>
<!-- Generator: Adobe Illustrator 18.0.0, SVG Export Plug-In . SVG Version: 6.00 Build 0)  -->
<!DOCTYPE svg PUBLIC "-//W3C//DTD SVG 1.1//EN" "http://www.w3.org/Graphics/SVG/1.1/DTD/svg11.dtd">
<svg version="1.1" id="Capa_1" xmlns="http://www.w3.org/2000/svg" xmlns:xlink="http://www.w3.org/1999/xlink" x="0px" y="0px"
	 viewBox="0 0 59 59" style="enable-background:new 0 0 59 59;" xml:space="preserve">
<g>
	<g>
		<path style="fill:#556080;" d="M54.392,19H3.608C1.616,19,0,17.384,0,15.392V3.608C0,1.616,1.616,0,3.608,0h50.783
			C56.384,0,58,1.616,58,3.608v11.783C58,17.384,56.384,19,54.392,19z"/>
		<path style="fill:#38454F;" d="M54.392,38H3.608C1.616,38,0,36.384,0,34.392V22.608C0,20.616,1.616,19,3.608,19h50.783
			C56.384,19,58,20.616,58,22.608v11.783C58,36.384,56.384,38,54.392,38z"/>
		<path style="fill:#556080;" d="M54.392,57H3.608C1.616,57,0,55.384,0,53.392V41.608C0,39.616,1.616,38,3.608,38h50.783
			C56.384,38,58,39.616,58,41.608v11.783C58,55.384,56.384,57,54.392,57z"/>
		<circle style="fill:#8697CB;" cx="9.5" cy="9.5" r="3.5"/>
		<circle style="fill:#8697CB;" cx="49" cy="8" r="1"/>
		<circle style="fill:#8697CB;" cx="45" cy="8" r="1"/>
		<circle style="fill:#8697CB;" cx="51" cy="11" r="1"/>
		<circle style="fill:#8697CB;" cx="47" cy="11" r="1"/>
		<circle style="fill:#8697CB;" cx="41" cy="8" r="1"/>
		<circle style="fill:#8697CB;" cx="43" cy="11" r="1"/>
		<circle style="fill:#8697CB;" cx="37" cy="8" r="1"/>
		<circle style="fill:#8697CB;" cx="39" cy="11" r="1"/>
		<circle style="fill:#8697CB;" cx="33" cy="8" r="1"/>
		<circle style="fill:#8697CB;" cx="35" cy="11" r="1"/>
		<circle style="fill:#8697CB;" cx="9.5" cy="28.5" r="3.5"/>
		<circle style="fill:#8697CB;" cx="49" cy="27" r="1"/>
		<circle style="fill:#8697CB;" cx="45" cy="27" r="1"/>
		<circle style="fill:#8697CB;" cx="51" cy="30" r="1"/>
		<circle style="fill:#8697CB;" cx="47" cy="30" r="1"/>
		<circle style="fill:#8697CB;" cx="41" cy="27" r="1"/>
		<circle style="fill:#8697CB;" cx="43" cy="30" r="1"/>
		<circle style="fill:#8697CB;" cx="37" cy="27" r="1"/>
		<circle style="fill:#8697CB;" cx="39" cy="30" r="1"/>
		<circle style="fill:#8697CB;" cx="33" cy="27" r="1"/>
		<circle style="fill:#8697CB;" cx="35" cy="30" r="1"/>
		<circle style="fill:#8697CB;" cx="9.5" cy="47.5" r="3.5"/>
		<circle style="fill:#8697CB;" cx="49" cy="46" r="1"/>
		<circle style="fill:#8697CB;" cx="45" cy="46" r="1"/>
		<circle style="fill:#8697CB;" cx="51" cy="49" r="1"/>
		<circle style="fill:#8697CB;" cx="47" cy="49" r="1"/>
		<circle style="fill:#8697CB;" cx="41" cy="46" r="1"/>
		<circle style="fill:#8697CB;" cx="43" cy="49" r="1"/>
		<circle style="fill:#8697CB;" cx="37" cy="46" r="1"/>
		<circle style="fill:#8697CB;" cx="39" cy="49" r="1"/>
		<circle style="fill:#8697CB;" cx="33" cy="46" r="1"/>
		<circle style="fill:#8697CB;" cx="35" cy="49" r="1"/>
	</g>
	<g>
		<path style="fill:#FFFFFF;" d="M57.805,49.679l-0.107,0.163c-7.121,10.876-18.773,10.876-25.893,0l0,0l0.107-0.163
			C39.033,38.803,50.685,38.803,57.805,49.679L57.805,49.679z"/>
		<circle style="fill:#556080;" cx="44.569" cy="47.397" r="5.909"/>
		<path style="fill:#B1D3EF;" d="M44.752,59c-5.254,0-10.148-3.058-13.783-8.609l-0.358-0.547l0.465-0.711
			c3.635-5.552,8.53-8.609,13.784-8.609c5.253,0,10.148,3.057,13.783,8.609L59,49.679l-0.465,0.711C54.9,55.942,50.005,59,44.752,59
			z M33.008,49.839C36.214,54.463,40.365,57,44.752,57c4.436,0,8.63-2.594,11.85-7.317c-3.206-4.624-7.356-7.161-11.743-7.161
			C40.422,42.522,36.229,45.116,33.008,49.839z"/>
	</g>
</g>
<g>
</g>
<g>
</g>
<g>
</g>
<g>
</g>
<g>
</g>
<g>
</g>
<g>
</g>
<g>
</g>
<g>
</g>
<g>
</g>
<g>
</g>
<g>
</g>
<g>
</g>
<g>
</g>
<g>
</g>
</svg>
