<?xml version="1.0" encoding="iso-8859-1"?>
<!-- Generator: Adobe Illustrator 18.0.0, SVG Export Plug-In . SVG Version: 6.00 Build 0)  -->
<!DOCTYPE svg PUBLIC "-//W3C//DTD SVG 1.1//EN" "http://www.w3.org/Graphics/SVG/1.1/DTD/svg11.dtd">
<svg version="1.1" id="Capa_1" xmlns="http://www.w3.org/2000/svg" xmlns:xlink="http://www.w3.org/1999/xlink" x="0px" y="0px"
	 viewBox="0 0 58.39 58.39" style="enable-background:new 0 0 58.39 58.39;" xml:space="preserve">
<g>
	<g>
		<circle style="fill:#ECF0F1;" cx="29" cy="29.195" r="29"/>
		<path style="fill:#545E73;" d="M29,4.195c13.785,0,25,11.215,25,25s-11.215,25-25,25s-25-11.215-25-25S15.215,4.195,29,4.195
			 M29,0.195c-16.016,0-29,12.984-29,29s12.984,29,29,29s29-12.984,29-29S45.016,0.195,29,0.195L29,0.195z"/>
		<g>
			<path style="fill:#8697CB;" d="M29,6.073c-0.552,0-1,0.447-1,1v1c0,0.553,0.448,1,1,1s1-0.447,1-1v-1
				C30,6.521,29.552,6.073,29,6.073z"/>
			<path style="fill:#8697CB;" d="M29,49.073c-0.552,0-1,0.447-1,1v1c0,0.553,0.448,1,1,1s1-0.447,1-1v-1
				C30,49.521,29.552,49.073,29,49.073z"/>
			<path style="fill:#8697CB;" d="M51,28.073h-1c-0.552,0-1,0.447-1,1s0.448,1,1,1h1c0.552,0,1-0.447,1-1S51.552,28.073,51,28.073z"
				/>
			<path style="fill:#8697CB;" d="M8,28.073H7c-0.552,0-1,0.447-1,1s0.448,1,1,1h1c0.552,0,1-0.447,1-1S8.552,28.073,8,28.073z"/>
			<path style="fill:#8697CB;" d="M43.849,12.81l-0.707,0.707c-0.391,0.391-0.391,1.023,0,1.414
				c0.195,0.195,0.451,0.293,0.707,0.293s0.512-0.098,0.707-0.293l0.707-0.707c0.391-0.391,0.391-1.023,0-1.414
				S44.24,12.419,43.849,12.81z"/>
			<path style="fill:#8697CB;" d="M13.444,43.216l-0.707,0.707c-0.391,0.391-0.391,1.023,0,1.414
				c0.195,0.195,0.451,0.293,0.707,0.293s0.512-0.098,0.707-0.293l0.707-0.707c0.391-0.391,0.391-1.023,0-1.414
				S13.834,42.825,13.444,43.216z"/>
			<path style="fill:#8697CB;" d="M44.556,43.216c-0.391-0.391-1.023-0.391-1.414,0s-0.391,1.023,0,1.414l0.707,0.707
				c0.195,0.195,0.451,0.293,0.707,0.293s0.512-0.098,0.707-0.293c0.391-0.391,0.391-1.023,0-1.414L44.556,43.216z"/>
			<path style="fill:#8697CB;" d="M14.151,12.81c-0.391-0.391-1.023-0.391-1.414,0s-0.391,1.023,0,1.414l0.707,0.707
				c0.195,0.195,0.451,0.293,0.707,0.293s0.512-0.098,0.707-0.293c0.391-0.391,0.391-1.023,0-1.414L14.151,12.81z"/>
		</g>
		<path style="fill:#545E73;" d="M26,30.074h-8c-0.552,0-1-0.447-1-1s0.448-1,1-1h8c0.552,0,1,0.447,1,1S26.552,30.074,26,30.074z"
			/>
		<path style="fill:#545E73;" d="M29,27.074c-0.552,0-1-0.447-1-1v-11c0-0.553,0.448-1,1-1s1,0.447,1,1v11
			C30,26.626,29.552,27.074,29,27.074z"/>
		<path style="fill:#545E73;" d="M29,33.074c-2.206,0-4-1.794-4-4s1.794-4,4-4s4,1.794,4,4S31.206,33.074,29,33.074z M29,27.074
			c-1.103,0-2,0.897-2,2s0.897,2,2,2s2-0.897,2-2S30.103,27.074,29,27.074z"/>
	</g>
	<g>
		<rect x="38.39" y="42.195" style="fill:#B1D3EF;" width="20" height="16"/>
		<path style="fill:#556080;" d="M51.39,49.195c0-1.657-1.343-3-3-3s-3,1.343-3,3c0,1.317,0.854,2.424,2.035,2.827
			c-0.011,0.058-0.035,0.112-0.035,0.173v2c0,0.552,0.448,1,1,1s1-0.448,1-1v-2c0-0.061-0.024-0.115-0.035-0.173
			C50.535,51.619,51.39,50.512,51.39,49.195z"/>
		<path style="fill:#BDC3C7;" d="M43.39,40.195c0-2.757,2.243-5,5-5s5,2.243,5,5v2h2v-2c0-3.86-3.14-7-7-7s-7,3.14-7,7v2h2V40.195z"
			/>
	</g>
</g>
<g>
</g>
<g>
</g>
<g>
</g>
<g>
</g>
<g>
</g>
<g>
</g>
<g>
</g>
<g>
</g>
<g>
</g>
<g>
</g>
<g>
</g>
<g>
</g>
<g>
</g>
<g>
</g>
<g>
</g>
</svg>
