<?xml version="1.0" encoding="iso-8859-1"?>
<!-- Generator: Adobe Illustrator 18.0.0, SVG Export Plug-In . SVG Version: 6.00 Build 0)  -->
<!DOCTYPE svg PUBLIC "-//W3C//DTD SVG 1.1//EN" "http://www.w3.org/Graphics/SVG/1.1/DTD/svg11.dtd">
<svg version="1.1" id="Capa_1" xmlns="http://www.w3.org/2000/svg" xmlns:xlink="http://www.w3.org/1999/xlink" x="0px" y="0px"
	 viewBox="0 0 59 59" style="enable-background:new 0 0 59 59;" xml:space="preserve">
<g>
	<g>
		<circle style="fill:#ECF0F1;" cx="29" cy="29.5" r="29"/>
		<path style="fill:#545E73;" d="M29,4.5c13.785,0,25,11.215,25,25s-11.215,25-25,25S4,43.285,4,29.5S15.215,4.5,29,4.5 M29,0.5
			c-16.016,0-29,12.984-29,29s12.984,29,29,29s29-12.984,29-29S45.016,0.5,29,0.5L29,0.5z"/>
		<g>
			<path style="fill:#8697CB;" d="M29,6.379c-0.552,0-1,0.447-1,1v1c0,0.553,0.448,1,1,1s1-0.447,1-1v-1
				C30,6.826,29.552,6.379,29,6.379z"/>
			<path style="fill:#8697CB;" d="M29,49.379c-0.552,0-1,0.447-1,1v1c0,0.553,0.448,1,1,1s1-0.447,1-1v-1
				C30,49.826,29.552,49.379,29,49.379z"/>
			<path style="fill:#8697CB;" d="M51,28.379h-1c-0.552,0-1,0.447-1,1s0.448,1,1,1h1c0.552,0,1-0.447,1-1S51.552,28.379,51,28.379z"
				/>
			<path style="fill:#8697CB;" d="M8,28.379H7c-0.552,0-1,0.447-1,1s0.448,1,1,1h1c0.552,0,1-0.447,1-1S8.552,28.379,8,28.379z"/>
			<path style="fill:#8697CB;" d="M43.849,13.115l-0.707,0.707c-0.391,0.391-0.391,1.023,0,1.414
				c0.195,0.195,0.451,0.293,0.707,0.293s0.512-0.098,0.707-0.293l0.707-0.707c0.391-0.391,0.391-1.023,0-1.414
				S44.24,12.724,43.849,13.115z"/>
			<path style="fill:#8697CB;" d="M13.444,43.521l-0.707,0.707c-0.391,0.391-0.391,1.023,0,1.414
				c0.195,0.195,0.451,0.293,0.707,0.293s0.512-0.098,0.707-0.293l0.707-0.707c0.391-0.391,0.391-1.023,0-1.414
				S13.834,43.131,13.444,43.521z"/>
			<path style="fill:#8697CB;" d="M44.556,43.521c-0.391-0.391-1.023-0.391-1.414,0s-0.391,1.023,0,1.414l0.707,0.707
				c0.195,0.195,0.451,0.293,0.707,0.293s0.512-0.098,0.707-0.293c0.391-0.391,0.391-1.023,0-1.414L44.556,43.521z"/>
			<path style="fill:#8697CB;" d="M14.151,13.115c-0.391-0.391-1.023-0.391-1.414,0s-0.391,1.023,0,1.414l0.707,0.707
				c0.195,0.195,0.451,0.293,0.707,0.293s0.512-0.098,0.707-0.293c0.391-0.391,0.391-1.023,0-1.414L14.151,13.115z"/>
		</g>
		<path style="fill:#545E73;" d="M26,30.379h-8c-0.552,0-1-0.447-1-1s0.448-1,1-1h8c0.552,0,1,0.447,1,1S26.552,30.379,26,30.379z"
			/>
		<path style="fill:#545E73;" d="M29,27.379c-0.552,0-1-0.447-1-1v-11c0-0.553,0.448-1,1-1s1,0.447,1,1v11
			C30,26.932,29.552,27.379,29,27.379z"/>
		<path style="fill:#545E73;" d="M29,33.379c-2.206,0-4-1.794-4-4s1.794-4,4-4s4,1.794,4,4S31.206,33.379,29,33.379z M29,27.379
			c-1.103,0-2,0.897-2,2s0.897,2,2,2s2-0.897,2-2S30.103,27.379,29,27.379z"/>
	</g>
	<g>
		<polygon style="fill:#EDDCC7;" points="37.566,49.007 37.559,49.015 35.571,56.304 40.217,51.658 		"/>
		<path style="fill:#D75A4A;" d="M56.816,35.059l-1.247-1.247c-0.775-0.775-2.032-0.775-2.807,0l-3.582,3.582l2.651,2.651
			L56.816,35.059z"/>
		
			<rect x="42.824" y="36.314" transform="matrix(0.7071 0.7071 -0.7071 0.7071 44.5765 -18.5654)" style="fill:#F29C21;" width="3.749" height="16.424"/>
		<polygon style="fill:#D6C4B1;" points="43.216,54.672 43.223,54.664 40.217,51.658 35.571,56.304 35.437,56.793 		"/>
		<path style="fill:#A34740;" d="M54.837,43.05l3.582-3.582c0.775-0.775,0.775-2.032,0-2.807l-1.602-1.602l-4.985,4.985
			L54.837,43.05z"/>
		
			<rect x="45.401" y="39.142" transform="matrix(-0.7071 -0.7071 0.7071 -0.7071 47.6487 114.445)" style="fill:#E18C25;" width="4.251" height="16.424"/>
		<path style="fill:#5E5E5E;" d="M34.73,58.5c-0.256,0-0.512-0.098-0.707-0.293c-0.391-0.391-0.391-1.023,0-1.414l2.207-2.207
			c0.391-0.391,1.023-0.391,1.414,0s0.391,1.023,0,1.414l-2.207,2.207C35.242,58.402,34.986,58.5,34.73,58.5z"/>
	</g>
</g>
<g>
</g>
<g>
</g>
<g>
</g>
<g>
</g>
<g>
</g>
<g>
</g>
<g>
</g>
<g>
</g>
<g>
</g>
<g>
</g>
<g>
</g>
<g>
</g>
<g>
</g>
<g>
</g>
<g>
</g>
</svg>
