<?xml version="1.0" encoding="iso-8859-1"?>
<!-- Generator: Adobe Illustrator 18.0.0, SVG Export Plug-In . SVG Version: 6.00 Build 0)  -->
<!DOCTYPE svg PUBLIC "-//W3C//DTD SVG 1.1//EN" "http://www.w3.org/Graphics/SVG/1.1/DTD/svg11.dtd">
<svg version="1.1" id="Capa_1" xmlns="http://www.w3.org/2000/svg" xmlns:xlink="http://www.w3.org/1999/xlink" x="0px" y="0px"
	 viewBox="0 0 58.981 58.981" style="enable-background:new 0 0 58.981 58.981;" xml:space="preserve">
<g>
	<g>
		<path style="fill:#545E73;" d="M35.89,58H10.701c-1.881,0-3.405-1.525-3.405-3.405V3.405C7.296,1.525,8.821,0,10.701,0H35.89
			c1.881,0,3.405,1.525,3.405,3.405v51.189C39.296,56.475,37.771,58,35.89,58z"/>
		<rect x="7.296" y="6" style="fill:#8697CB;" width="32" height="40"/>
		<circle style="fill:#323A45;" cx="23.296" cy="52" r="3"/>
		<path style="fill:#323A45;" d="M23.296,4h-4c-0.553,0-1-0.447-1-1s0.447-1,1-1h4c0.553,0,1,0.447,1,1S23.849,4,23.296,4z"/>
		<path style="fill:#323A45;" d="M27.296,4h-1c-0.553,0-1-0.447-1-1s0.447-1,1-1h1c0.553,0,1,0.447,1,1S27.849,4,27.296,4z"/>
	</g>
	<g>
		<circle style="fill:#26B999;" cx="39.686" cy="46.981" r="12"/>
		<path style="fill:#FFFFFF;" d="M46.257,41.161c-0.455-0.316-1.077-0.204-1.392,0.25l-5.596,8.04l-3.949-3.242
			c-0.426-0.351-1.057-0.288-1.407,0.139c-0.351,0.427-0.289,1.057,0.139,1.407l4.786,3.929c0.18,0.147,0.404,0.227,0.634,0.227
			c0.045,0,0.091-0.003,0.137-0.009c0.276-0.039,0.524-0.19,0.684-0.419l6.214-8.929C46.822,42.1,46.71,41.476,46.257,41.161z"/>
	</g>
</g>
<g>
</g>
<g>
</g>
<g>
</g>
<g>
</g>
<g>
</g>
<g>
</g>
<g>
</g>
<g>
</g>
<g>
</g>
<g>
</g>
<g>
</g>
<g>
</g>
<g>
</g>
<g>
</g>
<g>
</g>
</svg>
