<?xml version="1.0" encoding="iso-8859-1"?>
<!-- Generator: Adobe Illustrator 18.0.0, SVG Export Plug-In . SVG Version: 6.00 Build 0)  -->
<!DOCTYPE svg PUBLIC "-//W3C//DTD SVG 1.1//EN" "http://www.w3.org/Graphics/SVG/1.1/DTD/svg11.dtd">
<svg version="1.1" id="Capa_1" xmlns="http://www.w3.org/2000/svg" xmlns:xlink="http://www.w3.org/1999/xlink" x="0px" y="0px"
	 viewBox="0 0 58.981 58.981" style="enable-background:new 0 0 58.981 58.981;" xml:space="preserve">
<g>
	<g>
		<path style="fill:#545E73;" d="M35.89,58H10.701c-1.881,0-3.405-1.525-3.405-3.405V3.405C7.296,1.525,8.821,0,10.701,0H35.89
			c1.881,0,3.405,1.525,3.405,3.405v51.189C39.296,56.475,37.771,58,35.89,58z"/>
		<rect x="7.296" y="6" style="fill:#8697CB;" width="32" height="40"/>
		<circle style="fill:#323A45;" cx="23.296" cy="52" r="3"/>
		<path style="fill:#323A45;" d="M23.296,4h-4c-0.553,0-1-0.447-1-1s0.447-1,1-1h4c0.553,0,1,0.447,1,1S23.849,4,23.296,4z"/>
		<path style="fill:#323A45;" d="M27.296,4h-1c-0.553,0-1-0.447-1-1s0.447-1,1-1h1c0.553,0,1,0.447,1,1S27.849,4,27.296,4z"/>
	</g>
	<g>
		<polygon style="fill:#EDDCC7;" points="30.252,49.489 30.244,49.496 28.256,56.786 32.903,52.139 		"/>
		<path style="fill:#D75A4A;" d="M49.502,35.54l-1.247-1.247c-0.775-0.775-2.032-0.775-2.807,0l-3.582,3.582l2.651,2.651
			L49.502,35.54z"/>
		
			<rect x="35.51" y="36.795" transform="matrix(0.7071 0.7071 -0.7071 0.7071 42.7746 -13.2523)" style="fill:#F29C21;" width="3.749" height="16.424"/>
		<polygon style="fill:#D6C4B1;" points="35.901,55.153 35.909,55.145 32.903,52.139 28.256,56.786 28.123,57.274 		"/>
		<path style="fill:#A34740;" d="M47.522,43.532l3.582-3.582c0.775-0.775,0.775-2.032,0-2.807l-1.602-1.602l-4.985,4.985
			L47.522,43.532z"/>
		
			<rect x="38.087" y="39.623" transform="matrix(-0.7071 -0.7071 0.7071 -0.7071 34.8218 110.0948)" style="fill:#E18C25;" width="4.251" height="16.424"/>
		<path style="fill:#5E5E5E;" d="M27.416,58.981c-0.256,0-0.512-0.098-0.707-0.293c-0.391-0.391-0.391-1.023,0-1.414l2.207-2.207
			c0.391-0.391,1.023-0.391,1.414,0s0.391,1.023,0,1.414l-2.207,2.207C27.928,58.884,27.672,58.981,27.416,58.981z"/>
	</g>
</g>
<g>
</g>
<g>
</g>
<g>
</g>
<g>
</g>
<g>
</g>
<g>
</g>
<g>
</g>
<g>
</g>
<g>
</g>
<g>
</g>
<g>
</g>
<g>
</g>
<g>
</g>
<g>
</g>
<g>
</g>
</svg>
