<?xml version="1.0" encoding="iso-8859-1"?>
<!-- Generator: Adobe Illustrator 18.0.0, SVG Export Plug-In . SVG Version: 6.00 Build 0)  -->
<!DOCTYPE svg PUBLIC "-//W3C//DTD SVG 1.1//EN" "http://www.w3.org/Graphics/SVG/1.1/DTD/svg11.dtd">
<svg version="1.1" id="Capa_1" xmlns="http://www.w3.org/2000/svg" xmlns:xlink="http://www.w3.org/1999/xlink" x="0px" y="0px"
	 viewBox="0 0 58.981 58.981" style="enable-background:new 0 0 58.981 58.981;" xml:space="preserve">
<g>
	<g>
		<path style="fill:#545E73;" d="M35.381,58H10.192c-1.881,0-3.405-1.525-3.405-3.405V3.405C6.787,1.525,8.311,0,10.192,0h25.189
			c1.881,0,3.405,1.525,3.405,3.405v51.189C38.787,56.475,37.262,58,35.381,58z"/>
		<rect x="6.787" y="6" style="fill:#8697CB;" width="32" height="40"/>
		<circle style="fill:#323A45;" cx="22.787" cy="52" r="3"/>
		<path style="fill:#323A45;" d="M22.787,4h-4c-0.553,0-1-0.447-1-1s0.447-1,1-1h4c0.553,0,1,0.447,1,1S23.339,4,22.787,4z"/>
		<path style="fill:#323A45;" d="M26.787,4h-1c-0.553,0-1-0.447-1-1s0.447-1,1-1h1c0.553,0,1,0.447,1,1S27.339,4,26.787,4z"/>
	</g>
	<g>
		<circle style="fill:#D0E8F9;" cx="37.972" cy="43.796" r="9.796"/>
		<path style="fill:#EAF6FD;" d="M41.525,34.674L28.851,47.348c0.706,1.81,1.93,3.357,3.495,4.459L45.984,38.17
			C44.882,36.604,43.335,35.38,41.525,34.674z"/>
		<path style="fill:#B1D3EF;" d="M51.918,57.291l-5.97-6.244c1.746-1.919,2.82-4.458,2.82-7.251C48.768,37.843,43.925,33,37.972,33
			s-10.796,4.843-10.796,10.796s4.843,10.796,10.796,10.796c2.442,0,4.689-0.824,6.499-2.196l6.001,6.276
			c0.196,0.206,0.459,0.309,0.723,0.309c0.249,0,0.497-0.092,0.691-0.277C52.285,58.323,52.299,57.689,51.918,57.291z
			 M29.176,43.796c0-4.85,3.946-8.796,8.796-8.796s8.796,3.946,8.796,8.796s-3.946,8.796-8.796,8.796S29.176,48.646,29.176,43.796z"
			/>
	</g>
</g>
<g>
</g>
<g>
</g>
<g>
</g>
<g>
</g>
<g>
</g>
<g>
</g>
<g>
</g>
<g>
</g>
<g>
</g>
<g>
</g>
<g>
</g>
<g>
</g>
<g>
</g>
<g>
</g>
<g>
</g>
</svg>
