<?xml version="1.0" encoding="iso-8859-1"?>
<!-- Generator: Adobe Illustrator 18.0.0, SVG Export Plug-In . SVG Version: 6.00 Build 0)  -->
<!DOCTYPE svg PUBLIC "-//W3C//DTD SVG 1.1//EN" "http://www.w3.org/Graphics/SVG/1.1/DTD/svg11.dtd">
<svg version="1.1" id="Capa_1" xmlns="http://www.w3.org/2000/svg" xmlns:xlink="http://www.w3.org/1999/xlink" x="0px" y="0px"
	 viewBox="0 0 58.981 58.981" style="enable-background:new 0 0 58.981 58.981;" xml:space="preserve">
<g>
	<g>
		<path style="fill:#545E73;" d="M35.89,58H10.701c-1.881,0-3.405-1.525-3.405-3.405V3.405C7.296,1.525,8.821,0,10.701,0H35.89
			c1.881,0,3.405,1.525,3.405,3.405v51.189C39.296,56.475,37.771,58,35.89,58z"/>
		<rect x="7.296" y="6" style="fill:#8697CB;" width="32" height="40"/>
		<circle style="fill:#323A45;" cx="23.296" cy="52" r="3"/>
		<path style="fill:#323A45;" d="M23.296,4h-4c-0.553,0-1-0.447-1-1s0.447-1,1-1h4c0.553,0,1,0.447,1,1S23.849,4,23.296,4z"/>
		<path style="fill:#323A45;" d="M27.296,4h-1c-0.553,0-1-0.447-1-1s0.447-1,1-1h1c0.553,0,1,0.447,1,1S27.849,4,27.296,4z"/>
	</g>
	<g>
		<path style="fill:#EFC41A;" d="M50.446,58.981H26.755c-0.955,0-1.55-1.036-1.069-1.861l11.845-20.306
			c0.478-0.819,1.66-0.819,2.138,0L51.515,57.12C51.996,57.945,51.401,58.981,50.446,58.981z"/>
		<path style="fill:#FFFFFF;" d="M38.686,51.981c-0.552,0-1-0.448-1-1v-8c0-0.552,0.448-1,1-1s1,0.448,1,1v8
			C39.686,51.534,39.238,51.981,38.686,51.981z"/>
		<path style="fill:#FFFFFF;" d="M38.686,55.981c-0.26,0-0.52-0.11-0.71-0.29c-0.18-0.19-0.29-0.45-0.29-0.71
			c0-0.26,0.11-0.52,0.29-0.71c0.38-0.37,1.04-0.37,1.42,0c0.18,0.19,0.29,0.45,0.29,0.71c0,0.26-0.11,0.52-0.29,0.71
			C39.206,55.871,38.956,55.981,38.686,55.981z"/>
	</g>
</g>
<g>
</g>
<g>
</g>
<g>
</g>
<g>
</g>
<g>
</g>
<g>
</g>
<g>
</g>
<g>
</g>
<g>
</g>
<g>
</g>
<g>
</g>
<g>
</g>
<g>
</g>
<g>
</g>
<g>
</g>
</svg>
