<?xml version="1.0" encoding="iso-8859-1"?>
<!-- Generator: Adobe Illustrator 18.0.0, SVG Export Plug-In . SVG Version: 6.00 Build 0)  -->
<!DOCTYPE svg PUBLIC "-//W3C//DTD SVG 1.1//EN" "http://www.w3.org/Graphics/SVG/1.1/DTD/svg11.dtd">
<svg version="1.1" id="Capa_1" xmlns="http://www.w3.org/2000/svg" xmlns:xlink="http://www.w3.org/1999/xlink" x="0px" y="0px"
	 viewBox="0 0 58.981 58.981" style="enable-background:new 0 0 58.981 58.981;" xml:space="preserve">
<g>
	<g>
		<path style="fill:#545E73;" d="M35.89,58H10.701c-1.881,0-3.405-1.525-3.405-3.405V3.405C7.296,1.525,8.821,0,10.701,0H35.89
			c1.881,0,3.405,1.525,3.405,3.405v51.189C39.296,56.475,37.771,58,35.89,58z"/>
		<rect x="7.296" y="6" style="fill:#8697CB;" width="32" height="40"/>
		<circle style="fill:#323A45;" cx="23.296" cy="52" r="3"/>
		<path style="fill:#323A45;" d="M23.296,4h-4c-0.553,0-1-0.447-1-1s0.447-1,1-1h4c0.553,0,1,0.447,1,1S23.849,4,23.296,4z"/>
		<path style="fill:#323A45;" d="M27.296,4h-1c-0.553,0-1-0.447-1-1s0.447-1,1-1h1c0.553,0,1,0.447,1,1S27.849,4,27.296,4z"/>
	</g>
	<g>
		<rect x="31.686" y="42.981" style="fill:#B1D3EF;" width="20" height="16"/>
		<path style="fill:#556080;" d="M44.686,49.981c0-1.657-1.343-3-3-3s-3,1.343-3,3c0,1.317,0.854,2.424,2.035,2.827
			c-0.011,0.058-0.035,0.112-0.035,0.173v2c0,0.552,0.448,1,1,1s1-0.448,1-1v-2c0-0.061-0.024-0.115-0.035-0.173
			C43.831,52.405,44.686,51.299,44.686,49.981z"/>
		<path style="fill:#BDC3C7;" d="M36.686,40.981c0-2.757,2.243-5,5-5s5,2.243,5,5v2h2v-2c0-3.86-3.14-7-7-7s-7,3.14-7,7v2h2V40.981z
			"/>
	</g>
</g>
<g>
</g>
<g>
</g>
<g>
</g>
<g>
</g>
<g>
</g>
<g>
</g>
<g>
</g>
<g>
</g>
<g>
</g>
<g>
</g>
<g>
</g>
<g>
</g>
<g>
</g>
<g>
</g>
<g>
</g>
</svg>
