<?xml version="1.0" encoding="iso-8859-1"?>
<!-- Generator: Adobe Illustrator 18.0.0, SVG Export Plug-In . SVG Version: 6.00 Build 0)  -->
<!DOCTYPE svg PUBLIC "-//W3C//DTD SVG 1.1//EN" "http://www.w3.org/Graphics/SVG/1.1/DTD/svg11.dtd">
<svg version="1.1" id="Capa_1" xmlns="http://www.w3.org/2000/svg" xmlns:xlink="http://www.w3.org/1999/xlink" x="0px" y="0px"
	 viewBox="0 0 58.225 58.225" style="enable-background:new 0 0 58.225 58.225;" xml:space="preserve">
<g>
	<g>
		<path style="fill:#545E73;" d="M35.39,58H10.201c-1.881,0-3.405-1.525-3.405-3.405V3.405C6.796,1.525,8.32,0,10.201,0H35.39
			c1.881,0,3.405,1.525,3.405,3.405v51.189C38.796,56.475,37.271,58,35.39,58z"/>
		<rect x="6.796" y="6" style="fill:#8697CB;" width="32" height="40"/>
		<circle style="fill:#323A45;" cx="22.796" cy="52" r="3"/>
		<path style="fill:#323A45;" d="M22.796,4h-4c-0.553,0-1-0.447-1-1s0.447-1,1-1h4c0.553,0,1,0.447,1,1S23.348,4,22.796,4z"/>
		<path style="fill:#323A45;" d="M26.796,4h-1c-0.553,0-1-0.447-1-1s0.447-1,1-1h1c0.553,0,1,0.447,1,1S27.348,4,26.796,4z"/>
	</g>
	<g>
		<path style="fill:#B1D3EF;" d="M51.136,56.518l-6.797-6.797l6.483-3.241l-17.637-6.498l6.499,17.637l3.241-6.484l6.797,6.797
			c0.195,0.195,0.451,0.293,0.707,0.293s0.512-0.098,0.707-0.293C51.527,57.542,51.527,56.909,51.136,56.518z"/>
	</g>
</g>
<g>
</g>
<g>
</g>
<g>
</g>
<g>
</g>
<g>
</g>
<g>
</g>
<g>
</g>
<g>
</g>
<g>
</g>
<g>
</g>
<g>
</g>
<g>
</g>
<g>
</g>
<g>
</g>
<g>
</g>
</svg>
