<?xml version="1.0" encoding="iso-8859-1"?>
<!-- Generator: Adobe Illustrator 18.0.0, SVG Export Plug-In . SVG Version: 6.00 Build 0)  -->
<!DOCTYPE svg PUBLIC "-//W3C//DTD SVG 1.1//EN" "http://www.w3.org/Graphics/SVG/1.1/DTD/svg11.dtd">
<svg version="1.1" id="Capa_1" xmlns="http://www.w3.org/2000/svg" xmlns:xlink="http://www.w3.org/1999/xlink" x="0px" y="0px"
	 viewBox="0 0 58.981 58.981" style="enable-background:new 0 0 58.981 58.981;" xml:space="preserve">
<g>
	<g>
		<path style="fill:#545E73;" d="M35.89,58H10.701c-1.881,0-3.405-1.525-3.405-3.405V3.405C7.296,1.525,8.821,0,10.701,0H35.89
			c1.881,0,3.405,1.525,3.405,3.405v51.189C39.296,56.475,37.771,58,35.89,58z"/>
		<rect x="7.296" y="6" style="fill:#8697CB;" width="32" height="40"/>
		<circle style="fill:#323A45;" cx="23.296" cy="52" r="3"/>
		<path style="fill:#323A45;" d="M23.296,4h-4c-0.553,0-1-0.447-1-1s0.447-1,1-1h4c0.553,0,1,0.447,1,1S23.849,4,23.296,4z"/>
		<path style="fill:#323A45;" d="M27.296,4h-1c-0.553,0-1-0.447-1-1s0.447-1,1-1h1c0.553,0,1,0.447,1,1S27.849,4,27.296,4z"/>
	</g>
	<g>
		<circle style="fill:#ED7161;" cx="39.686" cy="46.981" r="12"/>
		<path style="fill:#FFFFFF;" d="M41.1,46.981l3.536-3.536c0.391-0.391,0.391-1.023,0-1.414s-1.023-0.391-1.414,0l-3.536,3.536
			l-3.536-3.536c-0.391-0.391-1.023-0.391-1.414,0s-0.391,1.023,0,1.414l3.536,3.536l-3.536,3.536c-0.391,0.391-0.391,1.023,0,1.414
			c0.195,0.195,0.451,0.293,0.707,0.293s0.512-0.098,0.707-0.293l3.536-3.536l3.536,3.536c0.195,0.195,0.451,0.293,0.707,0.293
			s0.512-0.098,0.707-0.293c0.391-0.391,0.391-1.023,0-1.414L41.1,46.981z"/>
	</g>
</g>
<g>
</g>
<g>
</g>
<g>
</g>
<g>
</g>
<g>
</g>
<g>
</g>
<g>
</g>
<g>
</g>
<g>
</g>
<g>
</g>
<g>
</g>
<g>
</g>
<g>
</g>
<g>
</g>
<g>
</g>
</svg>
