<?xml version="1.0" encoding="iso-8859-1"?>
<!-- Generator: Adobe Illustrator 18.0.0, SVG Export Plug-In . SVG Version: 6.00 Build 0)  -->
<!DOCTYPE svg PUBLIC "-//W3C//DTD SVG 1.1//EN" "http://www.w3.org/Graphics/SVG/1.1/DTD/svg11.dtd">
<svg version="1.1" id="Capa_1" xmlns="http://www.w3.org/2000/svg" xmlns:xlink="http://www.w3.org/1999/xlink" x="0px" y="0px"
	 viewBox="0 0 58.981 58.981" style="enable-background:new 0 0 58.981 58.981;" xml:space="preserve">
<g>
	<g>
		<path style="fill:#545E73;" d="M35.39,58H10.201c-1.881,0-3.405-1.525-3.405-3.405V3.405C6.796,1.525,8.321,0,10.201,0H35.39
			c1.881,0,3.405,1.525,3.405,3.405v51.189C38.796,56.475,37.271,58,35.39,58z"/>
		<rect x="6.796" y="6" style="fill:#8697CB;" width="32" height="40"/>
		<circle style="fill:#323A45;" cx="22.796" cy="52" r="3"/>
		<path style="fill:#323A45;" d="M22.796,4h-4c-0.553,0-1-0.447-1-1s0.447-1,1-1h4c0.553,0,1,0.447,1,1S23.349,4,22.796,4z"/>
		<path style="fill:#323A45;" d="M26.796,4h-1c-0.553,0-1-0.447-1-1s0.447-1,1-1h1c0.553,0,1,0.447,1,1S27.349,4,26.796,4z"/>
	</g>
	<g>
		<circle style="fill:#B1D3EF;" cx="41.186" cy="47.981" r="11"/>
		<path style="fill:#FFFFFF;" d="M47.186,46.981h-5v-5c0-0.552-0.447-1-1-1s-1,0.448-1,1v6c0,0.552,0.447,1,1,1h6
			c0.553,0,1-0.448,1-1S47.738,46.981,47.186,46.981z"/>
	</g>
</g>
<g>
</g>
<g>
</g>
<g>
</g>
<g>
</g>
<g>
</g>
<g>
</g>
<g>
</g>
<g>
</g>
<g>
</g>
<g>
</g>
<g>
</g>
<g>
</g>
<g>
</g>
<g>
</g>
<g>
</g>
</svg>
