<?xml version="1.0" encoding="iso-8859-1"?>
<!-- Generator: Adobe Illustrator 18.0.0, SVG Export Plug-In . SVG Version: 6.00 Build 0)  -->
<!DOCTYPE svg PUBLIC "-//W3C//DTD SVG 1.1//EN" "http://www.w3.org/Graphics/SVG/1.1/DTD/svg11.dtd">
<svg version="1.1" id="Capa_1" xmlns="http://www.w3.org/2000/svg" xmlns:xlink="http://www.w3.org/1999/xlink" x="0px" y="0px"
	 viewBox="0 0 58.981 58.981" style="enable-background:new 0 0 58.981 58.981;" xml:space="preserve">
<g>
	<g>
		<path style="fill:#545E73;" d="M35.39,58H10.201c-1.881,0-3.405-1.525-3.405-3.405V3.405C6.796,1.525,8.321,0,10.201,0H35.39
			c1.881,0,3.405,1.525,3.405,3.405v51.189C38.796,56.475,37.271,58,35.39,58z"/>
		<rect x="6.796" y="6" style="fill:#8697CB;" width="32" height="40"/>
		<circle style="fill:#323A45;" cx="22.796" cy="52" r="3"/>
		<path style="fill:#323A45;" d="M22.796,4h-4c-0.553,0-1-0.447-1-1s0.447-1,1-1h4c0.553,0,1,0.447,1,1S23.349,4,22.796,4z"/>
		<path style="fill:#323A45;" d="M26.796,4h-1c-0.553,0-1-0.447-1-1s0.447-1,1-1h1c0.553,0,1,0.447,1,1S27.349,4,26.796,4z"/>
	</g>
	<g>
		<path style="fill:#BDC3C7;" d="M52.186,45.828l-1.444-0.278c-2.143-0.412-3.125-2.916-1.835-4.675l0.907-1.236l-1.958-1.958
			l-1.217,0.825c-1.806,1.224-4.272,0.148-4.604-2.008l-0.233-1.515h-2.769l-0.359,1.865c-0.403,2.096-2.818,3.096-4.585,1.899
			l-1.572-1.065l-1.958,1.958l0.907,1.236c1.29,1.76,0.308,4.263-1.835,4.675l-1.444,0.278v2.769l1.515,0.233
			c2.157,0.332,3.232,2.797,2.008,4.604l-0.825,1.217l1.958,1.958l1.236-0.907c1.76-1.29,4.263-0.308,4.675,1.835l0.278,1.444h2.769
			l0.164-1.066c0.339-2.204,2.896-3.263,4.694-1.944l0.869,0.638l1.958-1.958l-0.825-1.217c-1.224-1.806-0.148-4.272,2.008-4.604
			l1.515-0.233V45.828z"/>
		<g>
			<circle style="fill:#FFFFFF;" cx="40.186" cy="46.981" r="4"/>
			<path style="fill:#ECF0F1;" d="M40.186,51.981c-2.757,0-5-2.243-5-5s2.243-5,5-5s5,2.243,5,5S42.942,51.981,40.186,51.981z
				 M40.186,43.981c-1.654,0-3,1.346-3,3s1.346,3,3,3s3-1.346,3-3S41.84,43.981,40.186,43.981z"/>
		</g>
	</g>
</g>
<g>
</g>
<g>
</g>
<g>
</g>
<g>
</g>
<g>
</g>
<g>
</g>
<g>
</g>
<g>
</g>
<g>
</g>
<g>
</g>
<g>
</g>
<g>
</g>
<g>
</g>
<g>
</g>
<g>
</g>
</svg>
