<?xml version="1.0" encoding="iso-8859-1"?>
<!-- Generator: Adobe Illustrator 18.0.0, SVG Export Plug-In . SVG Version: 6.00 Build 0)  -->
<!DOCTYPE svg PUBLIC "-//W3C//DTD SVG 1.1//EN" "http://www.w3.org/Graphics/SVG/1.1/DTD/svg11.dtd">
<svg version="1.1" id="Capa_1" xmlns="http://www.w3.org/2000/svg" xmlns:xlink="http://www.w3.org/1999/xlink" x="0px" y="0px"
	 viewBox="0 0 58 58" style="enable-background:new 0 0 58 58;" xml:space="preserve">
<g>
	<path style="fill:#69BC45;" d="M56,17.207c0-8.822-7.178-16-16-16H16c-8.822,0-16,7.178-16,16v14c0,8.485,6.644,15.429,15,15.949
		v-3.949c0-0.553,0.448-1,1-1s1,0.447,1,1v4v1v8.586l1.359-1.359c5.306-5.305,12.359-8.227,19.86-8.227H40c8.822,0,16-7.178,16-16
		V17.207z"/>
	<g>
		<circle style="fill:#F29C21;" cx="46" cy="43.223" r="12"/>
		<path style="fill:#FFFFFF;" d="M52,44.223H40c-0.552,0-1-0.448-1-1s0.448-1,1-1h12c0.552,0,1,0.448,1,1S52.552,44.223,52,44.223z"
			/>
	</g>
</g>
<g>
</g>
<g>
</g>
<g>
</g>
<g>
</g>
<g>
</g>
<g>
</g>
<g>
</g>
<g>
</g>
<g>
</g>
<g>
</g>
<g>
</g>
<g>
</g>
<g>
</g>
<g>
</g>
<g>
</g>
</svg>
