<?xml version="1.0" encoding="iso-8859-1"?>
<!-- Generator: Adobe Illustrator 18.0.0, SVG Export Plug-In . SVG Version: 6.00 Build 0)  -->
<!DOCTYPE svg PUBLIC "-//W3C//DTD SVG 1.1//EN" "http://www.w3.org/Graphics/SVG/1.1/DTD/svg11.dtd">
<svg version="1.1" id="Capa_1" xmlns="http://www.w3.org/2000/svg" xmlns:xlink="http://www.w3.org/1999/xlink" x="0px" y="0px"
	 viewBox="0 0 59 59" style="enable-background:new 0 0 59 59;" xml:space="preserve">
<g>
	<path style="fill:#69BC45;" d="M56,17.707c0-8.822-7.178-16-16-16H16c-8.822,0-16,7.178-16,16v14c0,8.485,6.644,15.429,15,15.949
		v-3.949c0-0.553,0.448-1,1-1s1,0.447,1,1v4v1v8.586l1.359-1.359c5.306-5.305,12.359-8.227,19.86-8.227H40c8.822,0,16-7.178,16-16
		V17.707z"/>
	<g>
		<path style="fill:#D0E8F9;" d="M49,43.293h-2l0,0c-3.633-1.453-6-4.861-6-8.64v-3.36h14v3.36C55,38.432,52.633,41.84,49,43.293
			L49,43.293z"/>
		<path style="fill:#D0E8F9;" d="M47,43.293h2l0,0c3.633,1.453,6,4.861,6,8.64v3.36H41v-3.36C41,48.154,43.367,44.746,47,43.293
			L47,43.293z"/>
		<g>
			<path style="fill:#556080;" d="M38,32.293h1h2h17c0.553,0,1-0.448,1-1s-0.447-1-1-1H41h-2h-1c-0.553,0-1,0.448-1,1
				S37.447,32.293,38,32.293z"/>
			<path style="fill:#556080;" d="M57.999,54.291h-18c-0.003,0-0.006,0.002-0.01,0.002H38c-0.553,0-1,0.448-1,1s0.447,1,1,1h3
				c0.003,0,0.006-0.002,0.01-0.002h16.989c0.553,0,1-0.448,1-1S58.552,54.291,57.999,54.291z"/>
		</g>
	</g>
</g>
<g>
</g>
<g>
</g>
<g>
</g>
<g>
</g>
<g>
</g>
<g>
</g>
<g>
</g>
<g>
</g>
<g>
</g>
<g>
</g>
<g>
</g>
<g>
</g>
<g>
</g>
<g>
</g>
<g>
</g>
</svg>
