<?xml version="1.0" encoding="iso-8859-1"?>
<!-- Generator: Adobe Illustrator 18.0.0, SVG Export Plug-In . SVG Version: 6.00 Build 0)  -->
<!DOCTYPE svg PUBLIC "-//W3C//DTD SVG 1.1//EN" "http://www.w3.org/Graphics/SVG/1.1/DTD/svg11.dtd">
<svg version="1.1" id="Capa_1" xmlns="http://www.w3.org/2000/svg" xmlns:xlink="http://www.w3.org/1999/xlink" x="0px" y="0px"
	 viewBox="0 0 58 58" style="enable-background:new 0 0 58 58;" xml:space="preserve">
<g>
	<path style="fill:#69BC45;" d="M56,17.207c0-8.822-7.178-16-16-16H16c-8.822,0-16,7.178-16,16v14c0,8.485,6.644,15.429,15,15.949
		v-3.949c0-0.553,0.448-1,1-1s1,0.447,1,1v4v1v8.586l1.359-1.359c5.306-5.305,12.359-8.227,19.86-8.227H40c8.822,0,16-7.178,16-16
		V17.207z"/>
	<g>
		<path style="fill:#ED7161;" d="M46,38.423c0.969-2.183,3.109-4.2,5.684-4.2c3.467,0,5.964,2.821,6.278,6.183
			c0,0,0.17,0.835-0.203,2.337c-0.508,2.046-1.701,3.864-3.311,5.251L46,55.223l-8.447-7.229c-1.61-1.387-2.803-3.205-3.311-5.251
			c-0.373-1.502-0.203-2.337-0.203-2.337c0.314-3.362,2.811-6.183,6.278-6.183C42.891,34.223,45.031,36.239,46,38.423z"/>
	</g>
</g>
<g>
</g>
<g>
</g>
<g>
</g>
<g>
</g>
<g>
</g>
<g>
</g>
<g>
</g>
<g>
</g>
<g>
</g>
<g>
</g>
<g>
</g>
<g>
</g>
<g>
</g>
<g>
</g>
<g>
</g>
</svg>
