<?xml version="1.0" encoding="iso-8859-1"?>
<!-- Generator: Adobe Illustrator 18.0.0, SVG Export Plug-In . SVG Version: 6.00 Build 0)  -->
<!DOCTYPE svg PUBLIC "-//W3C//DTD SVG 1.1//EN" "http://www.w3.org/Graphics/SVG/1.1/DTD/svg11.dtd">
<svg version="1.1" id="Capa_1" xmlns="http://www.w3.org/2000/svg" xmlns:xlink="http://www.w3.org/1999/xlink" x="0px" y="0px"
	 viewBox="0 0 57.27 57.27" style="enable-background:new 0 0 57.27 57.27;" xml:space="preserve">
<g>
	<path style="fill:#69BC45;" d="M56,16.842c0-8.822-7.178-16-16-16H16c-8.822,0-16,7.178-16,16v14c0,8.485,6.644,15.429,15,15.949
		v-3.949c0-0.553,0.448-1,1-1s1,0.447,1,1v4v1v8.586l1.359-1.359c5.306-5.305,12.359-8.227,19.86-8.227H40c8.822,0,16-7.178,16-16
		V16.842z"/>
	<g>
		<polygon style="fill:#EDDCC7;" points="35.836,45.916 35.828,45.924 33.84,53.214 38.487,48.567 		"/>
		<path style="fill:#D75A4A;" d="M55.086,31.968l-1.247-1.247c-0.775-0.775-2.032-0.775-2.807,0l-3.582,3.582l2.651,2.651
			L55.086,31.968z"/>
		
			<rect x="41.094" y="33.223" transform="matrix(0.7071 0.7071 -0.7071 0.7071 41.8841 -18.2471)" style="fill:#F29C21;" width="3.749" height="16.424"/>
		<polygon style="fill:#D6C4B1;" points="41.485,51.581 41.493,51.573 38.487,48.567 33.84,53.214 33.707,53.702 		"/>
		<path style="fill:#A34740;" d="M53.107,39.959l3.582-3.582c0.775-0.775,0.775-2.032,0-2.807l-1.602-1.602L50.1,36.953
			L53.107,39.959z"/>
		
			<rect x="43.671" y="36.051" transform="matrix(-0.7071 -0.7071 0.7071 -0.7071 46.8803 107.9451)" style="fill:#E18C25;" width="4.251" height="16.424"/>
		<path style="fill:#5E5E5E;" d="M33,55.409c-0.256,0-0.512-0.098-0.707-0.293c-0.391-0.391-0.391-1.023,0-1.414l2.207-2.207
			c0.391-0.391,1.023-0.391,1.414,0s0.391,1.023,0,1.414l-2.207,2.207C33.512,55.312,33.256,55.409,33,55.409z"/>
	</g>
</g>
<g>
</g>
<g>
</g>
<g>
</g>
<g>
</g>
<g>
</g>
<g>
</g>
<g>
</g>
<g>
</g>
<g>
</g>
<g>
</g>
<g>
</g>
<g>
</g>
<g>
</g>
<g>
</g>
<g>
</g>
</svg>
