<?xml version="1.0" encoding="iso-8859-1"?>
<!-- Generator: Adobe Illustrator 18.0.0, SVG Export Plug-In . SVG Version: 6.00 Build 0)  -->
<!DOCTYPE svg PUBLIC "-//W3C//DTD SVG 1.1//EN" "http://www.w3.org/Graphics/SVG/1.1/DTD/svg11.dtd">
<svg version="1.1" id="Capa_1" xmlns="http://www.w3.org/2000/svg" xmlns:xlink="http://www.w3.org/1999/xlink" x="0px" y="0px"
	 viewBox="0 0 58 58" style="enable-background:new 0 0 58 58;" xml:space="preserve">
<g>
	<path style="fill:#69BC45;" d="M56,17.207c0-8.822-7.178-16-16-16H16c-8.822,0-16,7.178-16,16v14c0,8.485,6.644,15.429,15,15.949
		v-3.949c0-0.553,0.448-1,1-1s1,0.447,1,1v4v1v8.586l1.359-1.359c5.306-5.305,12.359-8.227,19.86-8.227H40c8.822,0,16-7.178,16-16
		V17.207z"/>
	<g>
		<path style="fill:#FFFFFF;" d="M56.805,47.472l-0.107,0.163c-7.121,10.876-18.773,10.876-25.893,0l0,0l0.107-0.163
			C38.033,36.596,49.685,36.596,56.805,47.472L56.805,47.472z"/>
		<circle style="fill:#556080;" cx="43.569" cy="45.19" r="5.909"/>
		<path style="fill:#B1D3EF;" d="M43.752,56.793c-5.254,0-10.148-3.058-13.783-8.609l-0.358-0.547l0.465-0.711
			c3.635-5.552,8.53-8.609,13.784-8.609c5.253,0,10.148,3.057,13.783,8.609L58,47.472l-0.465,0.711
			C53.9,53.735,49.005,56.793,43.752,56.793z M32.008,47.632c3.206,4.624,7.356,7.161,11.744,7.161c4.436,0,8.63-2.594,11.85-7.317
			c-3.206-4.624-7.356-7.161-11.743-7.161C39.422,40.315,35.229,42.909,32.008,47.632z"/>
	</g>
</g>
<g>
</g>
<g>
</g>
<g>
</g>
<g>
</g>
<g>
</g>
<g>
</g>
<g>
</g>
<g>
</g>
<g>
</g>
<g>
</g>
<g>
</g>
<g>
</g>
<g>
</g>
<g>
</g>
<g>
</g>
</svg>
