<?xml version="1.0" encoding="iso-8859-1"?>
<!-- Generator: Adobe Illustrator 18.0.0, SVG Export Plug-In . SVG Version: 6.00 Build 0)  -->
<!DOCTYPE svg PUBLIC "-//W3C//DTD SVG 1.1//EN" "http://www.w3.org/Graphics/SVG/1.1/DTD/svg11.dtd">
<svg version="1.1" id="Capa_1" xmlns="http://www.w3.org/2000/svg" xmlns:xlink="http://www.w3.org/1999/xlink" x="0px" y="0px"
	 viewBox="0 0 59 59" style="enable-background:new 0 0 59 59;" xml:space="preserve">
<g>
	<path style="fill:#69BC45;" d="M56,17.707c0-8.822-7.178-16-16-16H16c-8.822,0-16,7.178-16,16v14c0,8.485,6.644,15.429,15,15.949
		v-3.949c0-0.553,0.448-1,1-1s1,0.447,1,1v4v1v8.586l1.359-1.359c5.306-5.305,12.359-8.227,19.86-8.227H40c8.822,0,16-7.178,16-16
		V17.707z"/>
	<g>
		<g>
			<path style="fill:#48A0DC;" d="M54.045,44.833c-0.05-3.935-3.162-7.111-6.999-7.111c-2.568,0-4.806,1.426-6.025,3.546
				c-0.421-0.141-0.87-0.22-1.337-0.22c-2.063,0-3.785,1.492-4.208,3.484c-1.754,0.865-2.975,2.706-2.975,4.831
				c0,2.947,2.343,5.359,5.208,5.359h10.775c0.061,0,0.119-0.007,0.18-0.009c0.06,0.002,0.119,0.009,0.18,0.009h4.31
				c2.667,0,4.849-2.245,4.849-4.989C58,47.304,56.288,45.268,54.045,44.833z"/>
			<path style="fill:#B1D3EF;" d="M53.151,55.723h-4.31c-0.063,0-0.126-0.004-0.188-0.008c-0.048,0.004-0.109,0.008-0.172,0.008
				H37.708c-3.423,0-6.208-2.853-6.208-6.358c0-2.262,1.209-4.372,3.116-5.503c0.686-2.235,2.746-3.813,5.066-3.813
				c0.296,0,0.592,0.025,0.884,0.076c1.495-2.116,3.914-3.402,6.479-3.402c4.102,0,7.524,3.225,7.954,7.332
				c2.358,0.806,4,3.079,4,5.679C59,53.036,56.376,55.723,53.151,55.723z M48.614,53.714L48.8,53.72l4.352,0.003
				c2.122,0,3.849-1.79,3.849-3.989c0-1.917-1.323-3.564-3.146-3.919l-0.799-0.155l-0.011-0.813
				c-0.044-3.376-2.734-6.123-5.999-6.123c-2.135,0-4.063,1.139-5.158,3.045l-0.409,0.711l-0.777-0.261
				c-0.332-0.112-0.675-0.169-1.019-0.169c-1.54,0-2.898,1.133-3.229,2.692l-0.102,0.475l-0.435,0.214
				c-1.469,0.725-2.417,2.269-2.417,3.935c0,2.403,1.888,4.358,4.208,4.358L48.614,53.714z"/>
		</g>
	</g>
</g>
<g>
</g>
<g>
</g>
<g>
</g>
<g>
</g>
<g>
</g>
<g>
</g>
<g>
</g>
<g>
</g>
<g>
</g>
<g>
</g>
<g>
</g>
<g>
</g>
<g>
</g>
<g>
</g>
<g>
</g>
</svg>
