<?xml version="1.0" encoding="iso-8859-1"?>
<!-- Generator: Adobe Illustrator 18.0.0, SVG Export Plug-In . SVG Version: 6.00 Build 0)  -->
<!DOCTYPE svg PUBLIC "-//W3C//DTD SVG 1.1//EN" "http://www.w3.org/Graphics/SVG/1.1/DTD/svg11.dtd">
<svg version="1.1" id="Capa_1" xmlns="http://www.w3.org/2000/svg" xmlns:xlink="http://www.w3.org/1999/xlink" x="0px" y="0px"
	 viewBox="0 0 59.39 59.39" style="enable-background:new 0 0 59.39 59.39;" xml:space="preserve">
<g>
	<g>
		<circle style="fill:#ECF0F1;" cx="29" cy="29.695" r="29"/>
		<path style="fill:#545E73;" d="M29,4.695c13.785,0,25,11.215,25,25s-11.215,25-25,25s-25-11.215-25-25S15.215,4.695,29,4.695
			 M29,0.695c-16.016,0-29,12.984-29,29s12.984,29,29,29s29-12.984,29-29S45.016,0.695,29,0.695L29,0.695z"/>
		<g>
			<path style="fill:#8697CB;" d="M29,6.573c-0.552,0-1,0.447-1,1v1c0,0.553,0.448,1,1,1s1-0.447,1-1v-1
				C30,7.021,29.552,6.573,29,6.573z"/>
			<path style="fill:#8697CB;" d="M29,49.573c-0.552,0-1,0.447-1,1v1c0,0.553,0.448,1,1,1s1-0.447,1-1v-1
				C30,50.021,29.552,49.573,29,49.573z"/>
			<path style="fill:#8697CB;" d="M51,28.573h-1c-0.552,0-1,0.447-1,1s0.448,1,1,1h1c0.552,0,1-0.447,1-1S51.552,28.573,51,28.573z"
				/>
			<path style="fill:#8697CB;" d="M8,28.573H7c-0.552,0-1,0.447-1,1s0.448,1,1,1h1c0.552,0,1-0.447,1-1S8.552,28.573,8,28.573z"/>
			<path style="fill:#8697CB;" d="M43.849,13.31l-0.707,0.707c-0.391,0.391-0.391,1.023,0,1.414
				c0.195,0.195,0.451,0.293,0.707,0.293s0.512-0.098,0.707-0.293l0.707-0.707c0.391-0.391,0.391-1.023,0-1.414
				S44.24,12.919,43.849,13.31z"/>
			<path style="fill:#8697CB;" d="M13.444,43.716l-0.707,0.707c-0.391,0.391-0.391,1.023,0,1.414
				c0.195,0.195,0.451,0.293,0.707,0.293s0.512-0.098,0.707-0.293l0.707-0.707c0.391-0.391,0.391-1.023,0-1.414
				S13.834,43.325,13.444,43.716z"/>
			<path style="fill:#8697CB;" d="M44.556,43.716c-0.391-0.391-1.023-0.391-1.414,0s-0.391,1.023,0,1.414l0.707,0.707
				c0.195,0.195,0.451,0.293,0.707,0.293s0.512-0.098,0.707-0.293c0.391-0.391,0.391-1.023,0-1.414L44.556,43.716z"/>
			<path style="fill:#8697CB;" d="M14.151,13.31c-0.391-0.391-1.023-0.391-1.414,0s-0.391,1.023,0,1.414l0.707,0.707
				c0.195,0.195,0.451,0.293,0.707,0.293s0.512-0.098,0.707-0.293c0.391-0.391,0.391-1.023,0-1.414L14.151,13.31z"/>
		</g>
		<path style="fill:#545E73;" d="M26,30.574h-8c-0.552,0-1-0.447-1-1s0.448-1,1-1h8c0.552,0,1,0.447,1,1S26.552,30.574,26,30.574z"
			/>
		<path style="fill:#545E73;" d="M29,27.574c-0.552,0-1-0.447-1-1v-11c0-0.553,0.448-1,1-1s1,0.447,1,1v11
			C30,27.126,29.552,27.574,29,27.574z"/>
		<path style="fill:#545E73;" d="M29,33.574c-2.206,0-4-1.794-4-4s1.794-4,4-4s4,1.794,4,4S31.206,33.574,29,33.574z M29,27.574
			c-1.103,0-2,0.897-2,2s0.897,2,2,2s2-0.897,2-2S30.103,27.574,29,27.574z"/>
	</g>
	<g>
		<circle style="fill:#26B999;" cx="47.39" cy="46.695" r="12"/>
		<path style="fill:#FFFFFF;" d="M53.961,40.874c-0.455-0.316-1.077-0.204-1.392,0.25l-5.596,8.04l-3.949-3.242
			c-0.426-0.351-1.057-0.288-1.407,0.139c-0.351,0.427-0.289,1.057,0.139,1.407l4.786,3.929c0.18,0.147,0.404,0.227,0.634,0.227
			c0.045,0,0.091-0.003,0.137-0.009c0.276-0.039,0.524-0.19,0.684-0.419l6.214-8.929C54.526,41.813,54.414,41.189,53.961,40.874z"/>
	</g>
</g>
<g>
</g>
<g>
</g>
<g>
</g>
<g>
</g>
<g>
</g>
<g>
</g>
<g>
</g>
<g>
</g>
<g>
</g>
<g>
</g>
<g>
</g>
<g>
</g>
<g>
</g>
<g>
</g>
<g>
</g>
</svg>
