<?xml version="1.0" encoding="iso-8859-1"?>
<!-- Generator: Adobe Illustrator 18.0.0, SVG Export Plug-In . SVG Version: 6.00 Build 0)  -->
<!DOCTYPE svg PUBLIC "-//W3C//DTD SVG 1.1//EN" "http://www.w3.org/Graphics/SVG/1.1/DTD/svg11.dtd">
<svg version="1.1" id="Capa_1" xmlns="http://www.w3.org/2000/svg" xmlns:xlink="http://www.w3.org/1999/xlink" x="0px" y="0px"
	 viewBox="0 0 60.018 60.018" style="enable-background:new 0 0 60.018 60.018;" xml:space="preserve">
<g>
	<g>
		<circle style="fill:#3C97D3;" cx="30" cy="29.009" r="29"/>
		<path style="fill:#B1D3EF;" d="M30,60.009c-16.542,0-30-13.458-30-30c0-7.993,3.107-15.514,8.749-21.176
			c0.779-0.785,2.047-0.785,2.828-0.006c0.783,0.78,0.785,2.046,0.006,2.828C6.693,16.564,4,23.081,4,30.009
			c0,14.337,11.663,26,26,26s26-11.663,26-26C56,16.346,45.405,5.11,32,4.085v10.757c0,1.104-0.896,2-2,2s-2-0.896-2-2V2.009
			c0-1.104,0.896-2,2-2c16.542,0,30,13.458,30,30S46.542,60.009,30,60.009z"/>
		<path style="fill:#B1D3EF;" d="M20,20.131L20,20.131l12.944,9.363c1.274,0.926,1.419,2.772,0.305,3.886l0,0
			c-1.114,1.114-2.959,0.969-3.886-0.305L20,20.131z"/>
	</g>
	<g>
		<circle style="fill:#D0E8F9;" cx="45.796" cy="44.805" r="9.796"/>
		<path style="fill:#EAF6FD;" d="M49.348,35.684L36.675,48.358c0.706,1.81,1.93,3.357,3.495,4.459l13.638-13.638
			C52.706,37.613,51.158,36.389,49.348,35.684z"/>
		<path style="fill:#B1D3EF;" d="M59.741,58.3l-5.97-6.244c1.746-1.919,2.82-4.458,2.82-7.251c0-5.953-4.843-10.796-10.796-10.796
			S35,38.852,35,44.805s4.843,10.796,10.796,10.796c2.442,0,4.689-0.824,6.499-2.196l6.001,6.276
			c0.196,0.206,0.459,0.309,0.723,0.309c0.249,0,0.497-0.092,0.691-0.277C60.108,59.332,60.123,58.699,59.741,58.3z M37,44.805
			c0-4.85,3.946-8.796,8.796-8.796s8.796,3.946,8.796,8.796s-3.946,8.796-8.796,8.796S37,49.655,37,44.805z"/>
	</g>
</g>
<g>
</g>
<g>
</g>
<g>
</g>
<g>
</g>
<g>
</g>
<g>
</g>
<g>
</g>
<g>
</g>
<g>
</g>
<g>
</g>
<g>
</g>
<g>
</g>
<g>
</g>
<g>
</g>
<g>
</g>
</svg>
