<?xml version="1.0" encoding="iso-8859-1"?>
<!-- Generator: Adobe Illustrator 18.0.0, SVG Export Plug-In . SVG Version: 6.00 Build 0)  -->
<!DOCTYPE svg PUBLIC "-//W3C//DTD SVG 1.1//EN" "http://www.w3.org/Graphics/SVG/1.1/DTD/svg11.dtd">
<svg version="1.1" id="Capa_1" xmlns="http://www.w3.org/2000/svg" xmlns:xlink="http://www.w3.org/1999/xlink" x="0px" y="0px"
	 viewBox="0 0 60 60" style="enable-background:new 0 0 60 60;" xml:space="preserve">
<g>
	<g>
		<circle style="fill:#3C97D3;" cx="30" cy="29" r="29"/>
		<path style="fill:#B1D3EF;" d="M30,60C13.458,60,0,46.542,0,30c0-7.993,3.107-15.514,8.749-21.176
			c0.779-0.785,2.047-0.785,2.828-0.006c0.783,0.78,0.785,2.046,0.006,2.828C6.693,16.555,4,23.072,4,30c0,14.337,11.663,26,26,26
			s26-11.663,26-26C56,16.337,45.405,5.101,32,4.076v10.757c0,1.104-0.896,2-2,2s-2-0.896-2-2V2c0-1.104,0.896-2,2-2
			c16.542,0,30,13.458,30,30S46.542,60,30,60z"/>
		<path style="fill:#B1D3EF;" d="M20,20.121L20,20.121l12.944,9.363c1.274,0.926,1.419,2.772,0.305,3.886l0,0
			c-1.114,1.114-2.959,0.969-3.886-0.305L20,20.121z"/>
	</g>
	<g>
		<circle style="fill:#26B999;" cx="48" cy="47.981" r="12"/>
		<path style="fill:#FFFFFF;" d="M54.571,42.161c-0.455-0.316-1.077-0.204-1.392,0.25l-5.596,8.04l-3.949-3.242
			c-0.426-0.351-1.057-0.288-1.407,0.139c-0.351,0.427-0.289,1.057,0.139,1.407l4.786,3.929c0.18,0.147,0.404,0.227,0.634,0.227
			c0.045,0,0.091-0.003,0.137-0.009c0.276-0.039,0.524-0.19,0.684-0.419l6.214-8.929C55.136,43.1,55.024,42.476,54.571,42.161z"/>
	</g>
</g>
<g>
</g>
<g>
</g>
<g>
</g>
<g>
</g>
<g>
</g>
<g>
</g>
<g>
</g>
<g>
</g>
<g>
</g>
<g>
</g>
<g>
</g>
<g>
</g>
<g>
</g>
<g>
</g>
<g>
</g>
</svg>
