<?xml version="1.0" encoding="iso-8859-1"?>
<!-- Generator: Adobe Illustrator 18.0.0, SVG Export Plug-In . SVG Version: 6.00 Build 0)  -->
<!DOCTYPE svg PUBLIC "-//W3C//DTD SVG 1.1//EN" "http://www.w3.org/Graphics/SVG/1.1/DTD/svg11.dtd">
<svg version="1.1" id="Capa_1" xmlns="http://www.w3.org/2000/svg" xmlns:xlink="http://www.w3.org/1999/xlink" x="0px" y="0px"
	 viewBox="0 0 60 60" style="enable-background:new 0 0 60 60;" xml:space="preserve">
<g>
	<g>
		<circle style="fill:#3C97D3;" cx="30" cy="29" r="29"/>
		<path style="fill:#B1D3EF;" d="M30,60C13.458,60,0,46.542,0,30c0-7.993,3.107-15.514,8.749-21.176
			c0.779-0.785,2.047-0.785,2.828-0.006c0.783,0.78,0.785,2.046,0.006,2.828C6.693,16.555,4,23.072,4,30c0,14.337,11.663,26,26,26
			s26-11.663,26-26C56,16.337,45.405,5.101,32,4.076v10.757c0,1.104-0.896,2-2,2s-2-0.896-2-2V2c0-1.104,0.896-2,2-2
			c16.542,0,30,13.458,30,30S46.542,60,30,60z"/>
		<path style="fill:#B1D3EF;" d="M20,20.121L20,20.121l12.944,9.363c1.274,0.926,1.419,2.772,0.305,3.886l0,0
			c-1.114,1.114-2.959,0.969-3.886-0.305L20,20.121z"/>
	</g>
	<g>
		<path style="fill:#EFC41A;" d="M57.761,59.981H34.07c-0.955,0-1.55-1.036-1.069-1.861l11.845-20.306
			c0.478-0.819,1.66-0.819,2.138,0L58.83,58.12C59.311,58.945,58.716,59.981,57.761,59.981z"/>
		<path style="fill:#FFFFFF;" d="M46,52.981c-0.552,0-1-0.448-1-1v-8c0-0.552,0.448-1,1-1s1,0.448,1,1v8
			C47,52.534,46.552,52.981,46,52.981z"/>
		<path style="fill:#FFFFFF;" d="M46,56.981c-0.26,0-0.52-0.11-0.71-0.29c-0.18-0.19-0.29-0.45-0.29-0.71
			c0-0.26,0.11-0.52,0.29-0.71c0.38-0.37,1.04-0.37,1.42,0c0.18,0.19,0.29,0.45,0.29,0.71c0,0.26-0.11,0.52-0.29,0.71
			C46.52,56.871,46.27,56.981,46,56.981z"/>
	</g>
</g>
<g>
</g>
<g>
</g>
<g>
</g>
<g>
</g>
<g>
</g>
<g>
</g>
<g>
</g>
<g>
</g>
<g>
</g>
<g>
</g>
<g>
</g>
<g>
</g>
<g>
</g>
<g>
</g>
<g>
</g>
</svg>
