<?xml version="1.0" encoding="iso-8859-1"?>
<!-- Generator: Adobe Illustrator 18.0.0, SVG Export Plug-In . SVG Version: 6.00 Build 0)  -->
<!DOCTYPE svg PUBLIC "-//W3C//DTD SVG 1.1//EN" "http://www.w3.org/Graphics/SVG/1.1/DTD/svg11.dtd">
<svg version="1.1" id="Capa_1" xmlns="http://www.w3.org/2000/svg" xmlns:xlink="http://www.w3.org/1999/xlink" x="0px" y="0px"
	 viewBox="0 0 60 60" style="enable-background:new 0 0 60 60;" xml:space="preserve">
<g>
	<g>
		<circle style="fill:#3C97D3;" cx="30" cy="29" r="29"/>
		<path style="fill:#B1D3EF;" d="M30,60C13.458,60,0,46.542,0,30c0-7.993,3.107-15.514,8.749-21.176
			c0.779-0.785,2.047-0.785,2.828-0.006c0.783,0.78,0.785,2.046,0.006,2.828C6.693,16.555,4,23.072,4,30c0,14.337,11.663,26,26,26
			s26-11.663,26-26C56,16.337,45.405,5.101,32,4.076v10.757c0,1.104-0.896,2-2,2s-2-0.896-2-2V2c0-1.104,0.896-2,2-2
			c16.542,0,30,13.458,30,30S46.542,60,30,60z"/>
		<path style="fill:#B1D3EF;" d="M20,20.121L20,20.121l12.944,9.363c1.274,0.926,1.419,2.772,0.305,3.886l0,0
			c-1.114,1.114-2.959,0.969-3.886-0.305L20,20.121z"/>
	</g>
	<g>
		<circle style="fill:#B1D3EF;" cx="47.5" cy="47.481" r="12.5"/>
		<path style="fill:#556080;" d="M47.5,36.981c-4.718,0-8.88,3.182-10.121,7.737c-0.146,0.533,0.169,1.083,0.702,1.228
			c0.528,0.143,1.082-0.168,1.228-0.702c1.005-3.688,4.373-6.263,8.191-6.263c4.687,0,8.5,3.813,8.5,8.5s-3.813,8.5-8.5,8.5
			c-3.365,0-6.378-2.001-7.734-5H45v-2h-6h-1h-1v8h2V53.64l0,0v-0.023c1.933,2.674,5.066,4.364,8.5,4.364
			c5.79,0,10.5-4.71,10.5-10.5S53.29,36.981,47.5,36.981z"/>
	</g>
</g>
<g>
</g>
<g>
</g>
<g>
</g>
<g>
</g>
<g>
</g>
<g>
</g>
<g>
</g>
<g>
</g>
<g>
</g>
<g>
</g>
<g>
</g>
<g>
</g>
<g>
</g>
<g>
</g>
<g>
</g>
</svg>
