<?xml version="1.0" encoding="iso-8859-1"?>
<!-- Generator: Adobe Illustrator 18.0.0, SVG Export Plug-In . SVG Version: 6.00 Build 0)  -->
<!DOCTYPE svg PUBLIC "-//W3C//DTD SVG 1.1//EN" "http://www.w3.org/Graphics/SVG/1.1/DTD/svg11.dtd">
<svg version="1.1" id="Capa_1" xmlns="http://www.w3.org/2000/svg" xmlns:xlink="http://www.w3.org/1999/xlink" x="0px" y="0px"
	 viewBox="0 0 59 59" style="enable-background:new 0 0 59 59;" xml:space="preserve">
<g>
	<g>
		<path style="fill:#ECF0F1;" d="M11.487,45.641l9.113-3.908c0.494-0.247,0.896-1.045,1.179-1.614
			c0.255-0.514-0.126-1.119-0.7-1.119h-6.445c0,0-2.33-0.228-4.127-1c-1.053-0.452-1.415-1.049-0.757-1.986
			c1.925-2.74,5.904-9.192,6.033-15.855c0,0,0.221-10.257,10.34-10.34c5.903,0.049,8.691,3.523,9.99,6.41
			c0.724,1.611,1.035,3.367,1.151,5.129c0.42,6.351,3.654,12.16,5.161,14.642c0.511,0.842,0.264,1.963-0.581,2.469
			C40.458,39.298,38.761,39,38.761,39h-6.488c-0.634,0-0.914,0.886-0.416,1.279c0.406,0.32,0.793,0.609,1.002,0.723l7.58,4.587
			c1.094,0.597,1.967,1.483,2.561,2.529C38.451,51.795,32.664,54,26.359,54c-6.574,0-12.585-2.399-17.216-6.363
			C9.748,46.812,10.537,46.116,11.487,45.641z"/>
		<g>
			<path style="fill:#556080;" d="M26.5,1C11.864,1,0,12.865,0,27.5c0,8.022,3.57,15.206,9.202,20.066
				c0.598-0.793,1.364-1.464,2.286-1.925l9.113-3.908c0.494-0.247,0.896-1.045,1.179-1.614c0.255-0.514-0.126-1.119-0.7-1.119
				h-6.445c0,0-2.33-0.228-4.127-1c-1.053-0.452-1.415-1.049-0.757-1.986c1.925-2.74,5.904-9.192,6.033-15.855
				c0,0,0.221-10.257,10.34-10.34c5.903,0.049,8.691,3.523,9.99,6.41c0.724,1.611,1.035,3.367,1.151,5.129
				c0.42,6.351,3.654,12.16,5.161,14.642c0.511,0.842,0.264,1.963-0.581,2.469C40.458,39.298,38.761,39,38.761,39h-6.488
				c-0.634,0-0.914,0.886-0.416,1.279c0.406,0.32,0.793,0.609,1.002,0.723l7.58,4.587c1.086,0.592,1.952,1.469,2.545,2.505
				c0.026,0.025,0.055,0.048,0.08,0.075C49.117,43.313,53,35.864,53,27.5C53,12.865,41.136,1,26.5,1z"/>
		</g>
	</g>
	<g>
		<circle style="fill:#B1D3EF;" cx="46.5" cy="45.5" r="12.5"/>
		<g>
			<path style="fill:#556080;" d="M56.193,46.019c-0.55-0.113-1.068,0.246-1.175,0.788C54.198,50.975,50.616,54,46.5,54
				c-3.351,0-6.347-2.006-7.789-5H44v-2h-6h-1h-1v8h2v-3.341C39.976,54.315,43.085,56,46.5,56c5.068,0,9.477-3.704,10.481-8.807
				C57.087,46.651,56.735,46.125,56.193,46.019z"/>
			<path style="fill:#556080;" d="M55,35.998v3.341c-1.976-2.657-5.086-4.341-8.5-4.341c-5.068,0-9.477,3.704-10.481,8.807
				c-0.106,0.542,0.246,1.068,0.788,1.174c0.55,0.113,1.068-0.246,1.175-0.788c0.82-4.168,4.402-7.193,8.519-7.193
				c3.351,0,6.347,2.006,7.789,5H49v2h6h1h1v-8H55z"/>
		</g>
	</g>
</g>
<g>
</g>
<g>
</g>
<g>
</g>
<g>
</g>
<g>
</g>
<g>
</g>
<g>
</g>
<g>
</g>
<g>
</g>
<g>
</g>
<g>
</g>
<g>
</g>
<g>
</g>
<g>
</g>
<g>
</g>
</svg>
