<?xml version="1.0" encoding="iso-8859-1"?>
<!-- Generator: Adobe Illustrator 18.0.0, SVG Export Plug-In . SVG Version: 6.00 Build 0)  -->
<!DOCTYPE svg PUBLIC "-//W3C//DTD SVG 1.1//EN" "http://www.w3.org/Graphics/SVG/1.1/DTD/svg11.dtd">
<svg version="1.1" id="Capa_1" xmlns="http://www.w3.org/2000/svg" xmlns:xlink="http://www.w3.org/1999/xlink" x="0px" y="0px"
	 viewBox="0 0 59 59" style="enable-background:new 0 0 59 59;" xml:space="preserve">
<g>
	<g>
		<path style="fill:#ECF0F1;" d="M18.613,42.552l-7.907,4.313c-0.464,0.253-0.881,0.564-1.269,0.903
			C14.047,51.655,19.998,54,26.5,54c6.454,0,12.367-2.31,16.964-6.144c-0.424-0.358-0.884-0.68-1.394-0.934l-8.467-4.233
			c-1.094-0.547-1.785-1.665-1.785-2.888v-3.322c0.238-0.271,0.51-0.619,0.801-1.03c1.154-1.63,2.027-3.423,2.632-5.304
			c1.086-0.335,1.886-1.338,1.886-2.53v-3.546c0-0.78-0.347-1.477-0.886-1.965v-5.126c0,0,1.053-7.977-9.75-7.977
			s-9.75,7.977-9.75,7.977v5.126c-0.54,0.488-0.886,1.185-0.886,1.965v3.546c0,0.934,0.491,1.756,1.226,2.231
			c0.886,3.857,3.206,6.633,3.206,6.633v3.24C20.296,40.899,19.65,41.986,18.613,42.552z"/>
		<g>
			<path style="fill:#556080;" d="M26.953,1.004C12.32,0.754,0.254,12.414,0.004,27.047C-0.138,35.344,3.56,42.801,9.448,47.76
				c0.385-0.336,0.798-0.644,1.257-0.894l7.907-4.313c1.037-0.566,1.683-1.653,1.683-2.835v-3.24c0,0-2.321-2.776-3.206-6.633
				c-0.734-0.475-1.226-1.296-1.226-2.231v-3.546c0-0.78,0.347-1.477,0.886-1.965v-5.126c0,0-1.053-7.977,9.75-7.977
				s9.75,7.977,9.75,7.977v5.126c0.54,0.488,0.886,1.185,0.886,1.965v3.546c0,1.192-0.8,2.195-1.886,2.53
				c-0.605,1.881-1.478,3.674-2.632,5.304c-0.291,0.411-0.563,0.759-0.801,1.03V39.8c0,1.223,0.691,2.342,1.785,2.888l8.467,4.233
				c0.508,0.254,0.967,0.575,1.39,0.932c5.71-4.762,9.399-11.882,9.536-19.9C53.246,13.32,41.587,1.254,26.953,1.004z"/>
		</g>
	</g>
	<g>
		<g>
			<path style="fill:#48A0DC;" d="M54.045,47.111C53.994,43.175,50.883,40,47.046,40c-2.568,0-4.806,1.426-6.025,3.546
				c-0.421-0.141-0.87-0.22-1.337-0.22c-2.063,0-3.785,1.492-4.208,3.484c-1.754,0.865-2.975,2.706-2.975,4.831
				c0,2.947,2.343,5.359,5.208,5.359h10.775c0.061,0,0.119-0.007,0.18-0.009c0.06,0.002,0.119,0.009,0.18,0.009h4.31
				C55.818,57,58,54.755,58,52.011C58,49.581,56.288,47.546,54.045,47.111z"/>
			<path style="fill:#B1D3EF;" d="M53.152,58h-4.31c-0.063,0-0.126-0.004-0.188-0.008C48.607,57.996,48.545,58,48.483,58H37.708
				c-3.423,0-6.208-2.853-6.208-6.358c0-2.262,1.209-4.372,3.116-5.503c0.686-2.235,2.746-3.813,5.066-3.813
				c0.296,0,0.592,0.025,0.884,0.076C42.062,40.286,44.481,39,47.046,39c4.102,0,7.524,3.225,7.954,7.332
				c2.358,0.806,4,3.079,4,5.679C59,55.314,56.376,58,53.152,58z M48.614,55.991l0.186,0.006L53.152,56
				C55.274,56,57,54.21,57,52.011c0-1.917-1.323-3.564-3.146-3.919l-0.799-0.155l-0.011-0.813C53.001,43.747,50.311,41,47.046,41
				c-2.135,0-4.063,1.139-5.158,3.045l-0.409,0.711l-0.777-0.261c-0.332-0.112-0.675-0.169-1.019-0.169
				c-1.54,0-2.898,1.133-3.229,2.692l-0.102,0.475l-0.435,0.214c-1.469,0.725-2.417,2.269-2.417,3.935
				c0,2.403,1.888,4.358,4.208,4.358L48.614,55.991z"/>
		</g>
	</g>
</g>
<g>
</g>
<g>
</g>
<g>
</g>
<g>
</g>
<g>
</g>
<g>
</g>
<g>
</g>
<g>
</g>
<g>
</g>
<g>
</g>
<g>
</g>
<g>
</g>
<g>
</g>
<g>
</g>
<g>
</g>
</svg>
