<?xml version="1.0" encoding="iso-8859-1"?>
<!-- Generator: Adobe Illustrator 18.0.0, SVG Export Plug-In . SVG Version: 6.00 Build 0)  -->
<!DOCTYPE svg PUBLIC "-//W3C//DTD SVG 1.1//EN" "http://www.w3.org/Graphics/SVG/1.1/DTD/svg11.dtd">
<svg version="1.1" id="Capa_1" xmlns="http://www.w3.org/2000/svg" xmlns:xlink="http://www.w3.org/1999/xlink" x="0px" y="0px"
	 viewBox="0 0 59 59" style="enable-background:new 0 0 59 59;" xml:space="preserve">
<g>
	<g>
		<path style="fill:#ECF0F1;" d="M11.487,45.65l9.113-3.908c0.494-0.247,0.896-1.045,1.179-1.614c0.255-0.514-0.126-1.119-0.7-1.119
			h-6.445c0,0-2.33-0.228-4.127-1c-1.053-0.452-1.415-1.049-0.757-1.986c1.925-2.74,5.904-9.192,6.033-15.855
			c0,0,0.221-10.257,10.34-10.34c5.903,0.049,8.691,3.523,9.99,6.41c0.724,1.611,1.035,3.367,1.151,5.129
			c0.42,6.351,3.654,12.16,5.161,14.642c0.511,0.842,0.264,1.963-0.581,2.469c-1.387,0.829-3.083,0.531-3.083,0.531h-6.488
			c-0.634,0-0.914,0.886-0.416,1.279c0.406,0.32,0.793,0.609,1.002,0.723l7.58,4.587c1.094,0.597,1.967,1.483,2.561,2.529
			c-4.549,3.676-10.336,5.882-16.641,5.882c-6.574,0-12.585-2.399-17.216-6.363C9.748,46.821,10.537,46.125,11.487,45.65z"/>
		<g>
			<path style="fill:#556080;" d="M26.5,1.009C11.864,1.009,0,12.874,0,27.509c0,8.022,3.57,15.206,9.202,20.066
				c0.598-0.793,1.364-1.464,2.286-1.925l9.113-3.908c0.494-0.247,0.896-1.045,1.179-1.614c0.255-0.514-0.126-1.119-0.7-1.119
				h-6.445c0,0-2.33-0.228-4.127-1c-1.053-0.452-1.415-1.049-0.757-1.986c1.925-2.74,5.904-9.192,6.033-15.855
				c0,0,0.221-10.257,10.34-10.34c5.903,0.049,8.691,3.523,9.99,6.41c0.724,1.611,1.035,3.367,1.151,5.129
				c0.42,6.351,3.654,12.16,5.161,14.642c0.511,0.842,0.264,1.963-0.581,2.469c-1.387,0.829-3.083,0.531-3.083,0.531h-6.488
				c-0.634,0-0.914,0.886-0.416,1.279c0.406,0.32,0.793,0.609,1.002,0.723l7.58,4.587c1.086,0.592,1.952,1.469,2.545,2.505
				c0.026,0.025,0.055,0.048,0.08,0.075C49.117,43.322,53,35.873,53,27.509C53,12.874,41.136,1.009,26.5,1.009z"/>
		</g>
	</g>
	<g>
		<circle style="fill:#D0E8F9;" cx="44.777" cy="42.805" r="9.796"/>
		<path style="fill:#EAF6FD;" d="M48.33,33.684L35.656,46.358c0.706,1.81,1.93,3.357,3.495,4.459l13.638-13.638
			C51.687,35.613,50.14,34.389,48.33,33.684z"/>
		<path style="fill:#B1D3EF;" d="M58.723,56.3l-5.97-6.244c1.746-1.919,2.82-4.458,2.82-7.251c0-5.953-4.843-10.796-10.796-10.796
			s-10.796,4.843-10.796,10.796s4.843,10.796,10.796,10.796c2.442,0,4.689-0.824,6.499-2.196l6.001,6.276
			c0.196,0.206,0.459,0.309,0.723,0.309c0.249,0,0.497-0.092,0.691-0.277C59.09,57.332,59.105,56.699,58.723,56.3z M35.982,42.805
			c0-4.85,3.946-8.796,8.796-8.796s8.796,3.946,8.796,8.796s-3.946,8.796-8.796,8.796S35.982,47.655,35.982,42.805z"/>
	</g>
</g>
<g>
</g>
<g>
</g>
<g>
</g>
<g>
</g>
<g>
</g>
<g>
</g>
<g>
</g>
<g>
</g>
<g>
</g>
<g>
</g>
<g>
</g>
<g>
</g>
<g>
</g>
<g>
</g>
<g>
</g>
</svg>
