<?xml version="1.0" encoding="iso-8859-1"?>
<!-- Generator: Adobe Illustrator 18.0.0, SVG Export Plug-In . SVG Version: 6.00 Build 0)  -->
<!DOCTYPE svg PUBLIC "-//W3C//DTD SVG 1.1//EN" "http://www.w3.org/Graphics/SVG/1.1/DTD/svg11.dtd">
<svg version="1.1" id="Capa_1" xmlns="http://www.w3.org/2000/svg" xmlns:xlink="http://www.w3.org/1999/xlink" x="0px" y="0px"
	 viewBox="0 0 58 58" style="enable-background:new 0 0 58 58;" xml:space="preserve">
<g>
	<g>
		<path style="fill:#8697CB;" d="M53.566,43.792l-9.552-4.776C42.78,38.399,42,37.138,42,35.758v-3.748
			c0.268-0.305,0.576-0.698,0.904-1.162c1.302-1.838,2.286-3.861,2.969-5.984C47.098,24.486,48,23.354,48,22.009v-4
			c0-0.88-0.391-1.667-1-2.217v-5.783c0,0,1.187-9-11-9c-12.188,0-11,9-11,9v5.783c-0.609,0.55-1,1.337-1,2.217v4
			c0,1.054,0.554,1.981,1.383,2.517C26.382,28.878,29,32.009,29,32.009v3.655c0,1.333-0.728,2.56-1.899,3.198l-8.921,4.866
			C15.603,45.135,14,47.835,14,50.771v3.239h44v-3.043C58,47.928,56.283,45.151,53.566,43.792z"/>
		<path style="fill:#556080;" d="M18.18,43.729l5.946-3.243c-0.034-0.033-0.005-0.043,0.065-0.036l2.91-1.587
			C28.272,38.225,29,36.998,29,35.665v-3.655c0,0-1.062-1.275-2.092-3.323h0c0-0.001-0.001-0.002-0.001-0.003
			c-0.135-0.268-0.268-0.551-0.399-0.844c-0.018-0.041-0.036-0.08-0.054-0.121c-0.133-0.303-0.263-0.616-0.386-0.944
			c-0.008-0.021-0.015-0.044-0.023-0.065c-0.108-0.29-0.209-0.589-0.306-0.896c-0.026-0.084-0.052-0.167-0.077-0.251
			c-0.101-0.338-0.196-0.682-0.278-1.038C24.554,23.991,24,23.064,24,22.009v-4c0-0.88,0.391-1.667,1-2.217v-5.648
			c-1.413-1.097-3.603-2.136-7-2.136c-9.563,0-10,8-10,8v4.995c-0.526,0.475-1,1.154-1,1.914v3.455c0,0.911,0.479,1.711,1.194,2.174
			c0.863,3.758,3.76,6.463,3.76,6.463v3.157c0,1.151-0.629,2.211-1.64,2.762L3.61,45.131C1.385,46.345,0,48.677,0,51.212v2.797h14
			v-3.239C14,47.835,15.603,45.135,18.18,43.729z"/>
	</g>
	<g>
		<path style="fill:#D0E8F9;" d="M48,43.991h-2l0,0c-3.633-1.453-6-4.861-6-8.64v-3.36h14v3.36C54,39.129,51.633,42.537,48,43.991
			L48,43.991z"/>
		<path style="fill:#D0E8F9;" d="M46,43.991h2l0,0c3.633,1.453,6,4.861,6,8.64v3.36H40v-3.36C40,48.852,42.367,45.444,46,43.991
			L46,43.991z"/>
		<g>
			<path style="fill:#556080;" d="M37,32.991h1h2h17c0.553,0,1-0.448,1-1s-0.447-1-1-1H40h-2h-1c-0.553,0-1,0.448-1,1
				S36.447,32.991,37,32.991z"/>
			<path style="fill:#556080;" d="M56.999,54.989h-18c-0.003,0-0.006,0.002-0.01,0.002H37c-0.553,0-1,0.448-1,1s0.447,1,1,1h3
				c0.003,0,0.006-0.002,0.01-0.002h16.989c0.553,0,1-0.448,1-1S57.552,54.989,56.999,54.989z"/>
		</g>
	</g>
</g>
<g>
</g>
<g>
</g>
<g>
</g>
<g>
</g>
<g>
</g>
<g>
</g>
<g>
</g>
<g>
</g>
<g>
</g>
<g>
</g>
<g>
</g>
<g>
</g>
<g>
</g>
<g>
</g>
<g>
</g>
</svg>
