<?xml version="1.0" encoding="iso-8859-1"?>
<!-- Generator: Adobe Illustrator 18.0.0, SVG Export Plug-In . SVG Version: 6.00 Build 0)  -->
<!DOCTYPE svg PUBLIC "-//W3C//DTD SVG 1.1//EN" "http://www.w3.org/Graphics/SVG/1.1/DTD/svg11.dtd">
<svg version="1.1" id="Capa_1" xmlns="http://www.w3.org/2000/svg" xmlns:xlink="http://www.w3.org/1999/xlink" x="0px" y="0px"
	 viewBox="0 0 59 59" style="enable-background:new 0 0 59 59;" xml:space="preserve">
<g>
	<g>
		<path style="fill:#ECF0F1;" d="M11.487,45.641l9.113-3.908c0.494-0.247,0.896-1.045,1.179-1.614
			c0.255-0.514-0.126-1.119-0.7-1.119h-6.445c0,0-2.33-0.228-4.127-1c-1.053-0.452-1.415-1.049-0.757-1.986
			c1.925-2.74,5.904-9.192,6.033-15.855c0,0,0.221-10.257,10.34-10.34c5.903,0.049,8.691,3.523,9.99,6.41
			c0.724,1.611,1.035,3.367,1.151,5.129c0.42,6.351,3.654,12.16,5.161,14.642c0.511,0.842,0.264,1.963-0.581,2.469
			C40.458,39.298,38.761,39,38.761,39h-6.488c-0.634,0-0.914,0.886-0.416,1.279c0.406,0.32,0.793,0.609,1.002,0.723l7.58,4.587
			c1.094,0.597,1.967,1.483,2.561,2.529C38.451,51.795,32.664,54,26.359,54c-6.574,0-12.585-2.399-17.216-6.363
			C9.748,46.812,10.537,46.116,11.487,45.641z"/>
		<g>
			<path style="fill:#556080;" d="M26.5,1C11.864,1,0,12.865,0,27.5c0,8.022,3.57,15.206,9.202,20.066
				c0.598-0.793,1.364-1.464,2.286-1.925l9.113-3.908c0.494-0.247,0.896-1.045,1.179-1.614c0.255-0.514-0.126-1.119-0.7-1.119
				h-6.445c0,0-2.33-0.228-4.127-1c-1.053-0.452-1.415-1.049-0.757-1.986c1.925-2.74,5.904-9.192,6.033-15.855
				c0,0,0.221-10.257,10.34-10.34c5.903,0.049,8.691,3.523,9.99,6.41c0.724,1.611,1.035,3.367,1.151,5.129
				c0.42,6.351,3.654,12.16,5.161,14.642c0.511,0.842,0.264,1.963-0.581,2.469C40.458,39.298,38.761,39,38.761,39h-6.488
				c-0.634,0-0.914,0.886-0.416,1.279c0.406,0.32,0.793,0.609,1.002,0.723l7.58,4.587c1.086,0.592,1.952,1.469,2.545,2.505
				c0.026,0.025,0.055,0.048,0.08,0.075C49.117,43.313,53,35.864,53,27.5C53,12.865,41.136,1,26.5,1z"/>
		</g>
	</g>
	<g>
		<g>
			<path style="fill:#48A0DC;" d="M54.045,47.111C53.994,43.175,50.882,40,47.046,40c-2.568,0-4.806,1.426-6.025,3.546
				c-0.421-0.141-0.87-0.22-1.337-0.22c-2.063,0-3.785,1.492-4.208,3.484c-1.754,0.865-2.975,2.706-2.975,4.831
				c0,2.947,2.343,5.359,5.208,5.359h10.775c0.061,0,0.119-0.007,0.18-0.009c0.06,0.002,0.119,0.009,0.18,0.009h4.31
				C55.818,57,58,54.755,58,52.011C58,49.581,56.288,47.546,54.045,47.111z"/>
			<path style="fill:#B1D3EF;" d="M53.151,58h-4.31c-0.063,0-0.126-0.004-0.188-0.008C48.606,57.996,48.545,58,48.482,58H37.708
				c-3.423,0-6.208-2.853-6.208-6.358c0-2.262,1.209-4.372,3.116-5.503c0.686-2.235,2.746-3.813,5.066-3.813
				c0.296,0,0.592,0.025,0.884,0.076C42.062,40.286,44.48,39,47.046,39c4.102,0,7.524,3.225,7.954,7.332
				c2.358,0.806,4,3.079,4,5.679C59,55.313,56.376,58,53.151,58z M48.614,55.991l0.186,0.006L53.151,56
				C55.273,56,57,54.21,57,52.011c0-1.917-1.323-3.564-3.146-3.919l-0.799-0.155l-0.011-0.813C53.001,43.747,50.311,41,47.046,41
				c-2.135,0-4.063,1.139-5.158,3.045l-0.409,0.711l-0.777-0.261c-0.332-0.112-0.675-0.169-1.019-0.169
				c-1.54,0-2.898,1.133-3.229,2.692l-0.102,0.475l-0.435,0.214c-1.469,0.725-2.417,2.269-2.417,3.935
				c0,2.403,1.888,4.358,4.208,4.358L48.614,55.991z"/>
		</g>
	</g>
</g>
<g>
</g>
<g>
</g>
<g>
</g>
<g>
</g>
<g>
</g>
<g>
</g>
<g>
</g>
<g>
</g>
<g>
</g>
<g>
</g>
<g>
</g>
<g>
</g>
<g>
</g>
<g>
</g>
<g>
</g>
</svg>
