<?xml version="1.0" encoding="iso-8859-1"?>
<!-- Generator: Adobe Illustrator 18.0.0, SVG Export Plug-In . SVG Version: 6.00 Build 0)  -->
<!DOCTYPE svg PUBLIC "-//W3C//DTD SVG 1.1//EN" "http://www.w3.org/Graphics/SVG/1.1/DTD/svg11.dtd">
<svg version="1.1" id="Capa_1" xmlns="http://www.w3.org/2000/svg" xmlns:xlink="http://www.w3.org/1999/xlink" x="0px" y="0px"
	 viewBox="0 0 58.39 58.39" style="enable-background:new 0 0 58.39 58.39;" xml:space="preserve">
<g>
	<g>
		<path style="fill:#8697CB;" d="M53.566,44.239l-9.552-4.776C42.78,38.846,42,37.584,42,36.204v-3.748
			c0.268-0.305,0.576-0.698,0.904-1.162c1.302-1.838,2.286-3.861,2.969-5.984C47.098,24.933,48,23.801,48,22.456v-4
			c0-0.88-0.391-1.667-1-2.217v-5.783c0,0,1.187-9-11-9c-12.188,0-11,9-11,9v5.783c-0.609,0.55-1,1.337-1,2.217v4
			c0,1.054,0.554,1.981,1.383,2.517C26.382,29.325,29,32.456,29,32.456v3.655c0,1.333-0.728,2.56-1.899,3.198l-8.921,4.866
			C15.603,45.582,14,48.282,14,51.218v3.239h44v-3.043C58,48.375,56.283,45.598,53.566,44.239z"/>
		<path style="fill:#556080;" d="M18.18,44.176l5.946-3.243c-0.034-0.033-0.005-0.043,0.065-0.036l2.91-1.587
			C28.272,38.671,29,37.445,29,36.111v-3.655c0,0-1.062-1.275-2.092-3.323h0c0-0.001-0.001-0.002-0.001-0.003
			c-0.135-0.268-0.268-0.551-0.399-0.844c-0.018-0.041-0.036-0.08-0.054-0.121c-0.133-0.303-0.263-0.616-0.386-0.944
			c-0.008-0.021-0.015-0.044-0.023-0.065c-0.108-0.29-0.209-0.589-0.306-0.896c-0.026-0.084-0.052-0.167-0.077-0.251
			c-0.101-0.338-0.196-0.682-0.278-1.038C24.554,24.438,24,23.51,24,22.456v-4c0-0.88,0.391-1.667,1-2.217v-5.648
			c-1.413-1.097-3.603-2.136-7-2.136c-9.563,0-10,8-10,8v4.995c-0.526,0.475-1,1.154-1,1.914v3.455c0,0.911,0.479,1.711,1.194,2.174
			c0.863,3.758,3.76,6.463,3.76,6.463v3.157c0,1.151-0.629,2.211-1.64,2.762L3.61,45.578C1.385,46.792,0,49.124,0,51.659v2.797h14
			v-3.239C14,48.282,15.603,45.582,18.18,44.176z"/>
	</g>
	<g>
		<path style="fill:#FFFFFF;" d="M57.195,47.613l-0.107,0.163c-7.121,10.876-18.773,10.876-25.893,0l0,0l0.107-0.163
			C38.422,36.737,50.074,36.737,57.195,47.613L57.195,47.613z"/>
		<circle style="fill:#556080;" cx="43.958" cy="45.331" r="5.909"/>
		<path style="fill:#B1D3EF;" d="M44.142,56.934c-5.254,0-10.148-3.058-13.783-8.609L30,47.777l0.465-0.711
			c3.635-5.552,8.53-8.609,13.784-8.609c5.253,0,10.148,3.057,13.783,8.609l0.358,0.547l-0.465,0.711
			C54.29,53.876,49.395,56.934,44.142,56.934z M32.398,47.772c3.206,4.624,7.356,7.161,11.744,7.161c4.436,0,8.63-2.594,11.85-7.317
			c-3.206-4.624-7.356-7.161-11.743-7.161C39.812,40.456,35.618,43.05,32.398,47.772z"/>
	</g>
</g>
<g>
</g>
<g>
</g>
<g>
</g>
<g>
</g>
<g>
</g>
<g>
</g>
<g>
</g>
<g>
</g>
<g>
</g>
<g>
</g>
<g>
</g>
<g>
</g>
<g>
</g>
<g>
</g>
<g>
</g>
</svg>
