<?xml version="1.0" encoding="iso-8859-1"?>
<!-- Generator: Adobe Illustrator 18.0.0, SVG Export Plug-In . SVG Version: 6.00 Build 0)  -->
<!DOCTYPE svg PUBLIC "-//W3C//DTD SVG 1.1//EN" "http://www.w3.org/Graphics/SVG/1.1/DTD/svg11.dtd">
<svg version="1.1" id="Capa_1" xmlns="http://www.w3.org/2000/svg" xmlns:xlink="http://www.w3.org/1999/xlink" x="0px" y="0px"
	 viewBox="0 0 59 59" style="enable-background:new 0 0 59 59;" xml:space="preserve">
<g>
	<g>
		<path style="fill:#ECF0F1;" d="M18.613,42.052l-7.907,4.313c-0.464,0.253-0.881,0.564-1.269,0.903
			C14.047,51.155,19.998,53.5,26.5,53.5c6.454,0,12.367-2.31,16.964-6.144c-0.424-0.358-0.884-0.68-1.394-0.934l-8.467-4.233
			c-1.094-0.547-1.785-1.665-1.785-2.888v-3.322c0.238-0.271,0.51-0.619,0.801-1.03c1.154-1.63,2.027-3.423,2.632-5.304
			c1.086-0.335,1.886-1.338,1.886-2.53v-3.546c0-0.78-0.347-1.477-0.886-1.965v-5.126c0,0,1.053-7.977-9.75-7.977
			s-9.75,7.977-9.75,7.977v5.126c-0.54,0.488-0.886,1.185-0.886,1.965v3.546c0,0.934,0.491,1.756,1.226,2.231
			c0.886,3.857,3.206,6.633,3.206,6.633v3.24C20.296,40.399,19.65,41.486,18.613,42.052z"/>
		<g>
			<path style="fill:#556080;" d="M26.953,0.504C12.32,0.254,0.254,11.914,0.004,26.547C-0.138,34.844,3.56,42.301,9.448,47.26
				c0.385-0.336,0.798-0.644,1.257-0.894l7.907-4.313c1.037-0.566,1.683-1.653,1.683-2.835v-3.24c0,0-2.321-2.776-3.206-6.633
				c-0.734-0.475-1.226-1.296-1.226-2.231v-3.546c0-0.78,0.347-1.477,0.886-1.965v-5.126c0,0-1.053-7.977,9.75-7.977
				s9.75,7.977,9.75,7.977v5.126c0.54,0.488,0.886,1.185,0.886,1.965v3.546c0,1.192-0.8,2.195-1.886,2.53
				c-0.605,1.881-1.478,3.674-2.632,5.304c-0.291,0.411-0.563,0.759-0.801,1.03V39.3c0,1.223,0.691,2.342,1.785,2.888l8.467,4.233
				c0.508,0.254,0.967,0.575,1.39,0.932c5.71-4.762,9.399-11.882,9.536-19.9C53.246,12.82,41.587,0.754,26.953,0.504z"/>
		</g>
	</g>
	<g>
		<circle style="fill:#B1D3EF;" cx="46.5" cy="46" r="12.5"/>
		<g>
			<path style="fill:#556080;" d="M56.193,46.519c-0.55-0.113-1.068,0.246-1.175,0.788c-0.82,4.168-4.402,7.193-8.519,7.193
				c-3.351,0-6.347-2.006-7.789-5H44v-2h-6h-1h-1v8h2v-3.341c1.976,2.657,5.086,4.341,8.5,4.341c5.068,0,9.477-3.704,10.481-8.807
				C57.088,47.151,56.735,46.626,56.193,46.519z"/>
			<path style="fill:#556080;" d="M55,36.498v3.341c-1.976-2.657-5.086-4.341-8.5-4.341c-5.068,0-9.477,3.704-10.481,8.807
				c-0.106,0.542,0.246,1.068,0.788,1.174c0.55,0.113,1.068-0.246,1.175-0.788c0.82-4.168,4.402-7.193,8.519-7.193
				c3.351,0,6.347,2.006,7.789,5H49v2h6h1h1v-8H55z"/>
		</g>
	</g>
</g>
<g>
</g>
<g>
</g>
<g>
</g>
<g>
</g>
<g>
</g>
<g>
</g>
<g>
</g>
<g>
</g>
<g>
</g>
<g>
</g>
<g>
</g>
<g>
</g>
<g>
</g>
<g>
</g>
<g>
</g>
</svg>
