<?xml version="1.0" encoding="iso-8859-1"?>
<!-- Generator: Adobe Illustrator 18.0.0, SVG Export Plug-In . SVG Version: 6.00 Build 0)  -->
<!DOCTYPE svg PUBLIC "-//W3C//DTD SVG 1.1//EN" "http://www.w3.org/Graphics/SVG/1.1/DTD/svg11.dtd">
<svg version="1.1" id="Capa_1" xmlns="http://www.w3.org/2000/svg" xmlns:xlink="http://www.w3.org/1999/xlink" x="0px" y="0px"
	 viewBox="0 0 58 58" style="enable-background:new 0 0 58 58;" xml:space="preserve">
<g>
	<g>
		<path style="fill:#8697CB;" d="M53.566,43.783l-9.552-4.776C42.78,38.39,42,37.128,42,35.748V32
			c0.268-0.305,0.576-0.698,0.904-1.162c1.302-1.838,2.286-3.861,2.969-5.984C47.098,24.477,48,23.345,48,22v-4
			c0-0.88-0.391-1.667-1-2.217V10c0,0,1.187-9-11-9c-12.188,0-11,9-11,9v5.783c-0.609,0.55-1,1.337-1,2.217v4
			c0,1.054,0.554,1.981,1.383,2.517C26.382,28.869,29,32,29,32v3.655c0,1.333-0.728,2.56-1.899,3.198L18.18,43.72
			C15.603,45.125,14,47.826,14,50.761V54h44v-3.043C58,47.919,56.283,45.142,53.566,43.783z"/>
		<path style="fill:#556080;" d="M18.18,43.72l5.946-3.243c-0.034-0.033-0.005-0.043,0.065-0.036l2.91-1.587
			C28.272,38.215,29,36.989,29,35.655V32c0,0-1.062-1.275-2.092-3.323h0c0-0.001-0.001-0.002-0.001-0.003
			c-0.135-0.268-0.268-0.551-0.399-0.844c-0.018-0.041-0.036-0.08-0.054-0.121c-0.133-0.303-0.263-0.616-0.386-0.944
			c-0.008-0.021-0.015-0.044-0.023-0.065c-0.108-0.29-0.209-0.589-0.306-0.896c-0.026-0.084-0.052-0.167-0.077-0.251
			c-0.101-0.338-0.196-0.682-0.278-1.038C24.554,23.981,24,23.054,24,22v-4c0-0.88,0.391-1.667,1-2.217v-5.648
			C23.587,9.039,21.397,8,18,8C8.437,8,8,16,8,16v4.995c-0.526,0.475-1,1.154-1,1.914v3.455c0,0.911,0.479,1.711,1.194,2.174
			C9.057,32.296,11.955,35,11.955,35v3.157c0,1.151-0.629,2.211-1.64,2.762L3.61,45.122C1.385,46.336,0,48.668,0,51.203V54h14
			v-3.239C14,47.826,15.603,45.125,18.18,43.72z"/>
	</g>
	<g>
		<g>
			<path style="fill:#48A0DC;" d="M53.045,46.111C52.994,42.175,49.882,39,46.046,39c-2.568,0-4.806,1.426-6.025,3.546
				c-0.421-0.141-0.87-0.22-1.337-0.22c-2.063,0-3.785,1.492-4.208,3.484c-1.754,0.865-2.975,2.706-2.975,4.831
				c0,2.947,2.343,5.359,5.208,5.359h10.775c0.061,0,0.119-0.007,0.18-0.009c0.06,0.002,0.119,0.009,0.18,0.009h4.31
				C54.818,56,57,53.755,57,51.011C57,48.581,55.288,46.546,53.045,46.111z"/>
			<path style="fill:#B1D3EF;" d="M52.151,57h-4.31c-0.063,0-0.126-0.004-0.188-0.008C47.606,56.996,47.545,57,47.482,57H36.708
				c-3.423,0-6.208-2.853-6.208-6.358c0-2.262,1.209-4.372,3.116-5.503c0.686-2.235,2.746-3.813,5.066-3.813
				c0.296,0,0.592,0.025,0.884,0.076C41.062,39.286,43.48,38,46.046,38c4.102,0,7.524,3.225,7.954,7.332
				c2.358,0.806,4,3.079,4,5.679C58,54.313,55.376,57,52.151,57z M47.614,54.991l0.186,0.006L52.151,55
				C54.273,55,56,53.21,56,51.011c0-1.917-1.323-3.564-3.146-3.919l-0.799-0.155l-0.011-0.813C52.001,42.747,49.311,40,46.046,40
				c-2.135,0-4.063,1.139-5.158,3.045l-0.409,0.711l-0.777-0.261c-0.332-0.112-0.675-0.169-1.019-0.169
				c-1.54,0-2.898,1.133-3.229,2.692l-0.102,0.475l-0.435,0.214c-1.469,0.725-2.417,2.269-2.417,3.935
				c0,2.403,1.888,4.358,4.208,4.358L47.614,54.991z"/>
		</g>
	</g>
</g>
<g>
</g>
<g>
</g>
<g>
</g>
<g>
</g>
<g>
</g>
<g>
</g>
<g>
</g>
<g>
</g>
<g>
</g>
<g>
</g>
<g>
</g>
<g>
</g>
<g>
</g>
<g>
</g>
<g>
</g>
</svg>
