<?xml version="1.0" encoding="iso-8859-1"?>
<!-- Generator: Adobe Illustrator 18.0.0, SVG Export Plug-In . SVG Version: 6.00 Build 0)  -->
<!DOCTYPE svg PUBLIC "-//W3C//DTD SVG 1.1//EN" "http://www.w3.org/Graphics/SVG/1.1/DTD/svg11.dtd">
<svg version="1.1" id="Capa_1" xmlns="http://www.w3.org/2000/svg" xmlns:xlink="http://www.w3.org/1999/xlink" x="0px" y="0px"
	 viewBox="0 0 58 58" style="enable-background:new 0 0 58 58;" xml:space="preserve">
<g>
	<g>
		<path style="fill:#8697CB;" d="M53.566,43.783l-9.552-4.776C42.78,38.39,42,37.128,42,35.748V32
			c0.268-0.305,0.576-0.698,0.904-1.162c1.302-1.838,2.286-3.861,2.969-5.984C47.098,24.477,48,23.345,48,22v-4
			c0-0.88-0.391-1.667-1-2.217V10c0,0,1.187-9-11-9c-12.188,0-11,9-11,9v5.783c-0.609,0.55-1,1.337-1,2.217v4
			c0,1.054,0.554,1.981,1.383,2.517C26.382,28.869,29,32,29,32v3.655c0,1.333-0.728,2.56-1.899,3.198L18.18,43.72
			C15.603,45.125,14,47.826,14,50.761V54h44v-3.043C58,47.919,56.283,45.142,53.566,43.783z"/>
		<path style="fill:#556080;" d="M18.18,43.72l5.946-3.243c-0.034-0.033-0.005-0.043,0.065-0.036l2.91-1.587
			C28.272,38.215,29,36.989,29,35.655V32c0,0-1.062-1.275-2.092-3.323h0c0-0.001-0.001-0.002-0.001-0.003
			c-0.135-0.268-0.268-0.551-0.399-0.844c-0.018-0.041-0.036-0.08-0.054-0.121c-0.133-0.303-0.263-0.616-0.386-0.944
			c-0.008-0.021-0.015-0.044-0.023-0.065c-0.108-0.29-0.209-0.589-0.306-0.896c-0.026-0.084-0.052-0.167-0.077-0.251
			c-0.101-0.338-0.196-0.682-0.278-1.038C24.554,23.981,24,23.054,24,22v-4c0-0.88,0.391-1.667,1-2.217v-5.648
			C23.587,9.039,21.397,8,18,8C8.437,8,8,16,8,16v4.995c-0.526,0.475-1,1.154-1,1.914v3.455c0,0.911,0.479,1.711,1.194,2.174
			C9.057,32.296,11.955,35,11.955,35v3.157c0,1.151-0.629,2.211-1.64,2.762L3.61,45.122C1.385,46.336,0,48.668,0,51.203V54h14
			v-3.239C14,47.826,15.603,45.125,18.18,43.72z"/>
	</g>
	<g>
		<path style="fill:#ED7161;" d="M46,40.2c0.969-2.183,3.109-4.2,5.684-4.2c3.467,0,5.964,2.821,6.278,6.183
			c0,0,0.17,0.835-0.203,2.337c-0.508,2.046-1.701,3.864-3.311,5.251L46,57l-8.447-7.229c-1.61-1.387-2.803-3.205-3.311-5.251
			c-0.373-1.502-0.203-2.337-0.203-2.337C34.352,38.821,36.849,36,40.316,36C42.891,36,45.031,38.017,46,40.2z"/>
	</g>
</g>
<g>
</g>
<g>
</g>
<g>
</g>
<g>
</g>
<g>
</g>
<g>
</g>
<g>
</g>
<g>
</g>
<g>
</g>
<g>
</g>
<g>
</g>
<g>
</g>
<g>
</g>
<g>
</g>
<g>
</g>
</svg>
