<?xml version="1.0" encoding="iso-8859-1"?>
<!-- Generator: Adobe Illustrator 18.0.0, SVG Export Plug-In . SVG Version: 6.00 Build 0)  -->
<!DOCTYPE svg PUBLIC "-//W3C//DTD SVG 1.1//EN" "http://www.w3.org/Graphics/SVG/1.1/DTD/svg11.dtd">
<svg version="1.1" id="Capa_1" xmlns="http://www.w3.org/2000/svg" xmlns:xlink="http://www.w3.org/1999/xlink" x="0px" y="0px"
	 viewBox="0 0 59 59" style="enable-background:new 0 0 59 59;" xml:space="preserve">
<g>
	<g>
		<path style="fill:#ECF0F1;" d="M11.487,45.641l9.113-3.908c0.494-0.247,0.896-1.045,1.179-1.614
			c0.255-0.514-0.126-1.119-0.7-1.119h-6.445c0,0-2.33-0.228-4.127-1c-1.053-0.452-1.415-1.049-0.757-1.986
			c1.925-2.74,5.904-9.192,6.033-15.855c0,0,0.221-10.257,10.34-10.34c5.903,0.049,8.691,3.523,9.99,6.41
			c0.724,1.611,1.035,3.367,1.151,5.129c0.42,6.351,3.654,12.16,5.161,14.642c0.511,0.842,0.264,1.963-0.581,2.469
			C40.458,39.298,38.761,39,38.761,39h-6.488c-0.634,0-0.914,0.886-0.416,1.279c0.406,0.32,0.793,0.609,1.002,0.723l7.58,4.587
			c1.094,0.597,1.967,1.483,2.561,2.529C38.451,51.795,32.664,54,26.359,54c-6.574,0-12.585-2.399-17.216-6.363
			C9.748,46.812,10.537,46.116,11.487,45.641z"/>
		<g>
			<path style="fill:#556080;" d="M26.5,1C11.864,1,0,12.865,0,27.5c0,8.022,3.57,15.206,9.202,20.066
				c0.598-0.793,1.364-1.464,2.286-1.925l9.113-3.908c0.494-0.247,0.896-1.045,1.179-1.614c0.255-0.514-0.126-1.119-0.7-1.119
				h-6.445c0,0-2.33-0.228-4.127-1c-1.053-0.452-1.415-1.049-0.757-1.986c1.925-2.74,5.904-9.192,6.033-15.855
				c0,0,0.221-10.257,10.34-10.34c5.903,0.049,8.691,3.523,9.99,6.41c0.724,1.611,1.035,3.367,1.151,5.129
				c0.42,6.351,3.654,12.16,5.161,14.642c0.511,0.842,0.264,1.963-0.581,2.469C40.458,39.298,38.761,39,38.761,39h-6.488
				c-0.634,0-0.914,0.886-0.416,1.279c0.406,0.32,0.793,0.609,1.002,0.723l7.58,4.587c1.086,0.592,1.952,1.469,2.545,2.505
				c0.026,0.025,0.055,0.048,0.08,0.075C49.117,43.313,53,35.864,53,27.5C53,12.865,41.136,1,26.5,1z"/>
		</g>
	</g>
	<g>
		<circle style="fill:#26B999;" cx="47" cy="46" r="12"/>
		<path style="fill:#FFFFFF;" d="M53.571,40.179c-0.455-0.316-1.077-0.204-1.392,0.25l-5.596,8.04l-3.949-3.242
			c-0.426-0.351-1.057-0.288-1.407,0.139c-0.351,0.427-0.289,1.057,0.139,1.407l4.786,3.929c0.18,0.147,0.404,0.227,0.634,0.227
			c0.045,0,0.091-0.003,0.137-0.009c0.276-0.039,0.524-0.19,0.684-0.419l6.214-8.929C54.136,41.118,54.024,40.495,53.571,40.179z"/>
	</g>
</g>
<g>
</g>
<g>
</g>
<g>
</g>
<g>
</g>
<g>
</g>
<g>
</g>
<g>
</g>
<g>
</g>
<g>
</g>
<g>
</g>
<g>
</g>
<g>
</g>
<g>
</g>
<g>
</g>
<g>
</g>
</svg>
