<?xml version="1.0" encoding="iso-8859-1"?>
<!-- Generator: Adobe Illustrator 18.0.0, SVG Export Plug-In . SVG Version: 6.00 Build 0)  -->
<!DOCTYPE svg PUBLIC "-//W3C//DTD SVG 1.1//EN" "http://www.w3.org/Graphics/SVG/1.1/DTD/svg11.dtd">
<svg version="1.1" id="Capa_1" xmlns="http://www.w3.org/2000/svg" xmlns:xlink="http://www.w3.org/1999/xlink" x="0px" y="0px"
	 viewBox="0 0 59 59" style="enable-background:new 0 0 59 59;" xml:space="preserve">
<g>
	<g>
		<path style="fill:#8697CB;" d="M53.566,44.292l-9.552-4.776C42.78,38.899,42,37.638,42,36.258v-3.748
			c0.268-0.305,0.576-0.698,0.904-1.162c1.302-1.838,2.286-3.861,2.969-5.984C47.098,24.986,48,23.854,48,22.509v-4
			c0-0.88-0.391-1.667-1-2.217v-5.783c0,0,1.187-9-11-9c-12.188,0-11,9-11,9v5.783c-0.609,0.55-1,1.337-1,2.217v4
			c0,1.054,0.554,1.981,1.383,2.517C26.382,29.378,29,32.509,29,32.509v3.655c0,1.333-0.728,2.56-1.899,3.198l-8.921,4.866
			C15.603,45.635,14,48.335,14,51.271v3.239h44v-3.043C58,48.428,56.283,45.651,53.566,44.292z"/>
		<path style="fill:#556080;" d="M18.18,44.229l5.946-3.243c-0.034-0.033-0.005-0.043,0.065-0.036l2.91-1.587
			C28.272,38.725,29,37.498,29,36.165v-3.655c0,0-1.062-1.275-2.092-3.323h0c0-0.001-0.001-0.002-0.001-0.003
			c-0.135-0.268-0.268-0.551-0.399-0.844c-0.018-0.041-0.036-0.08-0.054-0.121c-0.133-0.303-0.263-0.616-0.386-0.944
			c-0.008-0.021-0.015-0.044-0.023-0.065c-0.108-0.29-0.209-0.589-0.306-0.896c-0.026-0.084-0.052-0.167-0.077-0.251
			c-0.101-0.338-0.196-0.682-0.278-1.038C24.554,24.491,24,23.564,24,22.509v-4c0-0.88,0.391-1.667,1-2.217v-5.648
			c-1.413-1.097-3.603-2.136-7-2.136c-9.563,0-10,8-10,8v4.995c-0.526,0.475-1,1.154-1,1.914v3.455c0,0.911,0.479,1.711,1.194,2.174
			c0.863,3.758,3.76,6.463,3.76,6.463v3.157c0,1.151-0.629,2.211-1.64,2.762L3.61,45.631C1.385,46.845,0,49.177,0,51.712v2.797h14
			v-3.239C14,48.335,15.603,45.635,18.18,44.229z"/>
	</g>
	<g>
		<circle style="fill:#D0E8F9;" cx="44.777" cy="42.305" r="9.796"/>
		<path style="fill:#EAF6FD;" d="M48.33,33.184L35.656,45.858c0.706,1.81,1.93,3.357,3.495,4.459l13.638-13.638
			C51.687,35.113,50.14,33.889,48.33,33.184z"/>
		<path style="fill:#B1D3EF;" d="M58.723,55.8l-5.97-6.244c1.746-1.919,2.82-4.458,2.82-7.251c0-5.953-4.843-10.796-10.796-10.796
			s-10.796,4.843-10.796,10.796s4.843,10.796,10.796,10.796c2.442,0,4.689-0.824,6.499-2.196l6.001,6.276
			c0.196,0.206,0.459,0.309,0.723,0.309c0.249,0,0.497-0.092,0.691-0.277C59.09,56.832,59.105,56.199,58.723,55.8z M35.982,42.305
			c0-4.85,3.946-8.796,8.796-8.796s8.796,3.946,8.796,8.796s-3.946,8.796-8.796,8.796S35.982,47.155,35.982,42.305z"/>
	</g>
</g>
<g>
</g>
<g>
</g>
<g>
</g>
<g>
</g>
<g>
</g>
<g>
</g>
<g>
</g>
<g>
</g>
<g>
</g>
<g>
</g>
<g>
</g>
<g>
</g>
<g>
</g>
<g>
</g>
<g>
</g>
</svg>
