<?xml version="1.0" encoding="iso-8859-1"?>
<!-- Generator: Adobe Illustrator 18.0.0, SVG Export Plug-In . SVG Version: 6.00 Build 0)  -->
<!DOCTYPE svg PUBLIC "-//W3C//DTD SVG 1.1//EN" "http://www.w3.org/Graphics/SVG/1.1/DTD/svg11.dtd">
<svg version="1.1" id="Capa_1" xmlns="http://www.w3.org/2000/svg" xmlns:xlink="http://www.w3.org/1999/xlink" x="0px" y="0px"
	 viewBox="0 0 58.27 58.27" style="enable-background:new 0 0 58.27 58.27;" xml:space="preserve">
<g>
	<g>
		<path style="fill:#ECF0F1;" d="M11.487,45.285l9.113-3.908c0.494-0.247,0.896-1.045,1.179-1.614
			c0.255-0.514-0.126-1.119-0.7-1.119h-6.445c0,0-2.33-0.228-4.127-1c-1.053-0.452-1.415-1.049-0.757-1.986
			c1.925-2.74,5.904-9.192,6.033-15.855c0,0,0.221-10.257,10.34-10.34c5.903,0.049,8.691,3.523,9.99,6.41
			c0.724,1.611,1.035,3.367,1.151,5.129c0.42,6.351,3.654,12.16,5.161,14.642c0.511,0.842,0.264,1.963-0.581,2.469
			c-1.387,0.829-3.083,0.531-3.083,0.531h-6.488c-0.634,0-0.914,0.886-0.416,1.279c0.406,0.32,0.793,0.609,1.002,0.723l7.58,4.587
			c1.094,0.597,1.967,1.483,2.561,2.529c-4.549,3.676-10.336,5.882-16.641,5.882c-6.574,0-12.585-2.399-17.216-6.363
			C9.748,46.456,10.537,45.76,11.487,45.285z"/>
		<g>
			<path style="fill:#556080;" d="M26.5,0.644C11.864,0.644,0,12.509,0,27.144C0,35.166,3.57,42.35,9.202,47.21
				c0.598-0.793,1.364-1.464,2.286-1.925l9.113-3.908c0.494-0.247,0.896-1.045,1.179-1.614c0.255-0.514-0.126-1.119-0.7-1.119
				h-6.445c0,0-2.33-0.228-4.127-1c-1.053-0.452-1.415-1.049-0.757-1.986c1.925-2.74,5.904-9.192,6.033-15.855
				c0,0,0.221-10.257,10.34-10.34c5.903,0.049,8.691,3.523,9.99,6.41c0.724,1.611,1.035,3.367,1.151,5.129
				c0.42,6.351,3.654,12.16,5.161,14.642c0.511,0.842,0.264,1.963-0.581,2.469c-1.387,0.829-3.083,0.531-3.083,0.531h-6.488
				c-0.634,0-0.914,0.886-0.416,1.279c0.406,0.32,0.793,0.609,1.002,0.723l7.58,4.587c1.086,0.592,1.952,1.469,2.545,2.505
				c0.026,0.025,0.055,0.048,0.08,0.075C49.117,42.957,53,35.508,53,27.144C53,12.509,41.136,0.644,26.5,0.644z"/>
		</g>
	</g>
	<g>
		<polygon style="fill:#EDDCC7;" points="36.836,48.133 36.828,48.14 34.84,55.43 39.487,50.783 		"/>
		<path style="fill:#D75A4A;" d="M56.086,34.184l-1.247-1.247c-0.775-0.775-2.032-0.775-2.807,0l-3.582,3.582L51.1,39.17
			L56.086,34.184z"/>
		
			<rect x="42.094" y="35.439" transform="matrix(0.7071 0.7071 -0.7071 0.7071 43.744 -18.3051)" style="fill:#F29C21;" width="3.749" height="16.424"/>
		<polygon style="fill:#D6C4B1;" points="42.485,53.797 42.493,53.79 39.487,50.783 34.84,55.43 34.707,55.918 		"/>
		<path style="fill:#A34740;" d="M54.107,42.176l3.582-3.582c0.775-0.775,0.775-2.032,0-2.807l-1.602-1.602L51.1,39.17
			L54.107,42.176z"/>
		
			<rect x="44.671" y="38.268" transform="matrix(-0.7071 -0.7071 0.7071 -0.7071 47.0201 112.4359)" style="fill:#E18C25;" width="4.251" height="16.424"/>
		<path style="fill:#5E5E5E;" d="M34,57.626c-0.256,0-0.512-0.098-0.707-0.293c-0.391-0.391-0.391-1.023,0-1.414l2.207-2.207
			c0.391-0.391,1.023-0.391,1.414,0s0.391,1.023,0,1.414l-2.207,2.207C34.512,57.528,34.256,57.626,34,57.626z"/>
	</g>
</g>
<g>
</g>
<g>
</g>
<g>
</g>
<g>
</g>
<g>
</g>
<g>
</g>
<g>
</g>
<g>
</g>
<g>
</g>
<g>
</g>
<g>
</g>
<g>
</g>
<g>
</g>
<g>
</g>
<g>
</g>
</svg>
