<?xml version="1.0" encoding="iso-8859-1"?>
<!-- Generator: Adobe Illustrator 18.0.0, SVG Export Plug-In . SVG Version: 6.00 Build 0)  -->
<!DOCTYPE svg PUBLIC "-//W3C//DTD SVG 1.1//EN" "http://www.w3.org/Graphics/SVG/1.1/DTD/svg11.dtd">
<svg version="1.1" id="Capa_1" xmlns="http://www.w3.org/2000/svg" xmlns:xlink="http://www.w3.org/1999/xlink" x="0px" y="0px"
	 viewBox="0 0 59.27 59.27" style="enable-background:new 0 0 59.27 59.27;" xml:space="preserve">
<g>
	<g>
		<g>
			<rect x="1" y="3.644" style="fill:#8697CB;" width="56" height="44"/>
			<path style="fill:#535D73;" d="M58,48.644H0v-46h58V48.644z M2,46.644h54v-42H2V46.644z"/>
		</g>
		<polygon style="fill:#FFFFFF;" points="25,32.644 25,25.598 25,18.644 36,25.644 		"/>
		<g>
			<rect x="1" y="3.644" style="fill:#687492;" width="10" height="11"/>
			<path style="fill:#535D73;" d="M12,15.644H0v-13h12V15.644z M2,13.644h8v-9H2V13.644z"/>
		</g>
		<g>
			<rect x="1" y="14.644" style="fill:#687492;" width="10" height="11"/>
			<path style="fill:#535D73;" d="M12,26.644H0v-13h12V26.644z M2,24.644h8v-9H2V24.644z"/>
		</g>
		<g>
			<rect x="1" y="25.644" style="fill:#687492;" width="10" height="11"/>
			<path style="fill:#535D73;" d="M12,37.644H0v-13h12V37.644z M2,35.644h8v-9H2V35.644z"/>
		</g>
		<g>
			<rect x="1" y="36.644" style="fill:#687492;" width="10" height="11"/>
			<path style="fill:#535D73;" d="M12,48.644H0v-13h12V48.644z M2,46.644h8v-9H2V46.644z"/>
		</g>
		<g>
			<rect x="47" y="3.644" style="fill:#687492;" width="10" height="11"/>
			<path style="fill:#535D73;" d="M58,15.644H46v-13h12V15.644z M48,13.644h8v-9h-8V13.644z"/>
		</g>
		<g>
			<rect x="47" y="14.644" style="fill:#687492;" width="10" height="11"/>
			<path style="fill:#535D73;" d="M58,26.644H46v-13h12V26.644z M48,24.644h8v-9h-8V24.644z"/>
		</g>
		<g>
			<rect x="47" y="25.644" style="fill:#687492;" width="10" height="11"/>
			<path style="fill:#535D73;" d="M58,37.644H46v-13h12V37.644z M48,35.644h8v-9h-8V35.644z"/>
		</g>
		<g>
			<rect x="47" y="36.644" style="fill:#687492;" width="10" height="11"/>
			<path style="fill:#535D73;" d="M58,48.644H46v-13h12V48.644z M48,46.644h8v-9h-8V46.644z"/>
		</g>
	</g>
	<g>
		<polygon style="fill:#EDDCC7;" points="37.836,47.133 37.828,47.14 35.84,54.43 40.487,49.783 		"/>
		<path style="fill:#D75A4A;" d="M57.086,33.184l-1.247-1.247c-0.775-0.775-2.032-0.775-2.807,0l-3.582,3.582L52.1,38.17
			L57.086,33.184z"/>
		
			<rect x="43.094" y="34.439" transform="matrix(0.7071 0.7071 -0.7071 0.7071 43.3298 -19.3051)" style="fill:#F29C21;" width="3.749" height="16.424"/>
		<polygon style="fill:#D6C4B1;" points="43.485,52.797 43.493,52.79 40.487,49.783 35.84,54.43 35.707,54.918 		"/>
		<path style="fill:#A34740;" d="M55.107,41.176l3.582-3.582c0.775-0.775,0.775-2.032,0-2.807l-1.602-1.602L52.1,38.17
			L55.107,41.176z"/>
		
			<rect x="45.671" y="37.268" transform="matrix(-0.7071 -0.7071 0.7071 -0.7071 49.4343 111.4359)" style="fill:#E18C25;" width="4.251" height="16.424"/>
		<path style="fill:#5E5E5E;" d="M35,56.626c-0.256,0-0.512-0.098-0.707-0.293c-0.391-0.391-0.391-1.023,0-1.414l2.207-2.207
			c0.391-0.391,1.023-0.391,1.414,0s0.391,1.023,0,1.414l-2.207,2.207C35.512,56.528,35.256,56.626,35,56.626z"/>
	</g>
</g>
<g>
</g>
<g>
</g>
<g>
</g>
<g>
</g>
<g>
</g>
<g>
</g>
<g>
</g>
<g>
</g>
<g>
</g>
<g>
</g>
<g>
</g>
<g>
</g>
<g>
</g>
<g>
</g>
<g>
</g>
</svg>
