<?xml version="1.0" encoding="iso-8859-1"?>
<!-- Generator: Adobe Illustrator 18.0.0, SVG Export Plug-In . SVG Version: 6.00 Build 0)  -->
<!DOCTYPE svg PUBLIC "-//W3C//DTD SVG 1.1//EN" "http://www.w3.org/Graphics/SVG/1.1/DTD/svg11.dtd">
<svg version="1.1" id="Capa_1" xmlns="http://www.w3.org/2000/svg" xmlns:xlink="http://www.w3.org/1999/xlink" x="0px" y="0px"
	 viewBox="0 0 60 60" style="enable-background:new 0 0 60 60;" xml:space="preserve">
<g>
	<g>
		<g>
			<rect x="1" y="4.5" style="fill:#8697CB;" width="56" height="44"/>
			<path style="fill:#535D73;" d="M58,49.5H0v-46h58V49.5z M2,47.5h54v-42H2V47.5z"/>
		</g>
		<polygon style="fill:#FFFFFF;" points="25,33.5 25,26.454 25,19.5 36,26.5 		"/>
		<g>
			<rect x="1" y="4.5" style="fill:#687492;" width="10" height="11"/>
			<path style="fill:#535D73;" d="M12,16.5H0v-13h12V16.5z M2,14.5h8v-9H2V14.5z"/>
		</g>
		<g>
			<rect x="1" y="15.5" style="fill:#687492;" width="10" height="11"/>
			<path style="fill:#535D73;" d="M12,27.5H0v-13h12V27.5z M2,25.5h8v-9H2V25.5z"/>
		</g>
		<g>
			<rect x="1" y="26.5" style="fill:#687492;" width="10" height="11"/>
			<path style="fill:#535D73;" d="M12,38.5H0v-13h12V38.5z M2,36.5h8v-9H2V36.5z"/>
		</g>
		<g>
			<rect x="1" y="37.5" style="fill:#687492;" width="10" height="11"/>
			<path style="fill:#535D73;" d="M12,49.5H0v-13h12V49.5z M2,47.5h8v-9H2V47.5z"/>
		</g>
		<g>
			<rect x="47" y="4.5" style="fill:#687492;" width="10" height="11"/>
			<path style="fill:#535D73;" d="M58,16.5H46v-13h12V16.5z M48,14.5h8v-9h-8V14.5z"/>
		</g>
		<g>
			<rect x="47" y="15.5" style="fill:#687492;" width="10" height="11"/>
			<path style="fill:#535D73;" d="M58,27.5H46v-13h12V27.5z M48,25.5h8v-9h-8V25.5z"/>
		</g>
		<g>
			<rect x="47" y="26.5" style="fill:#687492;" width="10" height="11"/>
			<path style="fill:#535D73;" d="M58,38.5H46v-13h12V38.5z M48,36.5h8v-9h-8V36.5z"/>
		</g>
		<g>
			<rect x="47" y="37.5" style="fill:#687492;" width="10" height="11"/>
			<path style="fill:#535D73;" d="M58,49.5H46v-13h12V49.5z M48,47.5h8v-9h-8V47.5z"/>
		</g>
	</g>
	<g>
		<circle style="fill:#26B999;" cx="48" cy="44.5" r="12"/>
		<path style="fill:#FFFFFF;" d="M54.571,38.679c-0.455-0.316-1.077-0.204-1.392,0.25l-5.596,8.04l-3.949-3.242
			c-0.426-0.351-1.057-0.288-1.407,0.139c-0.351,0.427-0.289,1.057,0.139,1.407l4.786,3.929c0.18,0.147,0.404,0.227,0.634,0.227
			c0.045,0,0.091-0.003,0.137-0.009c0.276-0.039,0.524-0.19,0.684-0.419l6.214-8.929C55.136,39.618,55.024,38.995,54.571,38.679z"/>
	</g>
</g>
<g>
</g>
<g>
</g>
<g>
</g>
<g>
</g>
<g>
</g>
<g>
</g>
<g>
</g>
<g>
</g>
<g>
</g>
<g>
</g>
<g>
</g>
<g>
</g>
<g>
</g>
<g>
</g>
<g>
</g>
</svg>
