<?xml version="1.0" encoding="iso-8859-1"?>
<!-- Generator: Adobe Illustrator 18.0.0, SVG Export Plug-In . SVG Version: 6.00 Build 0)  -->
<!DOCTYPE svg PUBLIC "-//W3C//DTD SVG 1.1//EN" "http://www.w3.org/Graphics/SVG/1.1/DTD/svg11.dtd">
<svg version="1.1" id="Capa_1" xmlns="http://www.w3.org/2000/svg" xmlns:xlink="http://www.w3.org/1999/xlink" x="0px" y="0px"
	 viewBox="0 0 60 60" style="enable-background:new 0 0 60 60;" xml:space="preserve">
<g>
	<g>
		<g>
			<rect x="1" y="4.5" style="fill:#8697CB;" width="56" height="44"/>
			<path style="fill:#535D73;" d="M58,49.5H0v-46h58V49.5z M2,47.5h54v-42H2V47.5z"/>
		</g>
		<polygon style="fill:#FFFFFF;" points="25,33.5 25,26.454 25,19.5 36,26.5 		"/>
		<g>
			<rect x="1" y="4.5" style="fill:#687492;" width="10" height="11"/>
			<path style="fill:#535D73;" d="M12,16.5H0v-13h12V16.5z M2,14.5h8v-9H2V14.5z"/>
		</g>
		<g>
			<rect x="1" y="15.5" style="fill:#687492;" width="10" height="11"/>
			<path style="fill:#535D73;" d="M12,27.5H0v-13h12V27.5z M2,25.5h8v-9H2V25.5z"/>
		</g>
		<g>
			<rect x="1" y="26.5" style="fill:#687492;" width="10" height="11"/>
			<path style="fill:#535D73;" d="M12,38.5H0v-13h12V38.5z M2,36.5h8v-9H2V36.5z"/>
		</g>
		<g>
			<rect x="1" y="37.5" style="fill:#687492;" width="10" height="11"/>
			<path style="fill:#535D73;" d="M12,49.5H0v-13h12V49.5z M2,47.5h8v-9H2V47.5z"/>
		</g>
		<g>
			<rect x="47" y="4.5" style="fill:#687492;" width="10" height="11"/>
			<path style="fill:#535D73;" d="M58,16.5H46v-13h12V16.5z M48,14.5h8v-9h-8V14.5z"/>
		</g>
		<g>
			<rect x="47" y="15.5" style="fill:#687492;" width="10" height="11"/>
			<path style="fill:#535D73;" d="M58,27.5H46v-13h12V27.5z M48,25.5h8v-9h-8V25.5z"/>
		</g>
		<g>
			<rect x="47" y="26.5" style="fill:#687492;" width="10" height="11"/>
			<path style="fill:#535D73;" d="M58,38.5H46v-13h12V38.5z M48,36.5h8v-9h-8V36.5z"/>
		</g>
		<g>
			<rect x="47" y="37.5" style="fill:#687492;" width="10" height="11"/>
			<path style="fill:#535D73;" d="M58,49.5H46v-13h12V49.5z M48,47.5h8v-9h-8V47.5z"/>
		</g>
	</g>
	<g>
		<path style="fill:#B1D3EF;" d="M60,43.346l-1.444-0.278c-2.143-0.412-3.125-2.916-1.835-4.675l0.907-1.236l-1.958-1.958
			l-1.217,0.825c-1.806,1.224-4.272,0.148-4.604-2.008L49.615,32.5h-2.769l-0.359,1.865c-0.403,2.096-2.818,3.096-4.585,1.899
			l-1.572-1.065l-1.958,1.958l0.907,1.236c1.29,1.76,0.308,4.263-1.835,4.675L36,43.346v2.769l1.515,0.233
			c2.157,0.332,3.232,2.797,2.008,4.604l-0.825,1.217l1.958,1.958l1.236-0.907c1.76-1.29,4.263-0.308,4.675,1.835l0.278,1.444h2.769
			l0.164-1.066c0.339-2.204,2.896-3.263,4.694-1.944l0.869,0.638l1.958-1.958l-0.825-1.217c-1.224-1.806-0.148-4.272,2.008-4.604
			L60,46.115V43.346z"/>
		<g>
			<circle style="fill:#FFFFFF;" cx="48" cy="44.5" r="4"/>
			<path style="fill:#ECF0F1;" d="M48,49.5c-2.757,0-5-2.243-5-5s2.243-5,5-5s5,2.243,5,5S50.757,49.5,48,49.5z M48,41.5
				c-1.654,0-3,1.346-3,3s1.346,3,3,3s3-1.346,3-3S49.654,41.5,48,41.5z"/>
		</g>
	</g>
</g>
<g>
</g>
<g>
</g>
<g>
</g>
<g>
</g>
<g>
</g>
<g>
</g>
<g>
</g>
<g>
</g>
<g>
</g>
<g>
</g>
<g>
</g>
<g>
</g>
<g>
</g>
<g>
</g>
<g>
</g>
</svg>
