<?xml version="1.0" encoding="iso-8859-1"?>
<!-- Generator: Adobe Illustrator 18.0.0, SVG Export Plug-In . SVG Version: 6.00 Build 0)  -->
<!DOCTYPE svg PUBLIC "-//W3C//DTD SVG 1.1//EN" "http://www.w3.org/Graphics/SVG/1.1/DTD/svg11.dtd">
<svg version="1.1" id="Capa_1" xmlns="http://www.w3.org/2000/svg" xmlns:xlink="http://www.w3.org/1999/xlink" x="0px" y="0px"
	 viewBox="0 0 60 60" style="enable-background:new 0 0 60 60;" xml:space="preserve">
<g>
	<g>
		<g>
			<rect x="1" y="4.5" style="fill:#8697CB;" width="56" height="44"/>
			<path style="fill:#535D73;" d="M58,49.5H0v-46h58V49.5z M2,47.5h54v-42H2V47.5z"/>
		</g>
		<polygon style="fill:#FFFFFF;" points="25,33.5 25,26.454 25,19.5 36,26.5 		"/>
		<g>
			<rect x="1" y="4.5" style="fill:#687492;" width="10" height="11"/>
			<path style="fill:#535D73;" d="M12,16.5H0v-13h12V16.5z M2,14.5h8v-9H2V14.5z"/>
		</g>
		<g>
			<rect x="1" y="15.5" style="fill:#687492;" width="10" height="11"/>
			<path style="fill:#535D73;" d="M12,27.5H0v-13h12V27.5z M2,25.5h8v-9H2V25.5z"/>
		</g>
		<g>
			<rect x="1" y="26.5" style="fill:#687492;" width="10" height="11"/>
			<path style="fill:#535D73;" d="M12,38.5H0v-13h12V38.5z M2,36.5h8v-9H2V36.5z"/>
		</g>
		<g>
			<rect x="1" y="37.5" style="fill:#687492;" width="10" height="11"/>
			<path style="fill:#535D73;" d="M12,49.5H0v-13h12V49.5z M2,47.5h8v-9H2V47.5z"/>
		</g>
		<g>
			<rect x="47" y="4.5" style="fill:#687492;" width="10" height="11"/>
			<path style="fill:#535D73;" d="M58,16.5H46v-13h12V16.5z M48,14.5h8v-9h-8V14.5z"/>
		</g>
		<g>
			<rect x="47" y="15.5" style="fill:#687492;" width="10" height="11"/>
			<path style="fill:#535D73;" d="M58,27.5H46v-13h12V27.5z M48,25.5h8v-9h-8V25.5z"/>
		</g>
		<g>
			<rect x="47" y="26.5" style="fill:#687492;" width="10" height="11"/>
			<path style="fill:#535D73;" d="M58,38.5H46v-13h12V38.5z M48,36.5h8v-9h-8V36.5z"/>
		</g>
		<g>
			<rect x="47" y="37.5" style="fill:#687492;" width="10" height="11"/>
			<path style="fill:#535D73;" d="M58,49.5H46v-13h12V49.5z M48,47.5h8v-9h-8V47.5z"/>
		</g>
	</g>
	<g>
		<circle style="fill:#ED7161;" cx="48" cy="44.5" r="12"/>
		<path style="fill:#FFFFFF;" d="M49.414,44.5l3.536-3.536c0.391-0.391,0.391-1.023,0-1.414s-1.023-0.391-1.414,0L48,43.086
			l-3.536-3.536c-0.391-0.391-1.023-0.391-1.414,0s-0.391,1.023,0,1.414l3.536,3.536l-3.536,3.536c-0.391,0.391-0.391,1.023,0,1.414
			c0.195,0.195,0.451,0.293,0.707,0.293s0.512-0.098,0.707-0.293L48,45.914l3.536,3.536c0.195,0.195,0.451,0.293,0.707,0.293
			s0.512-0.098,0.707-0.293c0.391-0.391,0.391-1.023,0-1.414L49.414,44.5z"/>
	</g>
</g>
<g>
</g>
<g>
</g>
<g>
</g>
<g>
</g>
<g>
</g>
<g>
</g>
<g>
</g>
<g>
</g>
<g>
</g>
<g>
</g>
<g>
</g>
<g>
</g>
<g>
</g>
<g>
</g>
<g>
</g>
</svg>
