<?xml version="1.0" encoding="iso-8859-1"?>
<!-- Generator: Adobe Illustrator 18.0.0, SVG Export Plug-In . SVG Version: 6.00 Build 0)  -->
<!DOCTYPE svg PUBLIC "-//W3C//DTD SVG 1.1//EN" "http://www.w3.org/Graphics/SVG/1.1/DTD/svg11.dtd">
<svg version="1.1" id="Capa_1" xmlns="http://www.w3.org/2000/svg" xmlns:xlink="http://www.w3.org/1999/xlink" x="0px" y="0px"
	 viewBox="0 0 60 60" style="enable-background:new 0 0 60 60;" xml:space="preserve">
<g>
	<g>
		<g>
			<rect x="1" y="4.009" style="fill:#8697CB;" width="56" height="44"/>
			<path style="fill:#535D73;" d="M58,49.009H0v-46h58V49.009z M2,47.009h54v-42H2V47.009z"/>
		</g>
		<polygon style="fill:#FFFFFF;" points="25,33.009 25,25.963 25,19.009 36,26.009 		"/>
		<g>
			<rect x="1" y="4.009" style="fill:#687492;" width="10" height="11"/>
			<path style="fill:#535D73;" d="M12,16.009H0v-13h12V16.009z M2,14.009h8v-9H2V14.009z"/>
		</g>
		<g>
			<rect x="1" y="15.009" style="fill:#687492;" width="10" height="11"/>
			<path style="fill:#535D73;" d="M12,27.009H0v-13h12V27.009z M2,25.009h8v-9H2V25.009z"/>
		</g>
		<g>
			<rect x="1" y="26.009" style="fill:#687492;" width="10" height="11"/>
			<path style="fill:#535D73;" d="M12,38.009H0v-13h12V38.009z M2,36.009h8v-9H2V36.009z"/>
		</g>
		<g>
			<rect x="1" y="37.009" style="fill:#687492;" width="10" height="11"/>
			<path style="fill:#535D73;" d="M12,49.009H0v-13h12V49.009z M2,47.009h8v-9H2V47.009z"/>
		</g>
		<g>
			<rect x="47" y="4.009" style="fill:#687492;" width="10" height="11"/>
			<path style="fill:#535D73;" d="M58,16.009H46v-13h12V16.009z M48,14.009h8v-9h-8V14.009z"/>
		</g>
		<g>
			<rect x="47" y="15.009" style="fill:#687492;" width="10" height="11"/>
			<path style="fill:#535D73;" d="M58,27.009H46v-13h12V27.009z M48,25.009h8v-9h-8V25.009z"/>
		</g>
		<g>
			<rect x="47" y="26.009" style="fill:#687492;" width="10" height="11"/>
			<path style="fill:#535D73;" d="M58,38.009H46v-13h12V38.009z M48,36.009h8v-9h-8V36.009z"/>
		</g>
		<g>
			<rect x="47" y="37.009" style="fill:#687492;" width="10" height="11"/>
			<path style="fill:#535D73;" d="M58,49.009H46v-13h12V49.009z M48,47.009h8v-9h-8V47.009z"/>
		</g>
	</g>
	<g>
		<path style="fill:#91BAE1;" d="M50,43.991h-2l0,0c-3.633-1.453-6-4.861-6-8.64v-3.36h14v3.36C56,39.129,53.633,42.537,50,43.991
			L50,43.991z"/>
		<path style="fill:#91BAE1;" d="M48,43.991h2l0,0c3.633,1.453,6,4.861,6,8.64v3.36H42v-3.36C42,48.852,44.367,45.444,48,43.991
			L48,43.991z"/>
		<g>
			<path style="fill:#B1D3EF;" d="M39,32.991h1h2h17c0.553,0,1-0.448,1-1s-0.447-1-1-1H42h-2h-1c-0.553,0-1,0.448-1,1
				S38.447,32.991,39,32.991z"/>
			<path style="fill:#B1D3EF;" d="M58.999,54.989h-18c-0.003,0-0.006,0.002-0.01,0.002H39c-0.553,0-1,0.448-1,1s0.447,1,1,1h3
				c0.003,0,0.006-0.002,0.01-0.002h16.989c0.553,0,1-0.448,1-1S59.552,54.989,58.999,54.989z"/>
		</g>
	</g>
</g>
<g>
</g>
<g>
</g>
<g>
</g>
<g>
</g>
<g>
</g>
<g>
</g>
<g>
</g>
<g>
</g>
<g>
</g>
<g>
</g>
<g>
</g>
<g>
</g>
<g>
</g>
<g>
</g>
<g>
</g>
</svg>
