<?xml version="1.0" encoding="iso-8859-1"?>
<!-- Generator: Adobe Illustrator 18.0.0, SVG Export Plug-In . SVG Version: 6.00 Build 0)  -->
<!DOCTYPE svg PUBLIC "-//W3C//DTD SVG 1.1//EN" "http://www.w3.org/Graphics/SVG/1.1/DTD/svg11.dtd">
<svg version="1.1" id="Capa_1" xmlns="http://www.w3.org/2000/svg" xmlns:xlink="http://www.w3.org/1999/xlink" x="0px" y="0px"
	 viewBox="0 0 59.39 59.39" style="enable-background:new 0 0 59.39 59.39;" xml:space="preserve">
<g>
	<g>
		<g>
			<rect x="1" y="3.956" style="fill:#8697CB;" width="56" height="44"/>
			<path style="fill:#535D73;" d="M58,48.956H0v-46h58V48.956z M2,46.956h54v-42H2V46.956z"/>
		</g>
		<polygon style="fill:#FFFFFF;" points="25,32.956 25,25.91 25,18.956 36,25.956 		"/>
		<g>
			<rect x="1" y="3.956" style="fill:#687492;" width="10" height="11"/>
			<path style="fill:#535D73;" d="M12,15.956H0v-13h12V15.956z M2,13.956h8v-9H2V13.956z"/>
		</g>
		<g>
			<rect x="1" y="14.956" style="fill:#687492;" width="10" height="11"/>
			<path style="fill:#535D73;" d="M12,26.956H0v-13h12V26.956z M2,24.956h8v-9H2V24.956z"/>
		</g>
		<g>
			<rect x="1" y="25.956" style="fill:#687492;" width="10" height="11"/>
			<path style="fill:#535D73;" d="M12,37.956H0v-13h12V37.956z M2,35.956h8v-9H2V35.956z"/>
		</g>
		<g>
			<rect x="1" y="36.956" style="fill:#687492;" width="10" height="11"/>
			<path style="fill:#535D73;" d="M12,48.956H0v-13h12V48.956z M2,46.956h8v-9H2V46.956z"/>
		</g>
		<g>
			<rect x="47" y="3.956" style="fill:#687492;" width="10" height="11"/>
			<path style="fill:#535D73;" d="M58,15.956H46v-13h12V15.956z M48,13.956h8v-9h-8V13.956z"/>
		</g>
		<g>
			<rect x="47" y="14.956" style="fill:#687492;" width="10" height="11"/>
			<path style="fill:#535D73;" d="M58,26.956H46v-13h12V26.956z M48,24.956h8v-9h-8V24.956z"/>
		</g>
		<g>
			<rect x="47" y="25.956" style="fill:#687492;" width="10" height="11"/>
			<path style="fill:#535D73;" d="M58,37.956H46v-13h12V37.956z M48,35.956h8v-9h-8V35.956z"/>
		</g>
		<g>
			<rect x="47" y="36.956" style="fill:#687492;" width="10" height="11"/>
			<path style="fill:#535D73;" d="M58,48.956H46v-13h12V48.956z M48,46.956h8v-9h-8V46.956z"/>
		</g>
	</g>
	<g>
		<path style="fill:#FFFFFF;" d="M58.195,47.113l-0.107,0.163c-7.121,10.876-18.773,10.876-25.893,0l0,0l0.107-0.163
			C39.422,36.237,51.074,36.237,58.195,47.113L58.195,47.113z"/>
		<circle style="fill:#556080;" cx="44.958" cy="44.831" r="5.909"/>
		<path style="fill:#B1D3EF;" d="M45.142,56.434c-5.254,0-10.148-3.058-13.783-8.609L31,47.277l0.465-0.711
			c3.635-5.552,8.53-8.609,13.784-8.609c5.253,0,10.148,3.057,13.783,8.609l0.358,0.547l-0.465,0.711
			C55.29,53.376,50.395,56.434,45.142,56.434z M33.398,47.272c3.206,4.624,7.356,7.161,11.744,7.161c4.436,0,8.63-2.594,11.85-7.317
			c-3.206-4.624-7.356-7.161-11.743-7.161C40.812,39.956,36.618,42.55,33.398,47.272z"/>
	</g>
</g>
<g>
</g>
<g>
</g>
<g>
</g>
<g>
</g>
<g>
</g>
<g>
</g>
<g>
</g>
<g>
</g>
<g>
</g>
<g>
</g>
<g>
</g>
<g>
</g>
<g>
</g>
<g>
</g>
<g>
</g>
</svg>
