<?xml version="1.0" encoding="iso-8859-1"?>
<!-- Generator: Adobe Illustrator 18.0.0, SVG Export Plug-In . SVG Version: 6.00 Build 0)  -->
<!DOCTYPE svg PUBLIC "-//W3C//DTD SVG 1.1//EN" "http://www.w3.org/Graphics/SVG/1.1/DTD/svg11.dtd">
<svg version="1.1" id="Capa_1" xmlns="http://www.w3.org/2000/svg" xmlns:xlink="http://www.w3.org/1999/xlink" x="0px" y="0px"
	 viewBox="0 0 60 60" style="enable-background:new 0 0 60 60;" xml:space="preserve">
<g>
	<g>
		<g>
			<rect x="1" y="4" style="fill:#8697CB;" width="56" height="44"/>
			<path style="fill:#535D73;" d="M58,49H0V3h58V49z M2,47h54V5H2V47z"/>
		</g>
		<polygon style="fill:#FFFFFF;" points="25,33 25,25.954 25,19 36,26 		"/>
		<g>
			<rect x="1" y="4" style="fill:#687492;" width="10" height="11"/>
			<path style="fill:#535D73;" d="M12,16H0V3h12V16z M2,14h8V5H2V14z"/>
		</g>
		<g>
			<rect x="1" y="15" style="fill:#687492;" width="10" height="11"/>
			<path style="fill:#535D73;" d="M12,27H0V14h12V27z M2,25h8v-9H2V25z"/>
		</g>
		<g>
			<rect x="1" y="26" style="fill:#687492;" width="10" height="11"/>
			<path style="fill:#535D73;" d="M12,38H0V25h12V38z M2,36h8v-9H2V36z"/>
		</g>
		<g>
			<rect x="1" y="37" style="fill:#687492;" width="10" height="11"/>
			<path style="fill:#535D73;" d="M12,49H0V36h12V49z M2,47h8v-9H2V47z"/>
		</g>
		<g>
			<rect x="47" y="4" style="fill:#687492;" width="10" height="11"/>
			<path style="fill:#535D73;" d="M58,16H46V3h12V16z M48,14h8V5h-8V14z"/>
		</g>
		<g>
			<rect x="47" y="15" style="fill:#687492;" width="10" height="11"/>
			<path style="fill:#535D73;" d="M58,27H46V14h12V27z M48,25h8v-9h-8V25z"/>
		</g>
		<g>
			<rect x="47" y="26" style="fill:#687492;" width="10" height="11"/>
			<path style="fill:#535D73;" d="M58,38H46V25h12V38z M48,36h8v-9h-8V36z"/>
		</g>
		<g>
			<rect x="47" y="37" style="fill:#687492;" width="10" height="11"/>
			<path style="fill:#535D73;" d="M58,49H46V36h12V49z M48,47h8v-9h-8V47z"/>
		</g>
	</g>
	<g>
		<rect x="38" y="35" style="fill:#21AE5E;" width="22" height="22"/>
		<rect x="48" y="36.586" style="fill:#FFFFFF;" width="2" height="16"/>
		<polygon style="fill:#FFFFFF;" points="49,54 42,47.293 43.476,45.879 49,51.172 54.524,45.879 56,47.293 		"/>
	</g>
</g>
<g>
</g>
<g>
</g>
<g>
</g>
<g>
</g>
<g>
</g>
<g>
</g>
<g>
</g>
<g>
</g>
<g>
</g>
<g>
</g>
<g>
</g>
<g>
</g>
<g>
</g>
<g>
</g>
<g>
</g>
</svg>
