<?xml version="1.0" encoding="iso-8859-1"?>
<!-- Generator: Adobe Illustrator 18.0.0, SVG Export Plug-In . SVG Version: 6.00 Build 0)  -->
<!DOCTYPE svg PUBLIC "-//W3C//DTD SVG 1.1//EN" "http://www.w3.org/Graphics/SVG/1.1/DTD/svg11.dtd">
<svg version="1.1" id="Capa_1" xmlns="http://www.w3.org/2000/svg" xmlns:xlink="http://www.w3.org/1999/xlink" x="0px" y="0px"
	 viewBox="0 0 60 60" style="enable-background:new 0 0 60 60;" xml:space="preserve">
<g>
	<g>
		<g>
			<rect x="1" y="4.509" style="fill:#8697CB;" width="56" height="44"/>
			<path style="fill:#535D73;" d="M58,49.509H0v-46h58V49.509z M2,47.509h54v-42H2V47.509z"/>
		</g>
		<polygon style="fill:#FFFFFF;" points="25,33.509 25,26.463 25,19.509 36,26.509 		"/>
		<g>
			<rect x="1" y="4.509" style="fill:#687492;" width="10" height="11"/>
			<path style="fill:#535D73;" d="M12,16.509H0v-13h12V16.509z M2,14.509h8v-9H2V14.509z"/>
		</g>
		<g>
			<rect x="1" y="15.509" style="fill:#687492;" width="10" height="11"/>
			<path style="fill:#535D73;" d="M12,27.509H0v-13h12V27.509z M2,25.509h8v-9H2V25.509z"/>
		</g>
		<g>
			<rect x="1" y="26.509" style="fill:#687492;" width="10" height="11"/>
			<path style="fill:#535D73;" d="M12,38.509H0v-13h12V38.509z M2,36.509h8v-9H2V36.509z"/>
		</g>
		<g>
			<rect x="1" y="37.509" style="fill:#687492;" width="10" height="11"/>
			<path style="fill:#535D73;" d="M12,49.509H0v-13h12V49.509z M2,47.509h8v-9H2V47.509z"/>
		</g>
		<g>
			<rect x="47" y="4.509" style="fill:#687492;" width="10" height="11"/>
			<path style="fill:#535D73;" d="M58,16.509H46v-13h12V16.509z M48,14.509h8v-9h-8V14.509z"/>
		</g>
		<g>
			<rect x="47" y="15.509" style="fill:#687492;" width="10" height="11"/>
			<path style="fill:#535D73;" d="M58,27.509H46v-13h12V27.509z M48,25.509h8v-9h-8V25.509z"/>
		</g>
		<g>
			<rect x="47" y="26.509" style="fill:#687492;" width="10" height="11"/>
			<path style="fill:#535D73;" d="M58,38.509H46v-13h12V38.509z M48,36.509h8v-9h-8V36.509z"/>
		</g>
		<g>
			<rect x="47" y="37.509" style="fill:#687492;" width="10" height="11"/>
			<path style="fill:#535D73;" d="M58,49.509H46v-13h12V49.509z M48,47.509h8v-9h-8V47.509z"/>
		</g>
	</g>
	<g>
		<circle style="fill:#D0E8F9;" cx="45.777" cy="41.305" r="9.796"/>
		<path style="fill:#EAF6FD;" d="M49.33,32.184L36.656,44.858c0.706,1.81,1.93,3.357,3.495,4.459l13.638-13.638
			C52.687,34.113,51.14,32.889,49.33,32.184z"/>
		<path style="fill:#B1D3EF;" d="M59.723,54.8l-5.97-6.244c1.746-1.919,2.82-4.458,2.82-7.251c0-5.953-4.843-10.796-10.796-10.796
			s-10.796,4.843-10.796,10.796s4.843,10.796,10.796,10.796c2.442,0,4.689-0.824,6.499-2.196l6.001,6.276
			c0.196,0.206,0.459,0.309,0.723,0.309c0.249,0,0.497-0.092,0.691-0.277C60.09,55.832,60.105,55.199,59.723,54.8z M36.982,41.305
			c0-4.85,3.946-8.796,8.796-8.796s8.796,3.946,8.796,8.796s-3.946,8.796-8.796,8.796S36.982,46.155,36.982,41.305z"/>
	</g>
</g>
<g>
</g>
<g>
</g>
<g>
</g>
<g>
</g>
<g>
</g>
<g>
</g>
<g>
</g>
<g>
</g>
<g>
</g>
<g>
</g>
<g>
</g>
<g>
</g>
<g>
</g>
<g>
</g>
<g>
</g>
</svg>
