<?xml version="1.0" encoding="iso-8859-1"?>
<!-- Generator: Adobe Illustrator 18.0.0, SVG Export Plug-In . SVG Version: 6.00 Build 0)  -->
<!DOCTYPE svg PUBLIC "-//W3C//DTD SVG 1.1//EN" "http://www.w3.org/Graphics/SVG/1.1/DTD/svg11.dtd">
<svg version="1.1" id="Capa_1" xmlns="http://www.w3.org/2000/svg" xmlns:xlink="http://www.w3.org/1999/xlink" x="0px" y="0px"
	 viewBox="0 0 60 60" style="enable-background:new 0 0 60 60;" xml:space="preserve">
<g>
	<g>
		<g>
			<rect x="1" y="4" style="fill:#8697CB;" width="56" height="44"/>
			<path style="fill:#535D73;" d="M58,49H0V3h58V49z M2,47h54V5H2V47z"/>
		</g>
		<polygon style="fill:#FFFFFF;" points="25,33 25,25.954 25,19 36,26 		"/>
		<g>
			<rect x="1" y="4" style="fill:#687492;" width="10" height="11"/>
			<path style="fill:#535D73;" d="M12,16H0V3h12V16z M2,14h8V5H2V14z"/>
		</g>
		<g>
			<rect x="1" y="15" style="fill:#687492;" width="10" height="11"/>
			<path style="fill:#535D73;" d="M12,27H0V14h12V27z M2,25h8v-9H2V25z"/>
		</g>
		<g>
			<rect x="1" y="26" style="fill:#687492;" width="10" height="11"/>
			<path style="fill:#535D73;" d="M12,38H0V25h12V38z M2,36h8v-9H2V36z"/>
		</g>
		<g>
			<rect x="1" y="37" style="fill:#687492;" width="10" height="11"/>
			<path style="fill:#535D73;" d="M12,49H0V36h12V49z M2,47h8v-9H2V47z"/>
		</g>
		<g>
			<rect x="47" y="4" style="fill:#687492;" width="10" height="11"/>
			<path style="fill:#535D73;" d="M58,16H46V3h12V16z M48,14h8V5h-8V14z"/>
		</g>
		<g>
			<rect x="47" y="15" style="fill:#687492;" width="10" height="11"/>
			<path style="fill:#535D73;" d="M58,27H46V14h12V27z M48,25h8v-9h-8V25z"/>
		</g>
		<g>
			<rect x="47" y="26" style="fill:#687492;" width="10" height="11"/>
			<path style="fill:#535D73;" d="M58,38H46V25h12V38z M48,36h8v-9h-8V36z"/>
		</g>
		<g>
			<rect x="47" y="37" style="fill:#687492;" width="10" height="11"/>
			<path style="fill:#535D73;" d="M58,49H46V36h12V49z M48,47h8v-9h-8V47z"/>
		</g>
	</g>
	<g>
		<circle style="fill:#B1D3EF;" cx="47.5" cy="44.5" r="12.5"/>
		<g>
			<path style="fill:#556080;" d="M57.193,45.019c-0.55-0.113-1.068,0.246-1.175,0.788C55.198,49.975,51.616,53,47.5,53
				c-3.351,0-6.347-2.006-7.789-5H45v-2h-6h-1h-1v8h2v-3.341C40.976,53.315,44.085,55,47.5,55c5.068,0,9.477-3.704,10.481-8.807
				C58.087,45.651,57.735,45.125,57.193,45.019z"/>
			<path style="fill:#556080;" d="M56,34.998v3.341c-1.976-2.657-5.086-4.341-8.5-4.341c-5.068,0-9.477,3.704-10.481,8.807
				c-0.106,0.542,0.246,1.068,0.788,1.174c0.55,0.113,1.068-0.246,1.175-0.788c0.82-4.168,4.402-7.193,8.519-7.193
				c3.351,0,6.347,2.006,7.789,5H50v2h6h1h1v-8H56z"/>
		</g>
	</g>
</g>
<g>
</g>
<g>
</g>
<g>
</g>
<g>
</g>
<g>
</g>
<g>
</g>
<g>
</g>
<g>
</g>
<g>
</g>
<g>
</g>
<g>
</g>
<g>
</g>
<g>
</g>
<g>
</g>
<g>
</g>
</svg>
