<?xml version="1.0" encoding="iso-8859-1"?>
<!-- Generator: Adobe Illustrator 18.0.0, SVG Export Plug-In . SVG Version: 6.00 Build 0)  -->
<!DOCTYPE svg PUBLIC "-//W3C//DTD SVG 1.1//EN" "http://www.w3.org/Graphics/SVG/1.1/DTD/svg11.dtd">
<svg version="1.1" id="Capa_1" xmlns="http://www.w3.org/2000/svg" xmlns:xlink="http://www.w3.org/1999/xlink" x="0px" y="0px"
	 viewBox="0 0 60 60" style="enable-background:new 0 0 60 60;" xml:space="preserve">
<g>
	<g>
		<g>
			<rect x="1" y="4.5" style="fill:#8697CB;" width="56" height="44"/>
			<path style="fill:#535D73;" d="M58,49.5H0v-46h58V49.5z M2,47.5h54v-42H2V47.5z"/>
		</g>
		<polygon style="fill:#FFFFFF;" points="25,33.5 25,26.454 25,19.5 36,26.5 		"/>
		<g>
			<rect x="1" y="4.5" style="fill:#687492;" width="10" height="11"/>
			<path style="fill:#535D73;" d="M12,16.5H0v-13h12V16.5z M2,14.5h8v-9H2V14.5z"/>
		</g>
		<g>
			<rect x="1" y="15.5" style="fill:#687492;" width="10" height="11"/>
			<path style="fill:#535D73;" d="M12,27.5H0v-13h12V27.5z M2,25.5h8v-9H2V25.5z"/>
		</g>
		<g>
			<rect x="1" y="26.5" style="fill:#687492;" width="10" height="11"/>
			<path style="fill:#535D73;" d="M12,38.5H0v-13h12V38.5z M2,36.5h8v-9H2V36.5z"/>
		</g>
		<g>
			<rect x="1" y="37.5" style="fill:#687492;" width="10" height="11"/>
			<path style="fill:#535D73;" d="M12,49.5H0v-13h12V49.5z M2,47.5h8v-9H2V47.5z"/>
		</g>
		<g>
			<rect x="47" y="4.5" style="fill:#687492;" width="10" height="11"/>
			<path style="fill:#535D73;" d="M58,16.5H46v-13h12V16.5z M48,14.5h8v-9h-8V14.5z"/>
		</g>
		<g>
			<rect x="47" y="15.5" style="fill:#687492;" width="10" height="11"/>
			<path style="fill:#535D73;" d="M58,27.5H46v-13h12V27.5z M48,25.5h8v-9h-8V25.5z"/>
		</g>
		<g>
			<rect x="47" y="26.5" style="fill:#687492;" width="10" height="11"/>
			<path style="fill:#535D73;" d="M58,38.5H46v-13h12V38.5z M48,36.5h8v-9h-8V36.5z"/>
		</g>
		<g>
			<rect x="47" y="37.5" style="fill:#687492;" width="10" height="11"/>
			<path style="fill:#535D73;" d="M58,49.5H46v-13h12V49.5z M48,47.5h8v-9h-8V47.5z"/>
		</g>
	</g>
	<g>
		<path style="fill:#EFC41A;" d="M58.761,56.5H35.07c-0.955,0-1.55-1.036-1.069-1.861l11.845-20.306c0.478-0.819,1.66-0.819,2.138,0
			L59.83,54.639C60.311,55.464,59.716,56.5,58.761,56.5z"/>
		<path style="fill:#FFFFFF;" d="M47,49.5c-0.552,0-1-0.448-1-1v-8c0-0.552,0.448-1,1-1s1,0.448,1,1v8
			C48,49.052,47.552,49.5,47,49.5z"/>
		<path style="fill:#FFFFFF;" d="M47,53.5c-0.26,0-0.52-0.11-0.71-0.29C46.11,53.02,46,52.76,46,52.5c0-0.26,0.11-0.52,0.29-0.71
			c0.38-0.37,1.04-0.37,1.42,0C47.89,51.98,48,52.24,48,52.5c0,0.26-0.11,0.52-0.29,0.71C47.52,53.39,47.27,53.5,47,53.5z"/>
	</g>
</g>
<g>
</g>
<g>
</g>
<g>
</g>
<g>
</g>
<g>
</g>
<g>
</g>
<g>
</g>
<g>
</g>
<g>
</g>
<g>
</g>
<g>
</g>
<g>
</g>
<g>
</g>
<g>
</g>
<g>
</g>
</svg>
